<svg width="104" height="104" viewBox="0 0 104 104" fill="none" xmlns="http://www.w3.org/2000/svg">
  <g clip-path="url(#clip0_4497_6001)">
    <rect width="104" height="104" rx="8" fill="#00C9B5" />
    <circle cx="93" cy="87" r="41" fill="#1ED0BF" />
    <path
      d="M60.5 38.3332H53.8333V44.9998C53.8333 45.7332 53.2333 46.3332 52.5 46.3332C51.7666 46.3332 51.1666 45.7332 51.1666 44.9998V38.3332H44.5C43.7666 38.3332 43.1666 37.7332 43.1666 36.9998C43.1666 36.2665 43.7666 35.6665 44.5 35.6665H51.1666V28.9998C51.1666 28.2665 51.7666 27.6665 52.5 27.6665C53.2333 27.6665 53.8333 28.2665 53.8333 28.9998V35.6665H60.5C61.2333 35.6665 61.8333 36.2665 61.8333 36.9998C61.8333 37.7332 61.2333 38.3332 60.5 38.3332Z"
      fill="white" />
    <path
      d="M25.6441 57.5085V56.7273H31.0986V57.5085H28.8117V64H27.931V57.5085H25.6441ZM33.2071 64.1278C32.8615 64.1278 32.5478 64.0627 32.2661 63.9325C31.9843 63.8 31.7606 63.6094 31.5949 63.3608C31.4292 63.1098 31.3463 62.8068 31.3463 62.4517C31.3463 62.1392 31.4079 61.8859 31.531 61.6918C31.6541 61.4953 31.8186 61.3414 32.0246 61.2301C32.2306 61.1188 32.4578 61.036 32.7064 60.9815C32.9574 60.9247 33.2095 60.8797 33.4628 60.8466C33.7942 60.804 34.0629 60.772 34.2689 60.7507C34.4772 60.727 34.6288 60.688 34.7235 60.6335C34.8205 60.5791 34.8691 60.4844 34.8691 60.3494V60.321C34.8691 59.9706 34.7732 59.6984 34.5814 59.5043C34.392 59.3101 34.1044 59.2131 33.7185 59.2131C33.3184 59.2131 33.0047 59.3007 32.7774 59.4759C32.5502 59.651 32.3904 59.8381 32.298 60.0369L31.5026 59.7528C31.6446 59.4214 31.834 59.1634 32.0708 58.9787C32.3099 58.7917 32.5703 58.6615 32.852 58.5881C33.1361 58.5123 33.4155 58.4744 33.6901 58.4744C33.8653 58.4744 34.0665 58.4957 34.2938 58.5384C34.5234 58.5786 34.7448 58.6626 34.9578 58.7905C35.1733 58.9183 35.352 59.1113 35.4941 59.3693C35.6361 59.6274 35.7071 59.973 35.7071 60.4062V64H34.8691V63.2614H34.8264C34.7696 63.3797 34.6749 63.5064 34.5423 63.6413C34.4098 63.7763 34.2334 63.8911 34.0132 63.9858C33.7931 64.0805 33.5244 64.1278 33.2071 64.1278ZM33.335 63.375C33.6664 63.375 33.9458 63.3099 34.173 63.1797C34.4027 63.0495 34.5755 62.8814 34.6915 62.6754C34.8099 62.4695 34.8691 62.2528 34.8691 62.0256V61.2585C34.8335 61.3011 34.7554 61.3402 34.6347 61.3757C34.5163 61.4089 34.379 61.4384 34.2227 61.4645C34.0689 61.4882 33.9185 61.5095 33.7718 61.5284C33.6273 61.545 33.5102 61.5592 33.4202 61.571C33.2024 61.5994 32.9988 61.6456 32.8094 61.7095C32.6224 61.7711 32.4709 61.8646 32.3548 61.9901C32.2412 62.1132 32.1844 62.2812 32.1844 62.4943C32.1844 62.7855 32.2921 63.0057 32.5075 63.1548C32.7253 63.3016 33.0012 63.375 33.335 63.375ZM37.2368 64V58.5455H38.0464V59.3977H38.1175C38.2311 59.1065 38.4146 58.8804 38.6679 58.7195C38.9212 58.5561 39.2254 58.4744 39.5805 58.4744C39.9404 58.4744 40.2398 58.5561 40.479 58.7195C40.7204 58.8804 40.9086 59.1065 41.0436 59.3977H41.1004C41.2401 59.116 41.4496 58.8923 41.729 58.7266C42.0083 58.5585 42.3433 58.4744 42.7339 58.4744C43.2216 58.4744 43.6205 58.6271 43.9307 58.9325C44.2408 59.2356 44.3959 59.7079 44.3959 60.3494V64H43.5578V60.3494C43.5578 59.947 43.4477 59.6593 43.2275 59.4865C43.0074 59.3137 42.7481 59.2273 42.4498 59.2273C42.0663 59.2273 41.7692 59.3433 41.5585 59.5753C41.3478 59.8049 41.2425 60.0961 41.2425 60.4489V64H40.3902V60.2642C40.3902 59.9541 40.2896 59.7043 40.0883 59.5149C39.8871 59.3232 39.6279 59.2273 39.3106 59.2273C39.0928 59.2273 38.8892 59.2853 38.6998 59.4013C38.5128 59.5173 38.3613 59.6783 38.2453 59.8842C38.1317 60.0878 38.0748 60.3234 38.0748 60.5909V64H37.2368ZM46.0418 64V56.7273H46.8799V59.4119H46.9509C47.0125 59.3172 47.0977 59.1965 47.2066 59.0497C47.3179 58.9006 47.4765 58.768 47.6824 58.652C47.8908 58.5336 48.1725 58.4744 48.5276 58.4744C48.9869 58.4744 49.3917 58.5893 49.7421 58.8189C50.0925 59.0485 50.3659 59.3741 50.5624 59.7955C50.7589 60.2169 50.8572 60.714 50.8572 61.2869C50.8572 61.8646 50.7589 62.3653 50.5624 62.7891C50.3659 63.2105 50.0937 63.5372 49.7456 63.7692C49.3976 63.9988 48.9964 64.1136 48.5418 64.1136C48.1914 64.1136 47.9109 64.0556 47.7002 63.9396C47.4895 63.8213 47.3273 63.6875 47.2137 63.5384C47.1001 63.3868 47.0125 63.2614 46.9509 63.1619H46.8515V64H46.0418ZM46.8657 61.2727C46.8657 61.6847 46.926 62.0481 47.0468 62.3629C47.1675 62.6754 47.3439 62.9205 47.5759 63.098C47.8079 63.2732 48.092 63.3608 48.4282 63.3608C48.7786 63.3608 49.0709 63.2685 49.3053 63.0838C49.5421 62.8968 49.7196 62.6458 49.838 62.331C49.9587 62.0137 50.0191 61.661 50.0191 61.2727C50.0191 60.8892 49.9599 60.5436 49.8415 60.2358C49.7255 59.9257 49.5492 59.6806 49.3124 59.5007C49.078 59.3184 48.7833 59.2273 48.4282 59.2273C48.0873 59.2273 47.8008 59.3137 47.5688 59.4865C47.3368 59.657 47.1616 59.8961 47.0432 60.2038C46.9249 60.5092 46.8657 60.8655 46.8657 61.2727ZM53.7442 64.1278C53.3986 64.1278 53.0849 64.0627 52.8032 63.9325C52.5215 63.8 52.2977 63.6094 52.132 63.3608C51.9663 63.1098 51.8834 62.8068 51.8834 62.4517C51.8834 62.1392 51.945 61.8859 52.0681 61.6918C52.1912 61.4953 52.3557 61.3414 52.5617 61.2301C52.7677 61.1188 52.9949 61.036 53.2435 60.9815C53.4945 60.9247 53.7466 60.8797 53.9999 60.8466C54.3314 60.804 54.6001 60.772 54.806 60.7507C55.0144 60.727 55.1659 60.688 55.2606 60.6335C55.3576 60.5791 55.4062 60.4844 55.4062 60.3494V60.321C55.4062 59.9706 55.3103 59.6984 55.1185 59.5043C54.9291 59.3101 54.6415 59.2131 54.2556 59.2131C53.8555 59.2131 53.5418 59.3007 53.3145 59.4759C53.0873 59.651 52.9275 59.8381 52.8351 60.0369L52.0397 59.7528C52.1817 59.4214 52.3711 59.1634 52.6079 58.9787C52.847 58.7917 53.1074 58.6615 53.3891 58.5881C53.6732 58.5123 53.9526 58.4744 54.2272 58.4744C54.4024 58.4744 54.6036 58.4957 54.8309 58.5384C55.0605 58.5786 55.2819 58.6626 55.4949 58.7905C55.7104 58.9183 55.8891 59.1113 56.0312 59.3693C56.1732 59.6274 56.2442 59.973 56.2442 60.4062V64H55.4062V63.2614H55.3635C55.3067 63.3797 55.212 63.5064 55.0795 63.6413C54.9469 63.7763 54.7705 63.8911 54.5503 63.9858C54.3302 64.0805 54.0615 64.1278 53.7442 64.1278ZM53.8721 63.375C54.2035 63.375 54.4829 63.3099 54.7101 63.1797C54.9398 63.0495 55.1126 62.8814 55.2286 62.6754C55.347 62.4695 55.4062 62.2528 55.4062 62.0256V61.2585C55.3706 61.3011 55.2925 61.3402 55.1718 61.3757C55.0534 61.4089 54.9161 61.4384 54.7599 61.4645C54.606 61.4882 54.4556 61.5095 54.3089 61.5284C54.1644 61.545 54.0473 61.5592 53.9573 61.571C53.7395 61.5994 53.5359 61.6456 53.3465 61.7095C53.1595 61.7711 53.008 61.8646 52.892 61.9901C52.7783 62.1132 52.7215 62.2812 52.7215 62.4943C52.7215 62.7855 52.8292 63.0057 53.0447 63.1548C53.2625 63.3016 53.5383 63.375 53.8721 63.375ZM58.6119 60.7188V64H57.7739V56.7273H58.6119V59.3977H58.683C58.8108 59.116 59.0026 58.8923 59.2583 58.7266C59.5163 58.5585 59.8596 58.4744 60.2881 58.4744C60.6598 58.4744 60.9853 58.549 61.2646 58.6982C61.544 58.8449 61.7606 59.071 61.9145 59.3764C62.0708 59.6795 62.1489 60.0653 62.1489 60.5341V64H61.3108V60.5909C61.3108 60.1577 61.1984 59.8227 60.9735 59.5859C60.7509 59.3468 60.442 59.2273 60.0466 59.2273C59.772 59.2273 59.5258 59.2853 59.308 59.4013C59.0925 59.5173 58.9221 59.6866 58.7966 59.9091C58.6735 60.1316 58.6119 60.4015 58.6119 60.7188ZM64.4633 62.0114L64.4491 60.9744H64.6196L67.0059 58.5455H68.0429L65.5003 61.1165H65.4292L64.4633 62.0114ZM63.6821 64V56.7273H64.5202V64H63.6821ZM67.148 64L65.0173 61.3011L65.6139 60.7188L68.2133 64H67.148ZM70.7267 64.1278C70.381 64.1278 70.0673 64.0627 69.7856 63.9325C69.5039 63.8 69.2802 63.6094 69.1144 63.3608C68.9487 63.1098 68.8659 62.8068 68.8659 62.4517C68.8659 62.1392 68.9274 61.8859 69.0505 61.6918C69.1736 61.4953 69.3382 61.3414 69.5441 61.2301C69.7501 61.1188 69.9774 61.036 70.2259 60.9815C70.4769 60.9247 70.729 60.8797 70.9823 60.8466C71.3138 60.804 71.5825 60.772 71.7884 60.7507C71.9968 60.727 72.1483 60.688 72.243 60.6335C72.3401 60.5791 72.3886 60.4844 72.3886 60.3494V60.321C72.3886 59.9706 72.2927 59.6984 72.1009 59.5043C71.9115 59.3101 71.6239 59.2131 71.238 59.2131C70.8379 59.2131 70.5242 59.3007 70.297 59.4759C70.0697 59.651 69.9099 59.8381 69.8176 60.0369L69.0221 59.7528C69.1642 59.4214 69.3535 59.1634 69.5903 58.9787C69.8294 58.7917 70.0898 58.6615 70.3715 58.5881C70.6556 58.5123 70.935 58.4744 71.2096 58.4744C71.3848 58.4744 71.586 58.4957 71.8133 58.5384C72.0429 58.5786 72.2643 58.6626 72.4774 58.7905C72.6928 58.9183 72.8715 59.1113 73.0136 59.3693C73.1556 59.6274 73.2267 59.973 73.2267 60.4062V64H72.3886V63.2614H72.346C72.2892 63.3797 72.1945 63.5064 72.0619 63.6413C71.9293 63.7763 71.7529 63.8911 71.5328 63.9858C71.3126 64.0805 71.0439 64.1278 70.7267 64.1278ZM70.8545 63.375C71.1859 63.375 71.4653 63.3099 71.6926 63.1797C71.9222 63.0495 72.095 62.8814 72.211 62.6754C72.3294 62.4695 72.3886 62.2528 72.3886 62.0256V61.2585C72.3531 61.3011 72.2749 61.3402 72.1542 61.3757C72.0358 61.4089 71.8985 61.4384 71.7423 61.4645C71.5884 61.4882 71.4381 61.5095 71.2913 61.5284C71.1469 61.545 71.0297 61.5592 70.9397 61.571C70.7219 61.5994 70.5183 61.6456 70.3289 61.7095C70.1419 61.7711 69.9904 61.8646 69.8744 61.9901C69.7607 62.1132 69.7039 62.2812 69.7039 62.4943C69.7039 62.7855 69.8116 63.0057 70.0271 63.1548C70.2449 63.3016 70.5207 63.375 70.8545 63.375ZM75.5944 60.7188V64H74.7563V58.5455H75.566V59.3977H75.637C75.7648 59.1207 75.959 58.8982 76.2194 58.7301C76.4798 58.5597 76.816 58.4744 77.2279 58.4744C77.5972 58.4744 77.9204 58.5502 78.1974 58.7017C78.4743 58.8509 78.6898 59.0781 78.8437 59.3835C78.9975 59.6866 79.0745 60.0701 79.0745 60.5341V64H78.2364V60.5909C78.2364 60.1624 78.1251 59.8286 77.9026 59.5895C77.6801 59.348 77.3747 59.2273 76.9864 59.2273C76.7189 59.2273 76.4798 59.2853 76.2691 59.4013C76.0608 59.5173 75.8962 59.6866 75.7755 59.9091C75.6547 60.1316 75.5944 60.4015 75.5944 60.7188ZM27.5457 79V71.7273H31.9065V72.5085H28.4264V74.9659H31.5798V75.7472H28.4264V79H27.5457ZM35.1167 79.1136C34.6243 79.1136 34.1923 78.9964 33.8206 78.7621C33.4513 78.5277 33.1624 78.1998 32.9541 77.7784C32.7481 77.357 32.6452 76.8646 32.6452 76.3011C32.6452 75.733 32.7481 75.237 32.9541 74.8132C33.1624 74.3894 33.4513 74.0604 33.8206 73.826C34.1923 73.5916 34.6243 73.4744 35.1167 73.4744C35.6092 73.4744 36.04 73.5916 36.4094 73.826C36.781 74.0604 37.0699 74.3894 37.2758 74.8132C37.4842 75.237 37.5883 75.733 37.5883 76.3011C37.5883 76.8646 37.4842 77.357 37.2758 77.7784C37.0699 78.1998 36.781 78.5277 36.4094 78.7621C36.04 78.9964 35.6092 79.1136 35.1167 79.1136ZM35.1167 78.3608C35.4908 78.3608 35.7986 78.2649 36.04 78.0732C36.2815 77.8814 36.4603 77.6293 36.5763 77.3168C36.6923 77.0043 36.7503 76.6657 36.7503 76.3011C36.7503 75.9366 36.6923 75.5968 36.5763 75.282C36.4603 74.9671 36.2815 74.7126 36.04 74.5185C35.7986 74.3243 35.4908 74.2273 35.1167 74.2273C34.7427 74.2273 34.4349 74.3243 34.1934 74.5185C33.952 74.7126 33.7732 74.9671 33.6572 75.282C33.5412 75.5968 33.4832 75.9366 33.4832 76.3011C33.4832 76.6657 33.5412 77.0043 33.6572 77.3168C33.7732 77.6293 33.952 77.8814 34.1934 78.0732C34.4349 78.2649 34.7427 78.3608 35.1167 78.3608ZM41.2398 73.5455V74.2557H38.4131V73.5455H41.2398ZM39.2369 72.2386H40.075V77.4375C40.075 77.6742 40.1093 77.8518 40.178 77.9702C40.249 78.0862 40.339 78.1643 40.4479 78.2045C40.5592 78.2424 40.6763 78.2614 40.7994 78.2614C40.8918 78.2614 40.9675 78.2566 41.0267 78.2472C41.0859 78.2353 41.1333 78.2259 41.1688 78.2188L41.3392 78.9716C41.2824 78.9929 41.2031 79.0142 41.1013 79.0355C40.9995 79.0592 40.8705 79.071 40.7142 79.071C40.4775 79.071 40.2455 79.0201 40.0182 78.9183C39.7933 78.8165 39.6063 78.6615 39.4571 78.4531C39.3103 78.2448 39.2369 77.982 39.2369 77.6648V72.2386ZM44.6578 79.1136C44.1653 79.1136 43.7333 78.9964 43.3616 78.7621C42.9923 78.5277 42.7035 78.1998 42.4951 77.7784C42.2892 77.357 42.1862 76.8646 42.1862 76.3011C42.1862 75.733 42.2892 75.237 42.4951 74.8132C42.7035 74.3894 42.9923 74.0604 43.3616 73.826C43.7333 73.5916 44.1653 73.4744 44.6578 73.4744C45.1502 73.4744 45.5811 73.5916 45.9504 73.826C46.3221 74.0604 46.6109 74.3894 46.8169 74.8132C47.0252 75.237 47.1294 75.733 47.1294 76.3011C47.1294 76.8646 47.0252 77.357 46.8169 77.7784C46.6109 78.1998 46.3221 78.5277 45.9504 78.7621C45.5811 78.9964 45.1502 79.1136 44.6578 79.1136ZM44.6578 78.3608C45.0318 78.3608 45.3396 78.2649 45.5811 78.0732C45.8225 77.8814 46.0013 77.6293 46.1173 77.3168C46.2333 77.0043 46.2913 76.6657 46.2913 76.3011C46.2913 75.9366 46.2333 75.5968 46.1173 75.282C46.0013 74.9671 45.8225 74.7126 45.5811 74.5185C45.3396 74.3243 45.0318 74.2273 44.6578 74.2273C44.2837 74.2273 43.9759 74.3243 43.7345 74.5185C43.493 74.7126 43.3142 74.9671 43.1982 75.282C43.0822 75.5968 43.0242 75.9366 43.0242 76.3011C43.0242 76.6657 43.0822 77.0043 43.1982 77.3168C43.3142 77.6293 43.493 77.8814 43.7345 78.0732C43.9759 78.2649 44.2837 78.3608 44.6578 78.3608ZM50.9797 71.3864L48.6359 80.0938H47.8689L50.2126 71.3864H50.9797ZM52.385 71.7273L54.5441 77.8494H54.6294L56.7884 71.7273H57.7117L55.0413 79H54.1322L51.4617 71.7273H52.385ZM58.7309 79V73.5455H59.569V79H58.7309ZM59.157 72.6364C58.9937 72.6364 58.8528 72.5807 58.7345 72.4695C58.6185 72.3582 58.5605 72.2244 58.5605 72.0682C58.5605 71.9119 58.6185 71.7782 58.7345 71.6669C58.8528 71.5556 58.9937 71.5 59.157 71.5C59.3204 71.5 59.4601 71.5556 59.5761 71.6669C59.6945 71.7782 59.7536 71.9119 59.7536 72.0682C59.7536 72.2244 59.6945 72.3582 59.5761 72.4695C59.4601 72.5807 59.3204 72.6364 59.157 72.6364ZM63.1636 79.1136C62.7091 79.1136 62.3078 78.9988 61.9598 78.7692C61.6118 78.5372 61.3395 78.2105 61.143 77.7891C60.9465 77.3653 60.8483 76.8646 60.8483 76.2869C60.8483 75.714 60.9465 75.2169 61.143 74.7955C61.3395 74.3741 61.613 74.0485 61.9633 73.8189C62.3137 73.5893 62.7185 73.4744 63.1778 73.4744C63.5329 73.4744 63.8135 73.5336 64.0194 73.652C64.2278 73.768 64.3864 73.9006 64.4953 74.0497C64.6066 74.1965 64.693 74.3172 64.7545 74.4119H64.8256V71.7273H65.6636V79H64.854V78.1619H64.7545C64.693 78.2614 64.6054 78.3868 64.4917 78.5384C64.3781 78.6875 64.2159 78.8213 64.0052 78.9396C63.7945 79.0556 63.514 79.1136 63.1636 79.1136ZM63.2773 78.3608C63.6134 78.3608 63.8975 78.2732 64.1295 78.098C64.3615 77.9205 64.5379 77.6754 64.6586 77.3629C64.7794 77.0481 64.8398 76.6847 64.8398 76.2727C64.8398 75.8655 64.7806 75.5092 64.6622 75.2038C64.5438 74.8961 64.3686 74.657 64.1366 74.4865C63.9046 74.3137 63.6182 74.2273 63.2773 74.2273C62.9221 74.2273 62.6262 74.3184 62.3895 74.5007C62.1551 74.6806 61.9787 74.9257 61.8604 75.2358C61.7443 75.5436 61.6863 75.8892 61.6863 76.2727C61.6863 76.661 61.7455 77.0137 61.8639 77.331C61.9846 77.6458 62.1622 77.8968 62.3966 78.0838C62.6333 78.2685 62.9269 78.3608 63.2773 78.3608ZM69.6018 79.1136C69.0763 79.1136 68.6229 78.9976 68.2417 78.7656C67.863 78.5312 67.5706 78.2045 67.3646 77.7855C67.161 77.3641 67.0592 76.8741 67.0592 76.3153C67.0592 75.7566 67.161 75.2642 67.3646 74.8381C67.5706 74.4096 67.857 74.0758 68.224 73.8366C68.5933 73.5952 69.0242 73.4744 69.5166 73.4744C69.8007 73.4744 70.0812 73.5218 70.3582 73.6165C70.6352 73.7112 70.8873 73.8651 71.1146 74.0781C71.3419 74.2888 71.523 74.5682 71.6579 74.9162C71.7929 75.2642 71.8604 75.6927 71.8604 76.2017V76.5568H67.6558V75.8324H71.0081C71.0081 75.5246 70.9465 75.25 70.8234 75.0085C70.7027 74.767 70.5299 74.5765 70.305 74.4368C70.0824 74.2971 69.8196 74.2273 69.5166 74.2273C69.1828 74.2273 68.894 74.3101 68.6501 74.4759C68.4086 74.6392 68.2228 74.8523 68.0926 75.1151C67.9624 75.3778 67.8973 75.6596 67.8973 75.9602V76.4432C67.8973 76.8551 67.9683 77.2043 68.1104 77.4908C68.2548 77.7749 68.4548 77.9915 68.7105 78.1406C68.9662 78.2874 69.2633 78.3608 69.6018 78.3608C69.822 78.3608 70.0209 78.33 70.1984 78.2685C70.3783 78.2045 70.5334 78.1098 70.6636 77.9844C70.7938 77.8565 70.8944 77.6979 70.9655 77.5085L71.7751 77.7358C71.6899 78.0104 71.5467 78.2519 71.3454 78.4602C71.1442 78.6662 70.8956 78.8272 70.5997 78.9432C70.3038 79.0568 69.9711 79.1136 69.6018 79.1136ZM75.3511 79.1136C74.8587 79.1136 74.4266 78.9964 74.055 78.7621C73.6856 78.5277 73.3968 78.1998 73.1885 77.7784C72.9825 77.357 72.8795 76.8646 72.8795 76.3011C72.8795 75.733 72.9825 75.237 73.1885 74.8132C73.3968 74.3894 73.6856 74.0604 74.055 73.826C74.4266 73.5916 74.8587 73.4744 75.3511 73.4744C75.8435 73.4744 76.2744 73.5916 76.6437 73.826C77.0154 74.0604 77.3042 74.3894 77.5102 74.8132C77.7185 75.237 77.8227 75.733 77.8227 76.3011C77.8227 76.8646 77.7185 77.357 77.5102 77.7784C77.3042 78.1998 77.0154 78.5277 76.6437 78.7621C76.2744 78.9964 75.8435 79.1136 75.3511 79.1136ZM75.3511 78.3608C75.7252 78.3608 76.0329 78.2649 76.2744 78.0732C76.5159 77.8814 76.6946 77.6293 76.8106 77.3168C76.9266 77.0043 76.9846 76.6657 76.9846 76.3011C76.9846 75.9366 76.9266 75.5968 76.8106 75.282C76.6946 74.9671 76.5159 74.7126 76.2744 74.5185C76.0329 74.3243 75.7252 74.2273 75.3511 74.2273C74.9771 74.2273 74.6693 74.3243 74.4278 74.5185C74.1863 74.7126 74.0076 74.9671 73.8916 75.282C73.7756 75.5968 73.7176 75.9366 73.7176 76.3011C73.7176 76.6657 73.7756 77.0043 73.8916 77.3168C74.0076 77.6293 74.1863 77.8814 74.4278 78.0732C74.6693 78.2649 74.9771 78.3608 75.3511 78.3608Z"
      fill="white" />
    <path
      d="M23.4617 13.9744L17.3315 20.1045L11.2013 13.9743C7.69831 10.4714 7.6983 4.63312 11.2013 1.13015L17.3315 -5.00003L23.4616 1.13016C26.9646 4.63312 27.1106 10.3254 23.4617 13.9744ZM17.4774 14.4122L20.6885 11.2012C22.7319 9.15778 22.7319 5.94672 20.6885 3.90333L17.3315 0.54632L14.1204 3.75737C12.077 5.80076 12.077 9.01182 14.1204 11.0552L17.4774 14.4122Z"
      fill="#28D8C6" />
    <path
      d="M20.2506 17.1855L14.1204 23.3157C10.6174 26.8187 4.77915 26.8187 1.27618 23.3157L-4.854 17.1855L1.27618 11.0554C4.77915 7.5524 10.6174 7.55238 14.1204 11.0553L20.2506 17.1855ZM0.692371 17.1855L3.90342 20.3966C5.94682 22.44 9.15787 22.44 11.2013 20.3966L14.4123 17.1855L11.2013 13.9745C9.15787 11.9311 5.94681 11.9311 3.90342 13.9745L0.692371 17.1855Z"
      fill="#28D8C6" />
    <path
      d="M39.6624 17.3311L33.5322 23.4613C30.0293 26.9642 24.191 26.9642 20.6881 23.4612L14.5579 17.3311L20.688 11.2009C24.191 7.69791 30.0293 7.69791 33.5322 11.2009L39.6624 17.3311ZM20.2502 17.1851L23.4612 20.3961C25.5046 22.4395 28.7157 22.4395 30.7591 20.3961L33.9701 17.1851L30.7591 13.9741C28.7157 11.9307 25.5046 11.9307 23.4612 13.9741L20.2502 17.1851Z"
      fill="#28D8C6" />
    <path
      d="M23.4614 33.5325L17.3312 39.6626L11.201 33.5325C7.69807 30.0295 7.69806 24.1912 11.201 20.6883L17.3312 14.5581L23.4614 20.6883C27.1103 24.0453 27.1103 29.8835 23.4614 33.5325ZM17.3312 33.8244L20.5423 30.6133C22.5857 28.5699 22.5857 25.3589 20.5423 23.3155L17.3312 20.1044L14.1202 23.3155C12.0768 25.3589 12.0768 28.5699 14.1202 30.6133L17.3312 33.8244Z"
      fill="#28D8C6" />
  </g>
  <defs>
    <clipPath id="clip0_4497_6001">
      <rect width="104" height="104" rx="8" fill="white" />
    </clipPath>
  </defs>
</svg>