<svg width="24" height="22" viewBox="0 0 24 22" fill="none" xmlns="http://www.w3.org/2000/svg">
    <path
        d="M2.52087 11.2917V4.63539C2.52087 4.27126 2.78951 3.9639 3.1469 3.89421C4.3974 3.65035 6.35857 3.09602 7.46653 2.17716C7.53366 2.12149 7.59931 2.06675 7.66376 2.01301C8.86538 1.01106 9.6531 0.354248 12 0.354248C14.4729 0.354248 15.6269 1.08341 16.9457 2.17716C18.0451 3.0889 19.6981 3.64174 20.8544 3.88848C21.2105 3.96447 21.4792 4.27126 21.4792 4.63539V11.2917H2.52087Z"
        fill="#009F6C" />
    <path
        d="M3.97925 10.5625V5.2778C3.97925 4.96393 4.21185 4.69953 4.52047 4.64234C5.57907 4.44617 7.22992 4.00326 8.16403 3.27083C8.22084 3.22629 8.27638 3.1825 8.33092 3.13951C9.34768 2.33795 10.0142 1.8125 12.0001 1.8125C14.0925 1.8125 15.0689 2.39583 16.1849 3.27083C17.1114 3.99732 18.5027 4.43898 19.4806 4.63752C19.7882 4.69998 20.0209 4.96393 20.0209 5.2778V10.5625H3.97925Z"
        fill="#21C285" />
    <path
        d="M1.42712 16.396C0.823063 16.396 0.333374 15.9063 0.333374 15.3022V13.1147C0.333374 11.3026 1.80244 9.8335 3.61462 9.8335H20.3855C22.1976 9.8335 23.6667 11.3026 23.6667 13.1147V15.3022C23.6667 15.9063 23.177 16.396 22.573 16.396C21.9689 16.396 21.4792 15.9063 21.4792 15.3022V14.2085C21.4792 13.0004 20.4998 12.021 19.2917 12.021H4.70838C3.50025 12.021 2.52087 13.0004 2.52087 14.2085V15.3022C2.52087 15.9063 2.03119 16.396 1.42712 16.396Z"
        fill="#FCD355" />
    <rect x="1.79175" y="14.2085" width="20.4167" height="5.83333" rx="0.625" fill="#FBB121" />
    <path
        d="M20.7501 14.2085V16.396C20.7501 17.6041 19.7707 18.5835 18.5626 18.5835H2.52091C2.26525 18.5835 2.01982 18.5396 1.79175 18.459V14.9377C1.79175 14.5349 2.11821 14.2085 2.52091 14.2085H20.7501Z"
        fill="#F3C537" />
    <path
        d="M3.25 20.0417H4.70833V20.8751C4.70833 21.2203 4.42851 21.5001 4.08333 21.5001H3.875C3.52982 21.5001 3.25 21.2203 3.25 20.8751V20.0417Z"
        fill="#009F6C" />
    <path
        d="M19.2917 20.0417H20.7501V20.8751C20.7501 21.2203 20.4703 21.5001 20.1251 21.5001H19.9167C19.5716 21.5001 19.2917 21.2203 19.2917 20.8751V20.0417Z"
        fill="#009F6C" />
    <path
        d="M2.52087 12.8542C2.52087 11.9913 3.22043 11.2917 4.08337 11.2917H19.9167C20.7796 11.2917 21.4792 11.9913 21.4792 12.8542V14.2084H2.52087V12.8542Z"
        fill="white" />
    <path fill-rule="evenodd" clip-rule="evenodd"
        d="M20.0172 11.2949C19.9843 11.2928 19.9511 11.2917 19.9177 11.2917H4.08439C3.2575 11.2917 2.58064 11.9341 2.52551 12.747C2.55842 12.749 2.59161 12.7501 2.62503 12.7501H18.4584C19.2852 12.7501 19.9621 12.1078 20.0172 11.2949Z"
        fill="#F9F8F6" />
    <path
        d="M5.4375 6.8125C5.4375 6.46732 5.71732 6.1875 6.0625 6.1875H10.6458C10.991 6.1875 11.2708 6.46732 11.2708 6.8125V9.83333H5.4375V6.8125Z"
        fill="white" />
    <path
        d="M12.7292 6.8125C12.7292 6.46732 13.0091 6.1875 13.3542 6.1875H17.9376C18.2828 6.1875 18.5626 6.46732 18.5626 6.8125V9.83333H12.7292V6.8125Z"
        fill="white" />
    <path
        d="M12.7292 6.8125C12.7292 6.46732 13.0091 6.1875 13.3542 6.1875H17.8334V8.47917C17.8334 8.82434 17.5536 9.10417 17.2084 9.10417H12.7292V6.8125Z"
        fill="#F9F8F6" />
    <path
        d="M5.4375 6.8125C5.4375 6.46732 5.71732 6.1875 6.0625 6.1875H10.5417V8.47917C10.5417 8.82434 10.2618 9.10417 9.91667 9.10417H5.4375V6.8125Z"
        fill="#F9F8F6" />
</svg>