<svg width="360" height="427" viewBox="0 0 360 427" fill="none" xmlns="http://www.w3.org/2000/svg">
  <rect width="360" height="269" fill="#F9F6E9" />
  <g opacity="0.6">
    <path
      d="M304.089 39.8461H285.718V21.4752C285.718 10.5352 294.594 1.65942 305.534 1.65942H323.905V20.0303C323.905 30.9702 315.029 39.8461 304.089 39.8461ZM289.64 35.7178H304.089C312.759 35.7178 319.777 28.6997 319.777 20.0303V5.58129H305.328C296.658 5.58129 289.64 12.5994 289.64 21.2688V35.7178Z"
      fill="#F0E4B5" />
    <path
      d="M289.64 39.8462H271.269C260.329 39.8462 251.453 30.9704 251.453 20.0304V1.65955H269.824C280.764 1.65955 289.64 10.5354 289.64 21.4753V39.8462ZM255.375 5.58142V20.0304C255.375 28.6998 262.393 35.7179 271.062 35.7179H285.511V21.2689C285.511 12.5995 278.493 5.58142 269.824 5.58142H255.375Z"
      fill="#F0E4B5" />
    <path
      d="M323.905 74.1111H305.534C294.594 74.1111 285.718 65.2353 285.718 54.2953V35.9244H304.089C315.029 35.9244 323.905 44.8002 323.905 55.7402V74.1111ZM289.64 39.8463V54.2953C289.64 62.9647 296.658 69.9828 305.328 69.9828H319.777V55.5338C319.777 46.8644 312.759 39.8463 304.089 39.8463H289.64Z"
      fill="#F0E4B5" />
    <path
      d="M269.824 74.1112H251.453V55.7403C251.453 44.8004 260.329 35.9246 271.269 35.9246H289.64V54.2954C289.64 65.2354 280.764 74.1112 269.824 74.1112ZM255.375 69.9829H269.824C278.493 69.9829 285.511 62.9648 285.511 54.2954V39.8464H271.062C262.393 39.8464 255.375 46.8645 255.375 55.5339V69.9829Z"
      fill="#F0E4B5" />
    <path
      d="M287.575 40.6718L274.571 27.6677C270.856 23.9523 268.792 18.9983 268.792 13.6316C268.792 8.2648 270.856 3.31086 274.571 -0.404597L287.575 -13.4087L300.58 -0.404597C304.295 3.31086 306.359 8.2648 306.359 13.6316C306.359 18.9983 304.295 23.9523 300.58 27.6677L287.575 40.6718ZM287.575 -7.83551L277.255 2.4852C274.365 5.375 272.714 9.50329 272.714 13.6316C272.714 17.7599 274.365 21.8881 277.255 24.7779L287.575 35.0986L297.896 24.7779C300.786 21.8881 302.437 17.7599 302.437 13.6316C302.437 9.50329 300.786 5.375 297.896 2.4852L287.575 -7.83551Z"
      fill="#F0E4B5" />
    <path
      d="M263.425 56.5658C258.265 56.5658 253.311 54.7081 249.389 50.7862L236.385 37.7821L249.389 24.778C257.026 17.1407 269.617 17.1407 277.461 24.778L290.465 37.7821L277.461 50.7862C273.539 54.7081 268.379 56.5658 263.425 56.5658ZM241.958 37.7821L252.279 48.1028C258.471 54.2953 268.379 54.2953 274.571 48.1028L284.892 37.7821L274.571 27.4614C268.379 21.269 258.471 21.269 252.279 27.4614L241.958 37.7821Z"
      fill="#F0E4B5" />
    <path
      d="M311.726 56.5657C306.566 56.5657 301.612 54.708 297.69 50.7861L284.686 37.782L297.69 24.7779C301.405 21.0624 306.359 18.9983 311.726 18.9983C317.093 18.9983 322.047 21.0624 325.762 24.7779L338.766 37.782L325.762 50.7861C321.84 54.708 316.886 56.5657 311.726 56.5657ZM290.465 37.782L300.786 48.1027C306.979 54.2951 316.886 54.2951 323.079 48.1027L333.4 37.782L323.079 27.4613C320.189 24.5715 316.061 22.9202 311.932 22.9202C307.804 22.9202 303.676 24.5715 300.786 27.4613L290.465 37.782Z"
      fill="#F0E4B5" />
    <path
      d="M287.575 88.9727L274.571 75.9686C270.856 72.2532 268.792 67.2992 268.792 61.9325C268.792 56.5657 270.856 51.6118 274.571 47.8963L287.575 34.8922L300.58 47.8963C304.295 51.6118 306.359 56.5657 306.359 61.9325C306.359 67.2992 304.295 72.2532 300.58 75.9686L287.575 88.9727ZM287.575 40.6718L277.255 50.9925C274.365 53.8823 272.714 58.0106 272.714 62.1389C272.714 66.2672 274.365 70.3955 277.255 73.2853L287.575 83.606L297.896 73.2853C300.786 70.3955 302.437 66.2672 302.437 62.1389C302.437 58.0106 300.786 53.8823 297.896 50.9925L287.575 40.6718Z"
      fill="#F0E4B5" />
    <path
      d="M386.448 39.8462H368.077C357.137 39.8462 348.261 30.9704 348.261 20.0304V1.65955H366.632C377.572 1.65955 386.448 10.5354 386.448 21.4753V39.8462ZM352.183 5.58142V20.0304C352.183 28.6998 359.201 35.7179 367.871 35.7179H382.32V21.2689C382.32 12.5995 375.302 5.58142 366.632 5.58142H352.183Z"
      fill="#F0E4B5" />
    <path
      d="M366.632 74.1112H348.261V55.7403C348.261 44.8004 357.137 35.9246 368.077 35.9246H386.448V54.2954C386.448 65.2354 377.572 74.1112 366.632 74.1112ZM352.183 69.9829H366.632C375.302 69.9829 382.32 62.9648 382.32 54.2954V39.8464H367.871C359.201 39.8464 352.183 46.8645 352.183 55.5339V69.9829Z"
      fill="#F0E4B5" />
    <path
      d="M360.233 56.5657C355.073 56.5657 350.119 54.708 346.197 50.7861L333.193 37.782L346.197 24.7779C349.912 21.0624 354.866 18.9983 360.233 18.9983C365.6 18.9983 370.554 21.0624 374.269 24.7779L387.273 37.782L374.269 50.7861C370.347 54.708 365.187 56.5657 360.233 56.5657ZM338.766 37.782L349.087 48.1027C355.279 54.2951 365.187 54.2951 371.379 48.1027L381.7 37.782L371.379 27.4613C368.49 24.5715 364.361 22.9202 360.233 22.9202C356.105 22.9202 351.977 24.5715 349.087 27.4613L338.766 37.782Z"
      fill="#F0E4B5" />
    <path
      d="M255.788 5.58097H247.118C242.164 5.58097 238.036 1.45268 238.036 -3.50126V-12.1707H246.706C251.659 -12.1707 255.788 -8.04237 255.788 -3.08843V5.58097ZM241.958 -8.24878V-3.70767C241.958 -0.817873 244.229 1.45268 247.118 1.45268H251.659V-3.08843C251.659 -5.97823 249.389 -8.24878 246.499 -8.24878H241.958Z"
      fill="#F0E4B5" />
    <path
      d="M232.669 5.58109H224V-3.08831C224 -8.04225 228.128 -12.1705 233.082 -12.1705H241.752V-3.50114C241.958 1.4528 237.83 5.58109 232.669 5.58109ZM228.128 1.45281H232.669C235.559 1.45281 237.83 -0.817751 237.83 -3.70755V-8.24866H233.289C230.399 -8.24866 228.128 -5.97811 228.128 -3.08831V1.45281Z"
      fill="#F0E4B5" />
    <path
      d="M351.77 5.58084H343.101C338.147 5.58084 334.019 1.45256 334.019 -3.50138V-12.1708H342.688C347.642 -12.1708 351.77 -8.04249 351.77 -3.08855V5.58084ZM337.941 -8.24891V-3.70779C337.941 -0.817995 340.211 1.45256 343.101 1.45256H347.642V-3.08855C347.642 -5.97835 345.372 -8.24891 342.482 -8.24891H337.941Z"
      fill="#F0E4B5" />
    <path
      d="M328.859 5.58097H320.189V-3.08843C320.189 -8.04237 324.318 -12.1707 329.271 -12.1707H337.941V-3.50126C337.941 1.45268 333.813 5.58097 328.859 5.58097ZM324.111 1.45268H328.652C331.542 1.45268 333.813 -0.817873 333.813 -3.70767V-8.24878H329.271C326.382 -8.24878 324.111 -5.97823 324.111 -3.08843V1.45268Z"
      fill="#F0E4B5" />
    <path
      d="M246.499 88.1465H237.83V79.4771C237.83 74.5232 241.958 70.3949 246.912 70.3949H255.582V79.0643C255.788 84.0182 251.66 88.1465 246.499 88.1465ZM241.958 84.2247H246.499C249.389 84.2247 251.66 81.9541 251.66 79.0643V74.5232H247.119C244.229 74.5232 241.958 76.7937 241.958 79.6835V84.2247Z"
      fill="#F0E4B5" />
    <path
      d="M241.958 88.1466H233.289C228.335 88.1466 224.207 84.0184 224.207 79.0644V70.395H232.876C237.83 70.395 241.958 74.5233 241.958 79.4772V88.1466ZM228.128 74.5233V79.0644C228.128 81.9542 230.399 84.2248 233.289 84.2248H237.83V79.6837C237.83 76.7939 235.559 74.5233 232.67 74.5233H228.128Z"
      fill="#F0E4B5" />
    <path
      d="M255.788 101.976H247.118C242.164 101.976 238.036 97.8481 238.036 92.8941V84.2247H246.706C251.659 84.2247 255.788 88.353 255.788 93.307V101.976ZM241.958 88.1466V92.6877C241.958 95.5775 244.229 97.8481 247.118 97.8481H251.659V93.307C251.659 90.4172 249.389 88.1466 246.499 88.1466H241.958Z"
      fill="#F0E4B5" />
    <path
      d="M232.669 101.976H224V93.307C224 88.353 228.128 84.2247 233.082 84.2247H241.752V92.8941C241.958 97.8481 237.83 101.976 232.669 101.976ZM228.128 98.0545H232.669C235.559 98.0545 237.83 95.7839 237.83 92.8941V88.353H233.289C230.399 88.353 228.128 90.6236 228.128 93.5134V98.0545Z"
      fill="#F0E4B5" />
    <path
      d="M342.688 88.1465H334.019V79.4771C334.019 74.5232 338.147 70.3949 343.101 70.3949H351.77V79.0643C351.77 84.0182 347.642 88.1465 342.688 88.1465ZM337.941 84.2247H342.482C345.372 84.2247 347.642 81.9541 347.642 79.0643V74.5232H343.101C340.211 74.5232 337.941 76.7937 337.941 79.6835V84.2247Z"
      fill="#F0E4B5" />
    <path
      d="M337.941 88.1466H329.271C324.318 88.1466 320.189 84.0184 320.189 79.0644V70.395H328.859C333.813 70.395 337.941 74.5233 337.941 79.4772V88.1466ZM324.111 74.5233V79.0644C324.111 81.9542 326.382 84.2248 329.271 84.2248H333.813V79.6837C333.813 76.7939 331.542 74.5233 328.652 74.5233H324.111Z"
      fill="#F0E4B5" />
    <path
      d="M351.77 101.976H343.101C338.147 101.976 334.019 97.8479 334.019 92.894V84.2246H342.688C347.642 84.2246 351.77 88.3529 351.77 93.3068V101.976ZM337.941 88.1465V92.6876C337.941 95.5774 340.211 97.8479 343.101 97.8479H347.642V93.3068C347.642 90.417 345.372 88.1465 342.482 88.1465H337.941Z"
      fill="#F0E4B5" />
    <path
      d="M328.859 101.976H320.189V93.3068C320.189 88.3529 324.318 84.2246 329.271 84.2246H337.941V92.894C337.941 97.8479 333.813 101.976 328.859 101.976ZM324.111 98.0544H328.652C331.542 98.0544 333.813 95.7838 333.813 92.894V88.3529H329.271C326.382 88.3529 324.111 90.6234 324.111 93.5132V98.0544Z"
      fill="#F0E4B5" />
  </g>
  <rect y="269.437" width="360" height="157" fill="#E8D99C" />
  <path d="M211.422 258.081H202.454V281.701H211.422V258.081Z" fill="#E0CD7E" />
  <path d="M330.354 287.777H320.554V261.462L330.354 264.157V287.777Z" fill="#E0CD7E" />
  <path d="M358.385 280.329H348.633V262.736L358.385 264.549V280.329Z" fill="#E0CD7E" />
  <path d="M339.028 280.329H348.829V262.736L339.028 264.549V280.329Z" fill="#E0CD7E" />
  <path d="M207.894 281.701H198.926V266.657C198.926 264.5 200.69 262.736 202.847 262.736H207.894V281.701Z"
    fill="#E0CD7E" />
  <path d="M193.83 273.468H184.911V258.424C184.911 256.268 186.675 254.504 188.831 254.504H193.879V273.468H193.83Z"
    fill="#E0CD7E" />
  <path
    d="M214.362 280.231H218.969H224.8V247.839L326.434 251.564V258.424L325.209 258.963V260.237V286.503H331.089V257.689V256.415L329.423 257.15V248.231C329.423 248.035 329.227 247.888 329.031 247.888C328.835 247.888 328.639 248.035 328.639 248.231V249.113L327.316 249.309V246.957C327.316 246.761 327.12 246.614 326.924 246.614C326.728 246.614 326.532 246.761 326.532 246.957V249.407L224.898 246.712V243.184L220.488 241.175L216.616 243.184V247.937L214.411 248.28V245.977C214.411 245.781 214.215 245.634 214.019 245.634C213.823 245.634 213.627 245.781 213.627 245.977V250.681H210.834V251.22V252.054V280.28H213.627H214.362V280.231ZM328.639 249.26V251.22L327.316 251.367V249.505L328.639 249.26ZM216.616 248.084V248.525L214.411 248.77V248.427L216.616 248.084ZM214.362 248.917L216.567 248.672V250.632H214.362V248.917ZM224.849 247.692V246.908L326.483 249.603V251.465L224.849 247.692ZM327.316 251.465L328.639 251.318V257.444L327.316 258.032V251.465Z"
    fill="#E0CD7E" />
  <path d="M330.692 291.486L344.266 291.486L344.266 242.678L330.692 242.678L330.692 291.486Z" fill="white" />
  <path d="M331.531 290.668V242.694H330.698V291.502H344.272V290.668H331.531Z" fill="#E9E9E9" />
  <path
    d="M330.599 224.17C331.726 222.896 333.099 223.092 334.814 221.867C336.431 220.691 337.117 219.221 337.46 218.143C337.803 219.221 338.489 220.74 340.106 221.867C341.87 223.141 343.242 222.896 344.369 224.17C345.448 225.395 345.742 227.307 344.663 228.728C343.585 230.1 341.478 230.639 340.449 230.639C339.469 230.639 338.44 230.639 337.46 230.639H337.411C336.431 230.639 335.402 230.639 334.422 230.639C333.393 230.639 331.236 230.1 330.207 228.728C329.129 227.307 329.521 225.395 330.599 224.17Z"
    fill="white" />
  <path
    d="M337.509 218.241C337.509 218.192 337.509 218.192 337.46 218.143C337.411 218.241 337.362 218.388 337.313 218.535C337.411 218.388 337.46 218.339 337.509 218.241Z"
    fill="#E9E9E9" />
  <path
    d="M341.625 228.532C340.645 228.532 339.616 228.532 338.636 228.532H338.587C337.607 228.532 336.578 228.532 335.598 228.532C334.569 228.532 332.413 227.993 331.384 226.621C330.747 225.787 330.6 224.856 330.796 223.925C330.698 223.974 330.649 224.072 330.551 224.17C329.472 225.346 329.129 227.307 330.207 228.728C331.237 230.1 333.393 230.639 334.422 230.639C335.402 230.639 336.431 230.639 337.411 230.639H337.46C338.44 230.639 339.469 230.639 340.449 230.639C341.478 230.639 343.586 230.1 344.664 228.728C345.056 228.238 345.252 227.699 345.301 227.16C344.223 228.14 342.556 228.532 341.625 228.532Z"
    fill="#E9E9E9" />
  <path d="M330.692 241.849L344.266 241.849L344.266 229.647L330.692 229.647L330.692 241.849Z" fill="white" />
  <path d="M331.531 241.028V229.659H330.698V241.861H344.272V241.028H331.531Z" fill="#E9E9E9" />
  <path d="M329.614 230.289L345.295 230.289L345.295 229.26L329.614 229.26L329.614 230.289Z" fill="white" />
  <path d="M329.614 242.826L345.295 242.826L345.295 241.797L329.614 241.797L329.614 242.826Z" fill="white" />
  <path
    d="M334.863 239.165H340.057V234.657C340.057 233.383 339.028 232.305 337.705 232.305H337.166C335.892 232.305 334.814 233.334 334.814 234.657V239.165H334.863Z"
    fill="#2B6060" />
  <path
    d="M359.659 279.398V309.437H224.261C260.671 304.782 283.703 296.549 298.306 289.541C304.971 286.356 321.73 277.731 344.272 277.927C350.789 277.976 356.131 278.761 359.659 279.398Z"
    fill="#BFAF6D" />
  <path d="M272.628 236.813L313.35 248.525V293.364L272.628 292.286V236.813Z" fill="#454A5D" />
  <path d="M272.628 236.813L313.35 248.525V244.213L272.628 232.501V236.813Z" fill="#FABB61" />
  <path d="M272.628 232.501L314.379 244.507V238.97L272.628 226.964V232.501Z" fill="#454A5D" />
  <path d="M272.628 236.813L229.603 242.204V293.364L272.628 292.286V236.813Z" fill="#252935" />
  <path d="M272.628 236.813L229.603 242.204V237.892L272.628 232.501V236.813Z" fill="#C4934C" />
  <path d="M272.628 232.501L228.525 238.185V232.648L272.628 226.964V232.501Z" fill="#252935" />
  <path d="M272.628 271.165V276.654L313.35 284.151V278.663L272.628 271.165Z" fill="#FABB61" />
  <path d="M272.628 271.165L229.603 275.33V280.819L272.628 276.654V271.165Z" fill="#C4934C" />
  <path d="M277.724 240.979V244.605L285.075 246.712V243.086L277.724 240.979Z" fill="#FABB61" />
  <path d="M289.485 244.36V247.937L296.64 249.996V246.418L289.485 244.36Z" fill="#FABB61" />
  <path d="M301.05 247.643V251.27L308.254 253.328V249.75L301.05 247.643Z" fill="#FABB61" />
  <path d="M265.522 240.881V244.507L258.172 245.438V241.812L265.522 240.881Z" fill="#C4934C" />
  <path d="M253.81 242.4V245.977L246.607 246.908V243.282L253.81 242.4Z" fill="#C4934C" />
  <path d="M242.099 243.87V247.447L234.895 248.378V244.752L242.099 243.87Z" fill="#C4934C" />
  <path
    d="M359.659 257.346V227.99C354.155 219.543 347.023 214.558 341.865 211.754C341.346 211.754 340.827 211.789 340.308 211.824C342.523 213.451 344.773 215.424 346.92 217.778C360.317 232.49 359.797 251.634 359.417 257.277C359.52 257.311 359.59 257.311 359.659 257.346Z"
    fill="#FDEFB7" />
  <path
    d="M341.9 212.239C340.377 211.097 337.85 209.573 334.526 209.262C328.434 208.673 322.272 212.308 318.464 218.47C321.96 219.093 323.31 218.505 323.829 217.778C324.245 217.224 324.141 216.636 324.729 216.185C325.664 215.493 326.53 216.359 327.984 215.909C329.368 215.493 329.057 214.558 330.822 213.797C331.515 213.485 332.588 213.001 333.903 213.208C334.561 213.312 335.011 213.555 335.634 213.347C336.292 213.139 336.534 212.62 336.811 212.343C337.4 211.685 338.646 211.27 341.9 212.239Z"
    fill="#FDEFB7" />
  <path
    d="M340.792 212.447C340.827 211.097 341.069 209.02 342.315 207.046C344.635 203.411 349.343 201.542 354.431 202.096C353.254 204.311 352.354 204.796 351.697 204.796C351.212 204.796 350.935 204.485 350.416 204.623C349.62 204.831 349.723 205.696 348.823 206.319C347.992 206.908 347.612 206.354 346.4 206.977C345.95 207.219 345.188 207.635 344.738 208.431C344.496 208.846 344.461 209.193 344.081 209.435C343.665 209.712 343.284 209.643 343.008 209.643C342.454 209.677 341.657 210.231 340.792 212.447Z"
    fill="#FDEFB7" />
  <path
    d="M339.685 212.481C340.515 211.408 341.935 209.92 344.15 209.054C348.201 207.531 353.082 208.846 356.82 212.343C354.57 213.416 353.532 213.278 353.012 212.862C352.632 212.551 352.597 212.135 352.112 211.927C351.351 211.616 350.901 212.377 349.828 212.343C348.789 212.308 348.824 211.616 347.508 211.443C346.989 211.374 346.158 211.235 345.293 211.616C344.843 211.824 344.6 212.066 344.15 212.031C343.666 211.997 343.389 211.685 343.146 211.547C342.662 211.27 341.727 211.235 339.685 212.481Z"
    fill="#FDEFB7" />
  <path
    d="M342.385 211.858C340.515 211.512 337.573 211.339 334.457 212.551C328.78 214.801 324.903 220.859 324.349 228.059C327.741 227.021 328.676 225.913 328.814 224.978C328.918 224.286 328.572 223.836 328.884 223.144C329.403 222.105 330.545 222.451 331.653 221.413C332.692 220.409 331.999 219.716 333.211 218.228C333.695 217.639 334.422 216.705 335.703 216.324C336.361 216.116 336.846 216.116 337.296 215.666C337.78 215.181 337.78 214.593 337.884 214.212C338.092 213.416 339.061 212.481 342.385 211.858Z"
    fill="#FDEFB7" />
  <path
    d="M359.414 309.437H183V270.038C202.798 264.01 217.842 264.942 227.741 266.804C256.751 272.292 260.965 289.345 290.122 292.237C307.127 293.903 313.056 289.737 330.306 293.658C343.488 296.647 353.239 303.802 359.414 309.437Z"
    fill="#E8D99C" />
</svg>