<svg width="16" height="16" viewBox="0 0 16 16" fill="none" xmlns="http://www.w3.org/2000/svg">
    <path
        d="M11.9867 7.19334V9.86001C11.9867 10.0333 11.98 10.2 11.96 10.36C11.8067 12.16 10.7467 13.0533 8.79338 13.0533H8.52671C8.36005 13.0533 8.20004 13.1333 8.10004 13.2667L7.30005 14.3333C6.94672 14.8067 6.37337 14.8067 6.02004 14.3333L5.22003 13.2667C5.13337 13.1533 4.94004 13.0533 4.79338 13.0533H4.52671C2.40005 13.0533 1.33337 12.5267 1.33337 9.86001V7.19334C1.33337 5.24001 2.23338 4.18001 4.02671 4.02667C4.18671 4.00667 4.35338 4 4.52671 4H8.79338C10.92 4 11.9867 5.06667 11.9867 7.19334Z"
        stroke="#292D32" stroke-width="1.5" stroke-miterlimit="10" stroke-linecap="round" stroke-linejoin="round" />
    <path
        d="M14.6533 4.52659V7.19326C14.6533 9.15326 13.7533 10.2066 11.9599 10.3599C11.9799 10.1999 11.9866 10.0333 11.9866 9.85992V7.19326C11.9866 5.06659 10.9199 3.99992 8.79327 3.99992H4.52661C4.35328 3.99992 4.18661 4.00659 4.02661 4.02659C4.17994 2.23326 5.23994 1.33325 7.19328 1.33325H11.4599C13.5866 1.33325 14.6533 2.39992 14.6533 4.52659Z"
        stroke="#292D32" stroke-width="1.5" stroke-miterlimit="10" stroke-linecap="round" stroke-linejoin="round" />
    <path d="M8.99696 8.83333H9.00296" stroke="#292D32" stroke-width="2" stroke-linecap="round"
        stroke-linejoin="round" />
    <path d="M6.66371 8.83333H6.66971" stroke="#292D32" stroke-width="2" stroke-linecap="round"
        stroke-linejoin="round" />
    <path d="M4.33033 8.83333H4.33633" stroke="#292D32" stroke-width="2" stroke-linecap="round"
        stroke-linejoin="round" />
</svg>