<svg width="62" height="62" viewBox="0 0 62 62" fill="none" xmlns="http://www.w3.org/2000/svg">
    <g clip-path="url(#clip0_3373_10174)">
        <path
            d="M31 62C48.1208 62 62 48.1208 62 31C62 13.8792 48.1208 0 31 0C13.8792 0 0 13.8792 0 31C0 48.1208 13.8792 62 31 62Z"
            fill="#00C9B5" />
        <path
            d="M31 62C48.1208 62 62 48.1208 62 31C62 13.8792 48.1208 0 31 0C13.8792 0 0 13.8792 0 31C0 48.1208 13.8792 62 31 62Z"
            fill="url(#paint0_linear_3373_10174)" />
        <path
            d="M7.09998 35.5V41.7H12.2V35.5H7.09998ZM10.6 40.9H8.59998V38.3C8.59998 37.9 8.99998 37.5 9.59998 37.5C10.1 37.5 10.6 37.9 10.6 38.3V40.9Z"
            fill="url(#paint1_linear_3373_10174)" />
        <path
            d="M7.00003 33.8C7.50003 33.4 8.00003 33.4 8.60003 33C9.20003 32.6 9.50003 32 9.60003 31.6C9.60003 31.6 9.60003 31.6 9.60003 31.5C9.60003 31.5 9.60003 31.5 9.60003 31.6C9.70003 32 10 32.6 10.6 33C11.3 33.5 11.8 33.4 12.2 33.9C12.6 34.4 12.7 35.1 12.3 35.6C11.9 36.1 11.1 36.3 10.7 36.3C10.3 36.3 9.90003 36.3 9.60003 36.3C9.20003 36.3 8.80003 36.3 8.50003 36.3C8.10003 36.3 7.30003 36.1 6.90003 35.6C6.50003 35 6.60003 34.3 7.00003 33.8Z"
            fill="url(#paint2_linear_3373_10174)" />
        <path d="M6.70007 35.8H12.6001V35.3H6.70007V35.8Z" fill="url(#paint3_linear_3373_10174)" />
        <path d="M6.70007 42.1001H12.6001V41.6001H6.70007V42.1001Z" fill="url(#paint4_linear_3373_10174)" />
        <path
            d="M43.8 43.6001V51.7001H50.5V43.6001H43.8ZM48.4001 50.7001H45.8V47.3001C45.8 46.7001 46.4 46.3001 47.1 46.3001C47.8 46.3001 48.4001 46.8001 48.4001 47.3001V50.7001Z"
            fill="url(#paint5_linear_3373_10174)" />
        <path
            d="M43.7 41.5C44.3 40.9 44.9 41 45.8 40.4C46.6 39.8 46.9 39.1 47.1 38.6C47.1 38.6 47.1 38.6 47.1 38.5C47.1 38.5 47.1 38.5 47.1 38.6C47.3 39.1 47.6 39.9 48.4 40.4C49.3 41 49.9 40.9 50.5 41.5C51 42.1 51.2 43 50.6 43.7C50.1 44.4 49 44.6 48.5 44.6C48 44.6 47.5 44.6 47 44.6C46.5 44.6 46 44.6 45.5 44.6C45 44.6 43.9 44.3 43.4 43.7C43 43.1 43.2 42.1 43.7 41.5Z"
            fill="url(#paint6_linear_3373_10174)" />
        <path d="M43.3 44.0999H51V43.3999H43.3V44.0999Z" fill="url(#paint7_linear_3373_10174)" />
        <path d="M43.3 52.3001H51V51.6001H43.3V52.3001Z" fill="url(#paint8_linear_3373_10174)" />
        <path
            d="M43.5 50.3999C34.8 51.3999 30.3 56.6999 22.8 60.8999C25.4 61.5999 28.1 61.9999 31 61.9999C40.2001 61.9999 48.5 57.9999 54.2001 51.5999C49.8001 50.1999 46.2001 50.0999 43.5 50.3999Z"
            fill="url(#paint9_linear_3373_10174)" />
        <path
            d="M12 40.1999C9.19998 39.8999 5.69998 39.8999 1.59998 40.5999C5.59998 52.9999 17.2 61.9999 31 61.9999C36.8 61.9999 42.1 60.4 46.8 57.6999C32.6 51.7999 26.3 41.7999 12 40.1999Z"
            fill="url(#paint10_linear_3373_10174)" />
        <path
            d="M43.4001 11.5C40.5001 11.5 38.2001 9.19995 38.2001 6.29995C38.2001 5.29995 38.5001 4.49995 38.9001 3.69995C37.3001 4.59995 36.3 6.29995 36.3 8.19995C36.3 11.1 38.6 13.4 41.5 13.4C43.4 13.4 45.1 12.3 46 10.8C45.3 11.2 44.4001 11.5 43.4001 11.5Z"
            fill="#46F9DF" />
        <path
            d="M6.19995 29.8C6.19995 28.2 4.89995 26.8 3.19995 26.8C4.79995 26.8 6.19995 25.5 6.19995 23.8C6.19995 25.4 7.49995 26.8 9.19995 26.8C7.59995 26.8 6.19995 28.1 6.19995 29.8Z"
            fill="#46F9DF" />
        <path
            d="M50.3 16.1C50.3 15.1 49.5 14.4 48.6 14.4C49.6 14.4 50.3 13.6 50.3 12.7C50.3 13.7 51.1 14.4 52 14.4C51.1 14.4 50.3 15.2 50.3 16.1Z"
            fill="#46F9DF" />
        <path
            d="M31 5.09995C31 4.39995 30.5 3.89995 29.8 3.89995C30.5 3.89995 31 3.39995 31 2.69995C31 3.39995 31.5001 3.89995 32.2001 3.89995C31.5001 3.79995 31 4.39995 31 5.09995Z"
            fill="#46F9DF" />
        <path
            d="M38.9 47.4C38.9 46.7 38.4 46.2 37.7 46.2C38.4 46.2 38.9 45.7 38.9 45C38.9 45.7 39.3999 46.2 40.0999 46.2C39.3999 46.2 38.9 46.7 38.9 47.4Z"
            fill="#46F9DF" />
        <path
            d="M18 38.5001C18 37.8001 17.5 37.3001 16.8 37.3001C17.5 37.3001 18 36.8001 18 36.1001C18 36.8001 18.5001 37.3001 19.2001 37.3001C18.6001 37.2001 18 37.8001 18 38.5001Z"
            fill="#46F9DF" />
        <path
            d="M55 38.6999C55 37.0999 53.7 35.7999 52.1 35.7999C53.7 35.7999 55 34.4999 55 32.8999C55 34.4999 56.3 35.7999 57.9 35.7999C56.3 35.7999 55 37.0999 55 38.6999Z"
            fill="#46F9DF" />
        <circle cx="31" cy="31" r="31" fill="#FEDC26" style="mix-blend-mode:lighten" />
        <path
            d="M39 32.2999H32.2999V39C32.2999 39.7 31.7 40.2999 31 40.2999C30.3 40.2999 29.7 39.7 29.7 39V32.2999H23C22.3 32.2999 21.7 31.7 21.7 31C21.7 30.3 22.3 29.7 23 29.7H29.7V23C29.7 22.3 30.3 21.7 31 21.7C31.7 21.7 32.2999 22.3 32.2999 23V29.7H39C39.7 29.7 40.2999 30.3 40.2999 31C40.2999 31.7 39.7 32.2999 39 32.2999Z"
            fill="#E79531" />
    </g>
    <defs>
        <linearGradient id="paint0_linear_3373_10174" x1="31" y1="54.6025" x2="31" y2="21.2067"
            gradientUnits="userSpaceOnUse">
            <stop stop-color="#04AF9A" />
            <stop offset="0.3789" stop-color="#03B39F" stop-opacity="0.6211" />
            <stop offset="0.7993" stop-color="#01C0AC" stop-opacity="0.2007" />
            <stop offset="1" stop-color="#00C9B5" stop-opacity="0" />
        </linearGradient>
        <linearGradient id="paint1_linear_3373_10174" x1="9.64748" y1="36.4228" x2="9.64748" y2="52.771"
            gradientUnits="userSpaceOnUse">
            <stop stop-color="#46F9DF" />
            <stop offset="1" stop-color="#00C9B5" />
        </linearGradient>
        <linearGradient id="paint2_linear_3373_10174" x1="9.64753" y1="36.4228" x2="9.64753" y2="52.771"
            gradientUnits="userSpaceOnUse">
            <stop stop-color="#46F9DF" />
            <stop offset="1" stop-color="#00C9B5" />
        </linearGradient>
        <linearGradient id="paint3_linear_3373_10174" x1="9.64757" y1="36.4228" x2="9.64757" y2="52.771"
            gradientUnits="userSpaceOnUse">
            <stop stop-color="#46F9DF" />
            <stop offset="1" stop-color="#00C9B5" />
        </linearGradient>
        <linearGradient id="paint4_linear_3373_10174" x1="9.64757" y1="36.4229" x2="9.64757" y2="52.7711"
            gradientUnits="userSpaceOnUse">
            <stop stop-color="#46F9DF" />
            <stop offset="1" stop-color="#00C9B5" />
        </linearGradient>
        <linearGradient id="paint5_linear_3373_10174" x1="47.1271" y1="38.5674" x2="47.1271" y2="67.5649"
            gradientUnits="userSpaceOnUse">
            <stop stop-color="#46F9DF" />
            <stop offset="1" stop-color="#00C9B5" />
        </linearGradient>
        <linearGradient id="paint6_linear_3373_10174" x1="47.1271" y1="38.5673" x2="47.1271" y2="67.5648"
            gradientUnits="userSpaceOnUse">
            <stop stop-color="#46F9DF" />
            <stop offset="1" stop-color="#00C9B5" />
        </linearGradient>
        <linearGradient id="paint7_linear_3373_10174" x1="47.1271" y1="38.5672" x2="47.1271" y2="67.5646"
            gradientUnits="userSpaceOnUse">
            <stop stop-color="#46F9DF" />
            <stop offset="1" stop-color="#00C9B5" />
        </linearGradient>
        <linearGradient id="paint8_linear_3373_10174" x1="47.1271" y1="38.5674" x2="47.1271" y2="67.5649"
            gradientUnits="userSpaceOnUse">
            <stop stop-color="#46F9DF" />
            <stop offset="1" stop-color="#00C9B5" />
        </linearGradient>
        <linearGradient id="paint9_linear_3373_10174" x1="38.5195" y1="38.5672" x2="38.5195" y2="67.5647"
            gradientUnits="userSpaceOnUse">
            <stop stop-color="#46F9DF" />
            <stop offset="1" stop-color="#00C9B5" />
        </linearGradient>
        <linearGradient id="paint10_linear_3373_10174" x1="24.1495" y1="36.4227" x2="24.1495" y2="52.7709"
            gradientUnits="userSpaceOnUse">
            <stop stop-color="#46F9DF" />
            <stop offset="1" stop-color="#00C9B5" />
        </linearGradient>
        <clipPath id="clip0_3373_10174">
            <rect width="62" height="62" fill="white" />
        </clipPath>
    </defs>
</svg>