<svg width="172" height="172" viewBox="0 0 172 172" fill="none" xmlns="http://www.w3.org/2000/svg">
    <path
        d="M143.238 51.4085C143.238 47.6819 140.228 44.6719 136.501 44.6719H46.4876C42.761 44.6719 39.751 47.6819 39.751 51.4085V108.455C39.751 112.182 42.761 115.192 46.4876 115.192H125.894C125.894 125.846 123.362 136.453 118.584 145.961C117.82 147.49 119.779 148.971 121.021 147.776C121.308 147.537 121.594 147.251 121.833 147.012C136.023 133.395 143.715 114.284 143.524 94.5997L143.238 51.4085Z"
        fill="url(#paint0_radial_3606_13575)" />
    <path
        d="M143.429 74.294C140.419 76.0618 137.026 77.1607 133.395 77.4474L137.934 72.9085C138.316 72.5262 138.651 72.144 138.937 71.714C139.463 71.8096 139.989 71.8574 140.514 71.8574H143.429V70.424H140.466C140.227 70.424 139.989 70.424 139.702 70.3762C140.944 67.8918 141.04 64.9296 139.941 62.3974C140.992 62.8274 142.139 63.0662 143.285 63.114V61.6807C141.326 61.5851 139.367 60.8207 137.886 59.2918L133.3 54.7051H139.797C141.04 54.7051 142.186 54.9918 143.237 55.4696V52.4596C142.186 52.9374 141.04 53.224 139.797 53.224H133.3L137.886 48.6374C138.842 47.6818 139.989 47.0129 141.231 46.6307C140.514 45.914 139.606 45.3407 138.603 45.0062C138.221 45.9618 137.647 46.8218 136.883 47.5862L132.296 52.1729V45.6751C132.296 45.3407 132.344 44.9585 132.392 44.624H130.815C130.863 44.9585 130.911 45.2929 130.911 45.6751V52.1729L126.324 47.5862C125.464 46.7262 124.843 45.7229 124.461 44.6718H122.932C123.027 44.9585 123.123 45.2451 123.219 45.5318C120.639 44.4807 117.724 44.5285 115.24 45.7707C115.24 45.5318 115.192 45.2929 115.192 45.0062V44.624H113.759V45.0062C113.759 45.5318 113.806 46.0574 113.902 46.5829C113.472 46.8696 113.09 47.204 112.707 47.5862L108.169 52.1251C108.36 49.4974 109.029 46.9651 110.032 44.6718H108.455C107.309 47.5385 106.64 50.6918 106.64 53.9407C106.64 60.7729 109.411 66.984 113.854 71.5229C113.902 71.6185 113.997 71.6662 114.045 71.714C118.584 76.2051 124.795 78.9285 131.627 78.9285C135.927 78.9285 139.989 77.8296 143.524 75.9185L143.429 74.294ZM132.296 55.7085L136.883 60.2951C139.511 62.9229 139.989 66.9362 138.221 70.0896C134.781 69.134 132.249 65.9329 132.249 62.2062V55.7085H132.296ZM126.229 60.2951L130.815 55.7085V62.2062C130.815 65.9329 128.283 69.0862 124.843 70.0896C123.123 66.984 123.601 62.9707 126.229 60.2951ZM115.431 60.6296C116.386 57.1896 119.587 54.6574 123.314 54.6574H129.812L125.225 59.244C122.55 61.9196 118.536 62.3496 115.431 60.6296ZM125.225 48.6374L129.812 53.224H123.314C119.587 53.224 116.434 50.6918 115.431 47.2518C118.536 45.5318 122.55 45.9618 125.225 48.6374ZM113.663 62.8751V69.2774C110.51 65.5985 108.455 60.9162 108.073 55.804L112.612 60.3429C112.994 60.7251 113.376 61.0596 113.806 61.3462C113.711 61.824 113.663 62.3496 113.663 62.8751ZM113.615 59.2918L108.264 53.9407L113.615 48.5896C113.806 48.3985 113.997 48.2551 114.189 48.1118C115.096 50.7396 117.103 52.8896 119.635 53.9407C117.055 54.9918 115.049 57.1418 114.189 59.7696C113.997 59.6262 113.806 59.4351 113.615 59.2918ZM115.096 62.8751C115.096 62.6362 115.096 62.3974 115.144 62.1107C116.482 62.7796 117.963 63.114 119.396 63.114C120.686 63.114 121.929 62.8751 123.123 62.3496C122.072 64.9296 122.167 67.844 123.362 70.3285C123.123 70.3285 122.884 70.3762 122.597 70.3762H115.049V62.8751H115.096ZM116.243 71.8574H122.645C123.171 71.8574 123.696 71.8096 124.222 71.714C124.509 72.144 124.843 72.5262 125.225 72.9085L129.764 77.4474C124.604 77.0651 119.922 75.0107 116.243 71.8574ZM126.229 71.9051C126.037 71.714 125.894 71.5229 125.751 71.3318C128.379 70.424 130.529 68.4174 131.58 65.8851C132.631 68.4651 134.781 70.4718 137.409 71.3318C137.265 71.5229 137.074 71.714 136.931 71.9051L131.58 77.2562L126.229 71.9051Z"
        fill="url(#paint1_linear_3606_13575)" />
    <path
        d="M64.6432 96.2239C64.5954 96.1284 64.4999 96.0806 64.4521 96.0328C59.9132 91.5417 53.7021 88.8184 46.8699 88.8184C44.3854 88.8184 41.9965 89.2006 39.751 89.8695V91.3984C41.4232 90.8728 43.2388 90.4906 45.0543 90.3473L40.5154 94.8861C40.2288 95.1728 39.9899 95.4595 39.751 95.7939V98.6606C39.8943 98.3261 40.0376 97.9917 40.181 97.705C43.621 98.6606 46.1532 101.862 46.1532 105.588V112.086L41.5665 107.499C40.7543 106.687 40.181 105.779 39.751 104.776V107.882C40.0376 108.073 40.2765 108.312 40.5154 108.551L45.1021 113.137H41.6143C42.1876 113.758 42.8565 114.236 43.621 114.571H45.1021L44.7199 114.953C45.2932 115.096 45.8665 115.192 46.4876 115.192H49.2588L48.6376 114.571H55.1354C56.2343 114.571 57.2854 114.809 58.2888 115.192H61.1076C60.391 114.666 59.6265 114.188 58.8143 113.854C61.3943 112.803 63.401 110.653 64.261 108.025C64.4521 108.168 64.6432 108.359 64.8343 108.503L70.1854 113.854L68.7999 115.144H71.8576C71.9054 114.714 71.9054 114.236 71.9054 113.806C71.9054 106.926 69.1343 100.715 64.6432 96.2239ZM62.1588 95.8895H55.8043C55.2788 95.8895 54.7532 95.9373 54.2276 96.0328C53.941 95.6028 53.6065 95.2206 53.2243 94.8384L48.6854 90.2995C53.7976 90.6817 58.4799 92.7361 62.1588 95.8895ZM41.041 96.415C41.1843 96.2239 41.3754 96.0328 41.5188 95.8417L46.8699 90.4906L52.221 95.8417C52.4121 96.0328 52.5554 96.2239 52.6988 96.415C50.071 97.3228 47.921 99.3295 46.8699 101.862C45.8188 99.3295 43.6688 97.3228 41.041 96.415ZM47.5865 112.038V105.541C47.5865 101.814 50.1188 98.6606 53.5588 97.6572C55.2788 100.763 54.8488 104.776 52.221 107.452L47.5865 112.038ZM55.1354 113.089H48.6376L53.2243 108.503C55.8521 105.875 59.8654 105.397 63.0188 107.165C62.0154 110.557 58.8621 113.089 55.1354 113.089ZM63.3054 104.872C63.3054 105.111 63.3054 105.349 63.2576 105.636C60.7732 104.394 57.811 104.298 55.2788 105.397C56.3299 102.817 56.2343 99.9028 55.0399 97.4184C55.2788 97.4184 55.5176 97.3706 55.8043 97.3706H63.3532V104.872H63.3054ZM65.8376 107.452C65.4554 107.069 65.0732 106.735 64.6432 106.448C64.7388 105.923 64.7865 105.397 64.7865 104.872V98.4695C67.9399 102.148 69.9943 106.831 70.3765 111.943L65.8376 107.452Z"
        fill="url(#paint2_linear_3606_13575)" />
    <path
        d="M143.238 51.4085C143.238 47.6819 140.228 44.6719 136.501 44.6719H46.4876C42.761 44.6719 39.751 47.6819 39.751 51.4085V108.455C39.751 112.182 42.761 115.192 46.4876 115.192H125.894C125.894 125.846 123.362 136.453 118.584 145.961C117.82 147.49 119.779 148.971 121.021 147.776C121.308 147.537 121.594 147.251 121.833 147.012C136.023 133.395 143.715 114.284 143.524 94.5997L143.238 51.4085Z"
        fill="url(#paint3_radial_3606_13575)" />
    <path
        d="M109.985 87.242C109.411 87.242 108.934 87.0509 108.551 86.6209C108.169 86.1909 107.93 85.7131 107.93 85.1876V74.6287C107.93 74.0076 108.121 73.5298 108.551 73.1476C108.981 72.7653 109.459 72.5742 109.985 72.5742H120.544C121.165 72.5742 121.642 72.7653 122.025 73.1476C122.407 73.5298 122.598 74.0553 122.598 74.6287V85.1876C122.598 85.7609 122.407 86.2387 122.025 86.6209C121.642 87.0509 121.117 87.242 120.544 87.242H109.985Z"
        fill="white" />
    <path
        d="M86.3826 87.242C85.8092 87.242 85.3315 87.0509 84.9492 86.6209C84.567 86.1909 84.3281 85.7131 84.3281 85.1876V74.6287C84.3281 74.0076 84.5192 73.5298 84.9492 73.1476C85.3792 72.7653 85.857 72.5742 86.3826 72.5742H96.9415C97.5626 72.5742 98.0403 72.7653 98.4226 73.1476C98.8048 73.5298 98.9959 74.0553 98.9959 74.6287V85.1876C98.9959 85.7609 98.8048 86.2387 98.4226 86.6209C98.0403 87.0509 97.5148 87.242 96.9415 87.242H86.3826Z"
        fill="white" />
    <path
        d="M62.8279 87.242C62.2546 87.242 61.7768 87.0509 61.3946 86.6209C61.0123 86.1909 60.7734 85.7131 60.7734 85.1876V74.6287C60.7734 74.0076 60.9646 73.5298 61.3946 73.1476C61.8246 72.7653 62.3023 72.5742 62.8279 72.5742H73.3868C74.0079 72.5742 74.4857 72.7653 74.8679 73.1476C75.2501 73.5298 75.4412 74.0553 75.4412 74.6287V85.1876C75.4412 85.7609 75.2501 86.2387 74.8679 86.6209C74.4857 87.0509 73.9601 87.242 73.3868 87.242H62.8279Z"
        fill="white" />
    <path
        d="M43.86 67.4143C52.726 67.4143 59.9133 60.227 59.9133 51.361C59.9133 42.4949 52.726 35.3076 43.86 35.3076C34.994 35.3076 27.8066 42.4949 27.8066 51.361C27.8066 60.227 34.994 67.4143 43.86 67.4143Z"
        fill="url(#paint4_linear_3606_13575)" />
    <path
        d="M40.7068 59.6739C39.799 59.3394 39.0824 58.9094 38.4613 58.3361C37.8401 57.7627 37.4101 57.0939 37.0757 56.3294C36.7413 55.565 36.5501 54.705 36.5024 53.845C36.4546 53.415 36.4546 52.8894 36.4546 52.2683C36.4546 51.6472 36.4546 51.0739 36.4546 50.4527C36.4546 49.8316 36.4546 49.3061 36.5024 48.8761C36.5501 47.9683 36.789 47.1561 37.1235 46.3916C37.4579 45.6272 37.9357 44.9583 38.5568 44.4327C39.1779 43.8594 39.8946 43.4294 40.8024 43.095C41.7101 42.7605 42.7135 42.6172 43.8601 42.6172C45.0546 42.6172 46.0579 42.7605 46.9179 43.095C47.7779 43.4294 48.5424 43.8594 49.1635 44.4327C49.7846 45.0061 50.2624 45.675 50.5968 46.3916C50.9313 47.1561 51.1224 47.9683 51.1701 48.8761C51.2179 49.3539 51.2179 49.8794 51.2179 50.4527C51.2179 51.0739 51.2179 51.6472 51.2179 52.2683C51.2179 52.8894 51.1701 53.415 51.1701 53.845C51.1224 54.7527 50.9313 55.565 50.5968 56.3294C50.2624 57.0939 49.8324 57.7627 49.2113 58.3361C48.6379 58.9094 47.8735 59.3394 46.9657 59.6739C46.0579 60.0083 45.0068 60.1516 43.8124 60.1516C42.6179 60.1516 41.6146 59.9605 40.7068 59.6739ZM45.2457 55.3261C45.5324 54.8961 45.6757 54.3705 45.7235 53.6539C45.7235 53.1761 45.7713 52.6505 45.7713 52.125C45.7713 51.5516 45.7713 51.0261 45.7713 50.4527C45.7713 49.8794 45.7713 49.4016 45.7235 48.9716C45.6757 48.3027 45.5324 47.7772 45.2457 47.3472C44.959 46.9172 44.4813 46.6783 43.8124 46.6783C43.1435 46.6783 42.6657 46.9172 42.379 47.3472C42.0924 47.7772 41.949 48.3027 41.949 48.9716C41.9013 49.4016 41.9013 49.9272 41.9013 50.4527C41.9013 51.0261 41.9013 51.5516 41.9013 52.125C41.9013 52.6983 41.9013 53.1761 41.949 53.6539C41.949 54.3227 42.1401 54.8961 42.4268 55.3261C42.7135 55.7561 43.1913 55.9472 43.8601 55.9472C44.4813 55.9472 44.959 55.7561 45.2457 55.3261Z"
        fill="url(#paint5_linear_3606_13575)" />
    <path
        d="M45.7712 129.048C45.7712 127.758 44.7679 126.755 43.4779 126.755H12.8046C11.5146 126.755 10.5112 127.758 10.5112 129.048V148.494C10.5112 149.784 11.5146 150.787 12.8046 150.787H39.8468C39.8468 154.418 38.9868 158.049 37.3623 161.298C37.0757 161.824 37.7923 162.302 38.2223 161.919C38.3179 161.824 38.4135 161.728 38.509 161.633C43.3346 156.998 45.9623 150.5 45.9146 143.764L45.7712 129.048Z"
        fill="#EAF0F9" />
    <path
        d="M161.537 11.849C161.537 10.559 160.534 9.55566 159.244 9.55566H128.57C127.28 9.55566 126.277 10.559 126.277 11.849V31.2945C126.277 32.5846 127.28 33.5879 128.57 33.5879H155.612C155.612 37.219 154.752 40.8501 153.128 44.099C152.841 44.6245 153.558 45.1023 153.988 44.7201C154.084 44.6245 154.179 44.529 154.275 44.4334C159.1 39.799 161.728 33.3012 161.68 26.5646L161.537 11.849Z"
        fill="#EAF0F9" />
    <path
        d="M45.7235 129.43C41.8535 129.86 38.1268 128.045 35.2124 125.608C33.8268 124.413 32.3935 122.98 31.8202 121.212C31.3424 119.731 31.5335 117.82 32.8713 116.817C33.8268 116.1 35.5946 116.196 36.2635 117.295C37.0279 118.585 35.8813 120.113 34.7346 120.639C32.9668 121.451 30.769 120.496 29.1924 119.588C27.6635 118.728 26.2302 117.725 24.8924 116.578C22.3602 114.332 20.2579 111.418 19.4457 108.073C19.3502 107.643 19.2546 107.213 19.2068 106.783C19.1113 106.067 18.0124 106.258 18.1079 106.975C18.6813 110.845 20.879 114.285 23.6979 116.96C25.1313 118.298 26.7079 119.445 28.4279 120.4C30.339 121.499 32.7279 122.55 34.9257 121.738C36.5502 121.165 37.9357 119.397 37.6013 117.581C37.2668 115.813 35.3079 114.953 33.6357 115.288C31.6768 115.67 30.5779 117.533 30.4824 119.397C30.3868 121.547 31.5335 123.458 32.9668 124.939C35.8813 128.045 39.9902 130.481 44.2902 130.577C44.8157 130.577 45.389 130.577 45.9146 130.481C46.6313 130.433 46.4402 129.335 45.7235 129.43Z"
        fill="#D6DCE8" />
    <path
        d="M56.3301 131.867C57.0468 127.854 61.6335 124.987 65.5513 126.134C67.3668 126.659 68.8479 127.854 70.2813 129.144C72.8613 131.485 75.1546 134.113 77.9735 136.119C79.9801 137.553 82.369 138.651 84.8057 138.89C85.8568 138.986 86.3346 140.276 85.5224 141.04C81.8913 144.528 77.3524 147.156 72.4313 147.968C66.459 148.971 59.8179 146.965 56.0913 142.187C55.0401 140.849 54.2279 139.225 54.0846 137.505C53.9413 135.45 54.849 133.348 56.4735 132.106L56.3301 131.867Z"
        fill="url(#paint6_linear_3606_13575)" />
    <path
        d="M60.63 132.966C61.7289 135.164 62.35 137.6 62.4456 139.941C62.4456 140.18 62.1589 140.228 62.1111 139.989C61.49 137.744 60.4389 135.689 59.0534 133.969C59.0056 133.874 59.0056 133.778 59.1011 133.73L60.3911 132.918C60.4867 132.87 60.5822 132.87 60.63 132.966Z"
        fill="#F1F3FA" />
    <path
        d="M60.4389 132.488C62.8756 132.871 65.5512 132.345 67.8445 131.055C68.0356 130.96 68.2267 131.198 68.0356 131.342C65.9334 133.11 63.21 134.256 60.2956 134.352C60.2 134.352 60.1045 134.256 60.1045 134.161L60.2 132.632C60.2478 132.536 60.3434 132.488 60.4389 132.488Z"
        fill="#F1F3FA" />
    <path
        d="M69.8514 138.412C70.138 140.18 70.138 141.996 69.8514 143.716C69.8036 143.907 69.5169 143.907 69.4692 143.716C69.2303 142.044 68.7525 140.419 68.0358 138.986C67.9881 138.89 68.0358 138.747 68.1314 138.747L69.5647 138.317C69.7081 138.221 69.8036 138.317 69.8514 138.412Z"
        fill="#F1F3FA" />
    <path
        d="M68.896 138.365C68.896 138.269 68.9916 138.174 69.0871 138.174C69.7082 138.269 70.4249 138.126 71.0938 137.839C71.5716 137.648 72.0016 137.313 72.3838 136.931C72.5271 136.788 72.766 136.931 72.6704 137.122C72.4316 137.648 72.0971 138.173 71.6671 138.603C70.9982 139.272 70.1382 139.798 69.1349 139.989C69.0393 140.037 68.896 139.941 68.896 139.798V138.365Z"
        fill="#F1F3FA" />
    <path
        d="M49.2114 130.481C49.0202 129.717 49.5936 129 50.358 128.952C51.4091 128.905 52.4602 129 53.4636 129.239C54.9447 129.573 56.2825 130.099 57.5725 130.72C58.8147 131.341 60.0091 132.106 61.1558 132.87C61.7291 133.252 62.2547 133.682 62.828 134.065C63.3536 134.495 63.8791 134.877 64.4047 135.259C65.4558 136.023 66.5547 136.788 67.7014 137.457C68.848 138.126 70.0425 138.651 71.2847 139.129C72.5269 139.559 73.8169 139.941 75.1069 140.132C76.3969 140.371 77.7347 140.467 79.0725 140.467C77.7347 140.61 76.3969 140.658 75.0114 140.515C73.6736 140.419 72.3358 140.18 70.998 139.846C69.6602 139.511 68.3702 139.033 67.128 138.508C65.8858 137.935 64.6914 137.266 63.4969 136.597C62.9236 136.262 62.3502 135.88 61.7769 135.546C61.2036 135.211 60.6302 134.877 60.0569 134.542C58.9102 133.921 57.7636 133.348 56.5691 132.87C55.3747 132.392 54.1802 132.106 52.9858 131.962C52.2214 131.867 51.4091 131.867 50.6925 132.01C50.0714 132.106 49.4502 131.676 49.3069 131.055L49.2114 130.481Z"
        fill="url(#paint7_linear_3606_13575)" />
    <defs>
        <radialGradient id="paint0_radial_3606_13575" cx="0" cy="0" r="1" gradientUnits="userSpaceOnUse"
            gradientTransform="translate(39.4236 41.2432) rotate(180) scale(75.9451 75.9451)">
            <stop stop-color="#D6DCE8" />
            <stop offset="1" stop-color="#AAB2C5" />
        </radialGradient>
        <linearGradient id="paint1_linear_3606_13575" x1="120.748" y1="71.2525" x2="147.16" y2="14.9843"
            gradientUnits="userSpaceOnUse">
            <stop stop-color="#D0D6E3" />
            <stop offset="0.5931" stop-color="#B6BECF" stop-opacity="0.4069" />
            <stop offset="1" stop-color="#AAB2C5" stop-opacity="0" />
        </linearGradient>
        <linearGradient id="paint2_linear_3606_13575" x1="60.9202" y1="94.8158" x2="26.1831" y2="146.778"
            gradientUnits="userSpaceOnUse">
            <stop stop-color="#D0D6E3" />
            <stop offset="0.3191" stop-color="#BEC5D4" stop-opacity="0.6809" />
            <stop offset="0.6895" stop-color="#AFB7C9" stop-opacity="0.3105" />
            <stop offset="1" stop-color="#AAB2C5" stop-opacity="0" />
        </linearGradient>
        <radialGradient id="paint3_radial_3606_13575" cx="0" cy="0" r="1" gradientUnits="userSpaceOnUse"
            gradientTransform="translate(41.8727 49.4776) scale(29.3866)">
            <stop offset="0.015625" stop-color="#66748C" />
            <stop offset="1" stop-color="#66748C" stop-opacity="0" />
        </radialGradient>
        <linearGradient id="paint4_linear_3606_13575" x1="59.8991" y1="51.3467" x2="27.7776" y2="51.3467"
            gradientUnits="userSpaceOnUse">
            <stop offset="0.0980489" stop-color="#02786A" />
            <stop offset="1" stop-color="#04AF9A" />
        </linearGradient>
        <linearGradient id="paint5_linear_3606_13575" x1="39.6984" y1="61.5805" x2="46.4422" y2="44.8816"
            gradientUnits="userSpaceOnUse">
            <stop stop-color="#46F9DF" />
            <stop offset="0.9942" stop-color="white" />
        </linearGradient>
        <linearGradient id="paint6_linear_3606_13575" x1="54.0773" y1="137.09" x2="85.9384" y2="137.09"
            gradientUnits="userSpaceOnUse">
            <stop offset="0.2096" stop-color="#AAB2C5" />
            <stop offset="0.5271" stop-color="#BFC6D6" />
            <stop offset="0.9204" stop-color="#D6DCE8" />
        </linearGradient>
        <linearGradient id="paint7_linear_3606_13575" x1="49.1879" y1="134.806" x2="79.0868" y2="134.806"
            gradientUnits="userSpaceOnUse">
            <stop offset="0.0490735" stop-color="#AAB2C5" />
            <stop offset="0.1432" stop-color="#ADB5C7" />
            <stop offset="0.2177" stop-color="#B7BECE" />
            <stop offset="0.2853" stop-color="#C8CDDA" />
            <stop offset="0.3486" stop-color="#DFE2EA" />
            <stop offset="0.4032" stop-color="#FAFBFD" />
        </linearGradient>
    </defs>
</svg>