<svg width="136" height="148" viewBox="0 0 136 148" fill="none" xmlns="http://www.w3.org/2000/svg">
    <path
        d="M114.87 36.8291C113.58 32.0991 110.809 27.7513 107.082 24.598L107.034 24.3113C113.437 19.9635 117.976 12.8924 119.218 5.2002C121.081 6.96797 123.231 9.26131 125.286 12.2235C126.528 13.9913 127.483 15.7113 128.296 17.288C128.391 18.9124 128.534 24.0246 125.142 29.1369C121.559 34.5357 116.351 36.3513 114.87 36.8291Z"
        fill="url(#paint0_linear_3796_2219)" />
    <path
        d="M128.2 17.2881C127.006 17.9092 125.62 18.1481 124.282 17.957C126.91 20.9192 127.292 25.6492 125.19 28.9936C126.05 27.9903 127.913 25.6492 128.439 22.1136C128.726 20.107 128.439 18.387 128.2 17.2881Z"
        fill="url(#paint1_linear_3796_2219)" />
    <path
        d="M28.2011 1.56934L4.31217 1.71267H2.7355C1.63661 1.71267 0.776611 2.62045 0.776611 3.67156L1.11106 47.3404C1.11106 48.4393 2.01883 49.2993 3.06994 49.2993L39.5244 49.0604C40.6233 49.0604 41.4833 48.1527 41.4833 47.1016L41.2444 14.3738L28.2011 1.56934Z"
        fill="white" />
    <path
        d="M4.21663 49.9204C3.88218 49.8726 3.6433 49.5859 3.6433 49.2515C3.6433 48.8693 3.92996 48.5826 4.31218 48.5826H7.51329C7.89552 48.5826 8.18218 48.8693 8.18218 49.2515C8.18218 49.6337 7.89552 49.9204 7.51329 49.9204H4.31218C4.26441 49.9204 4.26441 49.9204 4.21663 49.9204ZM1.34996 49.0126C1.15885 49.0126 0.96774 48.8693 0.872184 48.7259C0.585518 48.2959 0.442184 47.8182 0.442184 47.3404V45.2382C0.442184 44.8559 0.728851 44.5693 1.11107 44.5693C1.4933 44.5693 1.77996 44.8559 1.77996 45.2382V47.3404C1.77996 47.5793 1.87552 47.8182 1.97107 48.0093C2.16218 48.2959 2.06663 48.7259 1.77996 48.9171C1.63663 49.0126 1.4933 49.0604 1.34996 49.0126ZM10.6188 49.8726C10.2844 49.8248 10.0455 49.5382 10.0455 49.2037C10.0455 48.8215 10.3322 48.5348 10.7144 48.5348H13.9155C14.2977 48.5348 14.5844 48.8215 14.5844 49.2037C14.5844 49.5859 14.2977 49.8726 13.9155 49.8726H10.7144C10.6666 49.8726 10.6188 49.8726 10.6188 49.8726ZM16.9733 49.8248C16.6389 49.7771 16.4 49.4904 16.4 49.1559C16.4 48.7737 16.6866 48.4871 17.0689 48.4871H20.27C20.6522 48.4871 20.9389 48.7737 20.9389 49.1559C20.9389 49.5382 20.6522 49.8248 20.27 49.8248H17.0689C17.0211 49.8248 16.9733 49.8248 16.9733 49.8248ZM23.3277 49.7771C22.9933 49.7293 22.7544 49.4426 22.7544 49.1082C22.7544 48.7259 23.0411 48.4393 23.4233 48.4393H26.6244C27.0066 48.4393 27.2933 48.7259 27.2933 49.1082C27.2933 49.4904 27.0066 49.7771 26.6244 49.7771H23.4233C23.3755 49.7771 23.3755 49.7771 23.3277 49.7771ZM29.73 49.7293C29.3955 49.6815 29.1566 49.3948 29.1566 49.0604C29.1566 48.6782 29.4433 48.3915 29.8255 48.3915H33.0266C33.4089 48.3915 33.6955 48.6782 33.6955 49.0604C33.6955 49.4426 33.4089 49.7293 33.0266 49.7293H29.8255C29.7777 49.7771 29.73 49.7771 29.73 49.7293ZM36.0844 49.7293C35.75 49.6815 35.5111 49.3948 35.5111 49.0604C35.5111 48.6782 35.7977 48.3915 36.18 48.3915H39.3811C39.7633 48.3915 40.05 48.6782 40.05 49.0604C40.05 49.4426 39.7633 49.7293 39.3811 49.7293H36.18C36.1322 49.7293 36.1322 49.7293 36.0844 49.7293ZM41.3877 47.7704C41.0533 47.7226 40.8144 47.4359 40.8144 47.1015V47.0537V43.9004C40.8144 43.5182 41.1011 43.2315 41.4833 43.2315C41.8655 43.2315 42.1522 43.5182 42.1522 43.9004V47.1015C42.1522 47.4837 41.8655 47.7704 41.4833 47.7226C41.4355 47.7704 41.3877 47.7704 41.3877 47.7704ZM1.01552 42.7059C0.681073 42.6582 0.442184 42.3715 0.442184 42.0371V38.8359C0.442184 38.4537 0.728851 38.1671 1.11107 38.1671C1.4933 38.1671 1.77996 38.4537 1.77996 38.8359V42.0371C1.77996 42.4193 1.4933 42.7059 1.11107 42.7059C1.0633 42.7059 1.01552 42.7059 1.01552 42.7059ZM41.34 41.4159C41.0055 41.3682 40.7666 41.0815 40.7666 40.7471V37.5459C40.7666 37.1637 41.0533 36.8771 41.4355 36.8771C41.8177 36.8771 42.1044 37.1637 42.1044 37.5459V40.7471C42.1044 41.1293 41.8177 41.4159 41.4355 41.4159C41.3877 41.4159 41.34 41.4159 41.34 41.4159ZM0.96774 36.3515C0.633295 36.3037 0.394406 36.0171 0.394406 35.6826V32.4815C0.394406 32.0993 0.681073 31.8126 1.0633 31.8126C1.44552 31.8126 1.73218 32.0993 1.73218 32.4815V35.6826C1.73218 36.0648 1.44552 36.3515 1.0633 36.3515C1.01552 36.3515 0.96774 36.3515 0.96774 36.3515ZM41.2922 35.0137C40.9577 34.9659 40.7188 34.6793 40.7188 34.3448V31.1437C40.7188 30.7615 41.0055 30.4748 41.3877 30.4748C41.77 30.4748 42.0566 30.7615 42.0566 31.1437V34.3448C42.0566 34.7271 41.77 35.0137 41.3877 35.0137C41.34 35.0137 41.34 35.0137 41.2922 35.0137ZM0.919962 29.9971C0.585518 29.9493 0.346629 29.6626 0.346629 29.3282V26.1271C0.346629 25.7448 0.633295 25.4582 1.01552 25.4582C1.39774 25.4582 1.68441 25.7448 1.68441 26.1271V29.3282C1.68441 29.7104 1.39774 29.9971 1.01552 29.9971C0.96774 29.9971 0.919962 29.9971 0.919962 29.9971ZM41.2444 28.6593C40.91 28.6115 40.6711 28.3248 40.6711 27.9904V24.7893C40.6711 24.4071 40.9577 24.1204 41.34 24.1204C41.7222 24.1204 42.0088 24.4071 42.0088 24.7893V27.9904C42.0088 28.3726 41.7222 28.6593 41.34 28.6593C41.2922 28.6593 41.2922 28.6593 41.2444 28.6593ZM0.872184 23.5948C0.53774 23.5471 0.298851 23.2604 0.298851 22.9259V19.7248C0.298851 19.3426 0.585518 19.0559 0.96774 19.0559C1.34996 19.0559 1.63663 19.3426 1.63663 19.7248V22.9259C1.63663 23.3082 1.34996 23.5948 0.96774 23.5948C0.919962 23.5948 0.919962 23.5948 0.872184 23.5948ZM41.1966 22.2571C40.8622 22.2093 40.6233 21.9226 40.6233 21.5882V18.3871C40.6233 18.0048 40.91 17.7182 41.2922 17.7182C41.6744 17.7182 41.9611 18.0048 41.9611 18.3871V21.5882C41.9611 21.9704 41.6744 22.2571 41.2922 22.2571C41.2444 22.3048 41.2444 22.3048 41.1966 22.2571ZM0.824406 17.2404C0.489962 17.1926 0.251073 16.9059 0.251073 16.5715V13.3704C0.251073 12.9882 0.53774 12.7015 0.919962 12.7015C1.30218 12.7015 1.58885 12.9882 1.58885 13.3704V16.5715C1.58885 16.9537 1.30218 17.2404 0.919962 17.2404C0.872184 17.2404 0.872184 17.2404 0.824406 17.2404ZM41.1488 15.9026C40.8144 15.8548 40.5755 15.5682 40.5755 15.2337V14.6604L39.1422 13.2271C38.9033 12.9882 38.9033 12.5582 39.1422 12.3193C39.3811 12.0804 39.8111 12.0804 40.05 12.3193L41.7222 13.9437C41.8655 14.0871 41.9133 14.2304 41.9133 14.4215V15.2815C41.9133 15.6637 41.6266 15.9504 41.2444 15.9504C41.1966 15.9026 41.1966 15.9026 41.1488 15.9026ZM0.776629 10.8382C0.442184 10.7904 0.203295 10.5037 0.203295 10.1693V6.96817C0.203295 6.58595 0.489962 6.29928 0.872184 6.29928C1.25441 6.29928 1.54107 6.58595 1.54107 6.96817V10.1693C1.54107 10.5515 1.25441 10.8382 0.872184 10.8382C0.824406 10.8382 0.824406 10.8382 0.776629 10.8382ZM37.2311 11.1726C37.0877 11.1726 36.9444 11.0771 36.8489 10.9815L34.5555 8.73595C34.3166 8.49706 34.3166 8.06706 34.5555 7.82817C34.7944 7.58928 35.2244 7.58928 35.4633 7.82817L37.7088 10.0737C37.9477 10.3126 37.9477 10.7426 37.7088 10.9815C37.6133 11.1248 37.4222 11.1726 37.2311 11.1726ZM0.728851 4.48372C0.394406 4.43595 0.155518 4.19706 0.155518 3.81483V3.6715C0.155518 3.57595 0.155518 3.48039 0.155518 3.38483C0.298851 2.09483 1.39774 1.0915 2.68774 1.04372C3.06996 1.04372 3.35663 1.33039 3.35663 1.71261C3.35663 2.09484 3.06996 2.3815 2.68774 2.3815C2.06663 2.3815 1.54107 2.90706 1.4933 3.52817C1.4933 3.57595 1.4933 3.62372 1.4933 3.6715V3.81483C1.4933 4.19706 1.20663 4.48372 0.824406 4.48372C0.776629 4.48372 0.776629 4.48372 0.728851 4.48372ZM32.6922 6.6815C32.5488 6.6815 32.4055 6.58595 32.31 6.49039L30.0644 4.24483C29.8255 4.00595 29.8255 3.57595 30.0644 3.33706C30.3033 3.09817 30.7333 3.09817 30.9722 3.33706L33.2177 5.58261C33.4566 5.8215 33.4566 6.2515 33.2177 6.49039C33.0744 6.63372 32.8833 6.72928 32.6922 6.6815ZM5.84107 2.3815C5.50663 2.33372 5.26774 2.04706 5.26774 1.71261C5.26774 1.33039 5.55441 1.04372 5.93663 1.04372H9.13774C9.51996 1.04372 9.80663 1.33039 9.80663 1.71261C9.80663 2.09484 9.51996 2.3815 9.13774 2.3815H5.93663C5.88885 2.3815 5.88885 2.3815 5.84107 2.3815ZM12.2433 2.33372C11.9088 2.28595 11.6222 1.99928 11.6222 1.66484C11.6222 1.28261 11.9088 0.995946 12.2911 0.995946H15.4922C15.8744 0.995946 16.1611 1.28261 16.1611 1.66484C16.1611 2.04706 15.8744 2.33372 15.4922 2.33372H12.2911H12.2433ZM18.5977 2.28595C18.2633 2.23817 18.0244 1.9515 18.0244 1.61706C18.0244 1.23484 18.3111 0.948168 18.6933 0.948168H21.8944C22.2766 0.948168 22.5633 1.23484 22.5633 1.61706C22.5633 1.99928 22.2766 2.28595 21.8944 2.28595H18.6933C18.6455 2.28595 18.5977 2.28595 18.5977 2.28595ZM24.9522 2.23817C24.6177 2.19039 24.3788 1.90372 24.3788 1.56928C24.3788 1.18706 24.6655 0.900391 25.0477 0.900391H28.2488C28.44 0.900391 28.5833 0.948168 28.7266 1.0915C28.9655 1.33039 29.0133 1.76039 28.7266 2.04706C28.5833 2.19039 28.3444 2.28595 28.1533 2.23817H25.0477C25 2.23817 25 2.23817 24.9522 2.23817Z"
        fill="#EAF0F9" />
    <path
        d="M29.7299 15.3288C29.1566 15.281 28.631 15.0421 28.2488 14.6599C27.9621 14.421 27.9621 13.991 28.201 13.7521C28.4399 13.4655 28.8699 13.4655 29.1088 13.7044C29.3477 13.9432 29.6821 14.0388 30.0166 14.0388H31.641C32.0232 14.0388 32.3099 14.3255 32.3099 14.7077C32.3099 15.0899 32.0232 15.3766 31.641 15.3766H30.0166C29.921 15.3766 29.8255 15.3288 29.7299 15.3288ZM34.7466 15.3288C34.4121 15.281 34.1732 14.9944 34.1732 14.6599C34.1732 14.2777 34.4599 13.991 34.8421 13.991H37.9477C38.3299 13.991 38.6166 14.2777 38.6166 14.6599C38.6166 15.0421 38.3299 15.3288 37.9477 15.3288H34.8421C34.7943 15.3288 34.7466 15.3288 34.7466 15.3288ZM40.9577 15.2332C40.7666 15.2332 40.5755 15.0899 40.4799 14.8988C40.3843 14.7555 40.3843 14.6121 40.3843 14.4688L38.6643 12.7488C38.4255 12.5099 38.4255 12.0799 38.6643 11.841C38.9032 11.6021 39.3332 11.6021 39.5721 11.841L41.531 13.7521C41.7221 13.9432 41.8177 14.1821 41.7699 14.4688C41.7221 14.7555 41.5788 14.9944 41.3399 15.1377C41.2443 15.2332 41.101 15.281 40.9577 15.2332ZM27.9621 11.8888C27.6277 11.841 27.3888 11.5544 27.3888 11.2199V8.11436C27.3888 7.73214 27.6755 7.44547 28.0577 7.44547C28.4399 7.44547 28.7266 7.73214 28.7266 8.11436V11.2199C28.7266 11.6021 28.4399 11.8888 28.0577 11.8888C28.0099 11.8888 28.0099 11.8888 27.9621 11.8888ZM36.8488 10.7899C36.7055 10.7899 36.5621 10.6944 36.4666 10.5988L34.221 8.40102C33.9821 8.16214 33.9821 7.73214 34.221 7.49325C34.4599 7.25436 34.8899 7.25436 35.1288 7.49325L37.3743 9.69102C37.6132 9.92991 37.6132 10.3599 37.3743 10.5988C37.231 10.7421 37.0399 10.8377 36.8488 10.7899ZM32.3577 6.39436C32.2143 6.39436 32.071 6.2988 31.9755 6.20325L29.7777 4.05325C29.5388 3.81436 29.5388 3.38436 29.7777 3.14547C30.0166 2.90658 30.4466 2.90658 30.6855 3.14547L32.931 5.34325C33.1699 5.58214 33.1699 6.01214 32.931 6.25102C32.7877 6.34658 32.5488 6.44214 32.3577 6.39436ZM27.9621 5.62991C27.6277 5.58214 27.3888 5.29547 27.3888 4.96102V1.85547H28.0577H28.7266V4.96102C28.7266 5.34325 28.4399 5.62991 28.0577 5.62991C28.0099 5.62991 27.9621 5.62991 27.9621 5.62991Z"
        fill="#EAF0F9" />
    <path
        d="M121.702 44.6172L97.7655 44.7605H96.1889C95.09 44.7605 94.23 45.6683 94.23 46.7194L94.5167 90.3883C94.5167 91.4872 95.4244 92.3472 96.4755 92.3472L132.93 92.1083C134.029 92.1083 134.889 91.2005 134.889 90.1494L134.65 57.4694L121.702 44.6172Z"
        fill="white" />
    <path
        d="M97.67 92.9682C97.3355 92.9205 97.0966 92.6338 97.0966 92.2994C97.0966 91.9171 97.3833 91.6305 97.7655 91.6305H100.967C101.349 91.6305 101.636 91.9171 101.636 92.2994C101.636 92.6816 101.349 92.9682 100.967 92.9682H97.7655C97.7177 92.9682 97.7177 92.9682 97.67 92.9682ZM94.8033 92.0605C94.6122 92.0605 94.4211 91.9171 94.3255 91.7738C94.0388 91.3438 93.8955 90.866 93.8955 90.3882V88.286C93.8955 87.9038 94.1822 87.6171 94.5644 87.6171C94.9466 87.6171 95.2333 87.9038 95.2333 88.286V90.3882C95.2333 90.6271 95.3288 90.866 95.4244 91.0571C95.6155 91.3438 95.52 91.7738 95.2333 91.9649C95.09 92.0605 94.9466 92.1082 94.8033 92.0605ZM104.072 92.9205C103.738 92.8727 103.499 92.586 103.499 92.2516C103.499 91.8694 103.786 91.5827 104.168 91.5827H107.369C107.751 91.5827 108.038 91.8694 108.038 92.2516C108.038 92.6338 107.751 92.9205 107.369 92.9205H104.168C104.12 92.9205 104.072 92.9205 104.072 92.9205ZM110.427 92.8727C110.092 92.8249 109.853 92.5382 109.853 92.2038C109.853 91.8216 110.14 91.5349 110.522 91.5349H113.723C114.106 91.5349 114.392 91.8216 114.392 92.2038C114.392 92.586 114.106 92.8727 113.723 92.8727H110.522C110.474 92.8727 110.474 92.8727 110.427 92.8727ZM116.829 92.8249C116.494 92.7771 116.256 92.4905 116.256 92.156C116.256 91.7738 116.542 91.4871 116.924 91.4871H120.126C120.508 91.4871 120.794 91.7738 120.794 92.156C120.794 92.5382 120.508 92.8249 120.126 92.8249H116.924C116.877 92.8249 116.829 92.8249 116.829 92.8249ZM123.183 92.7771C122.849 92.7294 122.61 92.4427 122.61 92.1082C122.61 91.726 122.897 91.4394 123.279 91.4394H126.48C126.862 91.4394 127.149 91.726 127.149 92.1082C127.149 92.4905 126.862 92.7771 126.48 92.7771H123.279C123.231 92.7771 123.183 92.7771 123.183 92.7771ZM129.538 92.7294C129.203 92.6816 128.964 92.3949 128.964 92.0605C128.964 91.6782 129.251 91.3916 129.633 91.3916H132.834C133.217 91.3916 133.503 91.6782 133.503 92.0605C133.503 92.4427 133.217 92.7294 132.834 92.7294H129.633C129.586 92.7771 129.586 92.7771 129.538 92.7294ZM134.841 90.8182C134.507 90.7705 134.268 90.4838 134.268 90.1494V90.1016V86.9482C134.268 86.566 134.554 86.2794 134.937 86.2794C135.319 86.2794 135.606 86.566 135.606 86.9482V90.1494C135.606 90.5316 135.319 90.8182 134.937 90.7705C134.889 90.8182 134.841 90.8182 134.841 90.8182ZM94.4688 85.7538C94.1344 85.706 93.8955 85.4193 93.8955 85.0849V81.8838C93.8955 81.5016 94.1822 81.2149 94.5644 81.2149C94.9466 81.2149 95.2333 81.5016 95.2333 81.8838V85.0849C95.2333 85.4671 94.9466 85.7538 94.5644 85.7538C94.5166 85.7538 94.5166 85.7538 94.4688 85.7538ZM134.793 84.416C134.459 84.3682 134.22 84.0816 134.22 83.7471V80.546C134.22 80.1638 134.507 79.8771 134.889 79.8771C135.271 79.8771 135.558 80.1638 135.558 80.546V83.7471C135.558 84.1293 135.271 84.416 134.889 84.416C134.841 84.4638 134.841 84.4638 134.793 84.416ZM94.4211 79.3994C94.0866 79.3516 93.8477 79.0649 93.8477 78.7305V75.5294C93.8477 75.1471 94.1344 74.8605 94.5166 74.8605C94.8988 74.8605 95.1855 75.1471 95.1855 75.5294V78.7305C95.1855 79.1127 94.8988 79.3994 94.5166 79.3994C94.4688 79.3994 94.4688 79.3994 94.4211 79.3994ZM134.746 78.0616C134.411 78.0138 134.172 77.7271 134.172 77.3927V74.1916C134.172 73.8093 134.459 73.5227 134.841 73.5227C135.223 73.5227 135.51 73.8093 135.51 74.1916V77.3927C135.51 77.7749 135.223 78.0616 134.841 78.0616C134.793 78.0616 134.793 78.0616 134.746 78.0616ZM94.3733 72.9971C94.0388 72.9493 93.8 72.6627 93.8 72.3282V69.1271C93.8 68.7449 94.0866 68.4582 94.4688 68.4582C94.8511 68.4582 95.1377 68.7449 95.1377 69.1271V72.3282C95.1377 72.7105 94.8511 72.9971 94.4688 72.9971C94.4211 73.0449 94.4211 73.0449 94.3733 72.9971ZM134.698 71.7071C134.363 71.6594 134.124 71.3727 134.124 71.0382V67.8371C134.124 67.4549 134.411 67.1682 134.793 67.1682C135.176 67.1682 135.462 67.4549 135.462 67.8371V71.0382C135.462 71.4205 135.176 71.7071 134.793 71.7071C134.746 71.7071 134.746 71.7071 134.698 71.7071ZM94.3255 66.6427C93.9911 66.5949 93.7522 66.3082 93.7522 65.9738V62.7727C93.7522 62.3905 94.0388 62.1038 94.4211 62.1038C94.8033 62.1038 95.0899 62.3905 95.0899 62.7727V65.9738C95.0899 66.356 94.8033 66.6427 94.4211 66.6427C94.3733 66.6427 94.3733 66.6427 94.3255 66.6427ZM134.65 65.3049C134.316 65.2571 134.077 64.9705 134.077 64.636V61.4349C134.077 61.0527 134.363 60.766 134.746 60.766C135.128 60.766 135.414 61.0527 135.414 61.4349V64.636C135.414 65.0182 135.128 65.3049 134.746 65.3049C134.746 65.3049 134.698 65.3049 134.65 65.3049ZM94.2777 60.2882C93.9433 60.2405 93.7044 59.9538 93.7044 59.6194V56.4182C93.7044 56.036 93.9911 55.7494 94.3733 55.7494C94.7555 55.7494 95.0422 56.036 95.0422 56.4182V59.6194C95.0422 60.0016 94.7555 60.2882 94.3733 60.2882C94.3255 60.2882 94.3255 60.2882 94.2777 60.2882ZM134.65 58.9505C134.316 58.9027 134.077 58.616 134.077 58.2816V57.7082L132.643 56.2749C132.404 56.036 132.404 55.606 132.643 55.3671C132.882 55.1282 133.312 55.1282 133.551 55.3671L135.223 56.9916C135.367 57.1349 135.414 57.2782 135.414 57.4694V58.3294C135.414 58.7116 135.128 58.9982 134.746 58.9982C134.698 58.9505 134.65 58.9505 134.65 58.9505ZM94.2777 53.886C93.9433 53.8382 93.7044 53.5516 93.7044 53.2171V50.016C93.7044 49.6338 93.9911 49.3471 94.3733 49.3471C94.7555 49.3471 95.0422 49.6338 95.0422 50.016V53.2171C95.0422 53.5994 94.7555 53.886 94.3733 53.886C94.3255 53.886 94.2777 53.886 94.2777 53.886ZM130.684 54.2205C130.541 54.2205 130.398 54.1249 130.302 54.0294L128.057 51.7838C127.818 51.5449 127.818 51.1149 128.057 50.876C128.296 50.6371 128.726 50.6371 128.964 50.876L131.21 53.1216C131.449 53.3605 131.449 53.7905 131.21 54.0294C131.114 54.1727 130.876 54.2205 130.684 54.2205ZM94.2299 47.5316C93.8955 47.4838 93.6566 47.1971 93.6566 46.8627V46.7194C93.6566 46.6238 93.6566 46.5282 93.6566 46.4327C93.7999 45.1427 94.8988 44.1394 96.1888 44.0916C96.5711 44.0916 96.8577 44.3782 96.8577 44.7605C96.8577 45.1427 96.5711 45.4294 96.1888 45.4294C95.52 45.4294 94.9944 45.9549 94.9466 46.576C94.9466 46.6238 94.9466 46.6716 94.9466 46.7194V46.8627C94.9466 47.2449 94.66 47.5316 94.2777 47.5316H94.2299ZM126.146 49.7294C126.002 49.7294 125.859 49.6338 125.763 49.5382L123.518 47.2927C123.279 47.0538 123.279 46.6238 123.518 46.3849C123.757 46.146 124.187 46.146 124.426 46.3849L126.671 48.6305C126.91 48.8694 126.91 49.2994 126.671 49.5382C126.576 49.6816 126.337 49.7771 126.146 49.7294ZM99.2944 45.3816C98.96 45.3338 98.7211 45.0471 98.7211 44.7127C98.7211 44.3305 99.0077 44.0438 99.39 44.0438H102.591C102.973 44.0438 103.26 44.3305 103.26 44.7127C103.26 45.0949 102.973 45.3816 102.591 45.3816H99.39C99.3422 45.4294 99.3422 45.4294 99.2944 45.3816ZM105.697 45.3816C105.362 45.3338 105.123 45.0471 105.123 44.7127C105.123 44.3305 105.41 44.0438 105.792 44.0438H108.993C109.376 44.0438 109.662 44.3305 109.662 44.7127C109.662 45.0949 109.376 45.3816 108.993 45.3816H105.792C105.744 45.3816 105.697 45.3816 105.697 45.3816ZM112.051 45.3338C111.717 45.286 111.478 44.9994 111.478 44.6649C111.478 44.2827 111.764 43.996 112.147 43.996H115.348C115.73 43.996 116.017 44.2827 116.017 44.6649C116.017 45.0471 115.73 45.3338 115.348 45.3338H112.147C112.099 45.3338 112.099 45.3338 112.051 45.3338ZM118.453 45.286C118.119 45.2382 117.88 44.9516 117.88 44.6171C117.88 44.2349 118.167 43.9482 118.549 43.9482H121.75C121.941 43.9482 122.084 43.996 122.228 44.1394C122.467 44.3782 122.514 44.8082 122.228 45.0949C122.084 45.2382 121.846 45.3338 121.654 45.286H118.549C118.501 45.286 118.453 45.286 118.453 45.286Z"
        fill="#EAF0F9" />
    <path
        d="M123.183 58.3767C122.61 58.3289 122.084 58.09 121.702 57.7078C121.415 57.4689 121.415 57.0389 121.654 56.8C121.893 56.5133 122.323 56.5133 122.562 56.7522C122.801 56.9911 123.135 57.0867 123.47 57.0867H125.094C125.477 57.0867 125.763 57.3733 125.763 57.7555C125.763 58.1378 125.477 58.4244 125.094 58.4244H123.47C123.374 58.3767 123.279 58.3767 123.183 58.3767ZM128.2 58.3767C127.865 58.3289 127.627 58.0422 127.627 57.7078C127.627 57.3255 127.913 57.0389 128.295 57.0389H131.401C131.783 57.0389 132.07 57.3255 132.07 57.7078C132.07 58.09 131.783 58.3767 131.401 58.3767H128.295C128.248 58.3767 128.2 58.3767 128.2 58.3767ZM134.459 58.2811C134.268 58.2811 134.077 58.1378 133.981 57.9467C133.885 57.8033 133.885 57.66 133.885 57.5167L132.165 55.7967C131.927 55.5578 131.927 55.1278 132.165 54.8889C132.404 54.65 132.834 54.65 133.073 54.8889L135.032 56.8C135.223 56.9911 135.319 57.23 135.271 57.5167C135.223 57.8033 135.08 58.0422 134.841 58.1855C134.698 58.2811 134.554 58.3289 134.459 58.2811ZM121.463 54.9367C121.129 54.8889 120.89 54.6022 120.89 54.2678V51.1622C120.89 50.78 121.177 50.4933 121.559 50.4933C121.941 50.4933 122.228 50.78 122.228 51.1622V54.2678C122.228 54.65 121.941 54.9367 121.559 54.9367C121.511 54.9367 121.463 54.9367 121.463 54.9367ZM130.302 53.8378C130.159 53.8378 130.015 53.7422 129.92 53.6467L127.674 51.4489C127.435 51.21 127.435 50.78 127.674 50.5411C127.913 50.3022 128.343 50.3022 128.582 50.5411L130.828 52.7389C131.067 52.9778 131.067 53.4078 130.828 53.6467C130.684 53.79 130.493 53.8855 130.302 53.8378ZM125.859 49.4422C125.715 49.4422 125.572 49.3467 125.477 49.2511L123.231 47.0533C122.992 46.8144 122.992 46.3844 123.231 46.1455C123.47 45.9067 123.9 45.9067 124.139 46.1455L126.384 48.3433C126.623 48.5822 126.623 49.0122 126.384 49.2511C126.241 49.3944 126.05 49.49 125.859 49.4422ZM121.415 48.6778C121.081 48.63 120.842 48.3433 120.842 48.0089V44.9033H121.511H122.18V48.0089C122.18 48.3911 121.893 48.6778 121.511 48.6778C121.463 48.6778 121.415 48.6778 121.415 48.6778Z"
        fill="#EAF0F9" />
    <path
        d="M79.8966 123.26L66.9966 117.192C66.3755 116.906 66.2321 116.332 66.7577 115.95L76.7433 107.923C83.1933 102.763 95.1855 101.712 103.499 105.63L116.399 111.698C117.02 111.985 117.163 112.558 116.638 112.94L106.7 120.967C100.25 126.175 88.2099 127.178 79.8966 123.26ZM69.8633 116.332L81.6644 121.875C88.7355 125.219 98.9599 124.311 104.407 119.916L113.532 112.558L101.731 107.016C94.6599 103.671 84.4355 104.579 78.9888 108.975L69.8633 116.332Z"
        fill="#EAF0F9" />
    <path
        d="M66.9966 117.192L54.0966 111.125C45.7833 107.207 44.2544 99.8013 50.7044 94.6413L60.69 86.6146C61.1678 86.2324 62.0755 86.1369 62.6966 86.4235L75.5966 92.4913C83.91 96.4091 85.4389 103.815 78.9889 108.975L69.0033 117.001C68.5255 117.431 67.6178 117.479 66.9966 117.192ZM62.0278 88.3346L52.9022 95.6924C47.4078 100.088 48.7455 106.395 55.8166 109.691L67.6178 115.234L76.7433 107.876C82.2378 103.48 80.9 97.1735 73.8289 93.8769L62.0278 88.3346Z"
        fill="#EAF0F9" />
    <path
        d="M73.0645 146.576L60.1645 140.508C51.8512 136.591 50.3223 129.185 56.7723 124.025L66.7578 115.998C67.2356 115.616 68.1434 115.521 68.7645 115.807L81.6645 121.875C89.9778 125.793 91.5067 133.198 85.0567 138.358L75.0712 146.385C74.5934 146.767 73.6856 146.863 73.0645 146.576ZM68.1434 117.718L59.0178 125.076C53.5234 129.472 54.8612 135.778 61.9323 139.075L73.7334 144.617L82.859 137.26C88.3534 132.864 87.0156 126.557 79.9445 123.261L68.1434 117.718Z"
        fill="#EAF0F9" />
    <path
        d="M32.2145 127.37L19.3145 121.302C18.6933 121.015 18.55 120.442 19.0756 120.06L29.0611 112.033C35.5111 106.873 47.5033 105.822 55.8167 109.74L68.7167 115.807C69.3378 116.094 69.4811 116.667 68.9556 117.05L58.97 125.076C52.5678 130.236 40.5278 131.287 32.2145 127.37ZM22.1811 120.394L33.9822 125.936C41.0533 129.281 51.2778 128.373 56.7245 123.977L65.85 116.62L54.0489 111.077C46.9778 107.733 36.7533 108.641 31.3067 113.036L22.1811 120.394Z"
        fill="#EAF0F9" />
    <path
        d="M66.9967 117.192C66.71 117.049 66.5189 116.858 66.4711 116.619L64.4167 106.633C63.0789 100.183 70.4844 94.2589 80.9478 93.3511L97.1444 91.9656C97.5267 91.9178 97.9089 92.0133 98.1955 92.1567C98.4822 92.3 98.6733 92.4911 98.7211 92.73L100.776 102.716C102.113 109.166 94.7078 115.09 84.2444 115.998L68.0478 117.383C67.6656 117.383 67.2833 117.336 66.9967 117.192ZM96.0455 93.8289L81.2822 95.0711C72.3955 95.8356 66.1367 100.9 67.2355 106.347L69.0989 115.472L83.8622 114.23C92.7489 113.466 99.0078 108.401 97.9089 102.954L96.0455 93.8289Z"
        fill="#EAF0F9" />
    <path
        d="M37.7566 116.475C33.8866 114.66 31.1633 111.936 30.4944 108.687L28.44 98.7018C28.3444 98.224 28.9178 97.7462 29.6822 97.6985L45.8789 96.3129C56.3422 95.4051 65.8978 99.944 67.2355 106.346L69.29 116.332C69.3378 116.571 69.2422 116.81 69.0033 117.001C68.7644 117.192 68.43 117.335 68.0478 117.335L51.8511 118.721C46.5955 119.198 41.6266 118.291 37.7566 116.475ZM31.45 99.3707L33.3133 108.496C34.46 113.943 42.5822 117.765 51.4211 117.048L66.1844 115.806L64.3211 106.681C63.1744 101.234 55.0522 97.4118 46.2133 98.1285L31.45 99.3707Z"
        fill="#EAF0F9" />
    <path
        d="M75.7399 134.344C71.8699 132.529 69.1466 129.805 68.4777 126.556L66.4233 116.571C66.3277 116.093 66.901 115.615 67.6655 115.568L83.8622 114.182C94.3255 113.274 103.881 117.813 105.219 124.215L107.273 134.201C107.369 134.679 106.795 135.156 106.031 135.204L89.8344 136.59C84.6266 137.068 79.6099 136.16 75.7399 134.344ZM69.481 117.24L71.3444 126.365C72.491 131.812 80.6133 135.634 89.4522 134.918L104.215 133.675L102.352 124.55C101.205 119.103 93.0833 115.281 84.2444 115.998L69.481 117.24Z"
        fill="#EAF0F9" />
    <path
        d="M37.5655 140.842C37.2788 140.698 37.0877 140.507 37.0399 140.268L34.9855 130.283C33.6477 123.833 41.0533 117.908 51.5166 117.001L67.7133 115.615C68.0955 115.567 68.4777 115.663 68.7644 115.806C69.0511 115.949 69.2422 116.141 69.2899 116.379L71.3444 126.365C72.6822 132.815 65.2766 138.739 54.8133 139.647L38.6166 141.033C38.2344 141.033 37.8522 140.985 37.5655 140.842ZM66.6144 117.478L51.8511 118.721C42.9644 119.485 36.7055 124.549 37.8044 129.996L39.6677 139.122L54.4311 137.879C63.3177 137.115 69.5766 132.051 68.4777 126.604L66.6144 117.478Z"
        fill="#EAF0F9" />
    <path
        d="M37.5655 140.842C15.97 130.665 12.0044 111.506 28.7267 98.0808C45.4489 84.6553 76.6 81.9797 98.1955 92.1564C119.791 102.333 123.757 121.492 107.034 134.918C90.3122 148.343 59.1611 151.019 37.5655 140.842ZM96.4278 93.542C76.0744 83.9864 46.7389 86.4709 31.02 99.132C15.3011 111.793 18.98 129.853 39.3333 139.456C59.6867 149.012 89.0222 146.528 104.741 133.866C120.46 121.205 116.733 103.098 96.4278 93.542Z"
        fill="#EAF0F9" />
    <path
        d="M58.6833 134.631C54.4789 138.835 42.5344 133.723 32.0233 123.212C21.5122 112.701 16.4 100.756 20.6044 96.5517C24.8089 92.3472 36.7533 97.4595 47.2644 107.971C57.7755 118.482 62.8877 130.426 58.6833 134.631Z"
        fill="url(#paint2_radial_3796_2219)" />
    <path
        d="M119.839 124.311C120.078 130.665 100.489 136.59 76.0744 137.545C51.66 138.501 31.6411 134.105 31.4022 127.751C31.1633 121.396 50.7522 115.472 75.1666 114.516C99.5811 113.608 119.6 117.956 119.839 124.311Z"
        fill="url(#paint3_radial_3796_2219)" />
    <path
        d="M82.1422 13.8008L60.4033 10.3608L58.97 10.1219C58.0145 9.97855 57.0589 10.6474 56.9156 11.603L50.6567 51.2586C50.5133 52.2141 51.1822 53.1697 52.1378 53.313L85.2478 58.5686C86.2033 58.7119 87.1589 58.043 87.3022 57.0874L91.9845 27.4174L82.1422 13.8008Z"
        fill="white" />
    <path
        d="M53.0933 54.0777C52.8066 53.9821 52.6155 53.6955 52.6633 53.4088C52.7111 53.0744 53.0455 52.8355 53.3322 52.8832L56.2466 53.361C56.5811 53.4088 56.82 53.7432 56.7722 54.0299C56.7244 54.3644 56.39 54.6032 56.1033 54.5555L53.1889 54.0777C53.1411 54.1255 53.1411 54.1255 53.0933 54.0777ZM50.6089 52.8832C50.4177 52.8355 50.2744 52.6921 50.2266 52.5488C50.0355 52.1188 49.9877 51.6888 50.0833 51.211L50.37 49.2999C50.4177 48.9655 50.7522 48.7266 51.0389 48.7744C51.3733 48.8221 51.6122 49.1566 51.5644 49.4432L51.2777 51.3544C51.23 51.5932 51.2777 51.7844 51.3733 52.0232C51.5166 52.3099 51.3733 52.6921 51.0389 52.8355C50.8955 52.8832 50.7522 52.8832 50.6089 52.8832ZM58.8744 55.0332C58.5877 54.9377 58.3966 54.651 58.4444 54.3644C58.4922 54.0299 58.8266 53.791 59.1133 53.8388L62.0277 54.3166C62.3622 54.3644 62.6011 54.6988 62.5533 54.9855C62.5055 55.3199 62.1711 55.5588 61.8844 55.511L58.97 55.0332C58.9222 55.0332 58.9222 55.0332 58.8744 55.0332ZM64.7033 55.941C64.4166 55.8455 64.2255 55.5588 64.2733 55.2721C64.3211 54.9377 64.6555 54.6988 64.9422 54.7466L67.8566 55.2244C68.1911 55.2721 68.43 55.6066 68.3822 55.8932C68.3344 56.2277 68 56.4666 67.7133 56.4188L64.7989 55.941C64.7033 55.941 64.7033 55.941 64.7033 55.941ZM70.4844 56.8488C70.1977 56.7532 70.0066 56.4666 70.0544 56.1799C70.1022 55.8455 70.4366 55.6066 70.7233 55.6544L73.6377 56.1321C73.9722 56.1799 74.2111 56.5144 74.1633 56.801C74.1155 57.1355 73.7811 57.3744 73.4944 57.3266L70.58 56.8488C70.5322 56.8488 70.4844 56.8488 70.4844 56.8488ZM76.2655 57.7566C75.9789 57.661 75.7877 57.3744 75.8355 57.0877C75.8833 56.7532 76.2177 56.5144 76.5044 56.5621L79.4188 57.0399C79.7533 57.0877 79.9922 57.4221 79.9444 57.7088C79.8966 58.0432 79.5622 58.2821 79.2755 58.2344L76.3611 57.7566C76.3133 57.7566 76.2655 57.7566 76.2655 57.7566ZM82.0466 58.6644C81.76 58.5688 81.5689 58.2821 81.6166 57.9955C81.6644 57.661 81.9988 57.4221 82.2855 57.4699L85.2 57.9477C85.5344 57.9955 85.7733 58.3299 85.7255 58.6166C85.6777 58.951 85.3433 59.1899 85.0566 59.1421L82.1422 58.6644C82.0944 58.7121 82.0466 58.6644 82.0466 58.6644ZM87.1111 57.7088C86.8244 57.6132 86.6333 57.3266 86.6811 56.9921L87.1111 54.1255C87.1589 53.791 87.4933 53.5521 87.78 53.5999C88.1144 53.6477 88.3533 53.9821 88.3055 54.2688L87.8277 57.1832C87.78 57.5177 87.4455 57.7088 87.1111 57.661C87.1589 57.7088 87.1589 57.7088 87.1111 57.7088ZM51.2777 47.1021C50.9911 47.0066 50.8 46.7199 50.8477 46.4332L51.3255 43.5188C51.3733 43.1844 51.7077 42.9455 51.9944 42.9932C52.3289 43.041 52.5677 43.3755 52.52 43.6621L52.0422 46.5766C51.9944 46.911 51.66 47.1499 51.3733 47.1021C51.3255 47.1021 51.2777 47.1021 51.2777 47.1021ZM88.0666 51.9277C87.78 51.8321 87.5889 51.5455 87.6366 51.2588L88.1144 48.3444C88.1622 48.0099 88.4966 47.771 88.7833 47.8188C89.1177 47.8666 89.3566 48.201 89.3089 48.4877L88.8311 51.4021C88.7833 51.7366 88.4488 51.9755 88.1622 51.9277C88.1144 51.9277 88.0666 51.9277 88.0666 51.9277ZM52.1855 41.2732C51.8989 41.1777 51.7077 40.891 51.7555 40.6044L52.2333 37.6899C52.2811 37.3555 52.6155 37.1166 52.9022 37.1644C53.2366 37.2121 53.4755 37.5466 53.4277 37.8332L52.95 40.7477C52.9022 41.0821 52.5677 41.321 52.2811 41.2732C52.2333 41.321 52.1855 41.321 52.1855 41.2732ZM88.9744 46.1466C88.6877 46.051 88.4966 45.7644 88.5444 45.4777L89.0222 42.5632C89.07 42.2288 89.4044 41.9899 89.6911 42.0377C90.0255 42.0855 90.2644 42.4199 90.2166 42.7066L89.7388 45.621C89.6911 45.9555 89.3566 46.1944 89.07 46.1466C89.0222 46.1466 88.9744 46.1466 88.9744 46.1466ZM53.0933 35.4921C52.8066 35.3966 52.6155 35.1099 52.6633 34.8232L53.1411 31.9088C53.1889 31.5744 53.5233 31.3355 53.81 31.3832C54.1444 31.431 54.3833 31.7655 54.3355 32.0521L53.8577 34.9666C53.81 35.301 53.4755 35.5399 53.1889 35.4921C53.1411 35.5399 53.0933 35.4921 53.0933 35.4921ZM89.8822 40.3655C89.5955 40.2699 89.4044 39.9832 89.4522 39.6966L89.93 36.7821C89.9777 36.4477 90.3122 36.2088 90.5989 36.2566C90.9333 36.3044 91.1722 36.6388 91.1244 36.9255L90.6466 39.8399C90.5988 40.1744 90.2644 40.4132 89.9777 40.3655C89.93 40.3655 89.8822 40.3655 89.8822 40.3655ZM54.0011 29.711C53.7144 29.6155 53.5233 29.3288 53.5711 29.0421L54.0489 26.1277C54.0966 25.7932 54.4311 25.5544 54.7177 25.6021C55.0522 25.6499 55.2911 25.9844 55.2433 26.271L54.7655 29.1855C54.7177 29.5199 54.3833 29.7588 54.0966 29.711C54.0489 29.711 54.0489 29.711 54.0011 29.711ZM90.79 34.5366C90.5033 34.441 90.3122 34.1544 90.36 33.8677L90.8377 30.9532C90.8855 30.6188 91.22 30.3799 91.5066 30.4277C91.8411 30.4755 92.08 30.8099 92.0322 31.0966L91.5544 34.011C91.5066 34.3455 91.1722 34.5844 90.8855 34.5366C90.8377 34.5844 90.8377 34.5844 90.79 34.5366ZM54.9089 23.9299C54.6222 23.8344 54.4311 23.5477 54.4789 23.261L54.9566 20.3466C55.0044 20.0121 55.3389 19.7732 55.6255 19.821C55.96 19.8688 56.1989 20.2032 56.1511 20.4899L55.6733 23.4044C55.6255 23.7388 55.2911 23.9777 55.0044 23.9299C54.9566 23.9299 54.9566 23.9299 54.9089 23.9299ZM91.6977 28.7555C91.4111 28.6599 91.22 28.3732 91.2677 28.0866L91.3633 27.561L90.2644 26.0321C90.0733 25.7455 90.1211 25.3632 90.4077 25.1721C90.6944 24.981 91.0766 25.0288 91.2677 25.3155L92.51 27.0355C92.6055 27.1788 92.6533 27.3221 92.6055 27.4655L92.4622 28.2777C92.4144 28.6121 92.08 28.851 91.7933 28.8032C91.7455 28.8032 91.7455 28.7555 91.6977 28.7555ZM55.8166 18.1488C55.53 18.0532 55.3389 17.7666 55.3866 17.4799L55.8644 14.5655C55.9122 14.231 56.2466 13.9921 56.5333 14.0399C56.8677 14.0877 57.1066 14.4221 57.0589 14.7088L56.5811 17.6232C56.5333 17.9577 56.1989 18.1966 55.9122 18.1488C55.8644 18.1488 55.8644 18.1488 55.8166 18.1488ZM88.8788 23.8821C88.7355 23.8344 88.64 23.7866 88.5444 23.6432L86.8244 21.2544C86.6333 20.9677 86.6811 20.5855 86.9677 20.3944C87.2544 20.2032 87.6366 20.251 87.8277 20.5377L89.5477 22.9266C89.7389 23.2132 89.6911 23.5955 89.4044 23.7866C89.2133 23.9299 89.0222 23.9299 88.8788 23.8821ZM56.7722 12.3677C56.4855 12.2721 56.2944 11.9855 56.3422 11.6988V11.5555C56.3422 11.4599 56.39 11.3644 56.39 11.2688C56.7244 10.1221 57.8711 9.35769 59.0655 9.5488C59.4 9.59658 59.6389 9.88324 59.5911 10.2177C59.5433 10.5521 59.2566 10.791 58.9222 10.7432C58.3489 10.6477 57.7755 11.0299 57.5844 11.6032C57.5844 11.651 57.5844 11.6988 57.5366 11.7466V11.8899C57.4889 12.2244 57.1544 12.4632 56.8677 12.4155C56.82 12.3677 56.7722 12.3677 56.7722 12.3677ZM85.3911 19.1521C85.2477 19.1044 85.1522 19.0566 85.0566 18.9132L83.3366 16.5244C83.1455 16.2377 83.1933 15.8555 83.48 15.6644C83.7666 15.4732 84.1488 15.521 84.34 15.8077L86.06 18.1966C86.2511 18.4832 86.2033 18.8655 85.9166 19.0566C85.7733 19.1521 85.5822 19.1999 85.3911 19.1521ZM61.6933 11.1732C61.4066 11.0777 61.2155 10.791 61.2633 10.5044C61.3111 10.1699 61.6455 9.93102 61.9322 9.9788L64.8466 10.4566C65.1811 10.5044 65.42 10.8388 65.3722 11.1255C65.3244 11.4599 64.99 11.6988 64.7033 11.651L61.7889 11.1732C61.7411 11.221 61.7411 11.221 61.6933 11.1732ZM67.4744 12.1288C67.1877 12.0332 66.9966 11.7466 67.0444 11.4599C67.0922 11.1255 67.4266 10.8866 67.7133 10.9344L70.6277 11.4121C70.9622 11.4599 71.2011 11.7944 71.1533 12.081C71.1055 12.4155 70.7711 12.6544 70.4844 12.6066L67.57 12.1288C67.5222 12.1288 67.5222 12.1288 67.4744 12.1288ZM73.3033 13.0366C73.0166 12.941 72.8255 12.6544 72.8733 12.3677C72.9211 12.0332 73.2555 11.7944 73.5422 11.8421L76.4566 12.3199C76.7911 12.3677 77.03 12.7021 76.9822 12.9888C76.9344 13.3232 76.6 13.5621 76.3133 13.5144L73.3989 13.0366C73.3033 13.0366 73.3033 13.0366 73.3033 13.0366ZM79.0844 13.9444C78.7977 13.8488 78.6066 13.5621 78.6544 13.2755C78.7022 12.941 79.0366 12.7021 79.3233 12.7499L82.2377 13.2277C82.3811 13.2755 82.5244 13.3232 82.62 13.4666C82.8111 13.7532 82.7633 14.1355 82.4766 14.3266C82.3333 14.4221 82.0944 14.4699 81.9511 14.4221L79.1322 13.9921C79.1322 13.9444 79.0844 13.9444 79.0844 13.9444Z"
        fill="url(#paint4_linear_3796_2219)" />
    <path
        d="M81.4256 26.5577C80.9 26.4144 80.47 26.1277 80.1833 25.6977C79.9922 25.4111 80.04 25.0766 80.2789 24.8377C80.5656 24.6466 80.9 24.6944 81.1389 24.9333C81.33 25.1722 81.5689 25.3155 81.9033 25.3633L83.3845 25.6022C83.7189 25.65 83.9578 25.9844 83.91 26.2711C83.8622 26.6055 83.5278 26.8444 83.2411 26.7966L81.76 26.5577C81.6167 26.6055 81.5211 26.5577 81.4256 26.5577ZM85.9645 27.2744C85.6778 27.1789 85.4867 26.8922 85.5345 26.6055C85.5822 26.2711 85.9167 26.0322 86.2033 26.08L89.0222 26.51C89.3567 26.5577 89.5956 26.8922 89.5478 27.1789C89.5 27.5133 89.1656 27.7522 88.8789 27.7044L86.06 27.2744C86.0122 27.2744 85.9645 27.2744 85.9645 27.2744ZM91.65 28.1344C91.4589 28.0866 91.3156 27.9433 91.2678 27.7522C91.22 27.6089 91.22 27.5133 91.2678 27.37L89.9778 25.5544C89.7867 25.2677 89.8345 24.8855 90.1211 24.6944C90.4078 24.5033 90.79 24.5511 90.9811 24.8377L92.4622 26.8922C92.6056 27.0833 92.6533 27.3222 92.6056 27.5611C92.5578 27.8 92.3667 27.9911 92.1278 28.0866C91.8889 28.1822 91.7456 28.1822 91.65 28.1344ZM80.3744 23.1177C80.0878 23.0222 79.8967 22.7355 79.9445 22.4489L80.3744 19.63C80.4222 19.2955 80.7567 19.0566 81.0433 19.1044C81.3778 19.1522 81.6167 19.4866 81.5689 19.7733L81.1389 22.5922C81.0911 22.9266 80.7567 23.1655 80.47 23.1177C80.4222 23.1655 80.3744 23.1655 80.3744 23.1177ZM88.5445 23.5C88.4011 23.4522 88.3056 23.4044 88.21 23.2611L86.5378 20.92C86.3467 20.6333 86.3945 20.2511 86.6811 20.06C86.9678 19.8689 87.35 19.9166 87.5411 20.2033L89.2133 22.5444C89.4045 22.8311 89.3567 23.2133 89.07 23.4044C88.9267 23.5 88.7356 23.5477 88.5445 23.5ZM85.1522 18.8655C85.0089 18.8177 84.9133 18.77 84.8178 18.6266L83.1456 16.2855C82.9545 15.9989 83.0022 15.6166 83.2889 15.4255C83.5756 15.2344 83.9578 15.2822 84.1489 15.5689L85.8211 17.91C86.0122 18.1966 85.9645 18.5789 85.6778 18.77C85.5345 18.8655 85.3433 18.9133 85.1522 18.8655ZM81.2344 17.48C80.9478 17.3844 80.7567 17.0977 80.8045 16.8111L81.2344 13.9922L81.8556 14.0877L82.4289 14.1833L81.9989 17.0022C81.9511 17.3366 81.6167 17.5755 81.33 17.5277C81.2822 17.48 81.2822 17.48 81.2344 17.48Z"
        fill="url(#paint5_linear_3796_2219)" />
    <path
        d="M92.4622 27.0352L91.2199 25.3152C91.1722 25.2674 91.1722 25.2674 91.1244 25.2196L90.8855 24.8374C90.6944 24.5507 90.3122 24.5029 90.0733 24.6941L89.4044 23.7385C89.691 23.5474 89.7388 23.1652 89.5477 22.8785L87.8277 20.4896C87.7799 20.4418 87.7799 20.4418 87.7322 20.3941L87.541 20.1074C87.3499 19.8207 86.9677 19.7729 86.7288 19.9641L85.9644 18.9129C86.251 18.7218 86.2988 18.3396 86.1077 18.0529L84.3877 15.6641C84.3399 15.6163 84.3399 15.6163 84.2922 15.5685L84.1488 15.3774C83.9577 15.0907 83.5755 15.0429 83.3366 15.2341L82.5244 14.0874C82.811 13.8963 82.8588 13.5141 82.6677 13.2274C82.5722 13.0841 82.4288 12.9885 82.2855 12.9885L79.371 12.5107C79.0366 12.4629 78.7499 12.7018 78.7022 13.0363L76.9822 12.7496C77.0299 12.4152 76.791 12.1285 76.4566 12.0807L73.5422 11.6029C73.2077 11.5552 72.921 11.7941 72.8733 12.1285L71.1533 11.8418C71.201 11.5074 70.9622 11.2207 70.6277 11.1729L67.7133 10.6952C67.3788 10.6474 67.0922 10.8863 67.0444 11.2207L65.3244 10.9341C65.3722 10.5996 65.1333 10.3129 64.7988 10.2652L61.8844 9.78739C61.5499 9.73961 61.2633 9.9785 61.2155 10.3129L60.3555 10.1696L59.5433 10.0263C59.591 9.69184 59.3522 9.40517 59.0177 9.35739C57.8233 9.16628 56.6766 9.93073 56.3422 11.0774C56.3422 11.1729 56.2944 11.2685 56.2944 11.3641V11.5074C56.2466 11.7941 56.4377 12.0807 56.7244 12.1763H56.7722L56.4855 13.8963C56.151 13.8485 55.8644 14.0874 55.8166 14.4218L55.3388 17.3363C55.291 17.6229 55.4822 17.9096 55.7688 18.0052H55.8166L55.5299 19.7252C55.1955 19.6774 54.9088 19.9163 54.861 20.2507L54.3833 23.1652C54.3355 23.4518 54.5266 23.7385 54.8133 23.8341H54.861L54.5744 25.5541C54.2399 25.5063 53.9533 25.7452 53.9055 26.0796L53.4277 28.9941C53.3799 29.2807 53.571 29.5674 53.8577 29.6629H53.9055L53.6188 31.3829C53.2844 31.3352 52.9977 31.5741 52.9499 31.9085L52.4722 34.8229C52.4244 35.1096 52.6155 35.3963 52.9022 35.4918H52.9499L52.6633 37.2118C52.3288 37.1641 52.0422 37.4029 51.9944 37.7374L51.5166 40.6518C51.4688 40.9385 51.6599 41.2252 51.9466 41.3207H51.9944L51.7077 43.0407C51.3733 42.9929 51.0866 43.2318 51.0388 43.5663L50.561 46.4807C50.5133 46.7674 50.7044 47.0541 50.991 47.1496H51.0388L50.7522 48.8696C50.4177 48.8218 50.131 49.0607 50.0833 49.3952L49.7966 51.3063C49.7488 51.7363 49.7966 52.2141 49.9399 52.6441C50.0355 52.8352 50.1788 52.9307 50.3222 52.9785C50.4655 53.0263 50.6088 53.0263 50.7044 52.9307C50.7522 52.9307 50.7522 52.8829 50.7999 52.8829C51.0866 53.1696 51.421 53.3607 51.851 53.4563L52.3766 53.5518C52.3288 53.8385 52.5199 54.1252 52.8066 54.2207H52.8544L55.7688 54.6985C56.1033 54.7463 56.3899 54.5074 56.4377 54.1729L58.1577 54.4596C58.1099 54.7463 58.301 55.0329 58.5877 55.1285H58.6355L61.5499 55.6063C61.8844 55.6541 62.171 55.4152 62.2188 55.0807L63.9388 55.3674C63.891 55.6541 64.0822 55.9407 64.3688 56.0363H64.4166L67.331 56.5141C67.6655 56.5618 67.9522 56.3229 67.9999 55.9885L69.7199 56.2752C69.6722 56.5618 69.8633 56.8485 70.1499 56.9441H70.1977L73.1122 57.4218C73.4466 57.4696 73.7333 57.2307 73.781 56.8963L75.501 57.1829C75.4533 57.4696 75.6444 57.7563 75.931 57.8518H75.9788L78.8933 58.3296C79.2277 58.3774 79.5144 58.1385 79.5622 57.8041L81.2822 58.0907C81.2344 58.3774 81.4255 58.6641 81.7122 58.7596H81.7599L84.6744 59.2374C85.0088 59.2852 85.2955 59.0463 85.3433 58.7118V58.6641C85.9166 58.6163 86.4422 58.2818 86.7288 57.7563H86.7766H86.8244C87.1588 57.8041 87.4455 57.6129 87.541 57.2785L88.0188 54.3641C88.0666 54.0296 87.8277 53.7429 87.4933 53.6952L87.7799 51.9752C88.1144 52.0229 88.401 51.7841 88.4488 51.4496L88.9266 48.5352C88.9744 48.2007 88.7355 47.9141 88.401 47.8663L88.6877 46.1463C89.0222 46.1941 89.3088 45.9552 89.3566 45.6207L89.8344 42.7063C89.8822 42.3718 89.6433 42.0852 89.3088 42.0374L89.5955 40.3174C89.9299 40.3652 90.2166 40.1263 90.2644 39.7918L90.7422 36.8774C90.7899 36.5429 90.551 36.2563 90.2166 36.2085L90.5033 34.4885C90.8377 34.5363 91.1244 34.2974 91.1722 33.9629L91.6499 31.0485C91.6977 30.7141 91.5066 30.4274 91.1244 30.3796L91.411 28.6596C91.7455 28.7074 92.0322 28.4685 92.0799 28.1341L92.2233 27.3218C92.6055 27.3218 92.5577 27.1785 92.4622 27.0352Z"
        fill="url(#paint6_linear_3796_2219)" />
    <path d="M86.0121 66.3555H30.6377V107.253H86.0121V66.3555Z" fill="url(#paint7_linear_3796_2219)" />
    <path d="M105.362 127.655H49.9878L30.5422 106.729H85.9167L105.362 127.655Z" fill="url(#paint8_linear_3796_2219)" />
    <path d="M85.7256 66.2603V106.68L105.171 127.655V86.327C105.171 86.327 85.0089 65.5436 85.7256 66.2603Z"
        fill="url(#paint9_linear_3796_2219)" />
    <path d="M30.6378 66.3559H86.06L80.5655 57.7559H25.1433L30.6378 66.3559Z" fill="url(#paint10_linear_3796_2219)" />
    <path
        d="M85.7256 66.2603L96.7145 68.2192L116.16 89.1936L105.171 86.327C105.171 86.327 85.0089 65.5436 85.7256 66.2603Z"
        fill="url(#paint11_linear_3796_2219)" />
    <path d="M105.362 86.5658H50.4656L31.02 66.5947H85.9167L105.362 86.5658Z" fill="url(#paint12_linear_3796_2219)" />
    <path
        d="M55.6256 32.7686L34.2211 37.833L32.8356 38.1674C31.88 38.4063 31.2589 39.3619 31.4978 40.3174L40.7667 79.3997C41.0056 80.3552 41.9611 80.9763 42.9167 80.7374L75.5011 72.9974C76.4567 72.7586 77.0778 71.803 76.8389 70.8474L69.9111 41.6074L55.6256 32.7686Z"
        fill="white" />
    <path
        d="M44.0633 81.0722C43.7766 81.1199 43.49 80.9288 43.3944 80.5944C43.2989 80.2599 43.5378 79.9255 43.8244 79.8777L46.6911 79.2088C47.0255 79.1133 47.36 79.3522 47.4078 79.6388C47.5033 79.9733 47.2644 80.3077 46.9778 80.3555L44.1111 81.0244C44.1111 81.0722 44.1111 81.0722 44.0633 81.0722ZM41.2922 80.8333C41.1011 80.8333 40.91 80.7855 40.8144 80.6422C40.48 80.3077 40.2889 79.9255 40.1455 79.4955L39.7155 77.6322C39.62 77.2977 39.8589 76.9633 40.1455 76.9155C40.48 76.82 40.8144 77.0588 40.8622 77.3455L41.2922 79.2088C41.34 79.4477 41.4355 79.6388 41.6266 79.7822C41.8655 80.0211 41.8655 80.4033 41.6266 80.6422C41.5789 80.7855 41.4355 80.8333 41.2922 80.8333ZM49.7489 79.7344C49.4622 79.7822 49.1755 79.5911 49.08 79.2566C48.9844 78.9222 49.2233 78.5877 49.51 78.5399L52.3766 77.8711C52.7111 77.7755 53.0455 78.0144 53.0933 78.3011C53.1889 78.6355 52.95 78.9699 52.6633 79.0177L49.7966 79.6866C49.7966 79.6866 49.7966 79.6866 49.7489 79.7344ZM55.4822 78.3488C55.1955 78.3966 54.9089 78.2055 54.8133 77.8711C54.7178 77.5366 54.9566 77.2022 55.2433 77.1544L58.11 76.4855C58.4444 76.3899 58.7789 76.6288 58.8266 76.9155C58.9222 77.25 58.6833 77.5844 58.3966 77.6322L55.53 78.3011C55.53 78.3488 55.4822 78.3488 55.4822 78.3488ZM61.1678 77.0111C60.8811 77.0588 60.5944 76.8677 60.4989 76.5333C60.4033 76.1988 60.6422 75.8644 60.9289 75.8166L63.7955 75.1477C64.13 75.0522 64.4644 75.2911 64.5122 75.5777C64.6077 75.9122 64.3689 76.2466 64.0822 76.2944L61.2155 76.9633C61.2155 77.0111 61.2155 77.0111 61.1678 77.0111ZM66.8533 75.6733C66.5666 75.7211 66.28 75.5299 66.1844 75.1955C66.0889 74.8611 66.3278 74.5266 66.6144 74.4788L69.4811 73.8099C69.8155 73.7144 70.15 73.9533 70.1978 74.2399C70.2933 74.5744 70.0544 74.9088 69.7677 74.9566L66.9011 75.6255C66.9011 75.6733 66.9011 75.6733 66.8533 75.6733ZM72.5866 74.2877C72.3 74.3355 72.0133 74.1444 71.9178 73.8099C71.8222 73.4755 72.0611 73.1411 72.3478 73.0933L75.2144 72.4244C75.5489 72.3288 75.8833 72.5677 75.9311 72.8544C76.0266 73.1888 75.7878 73.5233 75.5011 73.5711L72.6344 74.2399C72.6344 74.2877 72.5866 74.2877 72.5866 74.2877ZM76.9344 71.4688C76.6478 71.5166 76.3133 71.2777 76.2655 70.9911L75.5966 68.1722C75.5011 67.8377 75.74 67.5033 76.0266 67.4555C76.3611 67.3599 76.6955 67.5988 76.7433 67.8855L77.4122 70.7522C77.46 71.0866 77.2689 71.4211 76.9344 71.4688ZM39.7155 75.2911C39.4289 75.3388 39.1422 75.1477 39.0466 74.8133L38.3778 71.9466C38.2822 71.6122 38.5211 71.2777 38.8078 71.2299C39.1422 71.1344 39.4766 71.3733 39.5244 71.66L40.1933 74.5266C40.2889 74.8611 40.05 75.1955 39.7633 75.2433L39.7155 75.2911ZM75.5489 65.7833C75.2622 65.8311 74.9755 65.6399 74.88 65.3055L74.2111 62.4388C74.1155 62.1044 74.3544 61.7699 74.6411 61.7222C74.9755 61.6266 75.31 61.8655 75.3577 62.1522L76.0266 65.0188C76.1222 65.3533 75.8833 65.6877 75.5966 65.7355C75.5966 65.7833 75.5966 65.7833 75.5489 65.7833ZM38.33 69.5577C38.0433 69.6055 37.7566 69.4144 37.6611 69.0799L36.9922 66.2133C36.8966 65.8788 37.1355 65.5444 37.4222 65.4966C37.7566 65.4011 38.0911 65.6399 38.1389 65.9266L38.8078 68.7933C38.9033 69.1277 38.6644 69.4622 38.3778 69.5099C38.3778 69.5577 38.3778 69.5577 38.33 69.5577ZM74.2111 60.0977C73.9244 60.1455 73.6378 59.9544 73.5422 59.6199L72.8733 56.7533C72.7778 56.4188 73.0166 56.0844 73.3033 56.0366C73.6378 55.9411 73.9722 56.1799 74.02 56.4666L74.6889 59.3333C74.7844 59.6677 74.5455 60.0022 74.2589 60.0499C74.2589 60.0499 74.2589 60.0499 74.2111 60.0977ZM36.9922 63.8722C36.7055 63.9199 36.4189 63.7288 36.3233 63.3944L35.6544 60.5277C35.5589 60.1933 35.7978 59.8588 36.0844 59.8111C36.4189 59.7155 36.7533 59.9544 36.8011 60.2411L37.47 63.1077C37.5655 63.4422 37.3266 63.7766 37.04 63.8244C37.04 63.8722 37.04 63.8722 36.9922 63.8722ZM72.8733 54.3644C72.5866 54.4122 72.3 54.2211 72.2044 53.8866L71.5355 51.0199C71.44 50.6855 71.6789 50.3511 71.9655 50.3033C72.3 50.2077 72.6344 50.4466 72.6822 50.7333L73.3511 53.5999C73.4466 53.9344 73.2078 54.2688 72.9211 54.3166C72.9211 54.3644 72.8733 54.3644 72.8733 54.3644ZM35.6544 58.1866C35.3678 58.2344 35.0811 58.0433 34.9855 57.7088L34.3166 54.8422C34.2211 54.5077 34.46 54.1733 34.7466 54.1255C35.0811 54.0299 35.4155 54.2688 35.4633 54.5555L36.1322 57.4222C36.2278 57.7566 35.9889 58.0911 35.7022 58.1388C35.7022 58.1388 35.6544 58.1388 35.6544 58.1866ZM71.5355 48.6788C71.2489 48.7266 70.9622 48.5355 70.8666 48.2011L70.1978 45.3344C70.1022 44.9999 70.3411 44.6655 70.6278 44.6177C70.9622 44.5222 71.2966 44.7611 71.3444 45.0477L72.0133 47.9144C72.1089 48.2488 71.87 48.5833 71.5833 48.6311C71.5355 48.6788 71.5355 48.6788 71.5355 48.6788ZM34.3166 52.4533C34.03 52.5011 33.7433 52.3099 33.6478 51.9755L32.9789 49.1088C32.8833 48.7744 33.1222 48.4399 33.4089 48.3922C33.7433 48.2966 34.0778 48.5355 34.1255 48.8222L34.7944 51.6888C34.89 52.0233 34.6511 52.3577 34.3644 52.4055C34.3166 52.4533 34.3166 52.4533 34.3166 52.4533ZM70.15 42.9455C69.8633 42.9933 69.5766 42.8022 69.4811 42.4677L69.3378 41.9422L67.7133 40.9388C67.4266 40.7477 67.3311 40.4133 67.5222 40.1266C67.7133 39.8399 68.0478 39.7444 68.3344 39.9355L70.15 41.0344C70.2933 41.1299 70.3889 41.2733 70.4366 41.4166L70.6278 42.1811C70.7233 42.5155 70.4844 42.8499 70.1978 42.8977C70.1978 42.9455 70.1978 42.9455 70.15 42.9455ZM32.9311 46.7677C32.6444 46.8155 32.3578 46.6244 32.2622 46.2899L31.5933 43.4233C31.4978 43.0888 31.7366 42.7544 32.0233 42.7066C32.3578 42.6111 32.6922 42.8499 32.74 43.1366L33.4089 46.0033C33.5044 46.3377 33.2655 46.6722 32.9789 46.7199C32.9789 46.7677 32.9789 46.7677 32.9311 46.7677ZM65.6589 39.5533C65.5155 39.5533 65.3722 39.5533 65.2766 39.4577L62.7922 37.9288C62.5055 37.7377 62.41 37.4033 62.6011 37.1166C62.7922 36.8299 63.1266 36.7344 63.4133 36.9255L65.8978 38.4544C66.1844 38.6455 66.28 38.9799 66.0889 39.2666C65.9933 39.4099 65.85 39.5055 65.6589 39.5533ZM31.5933 41.0822C31.3066 41.1299 31.02 40.9388 30.9244 40.6044L30.8766 40.4611C30.8766 40.3655 30.8289 40.2699 30.8289 40.1744C30.6855 38.9799 31.45 37.8333 32.6444 37.5466C32.9789 37.4511 33.3133 37.6422 33.3611 37.9766C33.4566 38.3111 33.2655 38.6455 32.9311 38.6933C32.3578 38.8366 31.9755 39.4099 32.0233 39.9833C32.0233 40.0311 32.0233 40.0788 32.0711 40.1266L32.1189 40.2699C32.2144 40.6044 31.9755 40.9388 31.6889 40.9866C31.6411 41.0344 31.5933 41.0344 31.5933 41.0822ZM60.69 36.4477C60.5466 36.4477 60.4033 36.4477 60.3078 36.3522L57.8233 34.8233C57.5366 34.6322 57.4411 34.2977 57.6322 34.0111C57.8233 33.7244 58.1578 33.6288 58.4444 33.8199L60.9289 35.3488C61.2155 35.5399 61.3111 35.8744 61.12 36.1611C61.0244 36.3522 60.8811 36.4477 60.69 36.4477ZM35.75 38.1199C35.4633 38.1677 35.1766 37.9766 35.0811 37.6422C34.9855 37.3077 35.2244 36.9733 35.5111 36.9255L38.3778 36.2566C38.7122 36.1611 39.0466 36.3999 39.0944 36.6866C39.19 37.0211 38.9511 37.3555 38.6644 37.4033L35.7978 38.0722C35.7978 38.1199 35.75 38.1199 35.75 38.1199ZM41.4355 36.7344C41.1489 36.7822 40.8622 36.5911 40.7666 36.2566C40.6711 35.9222 40.91 35.5877 41.1966 35.5399L44.0633 34.8711C44.3978 34.7755 44.7322 35.0144 44.78 35.3011C44.8755 35.6355 44.6366 35.9699 44.35 36.0177L41.4833 36.6866C41.4833 36.7344 41.4355 36.7344 41.4355 36.7344ZM47.1211 35.3966C46.8344 35.4444 46.5478 35.2533 46.4522 34.9188C46.3566 34.5844 46.5955 34.2499 46.8822 34.2022L49.7489 33.5333C50.0833 33.4377 50.4178 33.6766 50.4655 33.9633C50.5611 34.2977 50.3222 34.6322 50.0355 34.6799L47.1689 35.3488C47.1689 35.3966 47.1689 35.3966 47.1211 35.3966ZM52.8544 34.0588C52.5678 34.1066 52.2811 33.9155 52.1855 33.5811C52.09 33.2466 52.3289 32.9122 52.6155 32.8644L55.4822 32.1955C55.6255 32.1477 55.8166 32.1955 55.96 32.2911C56.2466 32.4822 56.3422 32.8644 56.1511 33.1033C56.0555 33.2944 55.8644 33.3899 55.6733 33.3899L52.9022 34.0588H52.8544Z"
        fill="url(#paint13_linear_3796_2219)" />
    <path
        d="M59.7822 44.8088C59.2566 44.8566 58.7311 44.761 58.3011 44.5221C58.0144 44.331 57.9189 43.9966 58.0622 43.7099C58.2533 43.4232 58.5878 43.3277 58.8744 43.471C59.1611 43.6143 59.4477 43.6621 59.7344 43.6143L61.2155 43.2799C61.55 43.1843 61.8844 43.4232 61.9322 43.7099C62.0278 44.0443 61.7889 44.3788 61.5022 44.4266L60.0211 44.761C59.9733 44.8088 59.8778 44.8088 59.7822 44.8088ZM64.2733 43.7577C63.9866 43.8054 63.7 43.6143 63.6044 43.2799C63.5089 42.9454 63.7477 42.611 64.0344 42.5632L66.8533 41.8943C67.1878 41.7988 67.5222 42.0377 67.57 42.3243C67.6655 42.6588 67.4266 42.9932 67.14 43.041L64.3211 43.7099C64.3211 43.7577 64.3211 43.7577 64.2733 43.7577ZM69.8633 42.4199C69.6722 42.4199 69.4811 42.3721 69.3377 42.2288C69.2422 42.1332 69.1944 41.9899 69.1944 41.8943L67.2833 40.6999C66.9966 40.5088 66.9011 40.1743 67.0922 39.8877C67.2833 39.601 67.6178 39.5054 67.9044 39.6966L70.0544 41.0343C70.2455 41.1777 70.3889 41.3688 70.4366 41.6077C70.4844 41.8466 70.3889 42.1332 70.1978 42.2766C70.1022 42.3721 69.9589 42.4199 69.8633 42.4199ZM57.5366 42.0854C57.25 42.1332 56.9633 41.9421 56.8677 41.6077L56.1989 38.7888C56.1033 38.4543 56.3422 38.1199 56.6289 38.0721C56.9633 37.9766 57.2977 38.2154 57.3455 38.5021L58.0144 41.321C58.11 41.6554 57.8711 41.9899 57.5844 42.0377C57.5844 42.0854 57.5366 42.0854 57.5366 42.0854ZM65.2289 39.2666C65.0855 39.2666 64.9422 39.2666 64.8466 39.171L62.41 37.6421C62.1233 37.451 62.0277 37.1166 62.2189 36.8299C62.41 36.5432 62.7444 36.4477 63.0311 36.6388L65.4677 38.1677C65.7544 38.3588 65.85 38.6932 65.6589 38.9799C65.5633 39.171 65.42 39.2666 65.2289 39.2666ZM60.3555 36.2566C60.2122 36.2566 60.0689 36.2566 59.9733 36.161L57.5366 34.6321C57.25 34.441 57.1544 34.1066 57.3455 33.8199C57.5366 33.5332 57.8711 33.4377 58.1578 33.6288L60.5944 35.1577C60.8811 35.3488 60.9766 35.6832 60.7855 35.9699C60.69 36.161 60.4989 36.2566 60.3555 36.2566ZM56.1989 36.4954C55.9122 36.5432 55.6255 36.3521 55.53 36.0177L54.8611 33.1988L55.4344 33.0554L56.0078 32.9121L56.6766 35.6832C56.7722 36.0177 56.5333 36.3521 56.2466 36.3999C56.2466 36.4954 56.1989 36.4954 56.1989 36.4954Z"
        fill="url(#paint14_linear_3796_2219)" />
    <path
        d="M70.2455 41.0821L68.43 39.9832C68.3822 39.9832 68.3344 39.9355 68.3344 39.9355L67.9522 39.6966C67.6655 39.5055 67.3311 39.601 67.1399 39.8877L66.1366 39.2666C66.3277 38.9799 66.2322 38.5977 65.9455 38.4543L63.4611 36.9255C63.4133 36.9255 63.3655 36.8777 63.3655 36.8777L63.0788 36.6866C62.7922 36.4955 62.4577 36.591 62.2666 36.8777L61.1677 36.2088C61.3588 35.9221 61.2633 35.5399 60.9766 35.3966L58.4922 33.8677C58.4444 33.8677 58.3966 33.8199 58.3966 33.8199L58.2055 33.7243C57.9188 33.5332 57.5844 33.6288 57.3933 33.9155L56.1988 33.1988C56.39 32.9121 56.2944 32.5299 56.0077 32.3866C55.8644 32.291 55.7211 32.291 55.53 32.291L52.6633 32.9599C52.3288 33.0555 52.1377 33.3421 52.2333 33.6766L50.5611 34.0588C50.4655 33.7244 50.1788 33.5332 49.8444 33.6288L46.9777 34.2977C46.6433 34.3932 46.4522 34.6799 46.5477 35.0144L44.8755 35.3966C44.78 35.0621 44.4933 34.871 44.1588 34.9666L41.2922 35.6355C40.9577 35.731 40.7666 36.0177 40.8622 36.3521L39.1899 36.7344C39.0944 36.3999 38.8077 36.2088 38.4733 36.3043L35.6066 36.9732C35.2722 37.0688 35.0811 37.3555 35.1766 37.6899L34.3166 37.881L33.5044 38.0721C33.4088 37.7377 33.0744 37.5466 32.7877 37.6421C31.5933 37.9288 30.8288 39.0755 30.9722 40.2699C30.9722 40.3655 31.0199 40.461 31.0199 40.5566L31.0677 40.6999C31.1633 40.9866 31.4499 41.1777 31.7366 41.1777H31.7844L32.1666 42.8499C31.8322 42.9455 31.6411 43.2321 31.7366 43.5666L32.4055 46.4332C32.4533 46.7199 32.7877 46.911 33.0744 46.911H33.1222L33.5044 48.5832C33.17 48.6788 32.9788 48.9655 33.0744 49.2999L33.7433 52.1666C33.7911 52.4532 34.1255 52.6444 34.4122 52.6444H34.46L34.8422 54.3166C34.5077 54.4121 34.3166 54.6988 34.4122 55.0332L35.0811 57.8999C35.1288 58.1866 35.4633 58.3777 35.75 58.3777H35.7977L36.18 60.0499C35.8455 60.1455 35.6544 60.4321 35.75 60.7666L36.4188 63.6332C36.4666 63.9199 36.8011 64.111 37.0877 64.111H37.1355L37.5177 65.7832C37.1833 65.8788 36.9922 66.1655 37.0877 66.4999L37.7566 69.3666C37.8044 69.6532 38.1388 69.8443 38.4255 69.8443H38.4733L38.8555 71.5166C38.5211 71.6121 38.33 71.8988 38.4255 72.2332L39.0944 75.0999C39.1422 75.3866 39.4766 75.5777 39.7633 75.5777H39.8111L40.1933 77.2499C39.8588 77.3455 39.6677 77.6321 39.7633 77.9666L40.1933 79.8299C40.2888 80.2599 40.5277 80.6899 40.8622 80.9766C41.0055 81.1199 41.1966 81.1677 41.3399 81.1677C41.4833 81.1677 41.5788 81.0721 41.7222 80.9766C41.77 80.9288 41.7699 80.9288 41.7699 80.881C42.1044 81.0243 42.5344 81.1199 42.9166 81.0243L43.4422 80.881C43.49 81.1677 43.8244 81.3588 44.1111 81.3588H44.1588L47.0255 80.6899C47.36 80.5943 47.5511 80.3077 47.4555 79.9732L49.1277 79.591C49.1755 79.8777 49.51 80.0688 49.7966 80.0688H49.8444L52.7111 79.3999C53.0455 79.3043 53.2366 79.0177 53.1411 78.6832L54.8133 78.301C54.8611 78.5877 55.1955 78.7788 55.4822 78.7788H55.53L58.3966 78.1099C58.7311 78.0144 58.9222 77.7277 58.8266 77.3932L60.4988 77.011C60.5466 77.2977 60.8811 77.4888 61.1677 77.4888H61.2155L64.0822 76.8199C64.4166 76.7243 64.6077 76.4377 64.5122 76.1032L66.1844 75.721C66.2322 76.0077 66.5666 76.1988 66.8533 76.1988H66.9011L69.7677 75.5299C70.1022 75.4343 70.2933 75.1477 70.1977 74.8132L71.87 74.431C71.9177 74.7177 72.2522 74.9088 72.5388 74.9088H72.5866L75.4533 74.2399C75.7877 74.1443 75.9788 73.8577 75.8833 73.5232V73.4755C76.4088 73.1888 76.7433 72.711 76.8388 72.1377H76.8866H76.9344C77.2688 72.0899 77.46 71.7555 77.4122 71.421L76.7433 68.5544C76.6477 68.2199 76.3611 68.0288 76.0266 68.1243L75.6444 66.4521C75.9788 66.3566 76.1699 66.0699 76.0744 65.7355L75.4055 62.8688C75.31 62.5343 75.0233 62.3432 74.6888 62.4388L74.3066 60.7666C74.6411 60.671 74.8322 60.3843 74.7366 60.0499L74.0677 57.1832C73.9722 56.8488 73.6855 56.6577 73.3511 56.7532L72.9688 55.081C73.3033 54.9855 73.4944 54.6988 73.3988 54.3643L72.7299 51.4977C72.6344 51.1632 72.3477 50.9721 72.0133 51.0677L71.6311 49.3955C71.9655 49.2999 72.1566 49.0132 72.0611 48.6788L71.3922 45.8121C71.2966 45.4777 71.01 45.2866 70.6755 45.3821L70.2933 43.7099C70.6277 43.6143 70.8188 43.3277 70.7233 42.9932L70.5322 42.2288C70.4366 41.321 70.3411 41.1777 70.2455 41.0821Z"
        fill="url(#paint15_linear_3796_2219)" />
    <path
        d="M92.8445 52.5005L70.1978 46.0983L68.7167 45.6683C67.7134 45.3816 66.6145 45.9549 66.3278 47.006L54.6222 88.3816C54.3356 89.3849 54.9089 90.4838 55.96 90.7705L90.5034 100.517C91.5067 100.804 92.6056 100.23 92.8922 99.1794L101.636 68.2194L92.8445 52.5005Z"
        fill="url(#paint16_linear_3796_2219)" />
    <path
        d="M92.51 52.7389L89.5955 63.1067C89.3088 64.11 89.8822 65.2089 90.9333 65.4956L92.4144 65.9256L101.301 68.41C101.492 68.4578 101.636 68.2667 101.54 68.1233L92.94 52.7389C92.7966 52.5 92.5577 52.5478 92.51 52.7389Z"
        fill="#D6DCE8" />
    <path
        d="M91.8889 77.5361L66.8056 70.465C66.3278 70.3217 66.0412 69.8439 66.1845 69.3661C66.3278 68.8884 66.8056 68.6017 67.2834 68.745L92.3667 75.8161C92.8445 75.9595 93.1312 76.4373 92.9878 76.915C92.8445 77.3928 92.3667 77.6795 91.8889 77.5361Z"
        fill="white" />
    <path
        d="M82.0466 64.3971L69.5289 60.8615C69.0511 60.7182 68.7644 60.2404 68.9078 59.7626C69.0511 59.2848 69.5289 58.9982 70.0066 59.1415L82.5244 62.6771C83.0022 62.8204 83.2889 63.2982 83.1455 63.776C83.0022 64.2537 82.5244 64.5404 82.0466 64.3971Z"
        fill="white" />
    <path
        d="M89.1655 87.1397L64.0822 80.0685C63.6044 79.9252 63.3178 79.4474 63.4611 78.9697C63.6044 78.4919 64.0822 78.2052 64.56 78.3485L89.6433 85.4197C90.1211 85.563 90.4078 86.0408 90.2644 86.5185C90.1211 86.9963 89.6433 87.283 89.1655 87.1397Z"
        fill="white" />
    <path d="M30.5422 66.2603V106.68L49.9878 127.655V86.327C49.9878 86.327 29.8256 65.5436 30.5422 66.2603Z"
        fill="url(#paint17_linear_3796_2219)" />
    <path d="M105.362 86.7568H49.9878V127.655H105.362V86.7568Z" fill="url(#paint18_linear_3796_2219)" />
    <path
        d="M30.5422 66.2603L19.5533 73.7136L38.9989 94.6881L49.9878 86.327C49.9878 86.327 29.8256 65.5436 30.5422 66.2603Z"
        fill="url(#paint19_linear_3796_2219)" />
    <path d="M49.9878 86.7568H105.362L110.857 100.182H55.4822L49.9878 86.7568Z" fill="url(#paint20_linear_3796_2219)" />
    <path
        d="M2.06658 116.523C7.84769 117.239 13.8677 116.188 19.0277 113.513L19.3621 113.608C21.2255 122.638 26.911 130.808 34.7466 135.729C31.9277 137.019 28.4399 138.309 24.2832 139.169C21.7988 139.695 19.4577 140.029 17.3555 140.173C15.5399 139.552 9.85436 137.354 5.79325 131.334C1.54103 124.932 1.87547 118.386 2.06658 116.523Z"
        fill="url(#paint21_linear_3796_2219)" />
    <path
        d="M17.451 140.077C17.3554 138.501 17.6899 136.876 18.5021 135.443C14.0587 136.924 8.70763 135.252 5.93652 131.43C6.60541 132.863 8.37319 135.969 12.0521 138.119C14.1065 139.361 16.0654 139.839 17.451 140.077Z"
        fill="url(#paint22_linear_3796_2219)" />
    <defs>
        <linearGradient id="paint0_linear_3796_2219" x1="128.492" y1="19.372" x2="112.777" y2="21.617"
            gradientUnits="userSpaceOnUse">
            <stop offset="0.2096" stop-color="#AAB2C5" />
            <stop offset="0.5271" stop-color="#BFC6D6" />
            <stop offset="0.9204" stop-color="#D6DCE8" />
        </linearGradient>
        <linearGradient id="paint1_linear_3796_2219" x1="118.844" y1="21.228" x2="127.997" y2="23.473"
            gradientUnits="userSpaceOnUse">
            <stop offset="0.2096" stop-color="#AAB2C5" />
            <stop offset="0.5271" stop-color="#BFC6D6" />
            <stop offset="0.9204" stop-color="#D6DCE8" />
        </linearGradient>
        <radialGradient id="paint2_radial_3796_2219" cx="0" cy="0" r="1" gradientUnits="userSpaceOnUse"
            gradientTransform="translate(39.6395 115.597) rotate(45) scale(19.548 7.3343)">
            <stop offset="0.015625" stop-color="#66748C" />
            <stop offset="1" stop-color="#66748C" stop-opacity="0" />
        </radialGradient>
        <radialGradient id="paint3_radial_3796_2219" cx="0" cy="0" r="1" gradientUnits="userSpaceOnUse"
            gradientTransform="translate(75.6339 126.047) rotate(-2.23731) scale(32.1383 7.82915)">
            <stop offset="0.015625" stop-color="#66748C" />
            <stop offset="1" stop-color="#66748C" stop-opacity="0" />
        </radialGradient>
        <linearGradient id="paint4_linear_3796_2219" x1="79.3375" y1="9.85276" x2="65.7038" y2="56.1032"
            gradientUnits="userSpaceOnUse">
            <stop offset="0.2096" stop-color="#AAB2C5" />
            <stop offset="0.5271" stop-color="#BFC6D6" />
            <stop offset="0.9204" stop-color="#D6DCE8" />
        </linearGradient>
        <linearGradient id="paint5_linear_3796_2219" x1="89.2382" y1="12.7714" x2="75.6045" y2="59.0218"
            gradientUnits="userSpaceOnUse">
            <stop offset="0.2096" stop-color="#AAB2C5" />
            <stop offset="0.5271" stop-color="#BFC6D6" />
            <stop offset="0.9204" stop-color="#D6DCE8" />
        </linearGradient>
        <linearGradient id="paint6_linear_3796_2219" x1="63.8897" y1="6.02685" x2="75.2855" y2="57.4921"
            gradientUnits="userSpaceOnUse">
            <stop stop-color="#D6DCE8" stop-opacity="0" />
            <stop offset="1" stop-color="#66748C" />
        </linearGradient>
        <linearGradient id="paint7_linear_3796_2219" x1="81.9141" y1="110.349" x2="58.1112" y2="86.546"
            gradientUnits="userSpaceOnUse">
            <stop offset="0.0980489" stop-color="#02786A" />
            <stop offset="1" stop-color="#04AF9A" />
        </linearGradient>
        <linearGradient id="paint8_linear_3796_2219" x1="30.558" y1="117.189" x2="105.367" y2="117.189"
            gradientUnits="userSpaceOnUse">
            <stop offset="0.0980489" stop-color="#02786A" />
            <stop offset="1" stop-color="#04AF9A" />
        </linearGradient>
        <linearGradient id="paint9_linear_3796_2219" x1="85.7177" y1="96.9583" x2="105.169" y2="96.9583"
            gradientUnits="userSpaceOnUse">
            <stop offset="0.0980489" stop-color="#02786A" />
            <stop offset="1" stop-color="#04AF9A" />
        </linearGradient>
        <linearGradient id="paint10_linear_3796_2219" x1="25.1657" y1="62.054" x2="86.0381" y2="62.054"
            gradientUnits="userSpaceOnUse">
            <stop stop-color="#46F9DF" />
            <stop offset="1" stop-color="#00C9B5" />
        </linearGradient>
        <linearGradient id="paint11_linear_3796_2219" x1="85.7177" y1="77.7231" x2="116.161" y2="77.7231"
            gradientUnits="userSpaceOnUse">
            <stop stop-color="#46F9DF" />
            <stop offset="1" stop-color="#00C9B5" />
        </linearGradient>
        <linearGradient id="paint12_linear_3796_2219" x1="68.1975" y1="86.5884" x2="68.1975" y2="68.0646"
            gradientUnits="userSpaceOnUse">
            <stop offset="0.2096" stop-color="#AAB2C5" />
            <stop offset="0.9204" stop-color="#AAB2C5" stop-opacity="0" />
        </linearGradient>
        <linearGradient id="paint13_linear_3796_2219" x1="51.5296" y1="30.1645" x2="56.4812" y2="78.1266"
            gradientUnits="userSpaceOnUse">
            <stop offset="0.2096" stop-color="#AAB2C5" />
            <stop offset="0.5271" stop-color="#BFC6D6" />
            <stop offset="0.9204" stop-color="#D6DCE8" />
        </linearGradient>
        <linearGradient id="paint14_linear_3796_2219" x1="61.7966" y1="29.1045" x2="66.7483" y2="77.0665"
            gradientUnits="userSpaceOnUse">
            <stop offset="0.2096" stop-color="#AAB2C5" />
            <stop offset="0.5271" stop-color="#BFC6D6" />
            <stop offset="0.9204" stop-color="#D6DCE8" />
        </linearGradient>
        <linearGradient id="paint15_linear_3796_2219" x1="22.1745" y1="19.2609" x2="63.4773" y2="70.8012"
            gradientUnits="userSpaceOnUse">
            <stop stop-color="#D6DCE8" stop-opacity="0" />
            <stop offset="1" stop-color="#66748C" />
        </linearGradient>
        <linearGradient id="paint16_linear_3796_2219" x1="95.944" y1="51.6109" x2="74.4086" y2="79.9016"
            gradientUnits="userSpaceOnUse">
            <stop offset="0.2096" stop-color="#AAB2C5" />
            <stop offset="0.5271" stop-color="#BFC6D6" />
            <stop offset="0.9204" stop-color="#D6DCE8" />
        </linearGradient>
        <linearGradient id="paint17_linear_3796_2219" x1="30.5391" y1="96.9583" x2="49.9907" y2="96.9583"
            gradientUnits="userSpaceOnUse">
            <stop offset="0.0980489" stop-color="#02786A" />
            <stop offset="1" stop-color="#04AF9A" />
        </linearGradient>
        <linearGradient id="paint18_linear_3796_2219" x1="49.9907" y1="107.213" x2="105.367" y2="107.213"
            gradientUnits="userSpaceOnUse">
            <stop offset="0.0980489" stop-color="#02786A" />
            <stop offset="1" stop-color="#04AF9A" />
        </linearGradient>
        <linearGradient id="paint19_linear_3796_2219" x1="19.5664" y1="80.4709" x2="49.9907" y2="80.4709"
            gradientUnits="userSpaceOnUse">
            <stop stop-color="#46F9DF" />
            <stop offset="1" stop-color="#00C9B5" />
        </linearGradient>
        <linearGradient id="paint20_linear_3796_2219" x1="49.9907" y1="93.4738" x2="110.863" y2="93.4738"
            gradientUnits="userSpaceOnUse">
            <stop stop-color="#46F9DF" />
            <stop offset="1" stop-color="#00C9B5" />
        </linearGradient>
        <linearGradient id="paint21_linear_3796_2219" x1="14.9963" y1="139.452" x2="19.6893" y2="121.169"
            gradientUnits="userSpaceOnUse">
            <stop offset="0.2096" stop-color="#AAB2C5" />
            <stop offset="0.5271" stop-color="#BFC6D6" />
            <stop offset="0.9204" stop-color="#D6DCE8" />
        </linearGradient>
        <linearGradient id="paint22_linear_3796_2219" x1="17.3528" y1="128.01" x2="10.7176" y2="137.041"
            gradientUnits="userSpaceOnUse">
            <stop offset="0.2096" stop-color="#AAB2C5" />
            <stop offset="0.5271" stop-color="#BFC6D6" />
            <stop offset="0.9204" stop-color="#D6DCE8" />
        </linearGradient>
    </defs>
</svg>