<svg width="172" height="172" viewBox="0 0 172 172" fill="none" xmlns="http://www.w3.org/2000/svg">
    <g clip-path="url(#clip0_3201_14433)">
        <path
            d="M145.149 36.0247H136.979C136.597 36.0247 136.262 35.6902 136.262 35.308V27.0902C136.262 21.8347 140.562 17.5347 145.818 17.5347H153.988C154.37 17.5347 154.704 17.8691 154.704 18.2513V26.4213C154.704 31.7247 150.404 36.0247 145.149 36.0247ZM137.696 34.5913H145.149C149.64 34.5913 153.271 30.9602 153.271 26.4691V19.0158H145.818C141.327 19.0158 137.696 22.6469 137.696 27.138V34.5913Z"
            fill="#EAF0F9" />
        <path
            d="M136.979 36.0247H128.809C123.553 36.0247 119.253 31.7247 119.253 26.4692V18.2992C119.253 17.917 119.588 17.5825 119.97 17.5825H128.14C133.396 17.5825 137.696 21.8825 137.696 27.1381V35.3081C137.696 35.6903 137.361 36.0247 136.979 36.0247ZM120.687 19.0159V26.4692C120.687 30.9603 124.318 34.5914 128.809 34.5914H136.262V27.0903C136.262 22.5992 132.631 18.9681 128.14 18.9681H120.687V19.0159Z"
            fill="#EAF0F9" />
        <path
            d="M153.988 53.0335H145.818C140.562 53.0335 136.262 48.7335 136.262 43.478V35.308C136.262 34.9258 136.597 34.5913 136.979 34.5913H145.149C150.404 34.5913 154.704 38.8913 154.704 44.1469V52.3169C154.704 52.6991 154.37 53.0335 153.988 53.0335ZM137.696 36.0246V43.478C137.696 47.9691 141.327 51.6002 145.818 51.6002H153.271V44.0991C153.271 39.608 149.64 35.9769 145.149 35.9769H137.696V36.0246Z"
            fill="#EAF0F9" />
        <path
            d="M128.14 53.0335H119.97C119.588 53.0335 119.253 52.699 119.253 52.3168V44.099C119.253 38.8435 123.553 34.5435 128.809 34.5435H136.979C137.361 34.5435 137.696 34.8779 137.696 35.2601V43.4779C137.696 48.7335 133.396 53.0335 128.14 53.0335ZM120.687 51.6001H128.14C132.631 51.6001 136.262 47.969 136.262 43.4779V36.0246H128.809C124.318 36.0246 120.687 39.6557 120.687 44.1468V51.6001Z"
            fill="#EAF0F9" />
        <path
            d="M136.979 36.0246C136.788 36.0246 136.597 35.9291 136.454 35.8335L130.672 30.0524C126.946 26.3258 126.946 20.258 130.672 16.5313L136.454 10.7502C136.597 10.6069 136.788 10.5591 136.979 10.5591C137.17 10.5591 137.361 10.6546 137.505 10.7502L143.286 16.5313C147.012 20.258 147.012 26.3258 143.286 30.0524L137.505 35.8335C137.361 35.9291 137.17 36.0246 136.979 36.0246ZM136.979 12.2313L131.724 17.4869C128.57 20.6402 128.57 25.8002 131.724 28.9535L136.979 34.2091L142.235 28.9535C145.388 25.8002 145.388 20.6402 142.235 17.4869L136.979 12.2313Z"
            fill="#EAF0F9" />
        <path
            d="M124.939 44.3858C122.502 44.3858 120.066 43.478 118.202 41.6147L112.421 35.8336C112.135 35.5469 112.135 35.1169 112.421 34.8303L118.202 29.0492C121.929 25.3225 127.997 25.3225 131.724 29.0492L137.505 34.8303C137.648 34.9736 137.696 35.1647 137.696 35.3558C137.696 35.5469 137.6 35.738 137.505 35.8814L131.676 41.5669C129.812 43.4303 127.376 44.3858 124.939 44.3858ZM113.95 35.308L119.206 40.5636C122.359 43.7169 127.519 43.7169 130.672 40.5636L135.928 35.308L130.672 30.0525C127.519 26.8992 122.359 26.8992 119.206 30.0525L113.95 35.308Z"
            fill="#EAF0F9" />
        <path
            d="M148.971 44.3858C146.535 44.3858 144.098 43.478 142.235 41.6147L136.454 35.8336C136.167 35.5469 136.167 35.1169 136.454 34.8303L142.235 29.0492C145.961 25.3225 152.029 25.3225 155.756 29.0492L161.537 34.8303C161.824 35.1169 161.824 35.5469 161.537 35.8336L155.756 41.5669C153.892 43.4303 151.456 44.3858 148.971 44.3858ZM137.982 35.308L143.238 40.5636C146.391 43.7169 151.551 43.7169 154.705 40.5636L159.96 35.308L154.705 30.0525C151.551 26.8992 146.391 26.8992 143.238 30.0525L137.982 35.308Z"
            fill="#EAF0F9" />
        <path
            d="M136.979 60.0569C136.788 60.0569 136.597 59.9613 136.454 59.8658L130.672 54.0846C126.946 50.358 126.946 44.2902 130.672 40.5635L136.454 34.7824C136.597 34.6391 136.788 34.5913 136.979 34.5913C137.17 34.5913 137.361 34.6869 137.505 34.7824L143.286 40.5635C147.012 44.2902 147.012 50.358 143.286 54.0846L137.505 59.8658C137.361 60.0091 137.17 60.0569 136.979 60.0569ZM136.979 36.3113L131.724 41.5669C128.57 44.7202 128.57 49.8802 131.724 53.0335L136.979 58.2891L142.235 53.0335C145.388 49.8802 145.388 44.7202 142.235 41.5669L136.979 36.3113Z"
            fill="#EAF0F9" />
        <path
            d="M136.979 60.0568C123.315 60.0568 112.182 48.9246 112.182 35.2601C112.182 21.5957 123.315 10.5112 136.979 10.5112C150.643 10.5112 161.776 21.6435 161.776 35.3079C161.776 48.9723 150.643 60.0568 136.979 60.0568ZM136.979 11.9446C124.127 11.9446 113.663 22.4079 113.663 35.2601C113.663 48.1123 124.127 58.5757 136.979 58.5757C149.831 58.5757 160.295 48.1123 160.295 35.2601C160.295 22.4079 149.831 11.9446 136.979 11.9446Z"
            fill="#EAF0F9" />
        <path
            d="M43.4777 137.696H35.3077C34.9255 137.696 34.5911 137.361 34.5911 136.979V128.809C34.5911 123.554 38.8911 119.254 44.1466 119.254H52.3166C52.6988 119.254 53.0333 119.588 53.0333 119.97V128.14C53.0333 133.396 48.7333 137.696 43.4777 137.696ZM36.0244 136.263H43.4777C47.9688 136.263 51.6 132.631 51.6 128.14V120.687H44.0988C39.6077 120.687 35.9766 124.318 35.9766 128.809V136.263H36.0244Z"
            fill="#EAF0F9" />
        <path
            d="M35.3078 137.696H27.09C21.8344 137.696 17.5344 133.396 17.5344 128.14V119.97C17.5344 119.588 17.8689 119.254 18.2511 119.254H26.4211C31.6766 119.254 35.9766 123.554 35.9766 128.809V136.979C36.0244 137.361 35.69 137.696 35.3078 137.696ZM19.0155 120.687V128.14C19.0155 132.631 22.6466 136.263 27.1378 136.263H34.5911V128.809C34.5911 124.318 30.96 120.687 26.4689 120.687H19.0155Z"
            fill="#EAF0F9" />
        <path
            d="M52.3168 154.705H44.099C38.8435 154.705 34.5435 150.405 34.5435 145.149V136.979C34.5435 136.597 34.8779 136.262 35.2601 136.262H43.4779C48.7335 136.262 53.0335 140.562 53.0335 145.818V153.988C53.0335 154.37 52.699 154.705 52.3168 154.705ZM36.0246 137.696V145.149C36.0246 149.64 39.6557 153.271 44.1468 153.271H51.6001V145.818C51.6001 141.327 47.969 137.696 43.4779 137.696H36.0246Z"
            fill="#EAF0F9" />
        <path
            d="M26.4689 154.705H18.2989C17.9167 154.705 17.5823 154.37 17.5823 153.988V145.818C17.5823 140.562 21.8823 136.262 27.1378 136.262H35.3078C35.6901 136.262 36.0245 136.597 36.0245 136.979V145.149C36.0245 150.405 31.7245 154.705 26.4689 154.705ZM19.0156 153.271H26.4689C30.9601 153.271 34.5912 149.64 34.5912 145.149V137.696H27.0901C22.5989 137.696 18.9678 141.327 18.9678 145.818V153.271H19.0156Z"
            fill="#EAF0F9" />
        <path
            d="M35.308 137.696C35.1169 137.696 34.9257 137.6 34.7824 137.505L29.0013 131.724C25.2746 127.997 25.2746 121.929 29.0013 118.202L34.7824 112.421C34.9257 112.278 35.1169 112.23 35.308 112.23C35.4991 112.23 35.6902 112.326 35.8335 112.421L41.5669 118.202C45.2935 121.929 45.2935 127.997 41.5669 131.724L35.7857 137.505C35.6424 137.6 35.4991 137.696 35.308 137.696ZM35.308 113.95L30.0524 119.206C26.8991 122.359 26.8991 127.519 30.0524 130.672L35.308 135.928L40.5635 130.672C43.7169 127.519 43.7169 122.359 40.5635 119.206L35.308 113.95Z"
            fill="#EAF0F9" />
        <path
            d="M23.2679 146.057C20.8312 146.057 18.3945 145.149 16.5312 143.286L10.7023 137.457C10.4156 137.17 10.4156 136.74 10.7023 136.454L16.4834 130.672C20.2101 126.946 26.2779 126.946 30.0045 130.672L35.7856 136.454C35.929 136.597 35.9768 136.788 35.9768 136.979C35.9768 137.17 35.8812 137.361 35.7856 137.505L30.0045 143.286C28.1412 145.101 25.7045 146.057 23.2679 146.057ZM12.2312 136.979L17.4868 142.235C20.6401 145.388 25.8001 145.388 28.9534 142.235L34.209 136.979L28.9534 131.724C25.8001 128.57 20.6401 128.57 17.4868 131.724L12.2312 136.979Z"
            fill="#EAF0F9" />
        <path
            d="M47.3002 146.057C44.8635 146.057 42.4268 145.149 40.5635 143.286L34.7824 137.505C34.4957 137.218 34.4957 136.788 34.7824 136.501L40.5635 130.72C44.2902 126.994 50.3579 126.994 54.0846 130.72L59.8657 136.501C60.1524 136.788 60.1524 137.218 59.8657 137.505L54.0846 143.286C52.2213 145.101 49.7368 146.057 47.3002 146.057ZM36.3113 136.979L41.5668 142.235C44.7202 145.388 49.8802 145.388 53.0335 142.235L58.2891 136.979L53.0335 131.724C49.8802 128.57 44.7202 128.57 41.5668 131.724L36.3113 136.979Z"
            fill="#EAF0F9" />
        <path
            d="M35.308 161.728C35.1169 161.728 34.9257 161.632 34.7824 161.537L29.0013 155.756C25.2746 152.029 25.2746 145.961 29.0013 142.235L34.7824 136.454C34.9257 136.31 35.1169 136.262 35.308 136.262C35.4991 136.262 35.6902 136.358 35.8335 136.454L41.5669 142.235C45.2935 145.961 45.2935 152.029 41.5669 155.756L35.7857 161.537C35.6424 161.68 35.4991 161.728 35.308 161.728ZM35.308 137.982L30.0524 143.238C26.8991 146.391 26.8991 151.551 30.0524 154.705L35.308 159.96L40.5635 154.705C43.7169 151.551 43.7169 146.391 40.5635 143.238L35.308 137.982Z"
            fill="#EAF0F9" />
        <path
            d="M35.3079 161.728C21.6435 161.728 10.5112 150.643 10.5112 136.979C10.5112 123.315 21.6435 112.182 35.3079 112.182C48.9723 112.182 60.1046 123.315 60.1046 136.979C60.1046 150.643 48.9246 161.728 35.3079 161.728ZM35.3079 113.616C22.4079 113.616 11.9446 124.079 11.9446 136.979C11.9446 149.879 22.4079 160.295 35.2601 160.295C48.1123 160.295 58.5757 149.831 58.5757 136.979C58.5757 124.127 48.1601 113.616 35.3079 113.616Z"
            fill="#EAF0F9" />
        <path
            d="M94.7436 51.1223H33.9702C32.8235 51.1223 31.9158 50.2145 31.9158 49.0679V26.6123C31.9158 25.4656 32.8235 24.5579 33.9702 24.5579H94.7436C95.8902 24.5579 96.798 25.4656 96.798 26.6123V49.0679C96.798 50.2145 95.8902 51.1223 94.7436 51.1223Z"
            fill="url(#paint0_radial_3201_14433)" />
        <path
            d="M68.9436 32.919H38.0314C37.4581 32.919 37.0281 32.489 37.0281 31.9157C37.0281 31.3424 37.4581 30.9124 38.0314 30.9124H68.9436C69.517 30.9124 69.947 31.3424 69.947 31.9157C69.947 32.489 69.517 32.919 68.9436 32.919Z"
            fill="white" />
        <path
            d="M70.2337 40.9935H61.0126C60.4393 40.9935 60.0093 40.5635 60.0093 39.9902C60.0093 39.4168 60.4393 38.9868 61.0126 38.9868H70.2337C70.8071 38.9868 71.2371 39.4168 71.2371 39.9902C71.2371 40.5635 70.7593 40.9935 70.2337 40.9935Z"
            fill="white" />
        <path
            d="M54.1803 40.9935H38.0314C37.4581 40.9935 37.0281 40.5635 37.0281 39.9902C37.0281 39.4168 37.4581 38.9868 38.0314 38.9868H54.1803C54.7536 38.9868 55.1836 39.4168 55.1836 39.9902C55.1836 40.5635 54.7536 40.9935 54.1803 40.9935Z"
            fill="white" />
        <path
            d="M89.488 45.4367H80.2668C79.1202 45.4367 78.2124 44.5289 78.2124 43.3823V32.4412C78.2124 31.2945 79.1202 30.3867 80.2668 30.3867H89.488C90.6346 30.3867 91.5424 31.2945 91.5424 32.4412V43.3823C91.4946 44.5289 90.5869 45.4367 89.488 45.4367Z"
            fill="white" />
        <path
            d="M94.7436 51.1223H33.9702C32.8235 51.1223 31.9158 50.2145 31.9158 49.0679V26.6123C31.9158 25.4656 32.8235 24.5579 33.9702 24.5579H94.7436C95.8902 24.5579 96.798 25.4656 96.798 26.6123V49.0679C96.798 50.2145 95.8902 51.1223 94.7436 51.1223Z"
            fill="url(#paint1_linear_3201_14433)" />
        <path
            d="M46.3447 45.7712C44.3858 45.7712 42.8569 47.3479 42.8569 49.259V127.901C42.8569 129.86 44.4336 131.389 46.3447 131.389H137.123C139.081 131.389 140.61 129.812 140.61 127.901V49.3068C140.61 47.3479 139.034 45.819 137.123 45.819L46.3447 45.7712Z"
            fill="#EAF0F9" />
        <path
            d="M89.2493 72.7181H58.3371C57.7637 72.7181 57.3337 72.2881 57.3337 71.7148C57.3337 71.1414 57.7637 70.7114 58.3371 70.7114H89.2493C89.8226 70.7114 90.2526 71.1414 90.2526 71.7148C90.2526 72.2881 89.7749 72.7181 89.2493 72.7181Z"
            fill="white" />
        <path
            d="M90.4913 80.8402H81.2702C80.6968 80.8402 80.2668 80.4102 80.2668 79.8368C80.2668 79.2635 80.6968 78.8335 81.2702 78.8335H90.4913C91.0646 78.8335 91.4946 79.2635 91.4946 79.8368C91.4946 80.4102 91.0646 80.8402 90.4913 80.8402Z"
            fill="white" />
        <path
            d="M74.486 80.8402H58.3371C57.7637 80.8402 57.3337 80.4102 57.3337 79.8368C57.3337 79.2635 57.7637 78.8335 58.3371 78.8335H74.486C75.0593 78.8335 75.4893 79.2635 75.4893 79.8368C75.4893 80.4102 75.0593 80.8402 74.486 80.8402Z"
            fill="white" />
        <path
            d="M140.658 57.9069V49.3069C140.658 47.348 139.081 45.8191 137.17 45.8191H46.3926C44.4337 45.8191 42.9048 47.3958 42.9048 49.3069V57.9069H140.658Z"
            fill="url(#paint2_radial_3201_14433)" />
        <path
            d="M49.0204 52.6513H48.877C48.3037 52.6513 47.8259 52.1735 47.8259 51.6002C47.8259 51.0268 48.3037 50.5491 48.877 50.5491H49.0204C49.5937 50.5491 50.0715 51.0268 50.0715 51.6002C50.0715 52.1735 49.6415 52.6513 49.0204 52.6513Z"
            fill="white" />
        <path
            d="M59.5314 52.6513H59.2925C58.7192 52.6513 58.2414 52.1735 58.2414 51.6002C58.2414 51.0268 58.7192 50.5491 59.2925 50.5491H59.5314C60.1047 50.5491 60.5825 51.0268 60.5825 51.6002C60.5825 52.1735 60.1525 52.6513 59.5314 52.6513ZM54.2758 52.6513H54.0369C53.4636 52.6513 52.9858 52.1735 52.9858 51.6002C52.9858 51.0268 53.4636 50.5491 54.0369 50.5491H54.2758C54.8492 50.5491 55.327 51.0268 55.327 51.6002C55.327 52.1735 54.8969 52.6513 54.2758 52.6513Z"
            fill="white" />
        <path
            d="M64.6915 52.6513H64.5482C63.9748 52.6513 63.4971 52.1735 63.4971 51.6002C63.4971 51.0268 63.9748 50.5491 64.5482 50.5491H64.6915C65.2648 50.5491 65.7426 51.0268 65.7426 51.6002C65.7426 52.1735 65.3126 52.6513 64.6915 52.6513Z"
            fill="white" />
        <path
            d="M28.8101 110.892C27.9979 110.892 27.2812 111.561 27.2812 112.421V146.2C27.2812 147.012 27.9501 147.729 28.8101 147.729H67.749C68.5613 147.729 69.2779 147.06 69.2779 146.2V112.421C69.2779 111.609 68.609 110.892 67.749 110.892H28.8101Z"
            fill="url(#paint3_linear_3201_14433)" />
        <path
            d="M36.5502 117.533C35.6424 117.533 34.9258 118.25 34.9258 119.158V139.416C34.9258 140.323 35.6424 141.04 36.5502 141.04H60.1047C61.0124 141.04 61.7291 140.323 61.7291 139.416V119.158C61.7291 118.25 61.0124 117.533 60.1047 117.533H36.5502Z"
            fill="white" />
        <path
            d="M35.1168 138.508C36.4546 135.976 37.7923 133.396 39.1301 130.911C39.6079 130.003 40.7068 129.717 41.5668 130.29C42.2834 130.768 43.0479 131.198 43.7646 131.676C44.529 132.153 45.5801 131.962 46.1057 131.198C48.1123 128.379 50.119 125.56 52.1734 122.741C52.7946 121.881 53.9412 121.786 54.7534 122.455C57.0946 124.557 59.4357 126.611 61.7768 128.713V139.272C61.7768 140.228 61.0123 140.992 60.0568 140.992C52.269 140.945 44.4812 141.088 36.7412 141.04C35.3557 141.04 34.5434 139.655 35.1168 138.508Z"
            fill="white" />
        <path
            d="M42.6657 126.802C44.0906 126.802 45.2457 125.647 45.2457 124.222C45.2457 122.797 44.0906 121.642 42.6657 121.642C41.2408 121.642 40.0857 122.797 40.0857 124.222C40.0857 125.647 41.2408 126.802 42.6657 126.802Z"
            fill="white" />
        <path
            d="M34.9734 138.699C36.3112 136.167 37.649 133.539 39.0345 131.007C39.5123 130.099 40.659 129.812 41.519 130.338C42.2834 130.816 43.0001 131.294 43.7645 131.724C44.529 132.201 45.5801 132.01 46.1057 131.246C48.1601 128.379 50.1668 125.512 52.2212 122.694C52.8423 121.834 54.0368 121.69 54.8012 122.407C57.1423 124.509 59.5312 126.611 61.8723 128.761V139.464C61.8723 140.419 61.0601 141.231 60.1045 141.231C52.2212 141.184 44.3857 141.327 36.5023 141.279C35.1645 141.231 34.3523 139.846 34.9734 138.699Z"
            fill="url(#paint4_linear_3201_14433)" />
        <path
            d="M42.6657 126.802C44.0906 126.802 45.2457 125.647 45.2457 124.222C45.2457 122.797 44.0906 121.642 42.6657 121.642C41.2408 121.642 40.0857 122.797 40.0857 124.222C40.0857 125.647 41.2408 126.802 42.6657 126.802Z"
            fill="url(#paint5_linear_3201_14433)" />
        <path
            d="M145.818 118.298H85.0447C83.898 118.298 82.9902 117.39 82.9902 116.243V93.7878C82.9902 92.6412 83.898 91.7334 85.0447 91.7334H145.818C146.965 91.7334 147.872 92.6412 147.872 93.7878V116.243C147.825 117.39 146.917 118.298 145.818 118.298Z"
            fill="url(#paint6_radial_3201_14433)" />
        <path
            d="M120.018 100.047H89.1059C88.5325 100.047 88.1025 99.6167 88.1025 99.0434C88.1025 98.47 88.5325 98.04 89.1059 98.04H120.018C120.591 98.04 121.021 98.47 121.021 99.0434C121.021 99.6167 120.544 100.047 120.018 100.047Z"
            fill="white" />
        <path
            d="M121.26 108.169H112.039C111.466 108.169 111.036 107.739 111.036 107.166C111.036 106.592 111.466 106.162 112.039 106.162H121.26C121.834 106.162 122.264 106.592 122.264 107.166C122.264 107.739 121.834 108.169 121.26 108.169Z"
            fill="white" />
        <path
            d="M105.255 108.169H89.1059C88.5325 108.169 88.1025 107.739 88.1025 107.166C88.1025 106.592 88.5325 106.162 89.1059 106.162H105.255C105.828 106.162 106.258 106.592 106.258 107.166C106.258 107.739 105.828 108.169 105.255 108.169Z"
            fill="white" />
        <path
            d="M140.515 112.612H131.294C130.147 112.612 129.239 111.704 129.239 110.558V99.6167C129.239 98.47 130.147 97.5623 131.294 97.5623H140.515C141.661 97.5623 142.569 98.47 142.569 99.6167V110.558C142.569 111.704 141.661 112.612 140.515 112.612Z"
            fill="white" />
        <path
            d="M151.695 29.0968C151.695 27.8068 150.691 26.8035 149.401 26.8035H118.728C117.438 26.8035 116.435 27.8068 116.435 29.0968V48.5424C116.435 49.8324 117.438 50.8357 118.728 50.8357H145.77C145.77 54.4668 144.91 58.0979 143.286 61.3468C142.999 61.8724 143.716 62.3501 144.146 61.9679C144.241 61.8724 144.337 61.7768 144.432 61.6812C149.258 57.0468 151.886 50.549 151.838 43.8124L151.695 29.0968Z"
            fill="url(#paint7_linear_3201_14433)" />
        <path
            d="M20.4969 82.6079C20.4969 81.6524 21.2613 80.8879 22.2169 80.8879H45.5324C46.488 80.8879 47.2524 81.6524 47.2524 82.6079V97.3713C47.2524 98.3268 46.488 99.0913 45.5324 99.0913H24.988C24.988 101.862 25.6569 104.586 26.8991 107.07C27.0902 107.452 26.6124 107.835 26.278 107.548C26.1824 107.5 26.1346 107.405 26.0869 107.357C22.408 103.821 20.4013 98.9002 20.4491 93.7879L20.4969 82.6079Z"
            fill="url(#paint8_linear_3201_14433)" />
    </g>
    <defs>
        <radialGradient id="paint0_radial_3201_14433" cx="0" cy="0" r="1" gradientUnits="userSpaceOnUse"
            gradientTransform="translate(33.0722 20.6657) scale(47.4908 47.4908)">
            <stop stop-color="#D6DCE8" />
            <stop offset="1" stop-color="#AAB2C5" />
        </radialGradient>
        <linearGradient id="paint1_linear_3201_14433" x1="64.2079" y1="28.3328" x2="64.5535" y2="50.4516"
            gradientUnits="userSpaceOnUse">
            <stop stop-color="#D6DCE8" stop-opacity="0" />
            <stop offset="1" stop-color="#66748C" />
        </linearGradient>
        <radialGradient id="paint2_radial_3201_14433" cx="0" cy="0" r="1" gradientUnits="userSpaceOnUse"
            gradientTransform="translate(143.642 51.3216) scale(70.7515 70.7515)">
            <stop stop-color="#D6DCE8" />
            <stop offset="1" stop-color="#AAB2C5" />
        </radialGradient>
        <linearGradient id="paint3_linear_3201_14433" x1="35.3005" y1="109.885" x2="57.2856" y2="142.662"
            gradientUnits="userSpaceOnUse">
            <stop stop-color="#D6DCE8" />
            <stop offset="1" stop-color="#AAB2C5" />
        </linearGradient>
        <linearGradient id="paint4_linear_3201_14433" x1="32.8111" y1="111.298" x2="55.0453" y2="144.447"
            gradientUnits="userSpaceOnUse">
            <stop stop-color="#D6DCE8" />
            <stop offset="1" stop-color="#AAB2C5" />
        </linearGradient>
        <linearGradient id="paint5_linear_3201_14433" x1="33.7462" y1="110.927" x2="55.7312" y2="143.705"
            gradientUnits="userSpaceOnUse">
            <stop stop-color="#D6DCE8" />
            <stop offset="1" stop-color="#AAB2C5" />
        </linearGradient>
        <radialGradient id="paint6_radial_3201_14433" cx="0" cy="0" r="1" gradientUnits="userSpaceOnUse"
            gradientTransform="translate(84.1254 87.8309) scale(47.4908 47.4908)">
            <stop stop-color="#D6DCE8" />
            <stop offset="1" stop-color="#AAB2C5" />
        </radialGradient>
        <linearGradient id="paint7_linear_3201_14433" x1="116.438" y1="44.4218" x2="151.831" y2="44.4218"
            gradientUnits="userSpaceOnUse">
            <stop offset="0.0980489" stop-color="#02786A" />
            <stop offset="1" stop-color="#04AF9A" />
        </linearGradient>
        <linearGradient id="paint8_linear_3201_14433" x1="47.3254" y1="94.2552" x2="20.4225" y2="94.2552"
            gradientUnits="userSpaceOnUse">
            <stop offset="0.0980489" stop-color="#02786A" />
            <stop offset="1" stop-color="#04AF9A" />
        </linearGradient>
        <clipPath id="clip0_3201_14433">
            <rect width="151.217" height="151.217" fill="white" transform="translate(10.5112 10.5112)" />
        </clipPath>
    </defs>
</svg>