<svg width="172" height="172" viewBox="0 0 172 172" fill="none" xmlns="http://www.w3.org/2000/svg">
  <path
    d="M100.241 128.856L85.0951 121.738C84.3785 121.403 84.2352 120.734 84.8085 120.304L96.514 110.892C104.063 104.824 118.11 103.63 127.856 108.216L143.002 115.335C143.718 115.67 143.862 116.339 143.288 116.769L131.583 126.181C124.082 132.249 109.987 133.443 100.241 128.856ZM88.4874 120.734L102.295 127.232C110.561 131.15 122.505 130.099 128.955 124.939L139.657 116.339L125.85 109.841C117.584 105.923 105.64 106.974 99.1896 112.134L88.4874 120.734Z"
    fill="#EAF0F9" />
  <path
    d="M85.0951 121.738L69.9496 114.619C60.2029 110.033 58.4351 101.385 65.9362 95.317L77.6418 85.9048C78.2151 85.427 79.2662 85.3792 79.9829 85.7137L95.1284 92.8326C104.875 97.4192 106.691 106.067 99.1418 112.135L87.4362 121.547C86.9107 122.025 85.8596 122.073 85.0951 121.738ZM79.314 87.9592L68.6118 96.5592C62.2096 101.719 63.7385 109.077 72.004 112.995L85.8118 119.493L96.514 110.893C102.916 105.733 101.387 98.3748 93.1218 94.457L79.314 87.9592Z"
    fill="#EAF0F9" />
  <path
    d="M92.214 156.137L77.0685 149.018C67.3218 144.431 65.554 135.783 73.0551 129.715L84.7607 120.303C85.334 119.825 86.3851 119.778 87.1018 120.112L102.247 127.231C111.994 131.818 113.762 140.465 106.261 146.533L94.5551 155.945C94.0296 156.423 92.9785 156.519 92.214 156.137ZM86.4329 122.358L75.7307 130.958C69.3285 136.118 70.8573 143.475 79.1229 147.393L92.9307 153.891L103.633 145.291C110.035 140.131 108.506 132.773 100.241 128.855L86.4329 122.358Z"
    fill="#EAF0F9" />
  <path
    d="M44.3884 133.634L29.2429 126.515C28.5262 126.18 28.3829 125.512 28.9562 125.082L40.6617 115.669C48.2106 109.602 62.2573 108.407 72.004 112.994L87.1495 120.113C87.8662 120.447 88.0095 121.116 87.4362 121.546L75.7306 130.958C68.2295 137.026 54.1351 138.22 44.3884 133.634ZM32.6351 125.512L46.4429 132.009C54.7084 135.927 66.6529 134.876 73.1029 129.716L83.8051 121.116L69.9973 114.618C61.7317 110.7 49.7873 111.752 43.3373 116.912L32.6351 125.512Z"
    fill="#EAF0F9" />
  <path
    d="M85.0951 121.737C84.7607 121.594 84.5218 121.307 84.474 121.068L82.0373 109.363C80.4607 101.814 89.1562 94.8384 101.387 93.7873L120.355 92.1628C120.785 92.115 121.263 92.2106 121.597 92.3539C121.932 92.4973 122.171 92.7839 122.218 93.0228L124.655 104.728C126.232 112.277 117.536 119.253 105.305 120.304L86.3373 121.928C85.9073 121.976 85.4773 121.928 85.0951 121.737ZM119.161 94.3606L101.865 95.8417C91.4973 96.7495 84.0918 102.674 85.4295 109.076L87.6273 119.731L104.923 118.249C115.291 117.342 122.696 111.417 121.358 105.015L119.161 94.3606Z"
    fill="#EAF0F9" />
  <path
    d="M50.8862 120.925C46.3473 118.775 43.1462 115.573 42.3818 111.847L39.9451 100.141C39.8496 99.5679 40.4707 99.0423 41.3784 98.9468L60.3462 97.3223C72.5773 96.2712 83.8051 101.575 85.334 109.076L87.7707 120.781C87.8184 121.068 87.7229 121.307 87.4362 121.546C87.1496 121.785 86.7673 121.928 86.3373 121.928L67.3696 123.552C61.254 124.078 55.3773 123.027 50.8862 120.925ZM43.5284 100.858L45.7262 111.512C47.064 117.915 56.5718 122.406 66.9396 121.498L84.2351 120.017L82.0373 109.362C80.6996 102.96 71.1918 98.469 60.824 99.3768L43.5284 100.858Z"
    fill="#EAF0F9" />
  <path
    d="M95.3673 141.852C90.8284 139.702 87.6273 136.501 86.8629 132.774L84.4262 121.069C84.3306 120.496 84.9517 119.97 85.8595 119.874L104.827 118.25C117.058 117.199 128.286 122.502 129.815 130.003L132.252 141.709C132.347 142.282 131.726 142.808 130.818 142.903L111.851 144.528C105.783 145.053 99.9062 144.002 95.3673 141.852ZM88.0095 121.786L90.2073 132.44C91.5451 138.842 101.053 143.333 111.421 142.426L128.716 140.944L126.518 130.29C125.181 123.888 115.673 119.397 105.305 120.304L88.0095 121.786Z"
    fill="#EAF0F9" />
  <path
    d="M50.6474 149.448C50.3129 149.305 50.074 149.018 50.0262 148.779L47.5896 137.074C46.0129 129.525 54.7085 122.549 66.9396 121.498L85.9074 119.874C86.3374 119.826 86.8151 119.922 87.1496 120.065C87.484 120.208 87.7229 120.495 87.7707 120.734L90.2074 132.439C91.784 139.988 83.0885 146.964 70.8574 148.015L51.8896 149.639C51.4596 149.687 50.9818 149.639 50.6474 149.448ZM84.6651 122.072L67.3696 123.553C57.0018 124.46 49.5962 130.385 50.934 136.787L53.1318 147.442L70.4274 145.96C80.7951 145.053 88.2007 139.128 86.8629 132.726L84.6651 122.072Z"
    fill="#EAF0F9" />
  <path
    d="M50.6473 149.45C25.3729 137.553 20.7384 115.05 40.2796 99.3306C59.8207 83.6117 96.3229 80.4584 121.645 92.3551C146.967 104.252 151.554 126.755 132.013 142.474C112.472 158.193 75.9218 161.346 50.6473 149.45ZM119.591 94.0273C95.7495 82.8473 61.3973 85.7617 42.9551 100.621C24.5129 115.48 28.9084 136.597 52.7018 147.825C76.4951 159.053 110.895 156.091 129.337 141.28C147.78 126.468 143.384 105.255 119.591 94.0273Z"
    fill="#EAF0F9" />
  <path
    d="M38.1745 100.191H12.7089C11.7534 100.191 10.9411 99.7128 10.4156 98.9006C9.9378 98.0884 9.89003 97.1328 10.32 96.2728L23.0289 70.8073C23.5067 69.8995 24.4145 69.3262 25.4178 69.3262C26.4211 69.3262 27.3767 69.8995 27.8067 70.8073L40.5156 96.2728C40.9456 97.1328 40.8978 98.0884 40.42 98.9006C39.99 99.7128 39.13 100.191 38.1745 100.191ZM25.4656 71.8584C25.37 71.8584 25.3222 71.9539 25.3222 71.9539L12.5656 97.4195C12.5656 97.4195 12.5178 97.5151 12.5656 97.6106C12.6134 97.7062 12.7089 97.7062 12.7089 97.7062H38.1745C38.2222 97.7062 38.27 97.7062 38.3178 97.6106C38.3656 97.5151 38.3178 97.4673 38.3178 97.4195L25.6089 71.9539C25.6089 71.9539 25.5611 71.8584 25.4656 71.8584Z"
    fill="#EAF0F9" />
  <path
    d="M24.0322 94.7433C23.8889 94.7433 23.7933 94.6955 23.6978 94.6C23.6022 94.5044 23.5544 94.4089 23.5544 94.2655V91.4466C23.5544 91.3033 23.6022 91.2078 23.6978 91.1122C23.7933 91.0166 23.8889 90.9689 24.0322 90.9689H26.8033C26.9467 90.9689 27.0422 91.0166 27.1378 91.1122C27.2333 91.2078 27.2811 91.3033 27.2811 91.4466V94.2655C27.2811 94.4089 27.2333 94.5044 27.1378 94.6C27.0422 94.6955 26.8989 94.7433 26.8033 94.7433H24.0322ZM24.08 90.1089C23.9367 90.1089 23.8411 90.0611 23.7456 89.9655C23.65 89.87 23.6022 89.7744 23.6022 89.6311V82.0344C23.6022 81.8911 23.65 81.7955 23.7456 81.7C23.8411 81.6044 23.9367 81.5566 24.08 81.5566H26.8033C26.9467 81.5566 27.0422 81.6044 27.1378 81.7C27.2333 81.7955 27.2811 81.8911 27.2811 82.0344V89.6311C27.2811 89.7744 27.2333 89.87 27.1378 89.9655C27.0422 90.0611 26.8989 90.1089 26.8033 90.1089H24.08Z"
    fill="#EAF0F9" />
  <path
    d="M138.804 34.8784H118.695C117.977 34.8784 117.259 34.5193 116.9 33.8524C116.489 33.2368 116.489 32.4674 116.797 31.8005L126.852 11.6916C127.211 10.9734 127.929 10.5117 128.75 10.5117C129.571 10.5117 130.289 10.9734 130.648 11.6916L140.702 31.8005C141.01 32.4674 141.01 33.2368 140.6 33.8524C140.241 34.5193 139.574 34.8784 138.804 34.8784ZM128.75 12.5124C128.647 12.5124 128.647 12.5636 128.596 12.6149L118.541 32.7239C118.541 32.7239 118.49 32.7752 118.541 32.8778C118.593 32.9291 118.644 32.9291 118.644 32.9291H138.753C138.753 32.9291 138.856 32.9291 138.856 32.8778C138.907 32.8265 138.856 32.7752 138.856 32.7239L128.904 12.5636C128.852 12.5636 128.852 12.5124 128.75 12.5124Z"
    fill="#EAF0F9" />
  <path
    d="M127.621 30.5698C127.519 30.5698 127.416 30.5185 127.365 30.4672C127.314 30.4159 127.262 30.3133 127.262 30.2107V27.9536C127.262 27.851 127.314 27.7484 127.365 27.6971C127.416 27.5945 127.519 27.5945 127.621 27.5945H129.827C129.93 27.5945 130.032 27.6458 130.135 27.6971C130.238 27.7997 130.238 27.851 130.238 27.9536V30.1594C130.238 30.262 130.186 30.3646 130.135 30.4159C130.032 30.4672 129.981 30.5185 129.827 30.5185H127.621V30.5698ZM127.673 26.9276C127.57 26.9276 127.467 26.8763 127.416 26.825C127.365 26.7737 127.314 26.6711 127.314 26.5685V20.5153C127.314 20.4127 127.365 20.3101 127.416 20.2588C127.467 20.2075 127.57 20.1562 127.673 20.1562H129.827C129.93 20.1562 130.032 20.2075 130.135 20.2588C130.238 20.3101 130.238 20.4127 130.238 20.5153V26.5172C130.238 26.6198 130.186 26.7224 130.135 26.7737C130.032 26.825 129.981 26.8763 129.827 26.8763H127.673V26.9276Z"
    fill="#EAF0F9" />
  <path
    d="M159.817 107.882H141.088C140.419 107.882 139.75 107.547 139.416 106.926C139.033 106.353 139.033 105.636 139.32 105.015L148.685 86.2864C149.019 85.6175 149.688 85.1875 150.452 85.1875C151.217 85.1875 151.886 85.6175 152.22 86.2864L161.585 105.015C161.871 105.636 161.871 106.353 161.489 106.926C161.107 107.5 160.486 107.882 159.817 107.882ZM150.452 87.0031C150.357 87.0031 150.357 87.0508 150.309 87.0986L140.945 105.827C140.945 105.827 140.897 105.875 140.945 105.971C140.992 106.019 141.04 106.019 141.04 106.019H159.769C159.769 106.019 159.865 106.019 159.865 105.971C159.912 105.923 159.865 105.875 159.865 105.827L150.5 87.0986C150.548 87.0508 150.5 87.0031 150.452 87.0031Z"
    fill="#EAF0F9" />
  <path
    d="M149.401 103.868C149.306 103.868 149.21 103.82 149.162 103.772C149.114 103.725 149.067 103.629 149.067 103.533V101.479C149.067 101.383 149.114 101.288 149.162 101.24C149.21 101.145 149.306 101.145 149.401 101.145H151.456C151.551 101.145 151.647 101.192 151.742 101.24C151.838 101.336 151.838 101.383 151.838 101.479V103.533C151.838 103.629 151.79 103.725 151.742 103.772C151.647 103.82 151.599 103.868 151.456 103.868H149.401ZM149.449 100.476C149.353 100.476 149.258 100.428 149.21 100.38C149.162 100.332 149.114 100.237 149.114 100.141V94.5512C149.114 94.4557 149.162 94.3601 149.21 94.3124C149.258 94.2646 149.353 94.2168 149.449 94.2168H151.456C151.551 94.2168 151.647 94.2646 151.742 94.3124C151.838 94.3601 151.838 94.4557 151.838 94.5512V100.141C151.838 100.237 151.79 100.332 151.742 100.38C151.647 100.428 151.599 100.476 151.456 100.476H149.449Z"
    fill="#EAF0F9" />
  <path
    d="M137.773 66.6884H74.9996L75.934 60.9167C76.3188 58.4432 74.3949 56.1895 71.9214 56.1895H44.6021C42.6232 56.1895 40.8642 57.6736 40.5894 59.6525L38.3906 73.5045L30.0904 125.834C29.7056 128.308 31.6295 130.562 34.1031 130.562H128.924C130.902 130.562 132.661 129.078 132.936 127.099L141.731 71.4157C142.171 68.9421 140.302 66.6884 137.773 66.6884Z"
    fill="url(#paint0_linear_3655_14094)" />
  <path
    d="M132.505 44.6958H107.831V32.3811C107.831 25.5687 113.377 20.0664 120.146 20.0664C126.915 20.0664 132.461 25.6124 132.461 32.3811V44.6958H132.505ZM111.893 40.6346H128.443V32.3374C128.443 27.7522 124.731 24.0403 120.146 24.0403C115.561 24.0403 111.849 27.7522 111.849 32.3374V40.6346H111.893Z"
    fill="#AAB2C5" />
  <path
    d="M135.081 70.5918H105.211C103.814 70.5918 102.722 69.4564 102.722 68.1027V34.4774C102.722 33.08 103.858 31.9883 105.211 31.9883H135.081C136.478 31.9883 137.57 33.1237 137.57 34.4774V68.1027C137.57 69.5001 136.478 70.5918 135.081 70.5918Z"
    fill="#AAB2C5" />
  <path
    d="M133.553 53.6924V48.5832C132.548 48.8015 131.544 49.0635 130.539 49.2819C130.19 48.3648 129.884 47.4478 129.535 46.5307C130.496 45.963 131.5 45.3953 132.461 44.8276C132.155 44.1289 131.631 43.1245 130.714 42.1201C129.972 41.3341 129.229 40.7664 128.662 40.417C128.007 41.5088 127.395 42.6005 126.74 43.7359C125.823 43.3865 124.95 43.0808 124.033 42.7315C124.207 41.2904 124.382 39.8493 124.557 38.4519C124.207 38.3209 123.814 38.1899 123.334 38.0589C122.504 37.8842 121.806 37.7969 121.194 37.7969C120.627 37.7969 119.928 37.8842 119.185 38.0589C118.749 38.1462 118.312 38.2772 117.963 38.4519C118.137 39.893 118.312 41.3341 118.487 42.7315C117.57 43.0808 116.696 43.3865 115.779 43.7359C115.124 42.6441 114.513 41.5524 113.858 40.417C113.29 40.7664 112.504 41.2904 111.805 42.1201C110.888 43.1245 110.364 44.0852 110.059 44.8276C111.019 45.3953 112.024 45.963 112.984 46.5307C112.635 47.4478 112.329 48.3648 111.98 49.2819C110.976 49.0635 109.971 48.8015 108.967 48.5832V53.6924C109.971 53.4741 110.976 53.2121 111.98 52.9937C112.329 53.9108 112.635 54.8278 112.984 55.7449C112.024 56.3126 111.019 56.8803 110.059 57.448C110.364 58.1467 110.888 59.1511 111.805 60.1555C112.548 60.9415 113.29 61.5092 113.858 61.8586C114.513 60.7668 115.124 59.6751 115.779 58.5397C116.696 58.8891 117.57 59.1948 118.487 59.5441C118.312 60.9852 118.137 62.4263 117.963 63.8237C118.312 63.9547 118.705 64.0857 119.185 64.2167C120.015 64.3914 120.714 64.4787 121.325 64.4787C121.893 64.4787 122.592 64.3914 123.334 64.2167C123.771 64.1294 124.207 63.9984 124.557 63.8237C124.382 62.3826 124.207 60.9415 124.033 59.5441C124.95 59.1948 125.823 58.8891 126.74 58.5397C127.395 59.6315 128.007 60.7232 128.662 61.8586C129.229 61.5092 130.015 60.9852 130.714 60.1555C131.631 59.1511 132.155 58.1904 132.461 57.448C131.5 56.8803 130.496 56.3126 129.535 55.7449C129.884 54.8278 130.19 53.9108 130.539 52.9937C131.544 53.2558 132.548 53.4741 133.553 53.6924ZM121.413 56.5309C118.399 56.5309 115.954 54.0855 115.954 51.0723C115.954 48.0591 118.399 45.6137 121.413 45.6137C124.426 45.6137 126.871 48.0591 126.871 51.0723C126.871 54.1291 124.426 56.5309 121.413 56.5309Z"
    fill="#D6DCE8" />
  <path
    d="M121.238 54.7413C123.24 54.7413 124.862 53.1185 124.862 51.1167C124.862 49.115 123.24 47.4922 121.238 47.4922C119.236 47.4922 117.613 49.115 117.613 51.1167C117.613 53.1185 119.236 54.7413 121.238 54.7413Z"
    fill="#D6DCE8" />
  <path
    d="M22.5047 81.4187L29.8155 127.592C30.1453 129.571 31.8494 131.055 33.8282 131.055H128.649C131.177 131.055 133.046 128.801 132.661 126.328L125.351 80.1544C125.021 78.1756 123.317 76.6914 121.338 76.6914H26.5174C24.0438 76.7464 22.12 78.9451 22.5047 81.4187Z"
    fill="#04AF9A" />
  <path
    d="M77.6383 122.096C87.6868 122.096 95.8328 113.95 95.8328 103.902C95.8328 93.853 87.6868 85.707 77.6383 85.707C67.5897 85.707 59.4437 93.853 59.4437 103.902C59.4437 113.95 67.5897 122.096 77.6383 122.096Z"
    fill="url(#paint1_linear_3655_14094)" />
  <path
    d="M77.6381 123.47C66.8643 123.47 58.0693 114.675 58.0693 103.901C58.0693 93.127 66.8643 84.332 77.6381 84.332C88.4119 84.332 97.2068 93.127 97.2068 103.901C97.2068 114.675 88.4119 123.47 77.6381 123.47ZM77.6381 87.0805C68.3484 87.0805 60.8178 94.6111 60.8178 103.901C60.8178 113.19 68.3484 120.721 77.6381 120.721C86.9277 120.721 94.4584 113.19 94.4584 103.901C94.4584 94.6111 86.8728 87.0805 77.6381 87.0805Z"
    fill="white" />
  <path
    d="M77.6382 117.313C76.374 117.313 75.3845 116.269 75.3845 115.059V101.097C75.3845 99.8332 76.4289 98.8438 77.6382 98.8438C78.9025 98.8438 79.8919 99.8881 79.8919 101.097V115.059C79.8919 116.324 78.8475 117.313 77.6382 117.313Z"
    fill="#02786A" />
  <path
    d="M77.6381 102.363C80.4614 102.363 82.7501 100.074 82.7501 97.2507C82.7501 94.4274 80.4614 92.1387 77.6381 92.1387C74.8147 92.1387 72.526 94.4274 72.526 97.2507C72.526 100.074 74.8147 102.363 77.6381 102.363Z"
    fill="#02786A" />
  <path
    d="M148.001 145.899L150.737 142.395C151.392 141.584 151.261 140.385 150.407 139.741L138.046 130.055C137.592 129.717 137.055 129.584 136.574 129.664L123.24 119.228C124.472 115.388 123.243 111.051 119.913 108.452C116.571 105.811 112.068 105.713 108.653 107.841L112.556 110.883C113.248 111.433 113.389 112.492 112.84 113.184L110.611 116.007C110.061 116.699 109.002 116.84 108.31 116.291C107.301 115.23 106.281 114.127 105.272 113.067C104.973 113.146 104.705 113.17 104.406 113.249C103.154 117.185 104.511 121.489 107.733 124.024C111.064 126.623 115.578 126.764 118.994 124.635L132.262 134.997C132.268 135.544 132.51 136.12 132.976 136.5L145.336 146.187C146.159 146.885 147.346 146.71 148.001 145.899Z"
    fill="url(#paint2_linear_3655_14094)" />
  <path
    d="M145.95 136.16L124.063 119.059C125.295 115.219 124.067 110.882 120.736 108.283C117.394 105.642 112.892 105.543 109.476 107.672L113.38 110.714C114.072 111.264 114.212 112.323 113.663 113.015L111.434 115.838C110.885 116.53 109.825 116.671 109.133 116.121L105.229 113.079C104.041 116.908 105.226 121.257 108.557 123.855C111.887 126.453 116.401 126.595 119.817 124.466L141.704 141.567C142.515 142.222 143.714 142.091 144.358 141.237L146.238 138.825C146.936 138.003 146.762 136.815 145.95 136.16Z"
    fill="url(#paint3_linear_3655_14094)" />
  <path
    d="M146.202 146.005L133.842 136.319C133.031 135.664 132.856 134.476 133.511 133.665L136.247 130.161C136.902 129.35 138.09 129.176 138.901 129.831L151.262 139.517C152.073 140.172 152.247 141.36 151.592 142.171L148.856 145.675C148.201 146.486 147.014 146.661 146.202 146.005Z"
    fill="url(#paint4_linear_3655_14094)" />
  <path
    d="M48.8786 25.3883L66.8176 61.2662C67.4624 62.6146 66.5244 64.1974 65.0002 64.1974H29.1223C27.598 64.1974 26.66 62.6146 27.3049 61.2662L45.2439 25.3883C46.006 23.9227 48.1165 23.9227 48.8786 25.3883Z"
    fill="url(#paint5_linear_3655_14094)" />
  <path
    d="M65.0001 65.9561H29.1222C27.7738 65.9561 26.6013 65.3113 25.8978 64.1388C25.1944 63.0249 25.1357 61.6179 25.722 60.4455L43.661 24.5675C44.3058 23.2778 45.5956 22.457 47.0612 22.457C48.5268 22.457 49.8165 23.2778 50.4614 24.5675L68.4003 60.4455C68.9866 61.6179 68.9279 63.0249 68.2245 64.1388C67.521 65.2526 66.3485 65.9561 65.0001 65.9561ZM47.0612 26.0331C46.8853 26.0331 46.8267 26.1504 46.8267 26.1504L28.8877 62.0283C28.8877 62.0869 28.8291 62.1456 28.8877 62.2628C28.9463 62.3801 29.0635 62.3801 29.1222 62.3801H65.0001C65.0588 62.3801 65.1174 62.3801 65.2346 62.2628C65.2933 62.1456 65.2346 62.0283 65.2346 62.0283L47.2957 26.1504C47.2957 26.1504 47.237 26.0331 47.0612 26.0331Z"
    fill="url(#paint6_linear_3655_14094)" />
  <path
    d="M45.1267 58.2772C44.9508 58.2772 44.7749 58.2186 44.6577 58.1013C44.5404 57.9841 44.4818 57.8082 44.4818 57.6323V53.7045C44.4818 53.5286 44.5404 53.3527 44.6577 53.2355C44.7749 53.1183 44.9508 53.001 45.1267 53.001H49.0545C49.2304 53.001 49.4062 53.0596 49.5821 53.2355C49.6994 53.3527 49.8166 53.5286 49.8166 53.7045V57.6323C49.8166 57.8082 49.758 57.9841 49.5821 58.1013C49.4649 58.2186 49.289 58.2772 49.0545 58.2772H45.1267ZM45.1267 51.7699C44.9508 51.7699 44.7749 51.7113 44.6577 51.594C44.5404 51.4768 44.4818 51.3009 44.4818 51.125V40.3968C44.4818 40.2209 44.5404 40.0451 44.6577 39.9278C44.7749 39.8106 44.9508 39.752 45.1267 39.752H48.9372C49.1131 39.752 49.289 39.8106 49.4649 39.9278C49.5821 40.0451 49.6994 40.2209 49.6994 40.3968V51.0664C49.6994 51.2423 49.6407 51.4182 49.4649 51.5354C49.3476 51.6527 49.1717 51.7113 48.9372 51.7113H45.1267V51.7699Z"
    fill="white" />
  <path
    d="M82.0314 40.3729L80.0157 40.2385L80.654 36.3414L78.4031 36.039L78.5374 33.3177C77.3952 33.0154 76.1521 33.0154 74.9427 33.4521C74.8755 33.4857 74.7747 33.5193 74.7075 33.5529C70.7096 35.1655 70.6424 40.8432 74.5731 42.691C76.5217 43.598 78.4702 44.5387 80.4524 45.4458C81.4267 45.9162 82.401 46.3529 83.3752 46.8232L82.0314 40.3729Z"
    fill="#EAF0F9" />
  <path
    d="M84.4504 30.6294C84.3832 30.6294 84.2824 30.663 84.2152 30.663C83.0729 30.8646 82.0315 31.4021 81.2252 32.1748L80.6541 34.7953L82.8378 35.4672L81.5947 39.1963L83.4089 39.5995L83.7113 46.3186C84.2824 45.4787 84.8871 44.6052 85.4582 43.7654C86.6677 41.9848 87.9107 40.2042 89.1202 38.4236C91.6399 34.8961 88.717 30.0247 84.4504 30.6294Z"
    fill="#EAF0F9" />
  <defs>
    <linearGradient id="paint0_linear_3655_14094" x1="82.1818" y1="125.577" x2="92.613" y2="51.0245"
      gradientUnits="userSpaceOnUse">
      <stop offset="0.2096" stop-color="#AAB2C5" />
      <stop offset="0.5271" stop-color="#BFC6D6" />
      <stop offset="0.9204" stop-color="#D6DCE8" />
    </linearGradient>
    <linearGradient id="paint1_linear_3655_14094" x1="90.5577" y1="90.9525" x2="65.5366" y2="115.974"
      gradientUnits="userSpaceOnUse">
      <stop offset="0.0711173" stop-color="#D3D3D3" />
      <stop offset="0.9942" stop-color="#F2F2F2" />
    </linearGradient>
    <linearGradient id="paint2_linear_3655_14094" x1="106.024" y1="142.768" x2="116.402" y2="135.4"
      gradientUnits="userSpaceOnUse">
      <stop stop-color="#D6DCE8" />
      <stop offset="1" stop-color="#7C8393" />
    </linearGradient>
    <linearGradient id="paint3_linear_3655_14094" x1="144.804" y1="128.727" x2="103.632" y2="116.368"
      gradientUnits="userSpaceOnUse">
      <stop offset="0.2096" stop-color="#AAB2C5" />
      <stop offset="0.5271" stop-color="#BFC6D6" />
      <stop offset="0.9204" stop-color="#D6DCE8" />
    </linearGradient>
    <linearGradient id="paint4_linear_3655_14094" x1="134.854" y1="131.946" x2="150.215" y2="143.948"
      gradientUnits="userSpaceOnUse">
      <stop offset="0.0980489" stop-color="#02786A" />
      <stop offset="1" stop-color="#04AF9A" />
    </linearGradient>
    <linearGradient id="paint5_linear_3655_14094" x1="27.1226" y1="44.2253" x2="67.0327" y2="44.2253"
      gradientUnits="userSpaceOnUse">
      <stop offset="0.0980489" stop-color="#02786A" />
      <stop offset="1" stop-color="#04AF9A" />
    </linearGradient>
    <linearGradient id="paint6_linear_3655_14094" x1="60.1994" y1="40.0681" x2="33.8164" y2="66.4511"
      gradientUnits="userSpaceOnUse">
      <stop stop-color="#46F9DF" />
      <stop offset="1" stop-color="#00C9B5" />
    </linearGradient>
  </defs>
</svg>