<svg width="25" height="20" viewBox="0 0 25 20" fill="none" xmlns="http://www.w3.org/2000/svg">
    <path
        d="M12.4062 3.88593C12.3919 3.65086 12.5787 3.45239 12.8142 3.45239H21.4843C21.7198 3.45239 21.9066 3.65086 21.8924 3.88593L20.9881 18.8073C20.975 19.0231 20.7962 19.1914 20.58 19.1914H13.7185C13.5024 19.1914 13.3236 19.0231 13.3105 18.8073L12.4062 3.88593Z"
        fill="#FCD355" />
    <path fill-rule="evenodd" clip-rule="evenodd"
        d="M17.6 19.1914V3.45239H21.4843C21.7198 3.45239 21.9066 3.65086 21.8924 3.88593L20.988 18.8073C20.975 19.0231 20.7962 19.1914 20.58 19.1914H17.6Z"
        fill="#FFB932" />
    <ellipse cx="21.1849" cy="3.19553" rx="3.08176" ry="3.08176" fill="#32D194" />
    <path fill-rule="evenodd" clip-rule="evenodd"
        d="M22.9012 4.27031C22.6586 4.38577 22.3872 4.45039 22.1008 4.45039C21.0712 4.45039 20.2365 3.61573 20.2365 2.58612C20.2365 2.15149 20.3852 1.7516 20.6346 1.43457C20.0055 1.73407 19.5707 2.37564 19.5707 3.11877C19.5707 4.14838 20.4053 4.98304 21.435 4.98304C22.0299 4.98304 22.5598 4.70432 22.9012 4.27031Z"
        fill="white" />
    <path
        d="M21.863 1.51074L22.1487 2.05231L22.7521 2.15671L22.3253 2.59582L22.4125 3.20191L21.863 2.93172L21.3135 3.20191L21.4006 2.59582L20.9739 2.15671L21.5772 2.05231L21.863 1.51074Z"
        fill="white" />
    <ellipse cx="6.61844" cy="16.4081" rx="1.44306" ry="2.67997" transform="rotate(1.5168 6.61844 16.4081)"
        fill="#FBB121" />
    <path fill-rule="evenodd" clip-rule="evenodd"
        d="M5.78796 18.6528C6.56114 18.6208 7.20934 17.4586 7.24764 16.0124C7.27288 15.0591 7.0269 14.2149 6.63561 13.7294C5.86243 13.7615 5.21423 14.9237 5.17594 16.3698C5.15069 17.3232 5.39667 18.1673 5.78796 18.6528Z"
        fill="#FCD355" />
    <path fill-rule="evenodd" clip-rule="evenodd"
        d="M21.6061 8.61063L21.5953 8.78851L17.6263 9.89102L15.7185 8.46021C18.5826 8.12326 20.6655 8.38143 21.6061 8.61063Z"
        fill="#2F95EC" />
    <path fill-rule="evenodd" clip-rule="evenodd"
        d="M21.6052 8.62605L20.9881 18.8072C20.975 19.023 20.7962 19.1913 20.5801 19.1913H13.7186C13.5024 19.1913 13.3236 19.023 13.3105 18.8072L12.692 8.60176C13.2739 8.45486 14.405 8.30495 15.957 8.46015C16.3033 8.49478 16.6496 8.53444 16.9952 8.57402C18.5701 8.75438 20.1298 8.933 21.6052 8.62605Z"
        fill="#45A3F4" />
    <path fill-rule="evenodd" clip-rule="evenodd"
        d="M17.6 8.64246V19.1914H20.58C20.7962 19.1914 20.975 19.0231 20.988 18.8074L21.6051 8.62622C20.3188 8.89382 18.9685 8.79237 17.6 8.64246Z"
        fill="#3B94E1" />
    <ellipse cx="3.7607" cy="16.5086" rx="1.44306" ry="2.67997" transform="rotate(25.6789 3.7607 16.5086)"
        fill="#FBB121" />
    <ellipse cx="9.5583" cy="16.5104" rx="1.44306" ry="2.67997" transform="rotate(-21.569 9.5583 16.5104)"
        fill="#FBB121" />
    <path fill-rule="evenodd" clip-rule="evenodd"
        d="M2.08414 18.2166C2.80272 18.5038 3.86984 17.7088 4.49671 16.405C4.90997 15.5455 5.03107 14.6746 4.87279 14.0715C4.15421 13.7843 3.08709 14.5793 2.46022 15.8831C2.04695 16.7426 1.92586 17.6135 2.08414 18.2166Z"
        fill="#FCD355" />
    <path fill-rule="evenodd" clip-rule="evenodd"
        d="M9.67445 18.9009C10.3731 18.5682 10.5137 17.2449 9.98189 15.8995C9.63129 15.0126 9.074 14.3325 8.52367 14.0393C7.825 14.372 7.68441 15.6953 8.21623 17.0407C8.56683 17.9276 9.12411 18.6077 9.67445 18.9009Z"
        fill="#FCD355" />
    <path
        d="M1.41028 17.7605H11.9029L11.6556 18.6038C11.5534 18.9521 11.2339 19.1913 10.871 19.1913H2.44221C2.07929 19.1913 1.75981 18.9521 1.65766 18.6038L1.41028 17.7605Z"
        fill="#32D194" />
    <rect x="0.93335" y="16.8066" width="11.4465" height="0.953878" rx="0.476939" fill="#009F6C" />
</svg>