<svg width="172" height="172" viewBox="0 0 172 172" fill="none" xmlns="http://www.w3.org/2000/svg">
  <path
    d="M89.5834 62.4441H81.3179V64.5463V67.6997V82.2719H89.5834H92.0201H105.732H123.028V60.5808V56.3286V42.8075L109.985 35.1152L98.5657 42.8075V52.0286L89.5834 53.2708V62.4441Z"
    fill="#EAF0F9" />
  <path d="M38.3657 52.7461H22.1212V90.1561H38.3657V52.7461Z" fill="#EAF0F9" />
  <path d="M156.616 90.204H138.89V46.5352L156.616 52.7463V90.204Z" fill="#EAF0F9" />
  <path d="M32.0112 90.2031H15.7667V71.7131C15.7667 67.2698 19.3501 63.6387 23.8412 63.6387H32.0112V90.2031Z"
    fill="#EAF0F9" />
  <path
    d="M36.4067 90.2039H44.8156H55.4222V32.2494L134.208 26.3728V42.3783L131.962 43.6683V46.6305V90.2039H142.617V40.6583V37.6961L139.607 39.3683V18.5372C139.607 18.1072 139.272 17.7728 138.842 17.7728C138.412 17.7728 138.078 18.1072 138.078 18.5372V20.5439L135.689 20.9739V15.575C135.689 15.145 135.354 14.8105 134.924 14.8105C134.494 14.8105 134.16 15.145 134.16 15.575V21.3083L55.3745 29.6217V21.3083L47.3956 16.6261L40.3722 21.3083V32.4405L36.3589 33.205V27.8061C36.3589 27.3761 36.0245 27.0417 35.5945 27.0417C35.1645 27.0417 34.83 27.3761 34.83 27.8061V38.795H29.8134V40.1328V42.0439V90.1561H34.8778H36.4067V90.2039ZM138.078 20.9261V25.465L135.689 25.7994V21.4039L138.078 20.9261ZM40.42 32.8228V33.8739L36.4067 34.3994V33.5872L40.42 32.8228ZM36.4067 34.7817L40.42 34.2561V38.8428H36.4067V34.7817ZM55.3745 31.8672V30.0039L134.16 21.6905V25.9905L55.3745 31.8672ZM135.689 26.1339L138.078 25.7994V40.1328L135.689 41.4705V26.1339Z"
    fill="#EAF0F9" />
  <path d="M82.6557 82.2725H68.7523V49.9269C68.7523 44.7669 72.9568 40.5625 78.1168 40.5625H82.7034V82.2725H82.6557Z"
    fill="#EAF0F9" />
  <path
    d="M100.286 129.333L85.1401 122.214C84.4234 121.88 84.2801 121.211 84.8534 120.781L96.559 111.369C104.108 105.301 118.155 104.106 127.901 108.693L143.047 115.812C143.763 116.146 143.907 116.815 143.333 117.245L131.628 126.657C124.127 132.725 110.032 133.92 100.286 129.333ZM88.5323 121.211L102.34 127.709C110.606 131.626 122.55 130.575 129 125.415L139.702 116.815L125.895 110.317C117.629 106.4 105.685 107.451 99.2345 112.611L88.5323 121.211Z"
    fill="#EAF0F9" />
  <path
    d="M85.14 122.215L69.9945 115.096C60.2478 110.509 58.48 101.861 65.9811 95.7936L77.6867 86.3814C78.26 85.9036 79.3111 85.8558 80.0278 86.1902L95.1734 93.3091C104.92 97.8958 106.736 106.544 99.1867 112.611L87.4812 122.024C86.9556 122.501 85.9045 122.549 85.14 122.215ZM79.3589 88.4358L68.6567 97.0358C62.2545 102.196 63.7834 109.554 72.0489 113.471L85.8567 119.969L96.5589 111.369C102.961 106.209 101.432 98.8514 93.1667 94.9336L79.3589 88.4358Z"
    fill="#EAF0F9" />
  <path
    d="M92.2589 156.613L77.1134 149.494C67.3667 144.908 65.5989 136.26 73.1 130.192L84.8056 120.78C85.3789 120.302 86.43 120.254 87.1467 120.589L102.292 127.708C112.039 132.294 113.807 140.942 106.306 147.01L94.6 156.422C94.0745 156.9 93.0234 156.995 92.2589 156.613ZM86.4778 122.834L75.7756 131.434C69.3734 136.594 70.9023 143.952 79.1678 147.87L92.9756 154.368L103.678 145.768C110.08 140.608 108.551 133.25 100.286 129.332L86.4778 122.834Z"
    fill="#EAF0F9" />
  <path
    d="M44.4333 134.11L29.2878 126.992C28.5711 126.657 28.4278 125.988 29.0011 125.558L40.7067 116.146C48.2556 110.078 62.3022 108.884 72.0489 113.47L87.1944 120.589C87.9111 120.924 88.0544 121.593 87.4811 122.023L75.7756 131.435C68.2744 137.503 54.18 138.697 44.4333 134.11ZM32.68 125.988L46.4878 132.486C54.7533 136.404 66.6978 135.353 73.1478 130.193L83.85 121.593L70.0422 115.095C61.7767 111.177 49.8322 112.228 43.3822 117.388L32.68 125.988Z"
    fill="#EAF0F9" />
  <path
    d="M85.14 122.214C84.8056 122.07 84.5667 121.784 84.5189 121.545L82.0822 109.839C80.5056 102.29 89.2011 95.3149 101.432 94.2638L120.4 92.6394C120.83 92.5916 121.308 92.6872 121.642 92.8305C121.977 92.9738 122.216 93.2605 122.263 93.4994L124.7 105.205C126.277 112.754 117.581 119.729 105.35 120.78L86.3822 122.405C85.9522 122.453 85.5222 122.405 85.14 122.214ZM119.206 94.8372L101.91 96.3183C91.5422 97.2261 84.1367 103.15 85.4745 109.553L87.6722 120.207L104.968 118.726C115.336 117.818 122.741 111.894 121.403 105.492L119.206 94.8372Z"
    fill="#EAF0F9" />
  <path
    d="M50.9311 121.401C46.3923 119.251 43.1911 116.05 42.4267 112.323L39.99 100.618C39.8945 100.044 40.5156 99.5189 41.4234 99.4233L60.3911 97.7989C72.6223 96.7478 83.85 102.051 85.3789 109.552L87.8156 121.258C87.8634 121.544 87.7678 121.783 87.4812 122.022C87.1945 122.261 86.8123 122.404 86.3823 122.404L67.4145 124.029C61.2989 124.554 55.4223 123.503 50.9311 121.401ZM43.5734 101.334L45.7711 111.989C47.1089 118.391 56.6167 122.882 66.9845 121.974L84.28 120.493L82.0823 109.839C80.7445 103.437 71.2367 98.9455 60.8689 99.8533L43.5734 101.334Z"
    fill="#EAF0F9" />
  <path
    d="M95.4122 142.329C90.8733 140.179 87.6722 136.978 86.9078 133.251L84.4711 121.545C84.3756 120.972 84.9967 120.447 85.9044 120.351L104.872 118.727C117.103 117.675 128.331 122.979 129.86 130.48L132.297 142.186C132.392 142.759 131.771 143.284 130.863 143.38L111.896 145.004C105.828 145.53 99.9511 144.479 95.4122 142.329ZM88.0544 122.262L90.2522 132.917C91.59 139.319 101.098 143.81 111.466 142.902L128.761 141.421L126.563 130.767C125.226 124.364 115.718 119.873 105.35 120.781L88.0544 122.262Z"
    fill="#EAF0F9" />
  <path
    d="M50.6923 149.925C50.3578 149.781 50.1189 149.495 50.0712 149.256L47.6345 137.55C46.0578 130.001 54.7534 123.026 66.9845 121.975L85.9523 120.35C86.3823 120.303 86.8601 120.398 87.1945 120.541C87.5289 120.685 87.7678 120.971 87.8156 121.21L90.2523 132.916C91.8289 140.465 83.1334 147.44 70.9023 148.491L51.9345 150.116C51.5045 150.164 51.0267 150.116 50.6923 149.925ZM84.7101 122.548L67.4145 124.029C57.0467 124.937 49.6412 130.861 50.9789 137.264L53.1767 147.918L70.4723 146.437C80.8401 145.529 88.2456 139.605 86.9078 133.203L84.7101 122.548Z"
    fill="#EAF0F9" />
  <path
    d="M50.6923 149.926C25.4178 138.029 20.7834 115.526 40.3245 99.8072C59.8656 84.0883 96.3678 80.935 121.69 92.8316C147.012 104.728 151.599 127.232 132.058 142.951C112.517 158.669 75.9667 161.823 50.6923 149.926ZM119.636 94.5039C95.7945 83.3239 61.4422 86.2383 43 101.097C24.5578 115.956 28.9534 137.074 52.7467 148.302C76.54 159.529 110.94 156.567 129.382 141.756C147.824 126.945 143.429 105.732 119.636 94.5039Z"
    fill="#EAF0F9" />
  <path
    d="M85.3312 137.838C104.541 137.838 120.113 131.977 120.113 124.747C120.113 117.517 104.541 111.656 85.3312 111.656C66.1215 111.656 50.549 117.517 50.549 124.747C50.549 131.977 66.1215 137.838 85.3312 137.838Z"
    fill="url(#paint0_radial_3608_12274)" />
  <path
    d="M38.6045 130.721H27.9501V69.7083C27.9501 68.7527 28.7145 67.9883 29.6701 67.9883H36.8367C37.7923 67.9883 38.5567 68.7527 38.5567 69.7083V130.721H38.6045Z"
    fill="url(#paint1_linear_3608_12274)" />
  <path
    d="M38.2222 130.721H28.2845C26.9945 130.721 25.9434 129.67 25.9434 128.38C25.9434 127.09 26.9945 126.039 28.2845 126.039H38.2222C39.5122 126.039 40.5634 127.09 40.5634 128.38C40.5634 129.67 39.5122 130.721 38.2222 130.721Z"
    fill="url(#paint2_linear_3608_12274)" />
  <path
    d="M146.248 130.721H135.593V69.7083C135.593 68.7527 136.358 67.9883 137.313 67.9883H144.48C145.436 67.9883 146.2 68.7527 146.2 69.7083V130.721H146.248Z"
    fill="url(#paint3_linear_3608_12274)" />
  <path
    d="M145.913 130.721H135.976C134.686 130.721 133.635 129.67 133.635 128.38C133.635 127.09 134.686 126.039 135.976 126.039H145.913C147.203 126.039 148.255 127.09 148.255 128.38C148.255 129.67 147.203 130.721 145.913 130.721Z"
    fill="url(#paint4_linear_3608_12274)" />
  <path
    d="M22.4557 85.1393L150.405 88.6271C150.357 84.3749 150.213 80.0749 149.927 75.7271L21.9779 72.2871C22.0257 76.5393 22.169 80.8393 22.4557 85.1393Z"
    fill="#AAB2C5" />
  <path d="M148.493 88.5312L138.126 88.2445L131.676 75.2012L142.043 75.4878L148.493 88.5312Z"
    fill="url(#paint5_linear_3608_12274)" />
  <path d="M130.29 88.0049L119.922 87.7182L113.472 74.7227L123.84 74.9615L130.29 88.0049Z"
    fill="url(#paint6_linear_3608_12274)" />
  <path d="M112.708 87.5273L102.292 87.2406L95.8424 74.1973L106.21 74.4839L112.708 87.5273Z"
    fill="url(#paint7_linear_3608_12274)" />
  <path d="M93.9312 87.0487L83.5634 86.7621L77.0657 73.7188L87.4812 74.0054L93.9312 87.0487Z"
    fill="url(#paint8_linear_3608_12274)" />
  <path d="M58.0979 86.0468L47.7302 85.7601L41.2802 72.7168L51.6479 73.0035L58.0979 86.0468Z"
    fill="url(#paint9_linear_3608_12274)" />
  <path d="M40.229 85.664L29.8613 85.3773L23.4113 72.334L33.779 72.6207L40.229 85.664Z"
    fill="url(#paint10_linear_3608_12274)" />
  <path d="M75.7279 86.5234L65.3123 86.2367L58.8623 73.1934L69.2301 73.48L75.7279 86.5234Z"
    fill="url(#paint11_linear_3608_12274)" />
  <path
    d="M22.599 112.612L150.596 112.516C150.452 108.264 150.166 103.964 149.783 99.6641L21.7867 99.7596C21.9301 104.012 22.2167 108.312 22.599 112.612Z"
    fill="#AAB2C5" />
  <path d="M148.685 112.421H138.317L131.484 99.5684H141.9L148.685 112.421Z" fill="url(#paint12_linear_3608_12274)" />
  <path d="M130.481 112.421H120.113L113.281 99.5684H123.649L130.481 112.421Z" fill="url(#paint13_linear_3608_12274)" />
  <path d="M112.899 112.467H102.483L95.6512 99.6152H106.067L112.899 112.467Z" fill="url(#paint14_linear_3608_12274)" />
  <path d="M94.1223 112.467H83.7067L76.8745 99.6152H87.2901L94.1223 112.467Z" fill="url(#paint15_linear_3608_12274)" />
  <path d="M75.8711 112.467H65.5034L58.6711 99.6152H69.0867L75.8711 112.467Z" fill="url(#paint16_linear_3608_12274)" />
  <path d="M58.289 112.515H47.8734L41.089 99.663L51.4568 99.6152L58.289 112.515Z"
    fill="url(#paint17_linear_3608_12274)" />
  <path d="M40.4201 112.563L30.0045 112.611L23.2201 99.7587L33.5879 99.7109L40.4201 112.563Z"
    fill="url(#paint18_linear_3608_12274)" />
  <path
    d="M119.445 98.0401L93.3101 124.175C89.7267 127.758 83.8978 127.758 80.3145 124.175L54.1801 98.0401C50.5967 94.4568 50.5967 88.6279 54.1801 85.0446L80.3145 58.9102C83.8978 55.3268 89.7267 55.3268 93.3101 58.9102L119.445 85.0446C123.028 88.6757 123.028 94.4568 119.445 98.0401Z"
    fill="url(#paint19_linear_3608_12274)" />
  <path
    d="M119.445 98.0401L93.3101 124.175C89.7267 127.758 83.8978 127.758 80.3145 124.175L54.1801 98.0401C50.5967 94.4568 50.5967 88.6279 54.1801 85.0446L80.3145 58.9102C83.8978 55.3268 89.7267 55.3268 93.3101 58.9102L119.445 85.0446C123.028 88.6757 123.028 94.4568 119.445 98.0401Z"
    fill="url(#paint20_linear_3608_12274)" />
  <path
    d="M54.1801 85.0915L80.3145 58.957C83.8978 55.3737 89.7267 55.3737 93.3101 58.957L119.445 85.0915C123.028 88.6748 123.028 94.5037 119.445 98.087L93.3101 124.221C89.7267 127.805 83.8978 127.805 80.3145 124.221L54.1801 98.087C50.5967 94.4559 50.5967 88.6748 54.1801 85.0915Z"
    fill="url(#paint21_linear_3608_12274)" />
  <path
    d="M70.7589 106.115C69.5167 104.92 69.4689 102.914 70.6634 101.624L89.4401 82.1303C90.6345 80.8881 92.6412 80.8403 93.9312 82.0347C95.1734 83.2292 95.2212 85.2358 94.0267 86.5258L75.2501 106.019C74.0556 107.309 72.0489 107.357 70.7589 106.115Z"
    fill="white" />
  <path
    d="M82.8945 73.3866C81.8434 73.6733 81.7956 75.1544 82.8468 75.4889C83.2768 75.6322 83.7068 75.8233 84.1845 76.0144C86.1912 76.8744 87.7679 77.9733 88.819 78.9289C89.2968 79.3589 89.3445 80.0755 88.9145 80.5055C88.4368 80.9833 87.959 81.5089 87.529 81.9866C87.099 82.4166 87.1468 83.1333 87.5768 83.5633C89.3445 85.2355 91.1601 86.9555 92.9279 88.6278C93.2623 88.9622 93.7401 89.01 94.1701 88.8189C95.1257 88.3411 96.2245 88.3889 97.0368 88.8666C98.1357 89.5833 98.6134 91.2555 97.9445 92.7366C97.7534 93.1666 97.849 93.6922 98.2312 94.0266C98.8523 94.5522 99.4256 95.0778 100.047 95.6033C101.002 96.4155 102.388 96.2722 103.2 95.3166L107.357 90.1566C108.073 89.2966 107.978 88.0066 107.166 87.2422C106.736 86.8122 106.258 86.3822 105.828 85.9522C105.446 85.6178 104.92 85.5222 104.49 85.8089C103.487 86.43 102.245 86.4778 101.385 85.9044C100.286 85.1878 99.8079 83.4678 100.525 82.0822C100.763 81.6522 100.668 81.0789 100.286 80.7444C97.8012 78.5466 95.3645 76.3966 92.8801 74.1989C92.7845 74.1033 92.689 74.0555 92.5934 74.0078C91.1601 73.3866 88.1979 72.4311 84.519 73.0044C83.8979 73.1478 83.3723 73.2433 82.8945 73.3866Z"
    fill="white" />
  <defs>
    <radialGradient id="paint0_radial_3608_12274" cx="0" cy="0" r="1" gradientUnits="userSpaceOnUse"
      gradientTransform="translate(85.3312 124.751) scale(25.2516 8.91429)">
      <stop offset="0.015625" stop-color="#66748C" />
      <stop offset="1" stop-color="#66748C" stop-opacity="0" />
    </radialGradient>
    <linearGradient id="paint1_linear_3608_12274" x1="33.2596" y1="123.361" x2="33.2596" y2="81.8914"
      gradientUnits="userSpaceOnUse">
      <stop offset="0.0980489" stop-color="#02786A" />
      <stop offset="1" stop-color="#04AF9A" />
    </linearGradient>
    <linearGradient id="paint2_linear_3608_12274" x1="33.2595" y1="130.542" x2="33.2595" y2="126.474"
      gradientUnits="userSpaceOnUse">
      <stop offset="0.0980489" stop-color="#02786A" />
      <stop offset="1" stop-color="#04AF9A" />
    </linearGradient>
    <linearGradient id="paint3_linear_3608_12274" x1="140.918" y1="127.085" x2="140.918" y2="71.4294"
      gradientUnits="userSpaceOnUse">
      <stop offset="0.0980489" stop-color="#02786A" />
      <stop offset="1" stop-color="#04AF9A" />
    </linearGradient>
    <linearGradient id="paint4_linear_3608_12274" x1="140.918" y1="130.189" x2="140.918" y2="125.973"
      gradientUnits="userSpaceOnUse">
      <stop offset="0.0980489" stop-color="#02786A" />
      <stop offset="1" stop-color="#04AF9A" />
    </linearGradient>
    <linearGradient id="paint5_linear_3608_12274" x1="139.804" y1="64.7775" x2="142.282" y2="215.538"
      gradientUnits="userSpaceOnUse">
      <stop stop-color="#D6DCE8" />
      <stop offset="1" stop-color="#AAB2C5" />
    </linearGradient>
    <linearGradient id="paint6_linear_3608_12274" x1="121.605" y1="65.0759" x2="124.083" y2="215.836"
      gradientUnits="userSpaceOnUse">
      <stop stop-color="#D6DCE8" />
      <stop offset="1" stop-color="#AAB2C5" />
    </linearGradient>
    <linearGradient id="paint7_linear_3608_12274" x1="104.012" y1="65.3653" x2="106.491" y2="216.125"
      gradientUnits="userSpaceOnUse">
      <stop stop-color="#D6DCE8" />
      <stop offset="1" stop-color="#AAB2C5" />
    </linearGradient>
    <linearGradient id="paint8_linear_3608_12274" x1="85.2644" y1="65.6727" x2="87.7427" y2="216.433"
      gradientUnits="userSpaceOnUse">
      <stop stop-color="#D6DCE8" />
      <stop offset="1" stop-color="#AAB2C5" />
    </linearGradient>
    <linearGradient id="paint9_linear_3608_12274" x1="49.4731" y1="66.2624" x2="51.9514" y2="217.023"
      gradientUnits="userSpaceOnUse">
      <stop stop-color="#D6DCE8" />
      <stop offset="1" stop-color="#AAB2C5" />
    </linearGradient>
    <linearGradient id="paint10_linear_3608_12274" x1="31.6182" y1="66.5554" x2="34.0965" y2="217.316"
      gradientUnits="userSpaceOnUse">
      <stop stop-color="#D6DCE8" />
      <stop offset="1" stop-color="#AAB2C5" />
    </linearGradient>
    <linearGradient id="paint11_linear_3608_12274" x1="67.0657" y1="65.972" x2="69.5439" y2="216.732"
      gradientUnits="userSpaceOnUse">
      <stop stop-color="#D6DCE8" />
      <stop offset="1" stop-color="#AAB2C5" />
    </linearGradient>
    <linearGradient id="paint12_linear_3608_12274" x1="129.643" y1="80.4659" x2="155.372" y2="143.275"
      gradientUnits="userSpaceOnUse">
      <stop stop-color="#D6DCE8" />
      <stop offset="1" stop-color="#AAB2C5" />
    </linearGradient>
    <linearGradient id="paint13_linear_3608_12274" x1="114.038" y1="86.8587" x2="139.767" y2="149.668"
      gradientUnits="userSpaceOnUse">
      <stop stop-color="#D6DCE8" />
      <stop offset="1" stop-color="#AAB2C5" />
    </linearGradient>
    <linearGradient id="paint14_linear_3608_12274" x1="98.9515" y1="93.0376" x2="124.68" y2="155.846"
      gradientUnits="userSpaceOnUse">
      <stop stop-color="#D6DCE8" />
      <stop offset="1" stop-color="#AAB2C5" />
    </linearGradient>
    <linearGradient id="paint15_linear_3608_12274" x1="82.8746" y1="99.6234" x2="108.604" y2="162.432"
      gradientUnits="userSpaceOnUse">
      <stop stop-color="#D6DCE8" />
      <stop offset="1" stop-color="#AAB2C5" />
    </linearGradient>
    <linearGradient id="paint16_linear_3608_12274" x1="67.2688" y1="106.016" x2="92.9976" y2="168.825"
      gradientUnits="userSpaceOnUse">
      <stop stop-color="#D6DCE8" />
      <stop offset="1" stop-color="#AAB2C5" />
    </linearGradient>
    <linearGradient id="paint17_linear_3608_12274" x1="52.1827" y1="112.196" x2="77.9116" y2="175.005"
      gradientUnits="userSpaceOnUse">
      <stop stop-color="#D6DCE8" />
      <stop offset="1" stop-color="#AAB2C5" />
    </linearGradient>
    <linearGradient id="paint18_linear_3608_12274" x1="36.848" y1="118.478" x2="62.5769" y2="181.287"
      gradientUnits="userSpaceOnUse">
      <stop stop-color="#D6DCE8" />
      <stop offset="1" stop-color="#AAB2C5" />
    </linearGradient>
    <linearGradient id="paint19_linear_3608_12274" x1="51.4923" y1="91.5658" x2="122.136" y2="91.5658"
      gradientUnits="userSpaceOnUse">
      <stop offset="0.0980489" stop-color="#02786A" />
      <stop offset="1" stop-color="#04AF9A" />
    </linearGradient>
    <linearGradient id="paint20_linear_3608_12274" x1="51.4923" y1="91.5658" x2="122.136" y2="91.5658"
      gradientUnits="userSpaceOnUse">
      <stop offset="0.0980489" stop-color="#02786A" />
      <stop offset="1" stop-color="#04AF9A" />
    </linearGradient>
    <linearGradient id="paint21_linear_3608_12274" x1="51.4923" y1="91.5649" x2="122.136" y2="91.5649"
      gradientUnits="userSpaceOnUse">
      <stop offset="0.0980489" stop-color="#02786A" />
      <stop offset="1" stop-color="#04AF9A" />
    </linearGradient>
  </defs>
</svg>