<svg width="18" height="18" viewBox="0 0 18 18" fill="none" xmlns="http://www.w3.org/2000/svg">
    <path d="M18 2.38525V15.3612L8.96387 17.6473V4.76176L18 2.38525Z" fill="#009F6C" />
    <path d="M18 15.3615L8.96387 17.6476V15.7319L18 13.4458V15.3615Z" fill="#FBB121" />
    <path d="M18 5.84633L8.96387 8.18669V6.27103L18 3.9126V5.84633Z" fill="#FBB121" />
    <path
        d="M12.4518 8.33152C12.4527 8.31138 12.4487 8.29132 12.4402 8.27303C12.4317 8.25474 12.419 8.23873 12.4031 8.22636C12.3872 8.21398 12.3686 8.20558 12.3487 8.20187C12.3289 8.19816 12.3085 8.19924 12.2892 8.20501L10.1295 8.76525C10.1016 8.77296 10.0769 8.7894 10.0591 8.81216C10.0412 8.83493 10.031 8.86282 10.0302 8.89176V15.461L12.4518 14.8466V8.33152Z"
        fill="#FBB121" />
    <path
        d="M14.8102 8.70151C14.8104 8.71683 14.805 8.73169 14.795 8.74332C14.785 8.75495 14.7712 8.76257 14.756 8.76476L13.0572 9.20753C13.0476 9.21042 13.0373 9.21096 13.0274 9.2091C13.0175 9.20725 13.0082 9.20305 13.0002 9.19686C12.9923 9.19067 12.9859 9.18267 12.9817 9.17352C12.9775 9.16438 12.9755 9.15435 12.9759 9.14428V8.07801C12.9784 8.06356 12.9847 8.05005 12.9943 8.03892C13.0038 8.02778 13.0162 8.01944 13.0301 8.01476L14.7289 7.57199C14.7386 7.5691 14.7488 7.56856 14.7587 7.57042C14.7686 7.57227 14.7779 7.57647 14.7859 7.58266C14.7938 7.58885 14.8002 7.59685 14.8044 7.606C14.8087 7.61514 14.8106 7.62517 14.8102 7.63524V8.70151Z"
        fill="#FBB121" />
    <path
        d="M18 7.92445L16.238 8.38529C16.2283 8.38818 16.2181 8.38872 16.2082 8.38687C16.1983 8.38501 16.189 8.38081 16.181 8.37462C16.1731 8.36844 16.1667 8.36043 16.1625 8.35129C16.1582 8.34214 16.1562 8.33211 16.1567 8.32204V7.22867C16.1684 7.22453 16.1811 7.22453 16.1928 7.22867L18 6.75879V7.92445Z"
        fill="#FBB121" />
    <path d="M0 2.36768V15.2532L9.03614 17.6116V4.75322L0 2.36768Z" fill="#32D194" />
    <path d="M0 15.2531L9.03614 17.6115V15.6958L0 13.3374V15.2531Z" fill="#FCD355" />
    <path d="M0 5.8014L9.03614 8.17791V6.26225L0 3.88574V5.8014Z" fill="#FCD355" />
    <path
        d="M6.25294 9.46081C6.24814 9.47067 6.24565 9.48148 6.24565 9.49244C6.24565 9.5034 6.24814 9.51421 6.25294 9.52407L7.95173 9.96684C7.95941 9.97538 7.96928 9.98167 7.98027 9.98503C7.99126 9.98839 8.00295 9.98869 8.0141 9.98591C8.02525 9.98312 8.03543 9.97735 8.04354 9.96921C8.05166 9.96108 8.05741 9.95088 8.06016 9.93973V8.84636C8.05944 8.8326 8.0548 8.81935 8.0468 8.80814C8.0388 8.79693 8.02776 8.78825 8.01498 8.7831L6.31619 8.34033C6.31619 8.34033 6.23486 8.34033 6.23486 8.40359L6.25294 9.46081Z"
        fill="#FCD355" />
    <path
        d="M2.56622 8.49374C2.56143 8.50359 2.55894 8.51441 2.55894 8.52537C2.55894 8.53633 2.56143 8.54714 2.56622 8.55699L4.3102 9.03591C4.31898 9.04112 4.32906 9.04374 4.33927 9.04346C4.34949 9.04319 4.35941 9.04004 4.36791 9.03438C4.37641 9.02871 4.38313 9.02076 4.38731 9.01144C4.39149 9.00212 4.39295 8.99181 4.39152 8.98169V7.87928C4.3908 7.86553 4.38616 7.85227 4.37816 7.84107C4.37015 7.82986 4.35911 7.82117 4.34634 7.81603L2.63851 7.37326C2.62885 7.37037 2.61864 7.36983 2.60874 7.37169C2.59883 7.37354 2.58951 7.37774 2.58155 7.38393C2.57359 7.39012 2.56723 7.39812 2.56299 7.40727C2.55875 7.41641 2.55676 7.42644 2.55718 7.43651L2.56622 8.49374Z"
        fill="#FCD355" />
    <path
        d="M0 6.67773V7.8705L0.506024 8.00605C0.515529 8.00731 0.52519 8.00667 0.534445 8.00416C0.543699 8.00166 0.552363 7.99734 0.559932 7.99145C0.5675 7.98556 0.573822 7.97823 0.578529 7.96988C0.583236 7.96152 0.586234 7.95232 0.587349 7.94279V6.87653C0.584855 6.86208 0.5785 6.84857 0.568955 6.83743C0.559411 6.8263 0.547033 6.81795 0.533132 6.81328L0 6.67773Z"
        fill="#FCD355" />
    <path fill-rule="evenodd" clip-rule="evenodd"
        d="M0.0361328 2.37651L8.96384 4.75301L18 2.38554L8.96384 0L0.0632414 2.36747L0.0361328 2.37651Z"
        fill="#FFDE79" />
</svg>