<svg width="104" height="104" viewBox="0 0 104 104" fill="none" xmlns="http://www.w3.org/2000/svg">
  <rect x="0.5" y="0.5" width="103" height="103" rx="7.5" fill="#F9F9F9" />
  <rect x="0.5" y="0.5" width="103" height="103" rx="7.5" stroke="#EAEAEA" stroke-dasharray="4 4" />
  <path
    d="M42.58 59.0098L42.56 59.0298C42.29 58.4398 42.12 57.7698 42.05 57.0298C42.12 57.7598 42.31 58.4198 42.58 59.0098Z"
    fill="#EAEAEA" />
  <path
    d="M49 50.3801C50.3144 50.3801 51.38 49.3146 51.38 48.0001C51.38 46.6857 50.3144 45.6201 49 45.6201C47.6856 45.6201 46.62 46.6857 46.62 48.0001C46.62 49.3146 47.6856 50.3801 49 50.3801Z"
    fill="#EAEAEA" />
  <path
    d="M56.19 42H47.81C44.17 42 42 44.17 42 47.81V56.19C42 57.28 42.19 58.23 42.56 59.03C43.42 60.93 45.26 62 47.81 62H56.19C59.83 62 62 59.83 62 56.19V53.9V47.81C62 44.17 59.83 42 56.19 42ZM60.37 52.5C59.59 51.83 58.33 51.83 57.55 52.5L53.39 56.07C52.61 56.74 51.35 56.74 50.57 56.07L50.23 55.79C49.52 55.17 48.39 55.11 47.59 55.65L43.85 58.16C43.63 57.6 43.5 56.95 43.5 56.19V47.81C43.5 44.99 44.99 43.5 47.81 43.5H56.19C59.01 43.5 60.5 44.99 60.5 47.81V52.61L60.37 52.5Z"
    fill="#EAEAEA" />
</svg>