<svg width="154" height="154" viewBox="0 0 154 154" fill="none" xmlns="http://www.w3.org/2000/svg">
    <path
        d="M136.531 128.982H128.361C127.979 128.982 127.644 128.648 127.644 128.266V120.096C127.644 114.84 131.944 110.54 137.2 110.54H145.37C145.752 110.54 146.087 110.874 146.087 111.257V119.427C146.087 124.682 141.834 128.982 136.531 128.982ZM129.078 127.549H136.531C141.022 127.549 144.653 123.918 144.653 119.427V111.973H137.2C132.709 111.973 129.078 115.604 129.078 120.096V127.549Z"
        fill="#EAF0F9" />
    <path
        d="M128.361 128.982H120.191C114.935 128.982 110.635 124.682 110.635 119.427V111.257C110.635 110.874 110.97 110.54 111.352 110.54H119.522C124.778 110.54 129.078 114.84 129.078 120.096V128.266C129.078 128.648 128.743 128.982 128.361 128.982ZM112.069 111.973V119.427C112.069 123.918 115.7 127.549 120.191 127.549H127.644V120.096C127.644 115.604 124.013 111.973 119.522 111.973H112.069Z"
        fill="#EAF0F9" />
    <path
        d="M145.37 145.991H137.2C131.944 145.991 127.644 141.691 127.644 136.435V128.265C127.644 127.883 127.979 127.549 128.361 127.549H136.531C141.787 127.549 146.087 131.849 146.087 137.104V145.274C146.087 145.657 145.752 145.991 145.37 145.991ZM129.078 128.982V136.435C129.078 140.927 132.709 144.558 137.2 144.558H144.653V137.104C144.653 132.613 141.022 128.982 136.531 128.982H129.078Z"
        fill="#EAF0F9" />
    <path
        d="M119.522 145.991H111.352C110.97 145.991 110.635 145.657 110.635 145.274V137.104C110.635 131.849 114.935 127.549 120.191 127.549H128.361C128.743 127.549 129.078 127.883 129.078 128.265V136.435C129.078 141.691 124.778 145.991 119.522 145.991ZM112.069 144.558H119.522C124.013 144.558 127.644 140.927 127.644 136.435V128.982H120.191C115.7 128.982 112.069 132.613 112.069 137.104V144.558Z"
        fill="#EAF0F9" />
    <path
        d="M128.361 128.982C128.17 128.982 127.979 128.887 127.836 128.791L122.055 123.01C118.328 119.283 118.328 113.215 122.055 109.489L127.836 103.708C127.979 103.564 128.17 103.517 128.361 103.517C128.552 103.517 128.743 103.612 128.887 103.708L134.668 109.489C138.395 113.215 138.395 119.283 134.668 123.01L128.887 128.791C128.743 128.887 128.552 128.982 128.361 128.982ZM128.361 105.237L123.106 110.492C119.952 113.645 119.952 118.805 123.106 121.959L128.361 127.214L133.617 121.959C136.77 118.805 136.77 113.645 133.617 110.492L128.361 105.237Z"
        fill="#EAF0F9" />
    <path
        d="M116.321 137.343C113.884 137.343 111.448 136.435 109.584 134.572L103.803 128.791C103.517 128.504 103.517 128.074 103.803 127.788L109.584 122.006C113.311 118.28 119.379 118.28 123.106 122.006L128.887 127.788C129.03 127.931 129.078 128.122 129.078 128.313C129.078 128.504 128.982 128.695 128.887 128.839L123.106 134.62C121.242 136.435 118.806 137.343 116.321 137.343ZM105.332 128.265L110.588 133.521C113.741 136.674 118.901 136.674 122.054 133.521L127.31 128.265L122.054 123.01C118.901 119.856 113.741 119.856 110.588 123.01L105.332 128.265Z"
        fill="#EAF0F9" />
    <path
        d="M140.401 137.343C137.965 137.343 135.528 136.435 133.665 134.572L127.883 128.791C127.597 128.504 127.597 128.074 127.883 127.788L133.665 122.006C137.391 118.28 143.459 118.28 147.186 122.006L152.967 127.788C153.253 128.074 153.253 128.504 152.967 128.791L147.186 134.572C145.275 136.435 142.838 137.343 140.401 137.343ZM129.365 128.265L134.62 133.521C137.773 136.674 142.933 136.674 146.087 133.521L151.342 128.265L146.087 123.01C142.933 119.856 137.773 119.856 134.62 123.01L129.365 128.265Z"
        fill="#EAF0F9" />
    <path
        d="M128.361 153.062C128.17 153.062 127.979 152.966 127.836 152.871L122.055 147.09C118.328 143.363 118.328 137.295 122.055 133.568L127.836 127.787C127.979 127.644 128.17 127.596 128.361 127.596C128.552 127.596 128.743 127.692 128.887 127.787L134.668 133.568C138.395 137.295 138.395 143.363 134.668 147.09L128.887 152.871C128.743 152.966 128.552 153.062 128.361 153.062ZM128.361 129.268L123.106 134.524C119.952 137.677 119.952 142.837 123.106 145.991L128.361 151.246L133.617 145.991C136.77 142.837 136.77 137.677 133.617 134.524L128.361 129.268Z"
        fill="#EAF0F9" />
    <path
        d="M128.361 153.062C114.697 153.062 103.564 141.93 103.564 128.265C103.564 114.601 114.697 103.469 128.361 103.469C142.026 103.469 153.158 114.601 153.158 128.265C153.158 141.93 142.026 153.062 128.361 153.062ZM128.361 104.95C115.509 104.95 105.046 115.413 105.046 128.265C105.046 141.118 115.509 151.581 128.361 151.581C141.213 151.581 151.677 141.118 151.677 128.265C151.677 115.413 141.213 104.95 128.361 104.95Z"
        fill="#EAF0F9" />
    <path
        d="M33.5222 26.0691H25.3522C24.9699 26.0691 24.6355 25.7347 24.6355 25.3524V17.1347C24.6355 11.8791 28.9355 7.5791 34.1911 7.5791H42.3611C42.7433 7.5791 43.0777 7.91355 43.0777 8.29577V16.4658C43.0777 21.7691 38.7777 26.0691 33.5222 26.0691ZM26.0688 24.6358H33.5222C38.0133 24.6358 41.6444 21.0047 41.6444 16.5135V9.06021H34.1433C29.6522 9.06021 26.0211 12.6913 26.0211 17.1824V24.6358H26.0688Z"
        fill="#EAF0F9" />
    <path
        d="M25.3522 26.0692H17.1344C11.8789 26.0692 7.57886 21.7692 7.57886 16.5136V8.34362C7.57886 7.9614 7.9133 7.62695 8.29552 7.62695H16.4655C21.7211 7.62695 26.0211 11.927 26.0211 17.1825V25.3525C26.0689 25.7347 25.7344 26.0692 25.3522 26.0692ZM9.05997 9.06029V16.5136C9.05997 21.0047 12.6911 24.6358 17.1822 24.6358H24.6355V17.1347C24.6355 12.6436 21.0044 9.01251 16.5133 9.01251H9.05997V9.06029Z"
        fill="#EAF0F9" />
    <path
        d="M42.361 43.078H34.1432C28.8876 43.078 24.5876 38.778 24.5876 33.5224V25.3524C24.5876 24.9702 24.9221 24.6357 25.3043 24.6357H33.5221C38.7776 24.6357 43.0776 28.9357 43.0776 34.1913V42.3613C43.0776 42.7435 42.7432 43.078 42.361 43.078ZM26.0688 26.0691V33.5224C26.0688 38.0135 29.6999 41.6446 34.191 41.6446H41.6443V34.1435C41.6443 29.6524 38.0132 26.0213 33.5221 26.0213H26.0688V26.0691Z"
        fill="#EAF0F9" />
    <path
        d="M16.5133 43.0779H8.34325C7.96103 43.0779 7.62659 42.7434 7.62659 42.3612V34.1434C7.62659 28.8879 11.9266 24.5879 17.1821 24.5879H25.3521C25.7344 24.5879 26.0688 24.9223 26.0688 25.3046V33.5223C26.0688 38.7779 21.7688 43.0779 16.5133 43.0779ZM9.05992 41.6446H16.5133C21.0044 41.6446 24.6355 38.0134 24.6355 33.5223V26.069H17.1344C12.6433 26.069 9.01214 29.7001 9.01214 34.1912V41.6446H9.05992Z"
        fill="#EAF0F9" />
    <path
        d="M25.3522 26.069C25.161 26.069 24.9699 25.9734 24.8266 25.8779L19.0455 20.049C15.3188 16.3223 15.3188 10.2546 19.0455 6.52789L24.8266 0.746775C24.9699 0.65122 25.161 0.555664 25.3522 0.555664C25.5433 0.555664 25.7344 0.65122 25.8777 0.746775L31.611 6.52789C35.3377 10.2546 35.3377 16.3223 31.611 20.049L25.8299 25.8301C25.6866 25.9734 25.5433 26.069 25.3522 26.069ZM25.3522 2.27566L20.0966 7.53122C16.9433 10.6846 16.9433 15.8446 20.0966 18.9979L25.3522 24.2534L30.6077 18.9979C33.761 15.8446 33.761 10.6846 30.6077 7.53122L25.3522 2.27566Z"
        fill="#EAF0F9" />
    <path
        d="M13.3122 34.4299C10.8755 34.4299 8.43884 33.5222 6.5755 31.6588L0.746616 25.8299C0.45995 25.5433 0.45995 25.1133 0.746616 24.8266L6.52773 19.0455C10.2544 15.3188 16.3222 15.3188 20.0488 19.0455L25.8299 24.8266C25.9733 24.9699 26.0211 25.161 26.0211 25.3522C26.0211 25.5433 25.9255 25.7344 25.8299 25.8777L20.0488 31.611C18.1855 33.4744 15.7488 34.4299 13.3122 34.4299ZM2.2755 25.3522L7.53106 30.6077C10.6844 33.761 15.8444 33.761 18.9977 30.6077L24.2533 25.3522L18.9977 20.0966C15.8444 16.9433 10.6844 16.9433 7.53106 20.0966L2.2755 25.3522Z"
        fill="#EAF0F9" />
    <path
        d="M37.3444 34.4299C34.9077 34.4299 32.471 33.5222 30.6077 31.6588L24.8266 25.8299C24.5399 25.5433 24.5399 25.1133 24.8266 24.8266L30.6077 19.0455C34.3344 15.3188 40.4021 15.3188 44.1288 19.0455L49.9099 24.8266C50.1966 25.1133 50.1966 25.5433 49.9099 25.8299L44.1288 31.611C42.2655 33.4744 39.781 34.4299 37.3444 34.4299ZM26.3555 25.3522L31.611 30.6077C34.7643 33.761 39.9244 33.761 43.0777 30.6077L48.3332 25.3522L43.0777 20.0966C39.9244 16.9433 34.7643 16.9433 31.611 20.0966L26.3555 25.3522Z"
        fill="#EAF0F9" />
    <path
        d="M25.3522 50.1008C25.161 50.1008 24.9699 50.0053 24.8266 49.9097L19.0455 44.1286C15.3188 40.4019 15.3188 34.3341 19.0455 30.6075L24.8266 24.8264C24.9699 24.683 25.161 24.6353 25.3522 24.6353C25.5433 24.6353 25.7344 24.7308 25.8777 24.8264L31.611 30.6075C35.3377 34.3341 35.3377 40.4019 31.611 44.1286L25.8299 49.9097C25.6866 50.053 25.5433 50.1008 25.3522 50.1008ZM25.3522 26.3553L20.0966 31.6108C16.9433 34.7641 16.9433 39.9241 20.0966 43.0775L25.3522 48.333L30.6077 43.0775C33.761 39.9241 33.761 34.7641 30.6077 31.6108L25.3522 26.3553Z"
        fill="#EAF0F9" />
    <path
        d="M25.3522 50.1012C11.6878 50.1012 0.555542 38.969 0.555542 25.3523C0.555542 11.7357 11.6878 0.555664 25.3522 0.555664C39.0167 0.555664 50.1489 11.6879 50.1489 25.3523C50.1489 39.0168 38.9689 50.1012 25.3522 50.1012ZM25.3522 1.989C12.4522 1.989 1.98888 12.4523 1.98888 25.3523C1.98888 38.2523 12.4522 48.6679 25.3044 48.6679C38.1567 48.6679 48.62 38.2046 48.62 25.3523C48.62 12.5001 38.2044 1.989 25.3522 1.989Z"
        fill="#EAF0F9" />
    <path
        d="M81.7778 9.58545L34.9556 14.8888L31.8978 15.2232C29.7955 15.4621 28.2667 17.3732 28.5056 19.4754L38.1567 104.95C38.3955 107.052 40.3067 108.581 42.4089 108.342L113.789 100.315C115.891 100.077 117.42 98.1655 117.181 96.0632L109.967 32.041L81.7778 9.58545Z"
        fill="white" />
    <path
        d="M44.75 109.346C44.0811 109.346 43.5556 108.868 43.46 108.199C43.3644 107.482 43.89 106.861 44.6067 106.766L50.8656 106.049C51.5822 105.953 52.2033 106.479 52.2989 107.196C52.3944 107.912 51.8689 108.533 51.1522 108.629L44.8933 109.346C44.8456 109.346 44.7978 109.346 44.75 109.346ZM38.9211 108.199C38.5389 108.199 38.1567 108.056 37.9178 107.721C37.2967 106.957 36.9144 106.049 36.8189 105.093L36.3411 100.985C36.2456 100.268 36.7711 99.6467 37.4878 99.5512C38.2044 99.4556 38.8256 99.9812 38.9211 100.698L39.3989 104.807C39.4467 105.285 39.6378 105.715 39.9244 106.097C40.3544 106.67 40.2589 107.482 39.7333 107.912C39.4944 108.103 39.2078 108.199 38.9211 108.199ZM57.22 107.96C56.5511 107.96 56.0256 107.482 55.93 106.813C55.8344 106.097 56.36 105.476 57.0767 105.38L63.3356 104.663C64.0522 104.568 64.6733 105.093 64.7689 105.81C64.8644 106.527 64.3389 107.148 63.6222 107.243L57.3633 107.96C57.3156 107.96 57.2678 107.96 57.22 107.96ZM69.7378 106.527C69.0689 106.527 68.5433 106.049 68.4478 105.38C68.3522 104.663 68.8778 104.042 69.5944 103.947L75.8533 103.23C76.57 103.135 77.1911 103.66 77.2867 104.377C77.3822 105.093 76.8567 105.715 76.14 105.81L69.8811 106.527C69.8333 106.527 69.7856 106.527 69.7378 106.527ZM82.2078 105.141C81.5389 105.141 81.0133 104.663 80.9178 103.995C80.8222 103.278 81.3478 102.657 82.0644 102.561L88.3233 101.845C89.04 101.749 89.6611 102.275 89.7567 102.991C89.8522 103.708 89.3267 104.329 88.61 104.425L82.3511 105.141C82.3033 105.141 82.2556 105.141 82.2078 105.141ZM94.6778 103.756C94.0089 103.756 93.4833 103.278 93.3878 102.609C93.2922 101.892 93.8178 101.271 94.5344 101.176L100.793 100.459C101.51 100.363 102.131 100.889 102.227 101.606C102.322 102.322 101.797 102.943 101.08 103.039L94.8211 103.756C94.7733 103.756 94.7256 103.756 94.6778 103.756ZM107.148 102.322C106.479 102.322 105.953 101.845 105.858 101.176C105.762 100.459 106.288 99.8379 107.004 99.7423L113.263 99.0256C113.98 98.9301 114.601 99.4556 114.697 100.172C114.792 100.889 114.267 101.51 113.55 101.606L107.291 102.322C107.243 102.322 107.196 102.322 107.148 102.322ZM117.133 97.449C116.464 97.449 115.891 96.9234 115.843 96.2545V96.2067L115.127 90.0434C115.031 89.3267 115.557 88.7056 116.273 88.6101C116.99 88.5145 117.611 89.0401 117.707 89.7567L118.423 96.0156C118.471 96.7323 117.946 97.3534 117.229 97.4012C117.181 97.449 117.181 97.449 117.133 97.449ZM36.9622 95.9201C36.2933 95.9201 35.7678 95.4423 35.6722 94.7734L34.9556 88.5145C34.86 87.7979 35.3856 87.1767 36.1022 87.0812C36.8189 86.9856 37.44 87.5112 37.5356 88.2279L38.2522 94.4867C38.3478 95.2034 37.8222 95.8245 37.1056 95.9201C37.0578 95.9201 37.01 95.9201 36.9622 95.9201ZM115.7 84.9312C115.031 84.9312 114.506 84.4534 114.41 83.7845L113.693 77.5256C113.598 76.809 114.123 76.1879 114.84 76.0923C115.557 75.9967 116.178 76.5223 116.273 77.239L116.99 83.4979C117.086 84.2145 116.56 84.8356 115.843 84.9312C115.796 84.9312 115.748 84.9312 115.7 84.9312ZM35.5767 83.4501C34.9078 83.4501 34.3822 82.9723 34.2867 82.3034L33.57 76.0445C33.4744 75.3279 34 74.7067 34.7167 74.6112C35.4333 74.5156 36.0544 75.0412 36.15 75.7579L36.8667 82.0167C36.9622 82.7334 36.4367 83.3545 35.72 83.4501C35.6722 83.4501 35.6244 83.4501 35.5767 83.4501ZM114.314 72.4612C113.646 72.4612 113.12 71.9834 113.024 71.3145L112.308 65.0556C112.212 64.339 112.738 63.7179 113.454 63.6223C114.171 63.5267 114.792 64.0523 114.888 64.769L115.604 71.0279C115.7 71.7445 115.174 72.3656 114.458 72.4612C114.41 72.4612 114.362 72.4612 114.314 72.4612ZM34.1433 70.9323C33.4744 70.9323 32.9489 70.4545 32.8533 69.7856L32.1367 63.5267C32.0411 62.8101 32.5667 62.189 33.2833 62.0934C34 61.9979 34.6211 62.5234 34.7167 63.2401L35.4333 69.499C35.5289 70.2156 35.0033 70.8367 34.2867 70.9323C34.2389 70.9323 34.1911 70.9323 34.1433 70.9323ZM112.929 59.9912C112.26 59.9912 111.734 59.5134 111.639 58.8445L110.922 52.5856C110.827 51.869 111.352 51.2479 112.069 51.1523C112.786 51.0567 113.407 51.5823 113.502 52.299L114.219 58.5579C114.314 59.2745 113.789 59.8956 113.072 59.9912C113.024 59.9912 112.977 59.9912 112.929 59.9912ZM32.7578 58.4623C32.0889 58.4623 31.5633 57.9845 31.4678 57.3156L30.7511 51.0567C30.6556 50.3401 31.1811 49.719 31.8978 49.6234C32.6144 49.5279 33.2356 50.0534 33.3311 50.7701L34.0478 57.029C34.1433 57.7456 33.6178 58.3667 32.9011 58.4623C32.8533 58.4623 32.8056 58.4623 32.7578 58.4623ZM111.496 47.5212C110.827 47.5212 110.301 47.0434 110.206 46.3745L109.489 40.1156C109.393 39.399 109.919 38.7779 110.636 38.6823C111.352 38.5867 111.973 39.1123 112.069 39.829L112.786 46.0879C112.881 46.8045 112.356 47.4256 111.639 47.5212C111.591 47.5212 111.543 47.5212 111.496 47.5212ZM31.3244 45.9923C30.6556 45.9923 30.13 45.5145 30.0344 44.8456L29.3178 38.5867C29.2222 37.8701 29.7478 37.249 30.4644 37.1534C31.1811 37.0579 31.8022 37.5834 31.8978 38.3001L32.6144 44.559C32.71 45.2756 32.1844 45.8967 31.4678 45.9923C31.42 45.9923 31.3722 45.9923 31.3244 45.9923ZM110.11 35.0512C109.441 35.0512 108.916 34.5734 108.82 33.9045L108.677 32.7579L105.523 30.2256C104.95 29.7956 104.854 28.9834 105.332 28.4101C105.762 27.8367 106.574 27.7412 107.148 28.219L110.731 31.0856C111.018 31.2767 111.161 31.6112 111.209 31.9456L111.4 33.6656C111.496 34.3823 110.97 35.0034 110.253 35.099C110.206 35.0512 110.158 35.0512 110.11 35.0512ZM29.9389 33.5223C29.27 33.5223 28.7444 33.0445 28.6489 32.3756L27.9322 26.1167C27.8367 25.4001 28.3622 24.779 29.0789 24.6834C29.7956 24.5879 30.4167 25.1134 30.5122 25.8301L31.2289 32.089C31.3244 32.8056 30.7989 33.4267 30.0822 33.5223C30.0344 33.5223 29.9867 33.5223 29.9389 33.5223ZM101.414 26.5945C101.128 26.5945 100.841 26.499 100.602 26.3079L95.6811 22.3901C95.1078 21.9601 95.0122 21.1479 95.49 20.5745C95.92 20.0012 96.7322 19.9056 97.3055 20.3834L102.227 24.3012C102.8 24.7312 102.896 25.5434 102.418 26.1167C102.179 26.4034 101.797 26.5945 101.414 26.5945ZM28.5056 21.0523C27.8367 21.0523 27.3111 20.5745 27.2156 19.9056L27.1678 19.619C27.1678 19.4279 27.12 19.2367 27.12 19.0456C27.12 16.4656 29.0789 14.2679 31.6589 13.9334C32.3756 13.8379 32.9967 14.3634 33.0922 15.0801C33.1878 15.7967 32.6622 16.4179 31.9456 16.5134C30.6556 16.6567 29.7 17.7556 29.7 19.0456C29.7 19.1412 29.7 19.2367 29.7 19.3323L29.7478 19.619C29.8433 20.3356 29.3178 20.9567 28.6011 21.0523C28.6011 21.0523 28.5533 21.0523 28.5056 21.0523ZM91.62 18.759C91.3333 18.759 91.0467 18.6634 90.8078 18.4723L85.8867 14.5545C85.3133 14.1245 85.2178 13.3123 85.6956 12.739C86.1256 12.1656 86.9378 12.0701 87.5111 12.5479L92.4322 16.4656C93.0056 16.8956 93.1011 17.7079 92.6233 18.2812C92.3844 18.5679 92.0022 18.759 91.62 18.759ZM38.1089 15.7967C37.44 15.7967 36.9144 15.319 36.8189 14.6501C36.7233 13.9334 37.2489 13.3123 37.9656 13.2167L44.2244 12.5001C44.9411 12.4045 45.5622 12.9301 45.6578 13.6467C45.7533 14.3634 45.2278 14.9845 44.5111 15.0801L38.2522 15.7967C38.2044 15.7967 38.1567 15.7967 38.1089 15.7967ZM50.5789 14.4112C49.91 14.4112 49.3844 13.9334 49.2889 13.2645C49.1933 12.5479 49.7189 11.9267 50.4356 11.8312L56.6944 11.1145C57.4111 11.019 58.0322 11.5445 58.1278 12.2612C58.2233 12.9779 57.6978 13.599 56.9811 13.6945L50.7222 14.4112C50.6744 14.4112 50.6267 14.4112 50.5789 14.4112ZM63.0489 13.0256C62.38 13.0256 61.8544 12.5479 61.7589 11.879C61.6633 11.1623 62.1889 10.5412 62.9056 10.4456L69.1644 9.72897C69.8811 9.63341 70.5022 10.159 70.5978 10.8756C70.6933 11.5923 70.1678 12.2134 69.4511 12.309L63.1922 12.9779C63.1444 13.0256 63.0967 13.0256 63.0489 13.0256ZM75.5189 11.5923C74.85 11.5923 74.3244 11.1145 74.2289 10.4456C74.1333 9.72897 74.6589 9.10786 75.3756 9.0123L81.6344 8.29564C81.9689 8.24786 82.3033 8.34341 82.59 8.5823C83.1633 9.0123 83.2589 9.8723 82.8289 10.3979C82.5422 10.7323 82.16 10.9234 81.7778 10.8756L75.71 11.5445C75.6144 11.5923 75.5667 11.5923 75.5189 11.5923Z"
        fill="url(#paint0_linear_3738_10002)" />
    <path
        d="M87.6067 36.2935C86.5078 36.2935 85.4089 35.959 84.5011 35.2424C83.9278 34.8124 83.8323 34.0001 84.2623 33.4268C84.6923 32.8535 85.5045 32.7579 86.0778 33.1879C86.6034 33.5701 87.2245 33.7613 87.8934 33.6657L91.1423 33.2835C91.8589 33.1879 92.48 33.7135 92.5756 34.4301C92.6711 35.1468 92.1456 35.7679 91.4289 35.8635L88.18 36.2457C87.9889 36.2935 87.7978 36.2935 87.6067 36.2935ZM97.3534 35.2424C96.6845 35.2424 96.1589 34.7646 96.0634 34.0957C95.9678 33.379 96.4934 32.7579 97.21 32.6624L103.326 31.9935C104.042 31.8979 104.663 32.4235 104.759 33.1401C104.854 33.8568 104.329 34.4779 103.612 34.5735L97.4967 35.2424C97.4489 35.2424 97.4011 35.2424 97.3534 35.2424ZM109.584 33.809C109.202 33.809 108.772 33.6179 108.533 33.2835C108.342 33.0446 108.294 32.7579 108.294 32.519L104.568 29.5568C103.994 29.1268 103.899 28.3146 104.377 27.7413C104.807 27.1679 105.619 27.0724 106.192 27.5501L110.444 30.9424C110.827 31.2768 111.066 31.7546 111.066 32.2801C111.066 32.8057 110.827 33.3313 110.349 33.6657C110.11 33.7135 109.871 33.809 109.584 33.809ZM83.45 29.8913C82.7811 29.8913 82.2556 29.4135 82.16 28.7446L81.4911 22.629C81.3956 21.9124 81.9211 21.2913 82.6378 21.1957C83.3545 21.1001 83.9756 21.6257 84.0711 22.3424L84.74 28.4579C84.8356 29.1746 84.31 29.7957 83.5934 29.8913C83.5456 29.8913 83.4978 29.8913 83.45 29.8913ZM100.554 25.9257C100.268 25.9257 99.9811 25.8301 99.7423 25.639L94.9167 21.8168C94.3434 21.3868 94.2478 20.5746 94.7256 20.0013C95.1556 19.4279 95.9678 19.3324 96.5411 19.8101L101.367 23.6324C101.94 24.0624 102.036 24.8746 101.558 25.4479C101.319 25.7824 100.937 25.9257 100.554 25.9257ZM90.9034 18.2335C90.6167 18.2335 90.33 18.1379 90.0911 17.9468L85.2656 14.1246C84.6923 13.6946 84.5967 12.8824 85.0745 12.309C85.5045 11.7357 86.3167 11.6401 86.89 12.1179L91.7156 15.9401C92.2889 16.3701 92.3845 17.1824 91.9067 17.7557C91.6678 18.0901 91.2856 18.2335 90.9034 18.2335ZM82.0645 17.6124C81.3956 17.6124 80.87 17.1346 80.7745 16.4657L80.1056 10.3501L81.3956 10.2068L82.6856 10.0635L83.3545 16.179C83.45 16.8957 82.9245 17.5168 82.2078 17.6124C82.16 17.6124 82.1123 17.6124 82.0645 17.6124Z"
        fill="url(#paint1_linear_3738_10002)" />
    <path
        d="M66.3933 69.3558C66.0588 69.4036 65.7244 69.308 65.4377 69.0691C65.1511 68.878 64.9599 68.5914 64.9599 68.2091C64.9122 67.9225 64.9122 67.6836 64.8644 67.3969C64.8166 67.1102 64.8166 66.8714 64.7688 66.6802C64.8644 65.1036 65.2466 63.6225 65.8677 62.2847C66.4888 60.9469 67.3011 59.6569 68.2088 58.4625C69.1166 57.268 70.0244 56.1691 70.9322 55.118C71.7922 54.0669 72.5566 53.0636 73.1299 52.0603C73.7033 51.0569 73.9899 50.1014 73.9422 49.1936C73.9422 48.1903 73.6555 47.4258 73.0822 46.8047C72.5566 46.1836 71.8399 45.7536 70.9799 45.4669C70.1199 45.1802 69.2122 45.1325 68.3044 45.228C66.5366 45.4191 65.1511 45.9925 64.2433 46.948C63.3355 47.9036 62.7144 49.2414 62.4277 50.9136C62.3322 51.4391 62.1888 51.8214 61.9022 52.1558C61.6155 52.4902 61.1855 52.6814 60.5644 52.7291L52.4422 53.6369C52.0122 53.6847 51.5822 53.5414 51.2477 53.2547C50.9133 52.968 50.6744 52.538 50.6266 52.0125C50.4833 50.2447 50.7222 48.4291 51.3433 46.6614C51.9644 44.8936 53.0155 43.2214 54.4488 41.6447C55.8822 40.068 57.6977 38.7302 59.9911 37.6791C62.2366 36.5802 64.9599 35.9114 68.0655 35.5291C71.4099 35.1469 74.2288 35.2425 76.5222 35.8158C78.8155 36.3891 80.6788 37.2491 82.0644 38.3958C83.4499 39.5425 84.5011 40.8325 85.2177 42.218C85.8866 43.6036 86.3166 44.9414 86.4122 46.1836C86.5077 47.808 86.3166 49.2891 85.8866 50.6269C85.4566 51.9647 84.8355 53.2547 84.1188 54.4491C83.3544 55.6436 82.5899 56.7902 81.7299 57.8891C80.8699 58.988 80.1055 60.0869 79.4366 61.1858C78.7677 62.2847 78.2422 63.3836 78.0033 64.5302C77.9555 64.8647 77.9077 65.1514 77.8122 65.438C77.7644 65.7247 77.7166 66.0591 77.7166 66.3458C77.5255 66.9669 77.2866 67.3969 77.0477 67.7314C76.8088 68.0658 76.3788 68.2569 75.8533 68.3047L66.3933 69.3558ZM68.0655 83.498C67.5877 83.5458 67.1577 83.4502 66.8233 83.1158C66.4888 82.8291 66.2977 82.4469 66.2499 82.0169L65.4377 74.4202C65.3899 73.9902 65.4855 73.5602 65.7722 73.2258C66.0588 72.8436 66.4411 72.6525 66.9188 72.6047L75.4711 71.6491C75.9488 71.6014 76.3788 71.6969 76.7611 72.0314C77.1433 72.318 77.3344 72.7002 77.3822 73.1302L78.1944 80.7269C78.2422 81.1569 78.0988 81.5869 77.8122 81.9691C77.5255 82.3514 77.1433 82.5425 76.6177 82.5902L68.0655 83.498Z"
        fill="url(#paint2_linear_3738_10002)" />
    <path
        d="M65.3899 144.749C80.8263 144.749 93.3399 140.984 93.3399 136.34C93.3399 131.696 80.8263 127.931 65.3899 127.931C49.9536 127.931 37.4399 131.696 37.4399 136.34C37.4399 140.984 49.9536 144.749 65.3899 144.749Z"
        fill="url(#paint3_radial_3738_10002)" />
    <path
        d="M57.3633 143.841C65.9918 143.841 72.9867 140.611 72.9867 136.627C72.9867 132.643 65.9918 129.413 57.3633 129.413C48.7348 129.413 41.74 132.643 41.74 136.627C41.74 140.611 48.7348 143.841 57.3633 143.841Z"
        fill="url(#paint4_radial_3738_10002)" />
    <path
        d="M47.0433 131.61L49.48 136.293C50.4833 138.156 52.7766 138.92 54.64 137.917L83.45 122.867C85.3133 121.864 86.0777 119.57 85.0744 117.707L82.6377 113.025C81.6344 111.161 79.3411 110.397 77.4777 111.4L48.6677 126.45C46.8044 127.406 46.0877 129.747 47.0433 131.61Z"
        fill="url(#paint5_linear_3738_10002)" />
    <path d="M84.9788 117.563L93.2444 113.168L91.1421 109.202L82.8766 113.598L84.9788 117.563Z"
        fill="url(#paint6_linear_3738_10002)" />
    <path
        d="M111.352 117.85C121.089 117.85 128.982 109.957 128.982 100.22C128.982 90.4836 121.089 82.5903 111.352 82.5903C101.615 82.5903 93.7222 90.4836 93.7222 100.22C93.7222 109.957 101.615 117.85 111.352 117.85Z"
        fill="url(#paint7_linear_3738_10002)" />
    <path
        d="M130.081 115.318C138.442 105.189 137.009 90.2346 126.88 81.8735C116.751 73.5124 101.797 74.9457 93.4355 85.0746C85.0744 95.2035 86.5077 110.158 96.6366 118.519C106.765 126.832 121.72 125.399 130.081 115.318ZM100.124 113.789C92.6233 107.578 91.5721 96.4457 97.7833 88.9446C103.994 81.4435 115.127 80.3924 122.628 86.6035C130.129 92.8146 131.18 103.947 124.969 111.448C118.71 118.949 107.625 120 100.124 113.789Z"
        fill="url(#paint8_linear_3738_10002)" />
    <path
        d="M99.3122 90.521C105.523 83.0199 116.656 81.9688 124.157 88.1799C124.3 88.3232 124.443 88.4666 124.634 88.5621C124.013 87.8455 123.344 87.2243 122.628 86.6032C115.127 80.3921 103.994 81.4432 97.7834 88.9443C91.7156 96.3021 92.6233 107.1 99.6945 113.359C94.0089 107.004 93.6745 97.3055 99.3122 90.521Z"
        fill="url(#paint9_linear_3738_10002)" />
    <path
        d="M135.862 38.5392C134.333 32.9014 131.084 27.7892 126.593 24.0147L126.545 23.6803C134.19 18.4725 139.541 10.1114 141.07 0.98584C143.315 3.08806 145.848 5.85917 148.284 9.34695C149.718 11.4492 150.912 13.5036 151.868 15.367C152.011 17.3258 152.154 23.3936 148.141 29.4136C143.841 35.8158 137.678 37.9658 135.862 38.5392Z"
        fill="url(#paint10_linear_3738_10002)" />
    <path
        d="M151.724 15.3193C150.291 16.036 148.666 16.3227 147.042 16.1316C150.148 19.6671 150.578 25.2571 148.141 29.2704C149.192 28.076 151.39 25.2571 151.963 21.0527C152.345 18.6638 152.059 16.6571 151.724 15.3193Z"
        fill="url(#paint11_linear_3738_10002)" />
    <path
        d="M1.31998 123.488C8.62998 124.014 16.0833 122.246 22.4378 118.567L22.8678 118.662C25.83 129.89 33.57 139.78 43.7467 145.322C40.3066 147.09 36.0066 149.001 30.8466 150.387C27.7411 151.247 24.8267 151.772 22.2467 152.107C19.9055 151.438 12.5955 149.097 7.10109 141.787C1.2722 134.095 1.2722 125.877 1.31998 123.488Z"
        fill="url(#paint12_linear_3738_10002)" />
    <path
        d="M22.2944 152.011C22.0555 150.005 22.39 147.95 23.25 146.135C17.7555 148.332 10.9233 146.565 7.19666 141.93C8.15221 143.65 10.5889 147.425 15.3189 149.909C18.0422 151.342 20.5744 151.82 22.2944 152.011Z"
        fill="url(#paint13_linear_3738_10002)" />
    <defs>
        <linearGradient id="paint0_linear_3738_10002" x1="73.7619" y1="2.9934" x2="71.9412" y2="106.319"
            gradientUnits="userSpaceOnUse">
            <stop offset="0.2096" stop-color="#AAB2C5" />
            <stop offset="0.5271" stop-color="#BFC6D6" />
            <stop offset="0.9204" stop-color="#D6DCE8" />
        </linearGradient>
        <linearGradient id="paint1_linear_3738_10002" x1="95.8804" y1="3.38323" x2="94.0597" y2="106.709"
            gradientUnits="userSpaceOnUse">
            <stop offset="0.2096" stop-color="#AAB2C5" />
            <stop offset="0.5271" stop-color="#BFC6D6" />
            <stop offset="0.9204" stop-color="#D6DCE8" />
        </linearGradient>
        <linearGradient id="paint2_linear_3738_10002" x1="68.4674" y1="32.6861" x2="68.4674" y2="83.5562"
            gradientUnits="userSpaceOnUse">
            <stop offset="0.2096" stop-color="#AAB2C5" />
            <stop offset="0.5271" stop-color="#BFC6D6" />
            <stop offset="0.9204" stop-color="#D6DCE8" />
        </linearGradient>
        <radialGradient id="paint3_radial_3738_10002" cx="0" cy="0" r="1" gradientUnits="userSpaceOnUse"
            gradientTransform="translate(65.4124 136.353) scale(20.3086 5.72957)">
            <stop offset="0.015625" stop-color="#66748C" />
            <stop offset="1" stop-color="#66748C" stop-opacity="0" />
        </radialGradient>
        <radialGradient id="paint4_radial_3738_10002" cx="0" cy="0" r="1" gradientUnits="userSpaceOnUse"
            gradientTransform="translate(57.3588 136.612) scale(11.334 4.91245)">
            <stop offset="0.015625" stop-color="#66748C" />
            <stop offset="1" stop-color="#66748C" stop-opacity="0" />
        </radialGradient>
        <linearGradient id="paint5_linear_3738_10002" x1="75.0763" y1="134.196" x2="61.2035" y2="119.457"
            gradientUnits="userSpaceOnUse">
            <stop offset="0.0980489" stop-color="#02786A" />
            <stop offset="1" stop-color="#04AF9A" />
        </linearGradient>
        <linearGradient id="paint6_linear_3738_10002" x1="116.407" y1="73.7551" x2="85.4545" y2="116.997"
            gradientUnits="userSpaceOnUse">
            <stop stop-color="#46F9DF" />
            <stop offset="1" stop-color="#00C9B5" />
        </linearGradient>
        <linearGradient id="paint7_linear_3738_10002" x1="125.354" y1="112.939" x2="106.279" y2="95.5986"
            gradientUnits="userSpaceOnUse">
            <stop stop-color="#46F9DF" />
            <stop offset="0.9942" stop-color="white" />
        </linearGradient>
        <linearGradient id="paint8_linear_3738_10002" x1="125.835" y1="80.5041" x2="94.8829" y2="123.746"
            gradientUnits="userSpaceOnUse">
            <stop stop-color="#46F9DF" />
            <stop offset="1" stop-color="#00C9B5" />
        </linearGradient>
        <linearGradient id="paint9_linear_3738_10002" x1="93.6991" y1="97.9747" x2="124.589" y2="97.9747"
            gradientUnits="userSpaceOnUse">
            <stop offset="0.0980489" stop-color="#02786A" />
            <stop offset="1" stop-color="#04AF9A" />
        </linearGradient>
        <linearGradient id="paint10_linear_3738_10002" x1="152.095" y1="17.8071" x2="133.409" y2="20.4765"
            gradientUnits="userSpaceOnUse">
            <stop offset="0.2096" stop-color="#AAB2C5" />
            <stop offset="0.5271" stop-color="#BFC6D6" />
            <stop offset="0.9204" stop-color="#D6DCE8" />
        </linearGradient>
        <linearGradient id="paint11_linear_3738_10002" x1="140.623" y1="20.0139" x2="151.507" y2="22.6834"
            gradientUnits="userSpaceOnUse">
            <stop offset="0.2096" stop-color="#AAB2C5" />
            <stop offset="0.5271" stop-color="#BFC6D6" />
            <stop offset="0.9204" stop-color="#D6DCE8" />
        </linearGradient>
        <linearGradient id="paint12_linear_3738_10002" x1="19.1933" y1="151.393" x2="23.8126" y2="128.103"
            gradientUnits="userSpaceOnUse">
            <stop offset="0.2096" stop-color="#AAB2C5" />
            <stop offset="0.5271" stop-color="#BFC6D6" />
            <stop offset="0.9204" stop-color="#D6DCE8" />
        </linearGradient>
        <linearGradient id="paint13_linear_3738_10002" x1="21.3551" y1="136.858" x2="13.6513" y2="148.662"
            gradientUnits="userSpaceOnUse">
            <stop offset="0.2096" stop-color="#AAB2C5" />
            <stop offset="0.5271" stop-color="#BFC6D6" />
            <stop offset="0.9204" stop-color="#D6DCE8" />
        </linearGradient>
    </defs>
</svg>