<svg width="21" height="24" viewBox="0 0 21 24" fill="none" xmlns="http://www.w3.org/2000/svg">
    <path d="M0.855469 23.6665C0.855469 18.2221 2.15177 15.5647 2.79991 14.9165L10.5777 15.4026V23.6665H0.855469Z"
        fill="#32D194" />
    <path d="M10.5777 15.4026V23.6665H20.2999C20.2999 18.2221 19.0036 15.5647 18.3555 14.9165L10.5777 15.4026Z"
        fill="#32D194" />
    <path fill-rule="evenodd" clip-rule="evenodd"
        d="M10.8555 23.6665V15.3853L18.3555 14.9165C19.0036 15.5647 20.2999 18.2221 20.2999 23.6665H10.8555Z"
        fill="#25C487" />
    <path
        d="M4.7444 7.13881C4.54996 1.69436 8.55227 0.333252 10.5777 0.333252C17.1888 0.916585 16.5731 8.03001 15.4388 11.5138C16.6055 11.9027 17.2213 13.2962 17.3833 13.9444C17.7722 14.1388 18.1935 14.6735 18.3555 14.9166C18.5176 17.0231 17.1889 21.236 10.5777 21.236C3.96663 21.236 2.47589 17.0231 2.55691 14.9166C2.75135 14.3333 3.44811 14.0254 3.77218 13.9444C3.96663 12.7777 4.82543 11.8379 5.23052 11.5138C5.1495 11.1087 4.93885 9.66659 4.7444 7.13881Z"
        fill="#009F6C" />
    <path
        d="M10.5777 3.25C8.2444 3.25 7.01292 5.84259 6.68884 7.13889H14.4666C14.1425 5.84259 12.9111 3.25 10.5777 3.25Z"
        fill="#32D194" />
    <path
        d="M10.5777 12.486C7.27216 11.7082 6.6078 8.59711 6.68882 7.13878C7.0129 6.49063 8.24438 5.19434 10.5777 5.19434C12.911 5.19434 14.1425 6.49063 14.4666 7.13878C14.4666 11.0277 11.874 12.324 10.5777 12.486Z"
        fill="#FCD355" />
    <path fill-rule="evenodd" clip-rule="evenodd"
        d="M13.4887 6.06787C13.6476 9.36596 11.7872 11.4905 10.8381 12.4414C12.1915 12.1498 14.4666 10.7819 14.4666 7.13893C14.3234 6.85254 14.003 6.43961 13.4887 6.06787Z"
        fill="#FBB121" />
</svg>