<svg width="62" height="62" viewBox="0 0 62 62" fill="none" xmlns="http://www.w3.org/2000/svg">
    <g clip-path="url(#clip0_3303_18001)">
        <rect width="62" height="62" rx="31" fill="#E6FAF8" />
        <path
            d="M50.7496 36.7232H50.7921C52.7644 34.6289 53.8913 31.8784 53.9553 29.0023C53.8594 17.9253 34.9621 12.9312 31.8125 7.9375C28.6629 12.9312 9.76563 17.9253 9.66972 29.0022C9.73375 31.8783 10.8606 34.6288 12.833 36.7231H12.8755C11.5068 37.9956 10.4169 39.5381 9.67451 41.2532C8.93216 42.9683 8.55353 44.8187 8.56253 46.6875V64.125H55.0625V46.6875C55.0715 44.8187 54.6929 42.9683 53.9505 41.2533C53.2082 39.5382 52.1182 37.9957 50.7496 36.7232Z"
            fill="#21C284" />
        <path
            d="M55.0625 65.0937H8.56253C8.3056 65.0937 8.0592 64.9916 7.87752 64.81C7.69584 64.6283 7.59378 64.3819 7.59378 64.1249V46.6874C7.58626 42.972 8.99692 39.3938 11.5379 36.6831C9.74734 34.5192 8.74688 31.8103 8.70116 29.002C8.76829 21.2313 17.068 16.4396 23.7371 12.5901C26.9688 10.7245 30.0203 8.962 30.9933 7.42091C31.0862 7.29017 31.209 7.18356 31.3515 7.11C31.4941 7.03643 31.6521 6.99805 31.8125 6.99805C31.9729 6.99805 32.131 7.03643 32.2735 7.11C32.416 7.18356 32.5389 7.29017 32.6318 7.42091C33.6047 8.962 36.6563 10.7245 39.8879 12.5901C46.5571 16.4396 54.8568 21.2313 54.9239 28.9936C54.8795 31.8046 53.879 34.5167 52.0872 36.6831C54.6281 39.3938 56.0388 42.972 56.0313 46.6874V64.1249C56.0313 64.3819 55.9292 64.6283 55.7475 64.81C55.5659 64.9916 55.3195 65.0937 55.0625 65.0937ZM9.53128 63.1562H54.0938V46.6874C54.0997 44.9529 53.7474 43.2358 53.0589 41.6437C52.3704 40.0516 51.3607 38.6189 50.0928 37.4351C49.9856 37.3361 49.9021 37.2142 49.8485 37.0784C49.795 36.9426 49.7728 36.7965 49.7837 36.651C49.7946 36.5054 49.8382 36.3642 49.9113 36.2379C49.9844 36.1115 50.0851 36.0034 50.2059 35.9214C51.9366 34.0256 52.9242 31.5683 52.9868 29.002C52.9296 22.3564 45.1611 17.8711 38.9196 14.2674C35.9604 12.5598 33.3335 11.0434 31.8125 9.47476C30.2916 11.0434 27.6646 12.5598 24.7059 14.2675C18.4643 17.8712 10.6958 22.3565 10.6387 29.0106C10.7054 31.603 11.7138 34.0824 13.4754 35.9856C13.6002 36.0876 13.6969 36.2198 13.7563 36.3697C13.831 36.5491 13.8496 36.747 13.8097 36.9372C13.7698 37.1274 13.6732 37.3011 13.5326 37.4353C12.2647 38.619 11.2549 40.0517 10.5664 41.6438C9.87785 43.2358 9.52546 44.9529 9.53128 46.6874V63.1562Z"
            fill="#EBBE28" />
        <path
            d="M19.5532 17.2086C19.0275 17.7315 18.3941 18.1332 17.697 18.3857C17 18.6382 16.2562 18.7355 15.5177 18.6706C14.7791 18.6057 14.0637 18.3804 13.4213 18.0102C12.7789 17.64 12.2252 17.134 11.7988 16.5276C11.3723 15.9211 11.0835 15.2288 10.9525 14.4991C10.8215 13.7694 10.8514 13.0199 11.0402 12.303C11.229 11.586 11.5722 10.919 12.0456 10.3485C12.5191 9.77796 13.1114 9.31774 13.7813 9C12.44 9 11.129 9.39771 10.0138 10.1428C8.89862 10.888 8.02945 11.9471 7.51619 13.1862C7.00294 14.4253 6.86865 15.7888 7.1303 17.1042C7.39196 18.4196 8.03781 19.6279 8.98619 20.5763C9.93456 21.5247 11.1429 22.1705 12.4583 22.4322C13.7737 22.6939 15.1372 22.5596 16.3763 22.0463C17.6154 21.5331 18.6745 20.6639 19.4197 19.5487C20.1648 18.4335 20.5625 17.1225 20.5625 15.7812C20.3101 16.3112 19.9687 16.794 19.5532 17.2086Z"
            fill="#FADC14" />
        <path
            d="M34.7188 59.2812C36.2603 59.2812 37.7388 58.6689 38.8288 57.5788C39.9189 56.4888 40.5312 55.0103 40.5312 53.4688V47.0603C40.5313 45.4064 40.2055 43.7688 39.5726 42.2409C38.9397 40.7129 38.0121 39.3246 36.8426 38.1551L35.6875 37L30.8438 38.4531C29.6266 39.5182 28.6511 40.8311 27.9828 42.3039C27.3145 43.7767 26.9688 45.3754 26.9688 46.9928V51.5312L20.5909 54.7202C19.5963 55.2174 18.7599 55.9818 18.1753 56.9277C17.5907 57.8737 17.2812 58.9637 17.2813 60.0756C17.2813 61.6634 17.912 63.1862 19.0348 64.309C20.1575 65.4317 21.6803 66.0625 23.2681 66.0625H40.5312V59.2812H34.7188Z"
            fill="#F7F6F5" />
        <path
            d="M40.5312 66.0625H48.5867C48.801 66.0625 49.0133 66.0203 49.2113 65.9383C49.4093 65.8563 49.5892 65.7361 49.7408 65.5845C49.8923 65.433 50.0125 65.253 50.0945 65.055C50.1766 64.857 50.2188 64.6448 50.2188 64.4304C50.2187 64.0665 50.0971 63.713 49.8731 63.4261C49.6491 63.1392 49.3356 62.9355 48.9825 62.8472L46.3438 62.1875L45.5312 60.9686C45.1851 60.4496 44.7163 60.024 44.1663 59.7296C43.6163 59.4353 43.0021 59.2812 42.3783 59.2813H40.5312V66.0625Z"
            fill="#F0D5C5" />
        <path
            d="M27.5221 54.1717C28.2008 54.1735 28.873 54.0406 29.4999 53.7808C30.1268 53.521 30.6959 53.1393 31.1743 52.658L35.7414 48.0914C36.5529 47.2728 37.0071 46.166 37.0045 45.0134C37.002 43.8607 36.5431 42.7559 35.728 41.9408C34.913 41.1257 33.8083 40.6667 32.6556 40.6641C31.5029 40.6615 30.3961 41.1156 29.5774 41.927L27.5221 43.9828L27.4197 43.8804C27.1253 44.8918 26.9735 45.9394 26.9687 46.9928V51.5313L24.189 52.9211C25.1142 53.724 26.2971 54.1678 27.5221 54.1717Z"
            fill="#E8E4E0" />
        <path
            d="M27.5221 46.7225L30.9476 43.297C31.4018 42.843 32.0177 42.5879 32.6599 42.5879C33.3021 42.5879 33.918 42.843 34.3722 43.297C34.8263 43.7512 35.0814 44.3671 35.0814 45.0093C35.0814 45.6516 34.8263 46.2675 34.3722 46.7217L29.805 51.2891C29.1995 51.8946 28.3783 52.2348 27.5219 52.2348C26.6656 52.2348 25.8444 51.8946 25.2388 51.2891L20.1006 46.1509L23.5253 42.7254L27.5221 46.7225Z"
            fill="#F7F6F5" />
        <path
            d="M22.3839 41.5842L23.5254 42.7258L20.1008 46.1504L18.9592 45.0089C18.5051 44.5547 18.25 43.9388 18.25 43.2966C18.25 42.6543 18.5051 42.0384 18.9592 41.5842C19.4134 41.1301 20.0293 40.875 20.6716 40.875C21.3138 40.875 21.9297 41.1301 22.3839 41.5842Z"
            fill="#F0D5C5" />
        <path
            d="M26.9688 27.3125V31.1875C26.9689 32.304 27.3546 33.3861 28.0607 34.2509C28.7668 35.1157 29.7499 35.7101 30.8438 35.9336V38.4531L35.6875 37V35.3699C37.9765 34.2808 38.5938 32.9223 38.5938 30.2188V27.3125H26.9688Z"
            fill="#F0D5C5" />
        <path
            d="M38.5938 27.3125H26.9688C26.9688 25.7709 27.5811 24.2925 28.6712 23.2024C29.7612 22.1124 31.2397 21.5 32.7812 21.5C34.3228 21.5 35.8013 22.1124 36.8913 23.2024C37.9814 24.2925 38.5938 25.7709 38.5938 27.3125Z"
            fill="#F7F6F5" />
        <path
            d="M26.9688 59.2812C26.7118 59.2812 26.4654 59.3833 26.2837 59.565C26.1021 59.7467 26 59.9931 26 60.25C26 60.5069 26.1021 60.7533 26.2837 60.935C26.4654 61.1167 26.7118 61.2188 26.9688 61.2188H40.5312V59.2812H26.9688Z"
            fill="#E8E4E0" />
        <path
            d="M3.71875 39.9062C4.25378 39.9062 4.6875 39.4725 4.6875 38.9375C4.6875 38.4025 4.25378 37.9688 3.71875 37.9688C3.18372 37.9688 2.75 38.4025 2.75 38.9375C2.75 39.4725 3.18372 39.9062 3.71875 39.9062Z"
            fill="#FADC14" />
        <path
            d="M43.4375 23.4375C43.9725 23.4375 44.4062 23.0038 44.4062 22.4688C44.4062 21.9337 43.9725 21.5 43.4375 21.5C42.9025 21.5 42.4688 21.9337 42.4688 22.4688C42.4688 23.0038 42.9025 23.4375 43.4375 23.4375Z"
            fill="#FADC14" />
        <path
            d="M48.2812 45.7188C48.8163 45.7188 49.25 45.285 49.25 44.75C49.25 44.215 48.8163 43.7812 48.2812 43.7812C47.7462 43.7812 47.3125 44.215 47.3125 44.75C47.3125 45.285 47.7462 45.7188 48.2812 45.7188Z"
            fill="#FADC14" />
        <path
            d="M18.25 28.2812C17.9931 28.2812 17.7467 28.1792 17.565 27.9975C17.3833 27.8158 17.2812 27.5694 17.2812 27.3125V26.3438C17.2812 26.0868 17.3833 25.8404 17.565 25.6587C17.7467 25.4771 17.9931 25.375 18.25 25.375C18.5069 25.375 18.7533 25.4771 18.935 25.6587C19.1167 25.8404 19.2188 26.0868 19.2188 26.3438V27.3125C19.2188 27.5694 19.1167 27.8158 18.935 27.9975C18.7533 28.1792 18.5069 28.2812 18.25 28.2812Z"
            fill="#FADC14" />
        <path
            d="M18.25 33.125C17.9931 33.125 17.7467 33.0229 17.565 32.8413C17.3833 32.6596 17.2812 32.4132 17.2812 32.1562V31.1875C17.2812 30.9306 17.3833 30.6842 17.565 30.5025C17.7467 30.3208 17.9931 30.2188 18.25 30.2188C18.5069 30.2188 18.7533 30.3208 18.935 30.5025C19.1167 30.6842 19.2188 30.9306 19.2188 31.1875V32.1562C19.2188 32.4132 19.1167 32.6596 18.935 32.8413C18.7533 33.0229 18.5069 33.125 18.25 33.125Z"
            fill="#FADC14" />
        <path
            d="M16.3125 30.2188H15.3438C15.0868 30.2188 14.8404 30.1167 14.6587 29.935C14.4771 29.7533 14.375 29.5069 14.375 29.25C14.375 28.9931 14.4771 28.7467 14.6587 28.565C14.8404 28.3833 15.0868 28.2812 15.3438 28.2812H16.3125C16.5694 28.2812 16.8158 28.3833 16.9975 28.565C17.1792 28.7467 17.2812 28.9931 17.2812 29.25C17.2812 29.5069 17.1792 29.7533 16.9975 29.935C16.8158 30.1167 16.5694 30.2188 16.3125 30.2188Z"
            fill="#FADC14" />
        <path
            d="M21.1562 30.2188H20.1875C19.9306 30.2188 19.6842 30.1167 19.5025 29.935C19.3208 29.7533 19.2188 29.5069 19.2188 29.25C19.2188 28.9931 19.3208 28.7467 19.5025 28.565C19.6842 28.3833 19.9306 28.2812 20.1875 28.2812H21.1562C21.4132 28.2812 21.6596 28.3833 21.8413 28.565C22.0229 28.7467 22.125 28.9931 22.125 29.25C22.125 29.5069 22.0229 29.7533 21.8413 29.935C21.6596 30.1167 21.4132 30.2188 21.1562 30.2188Z"
            fill="#FADC14" />
        <path
            d="M52.1562 9.875C51.8993 9.875 51.6529 9.77294 51.4712 9.59126C51.2896 9.40958 51.1875 9.16318 51.1875 8.90625V7.9375C51.1875 7.68057 51.2896 7.43417 51.4712 7.25249C51.6529 7.07081 51.8993 6.96875 52.1562 6.96875C52.4132 6.96875 52.6596 7.07081 52.8413 7.25249C53.0229 7.43417 53.125 7.68057 53.125 7.9375V8.90625C53.125 9.16318 53.0229 9.40958 52.8413 9.59126C52.6596 9.77294 52.4132 9.875 52.1562 9.875Z"
            fill="#FADC14" />
        <path
            d="M52.1562 14.7188C51.8993 14.7188 51.6529 14.6167 51.4712 14.435C51.2896 14.2533 51.1875 14.0069 51.1875 13.75V12.7812C51.1875 12.5243 51.2896 12.2779 51.4712 12.0962C51.6529 11.9146 51.8993 11.8125 52.1562 11.8125C52.4132 11.8125 52.6596 11.9146 52.8413 12.0962C53.0229 12.2779 53.125 12.5243 53.125 12.7812V13.75C53.125 14.0069 53.0229 14.2533 52.8413 14.435C52.6596 14.6167 52.4132 14.7188 52.1562 14.7188Z"
            fill="#FADC14" />
        <path
            d="M50.2188 11.8125H49.25C48.9931 11.8125 48.7467 11.7104 48.565 11.5288C48.3833 11.3471 48.2812 11.1007 48.2812 10.8438C48.2812 10.5868 48.3833 10.3404 48.565 10.1587C48.7467 9.97706 48.9931 9.875 49.25 9.875H50.2188C50.4757 9.875 50.7221 9.97706 50.9038 10.1587C51.0854 10.3404 51.1875 10.5868 51.1875 10.8438C51.1875 11.1007 51.0854 11.3471 50.9038 11.5288C50.7221 11.7104 50.4757 11.8125 50.2188 11.8125Z"
            fill="#FADC14" />
        <path
            d="M55.0625 11.8125H54.0938C53.8368 11.8125 53.5904 11.7104 53.4087 11.5288C53.2271 11.3471 53.125 11.1007 53.125 10.8438C53.125 10.5868 53.2271 10.3404 53.4087 10.1587C53.5904 9.97706 53.8368 9.875 54.0938 9.875H55.0625C55.3194 9.875 55.5658 9.97706 55.7475 10.1587C55.9292 10.3404 56.0312 10.5868 56.0312 10.8438C56.0312 11.1007 55.9292 11.3471 55.7475 11.5288C55.5658 11.7104 55.3194 11.8125 55.0625 11.8125Z"
            fill="#FADC14" />
        <path
            d="M-0.15625 58.3125C-0.413179 58.3125 -0.659584 58.2104 -0.84126 58.0288C-1.02294 57.8471 -1.125 57.6007 -1.125 57.3438V56.375C-1.125 56.1181 -1.02294 55.8717 -0.84126 55.69C-0.659584 55.5083 -0.413179 55.4062 -0.15625 55.4062C0.100678 55.4062 0.347084 55.5083 0.528759 55.69C0.710435 55.8717 0.8125 56.1181 0.8125 56.375V57.3438C0.8125 57.6007 0.710435 57.8471 0.528759 58.0288C0.347084 58.2104 0.100678 58.3125 -0.15625 58.3125Z"
            fill="#FADC14" />
        <path
            d="M-0.15625 63.1562C-0.413179 63.1562 -0.659584 63.0542 -0.84126 62.8725C-1.02294 62.6908 -1.125 62.4444 -1.125 62.1875V61.2188C-1.125 60.9618 -1.02294 60.7154 -0.84126 60.5337C-0.659584 60.3521 -0.413179 60.25 -0.15625 60.25C0.100678 60.25 0.347084 60.3521 0.528759 60.5337C0.710435 60.7154 0.8125 60.9618 0.8125 61.2188V62.1875C0.8125 62.4444 0.710435 62.6908 0.528759 62.8725C0.347084 63.0542 0.100678 63.1562 -0.15625 63.1562Z"
            fill="#FADC14" />
        <path
            d="M2.75 60.25H1.78125C1.52432 60.25 1.27792 60.1479 1.09624 59.9663C0.914565 59.7846 0.8125 59.5382 0.8125 59.2812C0.8125 59.0243 0.914565 58.7779 1.09624 58.5962C1.27792 58.4146 1.52432 58.3125 1.78125 58.3125H2.75C3.00693 58.3125 3.25333 58.4146 3.43501 58.5962C3.61669 58.7779 3.71875 59.0243 3.71875 59.2812C3.71875 59.5382 3.61669 59.7846 3.43501 59.9663C3.25333 60.1479 3.00693 60.25 2.75 60.25Z"
            fill="#FADC14" />
        <path d="M26.9688 27.3125H38.5938V29.25H26.9688V27.3125Z" fill="#EBC4A6" />
    </g>
    <defs>
        <clipPath id="clip0_3303_18001">
            <rect width="62" height="62" rx="31" fill="white" />
        </clipPath>
    </defs>
</svg>