<svg width="32" height="32" viewBox="0 0 32 32" fill="none" xmlns="http://www.w3.org/2000/svg">
    <rect width="32" height="32" rx="16" fill="#00C9B5" />
    <g clip-path="url(#clip0_2919_4164)">
        <path
            d="M20.5525 13.3825L14.1325 10.1725C9.81995 8.01248 8.04995 9.78248 10.21 14.095L10.8625 15.4C11.05 15.7825 11.05 16.225 10.8625 16.6075L10.21 17.905C8.04995 22.2175 9.81245 23.9875 14.1325 21.8275L20.5525 18.6175C23.4325 17.1775 23.4325 14.8225 20.5525 13.3825ZM18.13 16.5625H14.08C13.7725 16.5625 13.5175 16.3075 13.5175 16C13.5175 15.6925 13.7725 15.4375 14.08 15.4375H18.13C18.4375 15.4375 18.6925 15.6925 18.6925 16C18.6925 16.3075 18.4375 16.5625 18.13 16.5625Z"
            fill="white" />
    </g>
    <defs>
        <clipPath id="clip0_2919_4164">
            <rect width="18" height="18" fill="white" transform="translate(7 7)" />
        </clipPath>
    </defs>
</svg>