<svg width="24" height="24" viewBox="0 0 24 24" fill="none" xmlns="http://www.w3.org/2000/svg">
    <rect x="2.75" y="2.75" width="18.5" height="18.5" rx="5.25" stroke="#00C9B5" stroke-width="1.5" />
    <path
        d="M18 9.1665H6C5.72667 9.1665 5.5 8.93984 5.5 8.6665C5.5 8.39317 5.72667 8.1665 6 8.1665H18C18.2733 8.1665 18.5 8.39317 18.5 8.6665C18.5 8.93984 18.2733 9.1665 18 9.1665Z"
        fill="#00C9B5" stroke="#00C9B5" />
    <path
        d="M16 12.5H8C7.72667 12.5 7.5 12.2733 7.5 12C7.5 11.7267 7.72667 11.5 8 11.5H16C16.2733 11.5 16.5 11.7267 16.5 12C16.5 12.2733 16.2733 12.5 16 12.5Z"
        fill="#00C9B5" stroke="#00C9B5" />
    <path
        d="M13.3332 15.8335H10.6665C10.3932 15.8335 10.1665 15.6068 10.1665 15.3335C10.1665 15.0602 10.3932 14.8335 10.6665 14.8335H13.3332C13.6065 14.8335 13.8332 15.0602 13.8332 15.3335C13.8332 15.6068 13.6065 15.8335 13.3332 15.8335Z"
        fill="#00C9B5" stroke="#00C9B5" />
</svg>