<svg width="22" height="21" viewBox="0 0 22 21" fill="none" xmlns="http://www.w3.org/2000/svg">
    <g clip-path="url(#clip0_3534_9737)">
        <path
            d="M20.7581 6.53729C20.6883 6.53725 20.6214 6.50951 20.572 6.46017C20.5227 6.41082 20.4949 6.34391 20.4949 6.27413V3.96213H18.0004C17.9309 3.96167 17.8645 3.93374 17.8155 3.88444C17.7665 3.83513 17.739 3.76846 17.739 3.69896C17.739 3.62947 17.7665 3.56279 17.8155 3.51349C17.8645 3.46418 17.9309 3.43625 18.0004 3.43579H20.7581C20.8279 3.43584 20.8948 3.46358 20.9441 3.51293C20.9935 3.56227 21.0212 3.62919 21.0212 3.69897V6.27413C21.0212 6.34391 20.9935 6.41082 20.9441 6.46016C20.8948 6.50951 20.8279 6.53725 20.7581 6.53729Z"
            fill="#1F2022" />
        <path
            d="M21.8998 5.25057V7.5425C21.9008 7.6467 21.8608 7.74712 21.7885 7.82214C21.7162 7.89716 21.6173 7.94079 21.5131 7.94363H20.0807C19.9765 7.94081 19.8776 7.89719 19.8052 7.82216C19.7329 7.74714 19.6929 7.64671 19.6939 7.5425V5.25057C19.6937 5.19971 19.7035 5.14932 19.7229 5.1023C19.7422 5.05527 19.7707 5.01255 19.8067 4.97658C19.8426 4.94062 19.8854 4.91214 19.9324 4.89278C19.9794 4.87342 20.0298 4.86356 20.0807 4.86377H21.5131C21.564 4.86357 21.6144 4.87343 21.6614 4.8928C21.7084 4.91216 21.7511 4.94065 21.7871 4.97661C21.823 5.01257 21.8515 5.05529 21.8709 5.10231C21.8902 5.14933 21.9001 5.19972 21.8998 5.25057Z"
            fill="#FBB121" />
        <path
            d="M2.03624 6.53729C2.10602 6.53725 2.17293 6.50951 2.22227 6.46016C2.27162 6.41082 2.29936 6.34391 2.29941 6.27413V3.96213H4.79387C4.86337 3.96167 4.92986 3.93374 4.97884 3.88444C5.02781 3.83513 5.0553 3.76846 5.0553 3.69896C5.0553 3.62947 5.02781 3.56279 4.97884 3.51349C4.92986 3.46418 4.86337 3.43625 4.79387 3.43579H2.03624C1.96645 3.43584 1.89954 3.46358 1.8502 3.51293C1.80086 3.56227 1.77312 3.62919 1.77307 3.69897V6.27413C1.77312 6.34391 1.80086 6.41082 1.8502 6.46016C1.89954 6.50951 1.96646 6.53725 2.03624 6.53729Z"
            fill="#1F2022" />
        <path
            d="M0.89992 5.25057C0.8997 5.19972 0.909552 5.14933 0.928907 5.10231C0.948262 5.05529 0.976737 5.01257 1.01269 4.97661C1.04864 4.94065 1.09136 4.91216 1.13837 4.8928C1.18539 4.87343 1.23577 4.86357 1.28662 4.86377H2.70485C2.7557 4.86357 2.80608 4.87343 2.8531 4.8928C2.90012 4.91216 2.94283 4.94065 2.97879 4.97661C3.01474 5.01257 3.04321 5.05529 3.06257 5.10231C3.08193 5.14933 3.09178 5.19972 3.09156 5.25057V7.5425C3.09253 7.6467 3.05255 7.74712 2.98023 7.82214C2.9079 7.89716 2.80901 7.94079 2.70485 7.94363H1.28662C1.18246 7.94079 1.08357 7.89716 1.01125 7.82214C0.938926 7.74712 0.898948 7.6467 0.89992 7.5425"
            fill="#FBB121" />
        <path
            d="M21.3555 5.25058V7.54251C21.3533 7.64818 21.3103 7.7489 21.2356 7.82364C21.1609 7.89839 21.0602 7.94138 20.9545 7.94365H20.0807C19.9765 7.94082 19.8776 7.8972 19.8052 7.82218C19.7329 7.74715 19.6929 7.64673 19.6939 7.54251V5.25058C19.6937 5.19973 19.7035 5.14933 19.7229 5.10231C19.7422 5.05528 19.7707 5.01256 19.8067 4.9766C19.8426 4.94064 19.8854 4.91215 19.9324 4.89279C19.9794 4.87343 20.0298 4.86357 20.0807 4.86379H20.9545C21.0587 4.86284 21.1591 4.90284 21.2341 4.97518C21.3091 5.04752 21.3527 5.14641 21.3555 5.25058Z"
            fill="#FCD355" />
        <path
            d="M0.89992 5.25057C0.8997 5.19972 0.909552 5.14933 0.928907 5.10231C0.948262 5.05529 0.976737 5.01257 1.01269 4.97661C1.04864 4.94065 1.09136 4.91216 1.13837 4.8928C1.18539 4.87343 1.23577 4.86357 1.28662 4.86377H2.16046C2.2113 4.86357 2.26169 4.87343 2.30871 4.8928C2.35572 4.91216 2.39844 4.94065 2.43439 4.97661C2.47034 5.01257 2.49882 5.05529 2.51817 5.10231C2.53753 5.14933 2.54738 5.19972 2.54716 5.25057V7.5425C2.54813 7.6467 2.50815 7.74712 2.43583 7.82214C2.36351 7.89716 2.26462 7.94079 2.16046 7.94363H1.28662C1.18246 7.94079 1.08357 7.89716 1.01125 7.82214C0.938926 7.74712 0.898948 7.6467 0.89992 7.5425"
            fill="#FCD355" />
        <path
            d="M9.05069 15.722V19.518C9.04951 19.7532 8.95557 19.9784 8.78927 20.1447C8.62297 20.3111 8.39775 20.405 8.16256 20.4062H6.57245C6.33726 20.405 6.11204 20.3111 5.94574 20.1447C5.77944 19.9784 5.6855 19.7532 5.68433 19.518V15.722C5.68518 15.6063 5.70884 15.4919 5.75395 15.3853C5.79907 15.2788 5.86474 15.1821 5.94723 15.101C6.02972 15.0198 6.12739 14.9557 6.23467 14.9123C6.34196 14.869 6.45674 14.8472 6.57245 14.8482H8.16256C8.27827 14.8472 8.39306 14.869 8.50034 14.9123C8.60762 14.9557 8.7053 15.0198 8.78778 15.101C8.87027 15.1821 8.93595 15.2788 8.98106 15.3853C9.02617 15.4919 9.04983 15.6063 9.05069 15.722Z"
            fill="#252328" />
        <path
            d="M17.1727 15.722V19.518C17.1716 19.7532 17.0776 19.9784 16.9113 20.1448C16.745 20.3111 16.5198 20.405 16.2846 20.4062H14.6945C14.4593 20.405 14.2341 20.3111 14.0678 20.1448C13.9015 19.9784 13.8076 19.7532 13.8064 19.518V15.722C13.8072 15.6063 13.8309 15.4919 13.876 15.3853C13.9211 15.2787 13.9868 15.1821 14.0693 15.101C14.1518 15.0198 14.2495 14.9557 14.3567 14.9123C14.464 14.8689 14.5788 14.8472 14.6945 14.8482H16.2845C16.4003 14.8471 16.5151 14.8689 16.6223 14.9123C16.7296 14.9557 16.8273 15.0198 16.9098 15.1009C16.9923 15.1821 17.058 15.2787 17.1031 15.3853C17.1482 15.4919 17.1719 15.6063 17.1727 15.722Z"
            fill="#252328" />
        <path
            d="M8.46325 15.722V19.5323C8.464 19.6473 8.44192 19.7613 8.39827 19.8676C8.35462 19.974 8.29028 20.0706 8.20899 20.1519C8.1277 20.2332 8.03107 20.2976 7.92471 20.3412C7.81835 20.3848 7.70438 20.4069 7.58942 20.4062H6.57233C6.33714 20.405 6.11192 20.311 5.94562 20.1447C5.77932 19.9784 5.68538 19.7532 5.6842 19.518V15.722C5.68506 15.6063 5.70872 15.4919 5.75383 15.3853C5.79894 15.2788 5.86462 15.1821 5.94711 15.101C6.02959 15.0198 6.12727 14.9557 6.23455 14.9123C6.34183 14.869 6.45662 14.8472 6.57233 14.8482H7.58951C7.70447 14.8474 7.81843 14.8695 7.92479 14.9132C8.03114 14.9568 8.12776 15.0212 8.20905 15.1024C8.29033 15.1837 8.35466 15.2804 8.3983 15.3867C8.44194 15.4931 8.46402 15.6071 8.46325 15.722Z"
            fill="#252328" />
        <path
            d="M16.5854 15.722V19.5323C16.5862 19.6473 16.5641 19.7613 16.5204 19.8676C16.4768 19.974 16.4124 20.0706 16.3312 20.1519C16.2499 20.2332 16.1532 20.2975 16.0469 20.3412C15.9405 20.3848 15.8266 20.4069 15.7116 20.4062H14.6945C14.4593 20.405 14.2341 20.311 14.0678 20.1447C13.9015 19.9784 13.8076 19.7532 13.8064 19.518V15.722C13.8072 15.6063 13.8309 15.4919 13.876 15.3853C13.9211 15.2787 13.9868 15.1821 14.0693 15.101C14.1518 15.0198 14.2495 14.9557 14.3567 14.9123C14.464 14.8689 14.5788 14.8472 14.6945 14.8482H15.7115C15.8265 14.8474 15.9405 14.8695 16.0468 14.9131C16.1532 14.9568 16.2498 15.0211 16.3311 15.1024C16.4125 15.1837 16.4768 15.2803 16.5205 15.3867C16.5641 15.4931 16.5862 15.607 16.5854 15.722Z"
            fill="#252328" />
        <path
            d="M17.3734 2.0564H5.48388C4.48705 2.0564 3.67896 2.86449 3.67896 3.86132V15.8224C3.67896 16.8193 4.48705 17.6274 5.48388 17.6274H17.3734C18.3702 17.6274 19.1783 16.8193 19.1783 15.8224V3.86132C19.1783 2.86449 18.3702 2.0564 17.3734 2.0564Z"
            fill="#1FC787" />
        <path
            d="M5.48388 2.05615H16.2131C16.6918 2.05615 17.1509 2.24631 17.4894 2.5848C17.8279 2.92329 18.018 3.38238 18.018 3.86108V15.8222C18.018 16.3009 17.8279 16.76 17.4894 17.0985C17.1509 17.437 16.6918 17.6272 16.2131 17.6272H5.48379C5.00512 17.6272 4.54605 17.437 4.20758 17.0985C3.86911 16.7601 3.67896 16.301 3.67896 15.8223V3.86113C3.67895 3.6241 3.72563 3.38939 3.81633 3.1704C3.90704 2.95141 4.03999 2.75243 4.20759 2.58482C4.37519 2.41721 4.57417 2.28426 4.79316 2.19355C5.01214 2.10284 5.24685 2.05615 5.48388 2.05615Z"
            fill="#32D194" />
        <path d="M19.1782 4.66333H18.0179V11.3674H19.1782V4.66333Z" fill="#FBB121" />
        <path d="M18.018 4.66333H3.67896V11.3674H18.018V8.01535V4.66333Z" fill="#FCD355" />
        <path
            d="M15.6257 1.21121V1.87018C15.6253 1.94276 15.6105 2.01454 15.5821 2.08134C15.5537 2.14814 15.5123 2.20863 15.4604 2.25929C15.4084 2.30994 15.3468 2.34976 15.2793 2.37641C15.2118 2.40306 15.1397 2.41602 15.0671 2.41453H7.79013C7.71755 2.41603 7.64541 2.40308 7.57789 2.37643C7.51036 2.34978 7.44882 2.30997 7.39683 2.25931C7.34484 2.20866 7.30344 2.14816 7.27505 2.08136C7.24666 2.01455 7.23183 1.94277 7.23145 1.87018V1.21121C7.23183 1.13862 7.24665 1.06683 7.27504 1.00002C7.30343 0.933215 7.34482 0.872721 7.39681 0.822063C7.44881 0.771405 7.51035 0.731596 7.57788 0.704952C7.6454 0.678308 7.71755 0.665361 7.79013 0.666866H15.0671C15.1397 0.66537 15.2118 0.678324 15.2793 0.704972C15.3469 0.731621 15.4084 0.771432 15.4604 0.822089C15.5124 0.872746 15.5538 0.933237 15.5821 1.00004C15.6105 1.06684 15.6253 1.13863 15.6257 1.21121Z"
            fill="#FBB121" />
        <path
            d="M15.0384 1.21121V1.87018C15.0385 1.94167 15.0244 2.01247 14.9971 2.07853C14.9697 2.14459 14.9296 2.20461 14.8791 2.25516C14.8285 2.30571 14.7685 2.34581 14.7024 2.37316C14.6364 2.4005 14.5656 2.41456 14.4941 2.41453H7.79013C7.71755 2.41603 7.64541 2.40308 7.57789 2.37643C7.51036 2.34978 7.44882 2.30997 7.39683 2.25931C7.34484 2.20866 7.30344 2.14816 7.27505 2.08136C7.24666 2.01455 7.23183 1.94277 7.23145 1.87018V1.21121C7.23183 1.13862 7.24665 1.06683 7.27504 1.00002C7.30343 0.933215 7.34482 0.872721 7.39681 0.822063C7.44881 0.771405 7.51035 0.731596 7.57788 0.704952C7.6454 0.678308 7.71755 0.665361 7.79013 0.666866H14.4941C14.5656 0.666829 14.6364 0.680884 14.7024 0.708226C14.7685 0.735569 14.8285 0.775664 14.8791 0.826218C14.9296 0.876772 14.9697 0.936794 14.9971 1.00285C15.0244 1.06891 15.0385 1.13971 15.0384 1.21121Z"
            fill="#FCD355" />
        <path
            d="M7.30307 14.1321C7.30382 14.2471 7.28174 14.3611 7.23809 14.4674C7.19444 14.5738 7.13011 14.6704 7.04881 14.7517C6.96752 14.833 6.87089 14.8973 6.76453 14.941C6.65817 14.9846 6.5442 15.0067 6.42924 15.006C6.38575 15.0083 6.34218 15.0034 6.30027 14.9916H6.25734C6.06192 14.9527 5.88572 14.8481 5.75804 14.6951C5.63036 14.5422 5.55889 14.3501 5.55554 14.1509C5.55219 13.9516 5.61715 13.7573 5.73962 13.6001C5.86208 13.4429 6.03467 13.3324 6.22866 13.287C6.29413 13.2694 6.36147 13.2598 6.42924 13.2583C6.66071 13.2592 6.88243 13.3516 7.04611 13.5153C7.20978 13.6789 7.30215 13.9007 7.30307 14.1321Z"
            fill="#FBB121" />
        <path
            d="M17.3017 14.1321C17.3008 14.3636 17.2084 14.5853 17.0448 14.749C16.8811 14.9127 16.6594 15.005 16.4279 15.006C16.3797 15.0091 16.3313 15.0042 16.2847 14.9916H16.256C16.0606 14.9527 15.8844 14.8481 15.7567 14.6951C15.629 14.5421 15.5575 14.3501 15.5542 14.1508C15.5509 13.9516 15.6158 13.7572 15.7383 13.6001C15.8608 13.4429 16.0334 13.3324 16.2274 13.287C16.2928 13.2694 16.3602 13.2598 16.4279 13.2583C16.6586 13.2617 16.8789 13.3548 17.0421 13.518C17.2052 13.6811 17.2984 13.9014 17.3017 14.1321Z"
            fill="#FBB121" />
        <path
            d="M15.153 13.4159V14.8484C15.1512 14.9846 15.0962 15.1147 14.9999 15.211C14.9036 15.3073 14.7735 15.3622 14.6373 15.3641H8.42033C8.28414 15.3622 8.15405 15.3073 8.05774 15.211C7.96143 15.1147 7.9065 14.9846 7.90466 14.8484V13.4159C7.90466 13.3489 7.9181 13.2825 7.94419 13.2207C7.97029 13.1589 8.0085 13.103 8.05658 13.0563C8.10465 13.0095 8.16161 12.9729 8.22409 12.9486C8.28657 12.9242 8.3533 12.9126 8.42033 12.9145H14.6372C14.7043 12.9126 14.771 12.9242 14.8335 12.9485C14.896 12.9729 14.9529 13.0095 15.001 13.0563C15.0491 13.103 15.0874 13.1589 15.1135 13.2207C15.1396 13.2825 15.153 13.3489 15.153 13.4159Z"
            fill="white" />
        <path
            d="M14.6802 13.4159V14.8484C14.6784 14.9846 14.6235 15.1147 14.5271 15.211C14.4308 15.3073 14.3007 15.3622 14.1646 15.3641H8.42033C8.28414 15.3622 8.15405 15.3073 8.05774 15.211C7.96143 15.1147 7.9065 14.9846 7.90466 14.8484V13.4159C7.90466 13.3489 7.9181 13.2825 7.94419 13.2207C7.97029 13.1589 8.0085 13.103 8.05658 13.0563C8.10465 13.0095 8.16161 12.9729 8.22409 12.9486C8.28657 12.9242 8.3533 12.9126 8.42033 12.9145H14.1646C14.2316 12.9126 14.2983 12.9242 14.3608 12.9486C14.4233 12.9729 14.4802 13.0096 14.5283 13.0563C14.5764 13.1031 14.6146 13.159 14.6407 13.2207C14.6668 13.2825 14.6802 13.3489 14.6802 13.4159Z"
            fill="white" />
        <path d="M15.153 13.645H7.90466V14.6191H15.153V13.645Z" fill="#FBB121" />
        <path
            d="M6.98792 14.1321C6.98843 14.3322 6.92053 14.5266 6.79547 14.6829C6.67041 14.8392 6.49569 14.9481 6.30027 14.9915H6.25734C6.06192 14.9526 5.88572 14.848 5.75804 14.695C5.63036 14.542 5.55889 14.35 5.55554 14.1508C5.55219 13.9515 5.61715 13.7572 5.73962 13.6C5.86208 13.4428 6.03467 13.3323 6.22866 13.2869C6.43786 13.3076 6.63175 13.4058 6.77224 13.5622C6.91272 13.7186 6.98966 13.9218 6.98792 14.1321Z"
            fill="#FCD355" />
        <path
            d="M16.9866 14.1321C16.9867 14.3343 16.917 14.5304 16.789 14.6871C16.6611 14.8437 16.4829 14.9513 16.2847 14.9915H16.256C16.0606 14.9526 15.8844 14.848 15.7567 14.695C15.629 14.542 15.5575 14.3499 15.5542 14.1507C15.5509 13.9515 15.6158 13.7571 15.7383 13.6C15.8608 13.4428 16.0334 13.3323 16.2274 13.2869C16.4348 13.312 16.626 13.4115 16.7656 13.567C16.9052 13.7224 16.9837 13.9232 16.9866 14.1321Z"
            fill="#FCD355" />
        <path d="M14.8521 13.6592H7.90466V14.6189H14.8521V13.6592Z" fill="#FCD355" />
    </g>
    <defs>
        <clipPath id="clip0_3534_9737">
            <rect width="21" height="19.7395" fill="white" transform="translate(0.899902 0.666748)" />
        </clipPath>
    </defs>
</svg>