<svg width="24" height="24" viewBox="0 0 24 24" fill="none" xmlns="http://www.w3.org/2000/svg">
  <path
    d="M17.8925 5.70973C17.5025 5.31973 16.8725 5.31973 16.4825 5.70973L11.5925 10.5897L6.7025 5.69973C6.3125 5.30973 5.6825 5.30973 5.2925 5.69973C4.9025 6.08973 4.9025 6.71973 5.2925 7.10973L10.1825 11.9997L5.2925 16.8897C4.9025 17.2797 4.9025 17.9097 5.2925 18.2997C5.6825 18.6897 6.3125 18.6897 6.7025 18.2997L11.5925 13.4097L16.4825 18.2997C16.8725 18.6897 17.5025 18.6897 17.8925 18.2997C18.2825 17.9097 18.2825 17.2797 17.8925 16.8897L13.0025 11.9997L17.8925 7.10973C18.2725 6.72973 18.2725 6.08973 17.8925 5.70973Z"
    fill="black" />
</svg>