<svg width="40" height="40" viewBox="0 0 40 40" fill="none" xmlns="http://www.w3.org/2000/svg">
    <rect width="40" height="40" rx="12" fill="#FDEBF1" />
    <path
        d="M11.2803 10.2197C10.9874 9.92678 10.5126 9.92677 10.2197 10.2197C9.92678 10.5126 9.92677 10.9874 10.2197 11.2803L12.7859 13.8466C10.4895 17.2342 10.8419 21.8811 13.843 24.8823C14.1389 25.1781 14.5061 25.5414 14.9449 25.9723L18.436 29.3681C19.3081 30.2116 20.6919 30.2117 21.5642 29.3684C22.96 28.0188 24.0952 26.9149 24.97 26.0562L24.9827 26.0437L28.7194 29.7805C29.0123 30.0734 29.4872 30.0734 29.7801 29.7805C30.073 29.4876 30.073 29.0127 29.7801 28.7198L11.2803 10.2197ZM20.4065 21.4673C20.2742 21.489 20.1384 21.5002 20 21.5002C18.6192 21.5002 17.4998 20.3808 17.4998 19C17.4998 18.8616 17.5111 18.7258 17.5327 18.5935L20.4065 21.4673ZM22.5002 19C22.5002 19.1017 22.4941 19.202 22.4823 19.3005L27.0371 23.8554C29.5265 20.4495 29.2331 15.6444 26.157 12.5683C23.0809 9.49225 18.2759 9.19884 14.8701 11.6881L19.6995 16.5177C19.798 16.5059 19.8983 16.4998 20 16.4998C21.3808 16.4998 22.5002 17.6192 22.5002 19Z"
        fill="#E83475" />
</svg>