<svg width="40" height="40" viewBox="0 0 40 40" fill="none" xmlns="http://www.w3.org/2000/svg">
    <rect width="40" height="40" rx="12" fill="#5FABF1" fill-opacity="0.1" />
    <path
        d="M28.62 16.45C27.57 11.83 23.54 9.75 20 9.75C20 9.75 20 9.75 19.99 9.75C16.46 9.75 12.42 11.82 11.37 16.44C10.2 21.6 13.36 25.97 16.22 28.72C17.28 29.74 18.64 30.25 20 30.25C21.36 30.25 22.72 29.74 23.77 28.72C26.63 25.97 29.79 21.61 28.62 16.45ZM20 21.46C18.26 21.46 16.85 20.05 16.85 18.31C16.85 16.57 18.26 15.16 20 15.16C21.74 15.16 23.15 16.57 23.15 18.31C23.15 20.05 21.74 21.46 20 21.46Z"
        fill="#5FABF1" />
</svg>