<svg width="24" height="25" viewBox="0 0 24 25" fill="none" xmlns="http://www.w3.org/2000/svg">
    <path
        d="M15 23.25H9C4.59 23.25 3.25 21.91 3.25 17.5V7.5C3.25 3.09 4.59 1.75 9 1.75H15C19.41 1.75 20.75 3.09 20.75 7.5V17.5C20.75 21.91 19.41 23.25 15 23.25ZM9 3.25C5.42 3.25 4.75 3.93 4.75 7.5V17.5C4.75 21.07 5.42 21.75 9 21.75H15C18.58 21.75 19.25 21.07 19.25 17.5V7.5C19.25 3.93 18.58 3.25 15 3.25H9Z"
        fill="#00C9B5" />
    <path
        d="M14 6.75H10C9.59 6.75 9.25 6.41 9.25 6C9.25 5.59 9.59 5.25 10 5.25H14C14.41 5.25 14.75 5.59 14.75 6C14.75 6.41 14.41 6.75 14 6.75Z"
        fill="#00C9B5" />
    <path
        d="M12 20.3598C10.73 20.3598 9.69995 19.3298 9.69995 18.0598C9.69995 16.7898 10.73 15.7598 12 15.7598C13.27 15.7598 14.3 16.7898 14.3 18.0598C14.3 19.3298 13.27 20.3598 12 20.3598ZM12 17.2498C11.56 17.2498 11.2 17.6098 11.2 18.0498C11.2 18.4898 11.56 18.8498 12 18.8498C12.44 18.8498 12.8 18.4898 12.8 18.0498C12.8 17.6098 12.44 17.2498 12 17.2498Z"
        fill="#00C9B5" />
</svg>