<svg width="73" height="66" viewBox="0 0 73 66" fill="none" xmlns="http://www.w3.org/2000/svg">
    <path
        d="M48.2743 30.972H35.1755V17.8732C35.1755 10.0728 41.5042 3.74414 49.3046 3.74414H62.4034V16.8429C62.4034 24.6433 56.0747 30.972 48.2743 30.972ZM37.9719 28.0284H48.2743C54.4558 28.0284 59.4598 23.0244 59.4598 16.8429V6.54051H49.1574C42.9759 6.54051 37.9719 11.5445 37.9719 17.726V28.0284Z"
        fill="#E1D9BD" fill-opacity="0.4" />
    <path
        d="M37.9718 30.972H24.8731C17.0727 30.972 10.744 24.6433 10.744 16.8429V3.74414H23.8428C31.6432 3.74414 37.9718 10.0728 37.9718 17.8732V30.972ZM13.5404 6.54051V16.8429C13.5404 23.0244 18.5444 28.0284 24.7259 28.0284H35.0283V17.726C35.0283 11.5445 30.0243 6.54051 23.8428 6.54051H13.5404Z"
        fill="#E1D9BD" fill-opacity="0.4" />
    <path
        d="M62.4034 55.4036H49.3046C41.5042 55.4036 35.1755 49.075 35.1755 41.2746V28.1758H48.2743C56.0747 28.1758 62.4034 34.5044 62.4034 42.3048V55.4036ZM37.9719 30.9722V41.2746C37.9719 47.456 42.9759 52.4601 49.1574 52.4601H59.4598V42.1576C59.4598 35.9762 54.4558 30.9722 48.2743 30.9722H37.9719Z"
        fill="#E1D9BD" fill-opacity="0.4" />
    <path
        d="M23.8428 55.4036H10.744V42.3048C10.744 34.5044 17.0727 28.1758 24.8731 28.1758H37.9718V41.2746C37.9718 49.075 31.6432 55.4036 23.8428 55.4036ZM13.5404 52.4601H23.8428C30.0243 52.4601 35.0283 47.456 35.0283 41.2746V30.9722H24.7259C18.5444 30.9722 13.5404 35.9762 13.5404 42.1576V52.4601Z"
        fill="#E1D9BD" fill-opacity="0.4" />
    <path
        d="M36.5001 31.5605L27.228 22.2883C21.7824 16.8427 21.7824 7.86492 27.228 2.27218L36.5001 -7L45.7723 2.27218C51.2179 7.71774 51.2179 16.6956 45.7723 22.2883L36.5001 31.5605ZM36.5001 -3.02621L29.1413 4.33266C24.7259 8.74798 24.7259 15.8125 29.1413 20.2278L36.5001 27.5867L43.859 20.2278C48.2743 15.8125 48.2743 8.74798 43.859 4.33266L36.5001 -3.02621Z"
        fill="#E1D9BD" fill-opacity="0.4" />
    <path
        d="M19.2802 42.8932C15.6008 42.8932 12.0685 41.5686 9.27216 38.7723L0 29.5001L9.27216 20.2279C11.9214 17.5787 15.4536 16.1069 19.2802 16.1069C23.1069 16.1069 26.6391 17.5787 29.2883 20.2279L38.5605 29.5001L29.2883 38.7723C26.4919 41.5686 22.8125 42.8932 19.2802 42.8932ZM3.97381 29.5001L11.3327 36.859C15.748 41.2743 22.8125 41.2743 27.2278 36.859L34.5867 29.5001L27.2278 22.1412C25.1673 20.0807 22.2238 18.9033 19.2802 18.9033C16.3367 18.9033 13.3932 20.0807 11.3327 22.1412L3.97381 29.5001Z"
        fill="#E1D9BD" fill-opacity="0.4" />
    <path
        d="M53.7199 42.8932C50.0405 42.8932 46.5083 41.5686 43.7119 38.7723L34.4397 29.5001L43.7119 20.2279C46.3611 17.5787 49.8933 16.1069 53.7199 16.1069C57.5466 16.1069 61.0788 17.5787 63.728 20.2279L73.0002 29.5001L63.728 38.7723C60.9316 41.5686 57.3994 42.8932 53.7199 42.8932ZM38.5607 29.5001L45.9196 36.859C50.3349 41.2743 57.3994 41.2743 61.8147 36.859L69.1736 29.5001L61.8147 22.1412C59.7542 20.0807 56.8107 18.9033 53.8671 18.9033C50.9236 18.9033 47.98 20.0807 45.9196 22.1412L38.5607 29.5001Z"
        fill="#E1D9BD" fill-opacity="0.4" />
    <path
        d="M36.5001 65.9999L27.228 56.7278C21.7824 51.2822 21.7824 42.3044 27.228 36.7116L36.5001 27.4395L45.7723 36.7116C51.2179 42.1572 51.2179 51.135 45.7723 56.7278L36.5001 65.9999ZM36.5001 31.5604L29.1413 38.9193C24.7259 43.3346 24.7259 50.3991 29.1413 54.8144L36.5001 62.1733L43.859 54.8144C48.2743 50.3991 48.2743 43.3346 43.859 38.9193L36.5001 31.5604Z"
        fill="#E1D9BD" fill-opacity="0.4" />
</svg>