<svg width="12" height="13" viewBox="0 0 12 13" fill="none" xmlns="http://www.w3.org/2000/svg">
    <g clip-path="url(#clip0_3373_409)">
        <path
            d="M6 0.5C2.69147 0.5 0 3.19147 0 6.5C0 9.80853 2.69147 12.5 6 12.5C9.30853 12.5 12 9.80853 12 6.5C12 3.19147 9.30853 0.5 6 0.5Z"
            fill="#2196F3" />
        <path
            d="M9.04102 5.22864L5.79099 8.47858C5.69348 8.57608 5.56549 8.62515 5.4375 8.62515C5.30951 8.62515 5.18152 8.57608 5.08401 8.47858L3.45905 6.85361C3.26349 6.65814 3.26349 6.3421 3.45905 6.14664C3.65451 5.95108 3.97046 5.95108 4.16602 6.14664L5.4375 7.41812L8.33405 4.52167C8.52951 4.32611 8.84546 4.32611 9.04102 4.52167C9.23648 4.71713 9.23648 5.03308 9.04102 5.22864Z"
            fill="#FAFAFA" />
    </g>
    <defs>
        <clipPath id="clip0_3373_409">
            <rect width="12" height="12" fill="white" transform="translate(0 0.5)" />
        </clipPath>
    </defs>
</svg>