<svg width="35" height="36" viewBox="0 0 35 36" fill="none" xmlns="http://www.w3.org/2000/svg">
    <path
        d="M29.4278 11.8995C29.4278 12.5625 29.6912 13.1984 30.16 13.6673L33.4321 16.9393C34.0179 17.5251 34.0179 18.4749 33.4321 19.0607L30.16 22.3327C29.6912 22.8016 29.4278 23.4375 29.4278 24.1005V28.7279C29.4278 29.5564 28.7562 30.2279 27.9278 30.2279H23.3005C22.6375 30.2279 22.0016 30.4913 21.5327 30.9601L18.2606 34.2322C17.6748 34.818 16.725 34.818 16.1392 34.2322L12.8673 30.9602C12.3985 30.4913 11.7626 30.2279 11.0995 30.2279H6.47213C5.6437 30.2279 4.97213 29.5564 4.97213 28.7279V24.1005C4.97213 23.4375 4.70873 22.8016 4.23988 22.3327L0.967756 19.0607C0.381955 18.4749 0.381955 17.5251 0.967755 16.9393L4.23988 13.6673C4.70873 13.1984 4.97213 12.5625 4.97213 11.8995V7.27207C4.97213 6.44365 5.6437 5.77207 6.47213 5.77207H11.0995C11.7626 5.77207 12.3985 5.50867 12.8673 5.03982L16.1392 1.76779C16.725 1.18199 17.6748 1.18198 18.2606 1.76776L21.5327 5.03986C22.0016 5.50869 22.6375 5.77207 23.3005 5.77207H27.9278C28.7562 5.77207 29.4278 6.44365 29.4278 7.27207V11.8995Z"
        fill="#E2FBED" stroke="#C5E1D3" />
    <path d="M27.6999 12.283V27.4215L17.1577 30.0887V15.0555L27.6999 12.283Z" fill="#009F6C" />
    <path d="M27.6999 27.4215L17.1577 30.0886V27.8537L27.6999 25.1865V27.4215Z" fill="#FBB121" />
    <path d="M27.6999 16.321L17.1577 19.0514V16.8164L27.6999 14.0649V16.321Z" fill="#FBB121" />
    <path
        d="M21.227 19.2199C21.228 19.1964 21.2234 19.173 21.2135 19.1517C21.2036 19.1304 21.1888 19.1117 21.1702 19.0973C21.1516 19.0828 21.1299 19.073 21.1067 19.0687C21.0836 19.0644 21.0598 19.0656 21.0373 19.0724L18.5177 19.726C18.4851 19.735 18.4563 19.7541 18.4354 19.7807C18.4146 19.8073 18.4028 19.8398 18.4017 19.8736V27.5377L21.227 26.8208V19.2199Z"
        fill="#FBB121" />
    <path
        d="M23.9785 19.6519C23.9787 19.6698 23.9724 19.6871 23.9607 19.7007C23.9491 19.7143 23.9329 19.7232 23.9152 19.7257L21.9333 20.2423C21.9221 20.2457 21.9101 20.2463 21.8986 20.2441C21.887 20.242 21.8762 20.2371 21.8669 20.2298C21.8576 20.2226 21.8502 20.2133 21.8452 20.2026C21.8403 20.1919 21.838 20.1802 21.8384 20.1685V18.9245C21.8414 18.9077 21.8488 18.8919 21.8599 18.8789C21.871 18.8659 21.8855 18.8562 21.9017 18.8507L23.8836 18.3342C23.8949 18.3308 23.9068 18.3302 23.9184 18.3323C23.9299 18.3345 23.9408 18.3394 23.9501 18.3466C23.9594 18.3538 23.9668 18.3632 23.9717 18.3738C23.9767 18.3845 23.979 18.3962 23.9785 18.4079V19.6519Z"
        fill="#FBB121" />
    <path
        d="M27.7 18.7454L25.6443 19.2831C25.633 19.2865 25.6211 19.2871 25.6095 19.2849C25.598 19.2828 25.5871 19.2779 25.5778 19.2706C25.5685 19.2634 25.5611 19.2541 25.5562 19.2434C25.5512 19.2327 25.5489 19.221 25.5494 19.2093V17.9337C25.563 17.9289 25.5779 17.9289 25.5916 17.9337L27.7 17.3855V18.7454Z"
        fill="#FBB121" />
    <path d="M6.69995 12.2622V27.2953L17.2421 30.0468V15.0453L6.69995 12.2622Z" fill="#32D194" />
    <path d="M6.69995 27.2952L17.2421 30.0467V27.8118L6.69995 25.0603V27.2952Z" fill="#FCD355" />
    <path d="M6.69995 16.2681L17.2421 19.0407V16.8058L6.69995 14.0332V16.2681Z" fill="#FCD355" />
    <path
        d="M13.9951 20.5377C13.9895 20.5492 13.9866 20.5618 13.9866 20.5746C13.9866 20.5874 13.9895 20.6 13.9951 20.6115L15.977 21.1281C15.986 21.138 15.9975 21.1454 16.0103 21.1493C16.0231 21.1532 16.0368 21.1536 16.0498 21.1503C16.0628 21.1471 16.0747 21.1403 16.0841 21.1308C16.0936 21.1213 16.1003 21.1094 16.1035 21.0964V19.8208C16.1027 19.8048 16.0973 19.7893 16.0879 19.7762C16.0786 19.7632 16.0657 19.753 16.0508 19.747L14.0689 19.2305C14.0689 19.2305 13.974 19.2305 13.974 19.3043L13.9951 20.5377Z"
        fill="#FCD355" />
    <path
        d="M9.69383 19.4094C9.68824 19.4209 9.68533 19.4336 9.68533 19.4463C9.68533 19.4591 9.68824 19.4717 9.69383 19.4832L11.7285 20.042C11.7387 20.0481 11.7505 20.0511 11.7624 20.0508C11.7743 20.0505 11.7859 20.0468 11.7958 20.0402C11.8057 20.0336 11.8136 20.0243 11.8184 20.0134C11.8233 20.0026 11.825 19.9905 11.8234 19.9787V18.6926C11.8225 18.6765 11.8171 18.6611 11.8078 18.648C11.7984 18.6349 11.7855 18.6248 11.7706 18.6188L9.77817 18.1022C9.7669 18.0988 9.75499 18.0982 9.74343 18.1004C9.73188 18.1025 9.721 18.1074 9.71172 18.1147C9.70243 18.1219 9.69501 18.1312 9.69007 18.1419C9.68512 18.1526 9.6828 18.1643 9.68329 18.176L9.69383 19.4094Z"
        fill="#FCD355" />
    <path
        d="M6.69995 17.2905V18.6821L7.29031 18.8402C7.3014 18.8417 7.31267 18.841 7.32347 18.838C7.33427 18.8351 7.34437 18.8301 7.3532 18.8232C7.36203 18.8163 7.36941 18.8078 7.3749 18.798C7.38039 18.7883 7.38389 18.7775 7.38519 18.7664V17.5225C7.38228 17.5056 7.37487 17.4898 7.36373 17.4768C7.3526 17.4639 7.33816 17.4541 7.32194 17.4487L6.69995 17.2905Z"
        fill="#FCD355" />
    <path fill-rule="evenodd" clip-rule="evenodd"
        d="M6.74207 12.2726L17.1577 15.0452L27.6999 12.2831L17.1577 9.5L6.77369 12.262L6.74207 12.2726Z"
        fill="#FFDE79" />
</svg>