<svg width="36" height="36" viewBox="0 0 36 36" fill="none" xmlns="http://www.w3.org/2000/svg">
    <path
        d="M30.2278 11.8995C30.2278 12.5625 30.4912 13.1984 30.9601 13.6673L34.2322 16.9393C34.818 17.5251 34.818 18.4749 34.2322 19.0607L30.9601 22.3327C30.4912 22.8016 30.2278 23.4375 30.2278 24.1005V28.7279C30.2278 29.5564 29.5562 30.2279 28.7278 30.2279H24.1005C23.4375 30.2279 22.8016 30.4913 22.3328 30.9601L19.0606 34.2322C18.4748 34.818 17.5251 34.818 16.9393 34.2322L13.6674 30.9602C13.1985 30.4913 12.5626 30.2279 11.8996 30.2279H7.27218C6.44375 30.2279 5.77218 29.5564 5.77218 28.7279V24.1005C5.77218 23.4375 5.50878 22.8016 5.03993 22.3327L1.7678 19.0607C1.182 18.4749 1.182 17.5251 1.7678 16.9393L5.03993 13.6673C5.50878 13.1984 5.77218 12.5625 5.77218 11.8995V7.27207C5.77218 6.44365 6.44375 5.77207 7.27218 5.77207H11.8996C12.5626 5.77207 13.1985 5.50867 13.6673 5.03982L16.9393 1.76779C17.5251 1.18199 18.4748 1.18198 19.0606 1.76776L22.3328 5.03986C22.8016 5.50869 23.4375 5.77207 24.1005 5.77207H28.7278C29.5562 5.77207 30.2278 6.44365 30.2278 7.27207V11.8995Z"
        fill="#E2FBED" stroke="#C5E1D3" />
    <path
        d="M8.52087 20.2917V13.6354C8.52087 13.2713 8.78951 12.9639 9.1469 12.8942C10.3974 12.6504 12.3586 12.096 13.4665 11.1772C13.5337 11.1215 13.5993 11.0668 13.6638 11.013C14.8654 10.0111 15.6531 9.35425 18 9.35425C20.4729 9.35425 21.6269 10.0834 22.9457 11.1772C24.0451 12.0889 25.6981 12.6417 26.8544 12.8885C27.2105 12.9645 27.4792 13.2713 27.4792 13.6354V20.2917H8.52087Z"
        fill="#009F6C" />
    <path
        d="M9.97925 19.5625V14.2778C9.97925 13.9639 10.2119 13.6995 10.5205 13.6423C11.5791 13.4462 13.2299 13.0033 14.164 12.2708C14.2208 12.2263 14.2764 12.1825 14.3309 12.1395C15.3477 11.338 16.0142 10.8125 18.0001 10.8125C20.0925 10.8125 21.0689 11.3958 22.1849 12.2708C23.1114 12.9973 24.5027 13.439 25.4806 13.6375C25.7882 13.7 26.0209 13.9639 26.0209 14.2778V19.5625H9.97925Z"
        fill="#21C285" />
    <path
        d="M7.42712 25.396C6.82306 25.396 6.33337 24.9063 6.33337 24.3022V22.1147C6.33337 20.3026 7.80244 18.8335 9.61462 18.8335H26.3855C28.1976 18.8335 29.6667 20.3026 29.6667 22.1147V24.3022C29.6667 24.9063 29.177 25.396 28.573 25.396C27.9689 25.396 27.4792 24.9063 27.4792 24.3022V23.2085C27.4792 22.0004 26.4998 21.021 25.2917 21.021H10.7084C9.50025 21.021 8.52087 22.0004 8.52087 23.2085V24.3022C8.52087 24.9063 8.03119 25.396 7.42712 25.396Z"
        fill="#FCD355" />
    <rect x="7.79175" y="23.2085" width="20.4167" height="5.83333" rx="0.625" fill="#FBB121" />
    <path
        d="M26.7501 23.2085V25.396C26.7501 26.6041 25.7707 27.5835 24.5626 27.5835H8.52091C8.26525 27.5835 8.01982 27.5396 7.79175 27.459V23.9377C7.79175 23.5349 8.11821 23.2085 8.52091 23.2085H26.7501Z"
        fill="#F3C537" />
    <path
        d="M9.25 29.0417H10.7083V29.8751C10.7083 30.2203 10.4285 30.5001 10.0833 30.5001H9.875C9.52982 30.5001 9.25 30.2203 9.25 29.8751V29.0417Z"
        fill="#009F6C" />
    <path
        d="M25.2917 29.0417H26.7501V29.8751C26.7501 30.2203 26.4703 30.5001 26.1251 30.5001H25.9167C25.5716 30.5001 25.2917 30.2203 25.2917 29.8751V29.0417Z"
        fill="#009F6C" />
    <path
        d="M8.52087 21.8542C8.52087 20.9913 9.22043 20.2917 10.0834 20.2917H25.9167C26.7796 20.2917 27.4792 20.9913 27.4792 21.8542V23.2084H8.52087V21.8542Z"
        fill="white" />
    <path fill-rule="evenodd" clip-rule="evenodd"
        d="M26.0172 20.2949C25.9843 20.2928 25.9511 20.2917 25.9177 20.2917H10.0844C9.2575 20.2917 8.58064 20.9341 8.52551 21.747C8.55842 21.749 8.59161 21.7501 8.62503 21.7501H24.4584C25.2852 21.7501 25.9621 21.1078 26.0172 20.2949Z"
        fill="#F9F8F6" />
    <path
        d="M11.4375 15.8125C11.4375 15.4673 11.7173 15.1875 12.0625 15.1875H16.6458C16.991 15.1875 17.2708 15.4673 17.2708 15.8125V18.8333H11.4375V15.8125Z"
        fill="white" />
    <path
        d="M18.7292 15.8125C18.7292 15.4673 19.0091 15.1875 19.3542 15.1875H23.9376C24.2828 15.1875 24.5626 15.4673 24.5626 15.8125V18.8333H18.7292V15.8125Z"
        fill="white" />
    <path
        d="M18.7292 15.8125C18.7292 15.4673 19.0091 15.1875 19.3542 15.1875H23.8334V17.4792C23.8334 17.8243 23.5536 18.1042 23.2084 18.1042H18.7292V15.8125Z"
        fill="#F9F8F6" />
    <path
        d="M11.4375 15.8125C11.4375 15.4673 11.7173 15.1875 12.0625 15.1875H16.5417V17.4792C16.5417 17.8243 16.2618 18.1042 15.9167 18.1042H11.4375V15.8125Z"
        fill="#F9F8F6" />
</svg>