<svg width="35" height="36" viewBox="0 0 35 36" fill="none" xmlns="http://www.w3.org/2000/svg">
    <path
        d="M29.8278 11.8995C29.8278 12.5625 30.0912 13.1984 30.56 13.6673L33.8322 16.9393C34.418 17.5251 34.418 18.4749 33.8322 19.0607L30.56 22.3327C30.0912 22.8016 29.8278 23.4375 29.8278 24.1005V28.7279C29.8278 29.5564 29.1562 30.2279 28.3278 30.2279H23.7005C23.0375 30.2279 22.4016 30.4913 21.9328 30.9601L18.6606 34.2322C18.0748 34.818 17.1251 34.818 16.5393 34.2322L13.2673 30.9602C12.7985 30.4913 12.1626 30.2279 11.4995 30.2279H6.87215C6.04372 30.2279 5.37215 29.5564 5.37215 28.7279V24.1005C5.37215 23.4375 5.10875 22.8016 4.6399 22.3327L1.36778 19.0607C0.78198 18.4749 0.781979 17.5251 1.36778 16.9393L4.6399 13.6673C5.10875 13.1984 5.37215 12.5625 5.37215 11.8995V7.27207C5.37215 6.44365 6.04373 5.77207 6.87215 5.77207H11.4995C12.1626 5.77207 12.7985 5.50867 13.2673 5.03982L16.5393 1.76779C17.1251 1.18199 18.0748 1.18198 18.6606 1.76776L21.9328 5.03986C22.4016 5.50869 23.0375 5.77207 23.7005 5.77207H28.3278C29.1562 5.77207 29.8278 6.44365 29.8278 7.27207V11.8995Z"
        fill="#E2FBED" stroke="#C5E1D3" />
    <path
        d="M17.4062 13.8859C17.3919 13.6509 17.5787 13.4524 17.8142 13.4524H26.4843C26.7198 13.4524 26.9066 13.6509 26.8924 13.8859L25.9881 28.8073C25.975 29.0231 25.7962 29.1914 25.58 29.1914H18.7185C18.5024 29.1914 18.3236 29.0231 18.3105 28.8073L17.4062 13.8859Z"
        fill="#FCD355" />
    <path fill-rule="evenodd" clip-rule="evenodd"
        d="M22.6 29.1914V13.4524H26.4843C26.7198 13.4524 26.9066 13.6509 26.8924 13.8859L25.988 28.8073C25.975 29.0231 25.7962 29.1914 25.58 29.1914H22.6Z"
        fill="#FFB932" />
    <ellipse cx="26.1849" cy="13.1955" rx="3.08176" ry="3.08176" fill="#32D194" />
    <path fill-rule="evenodd" clip-rule="evenodd"
        d="M27.9012 14.2703C27.6586 14.3858 27.3872 14.4504 27.1008 14.4504C26.0712 14.4504 25.2365 13.6157 25.2365 12.5861C25.2365 12.1515 25.3852 11.7516 25.6346 11.4346C25.0055 11.7341 24.5707 12.3756 24.5707 13.1188C24.5707 14.1484 25.4053 14.983 26.435 14.983C27.0299 14.983 27.5598 14.7043 27.9012 14.2703Z"
        fill="white" />
    <path
        d="M26.863 11.5107L27.1487 12.0523L27.7521 12.1567L27.3253 12.5958L27.4125 13.2019L26.863 12.9317L26.3135 13.2019L26.4006 12.5958L25.9739 12.1567L26.5772 12.0523L26.863 11.5107Z"
        fill="white" />
    <ellipse cx="11.6184" cy="26.4081" rx="1.44306" ry="2.67997" transform="rotate(1.5168 11.6184 26.4081)"
        fill="#FBB121" />
    <path fill-rule="evenodd" clip-rule="evenodd"
        d="M10.788 28.6528C11.5611 28.6208 12.2093 27.4586 12.2476 26.0124C12.2729 25.0591 12.0269 24.2149 11.6356 23.7294C10.8624 23.7615 10.2142 24.9237 10.1759 26.3698C10.1507 27.3232 10.3967 28.1673 10.788 28.6528Z"
        fill="#FCD355" />
    <path fill-rule="evenodd" clip-rule="evenodd"
        d="M26.6061 18.6106L26.5953 18.7885L22.6263 19.891L20.7185 18.4602C23.5826 18.1233 25.6655 18.3814 26.6061 18.6106Z"
        fill="#2F95EC" />
    <path fill-rule="evenodd" clip-rule="evenodd"
        d="M26.6052 18.626L25.9881 28.8072C25.975 29.023 25.7962 29.1913 25.5801 29.1913H18.7186C18.5024 29.1913 18.3236 29.023 18.3105 28.8072L17.692 18.6018C18.2739 18.4549 19.405 18.305 20.957 18.4601C21.3033 18.4948 21.6496 18.5344 21.9952 18.574C23.5701 18.7544 25.1298 18.933 26.6052 18.626Z"
        fill="#45A3F4" />
    <path fill-rule="evenodd" clip-rule="evenodd"
        d="M22.6 18.6425V29.1914H25.58C25.7962 29.1914 25.975 29.0231 25.988 28.8074L26.6051 18.6262C25.3188 18.8938 23.9685 18.7924 22.6 18.6425Z"
        fill="#3B94E1" />
    <ellipse cx="8.7607" cy="26.5086" rx="1.44306" ry="2.67997" transform="rotate(25.6789 8.7607 26.5086)"
        fill="#FBB121" />
    <ellipse cx="14.5583" cy="26.5104" rx="1.44306" ry="2.67997" transform="rotate(-21.569 14.5583 26.5104)"
        fill="#FBB121" />
    <path fill-rule="evenodd" clip-rule="evenodd"
        d="M7.08414 28.2166C7.80272 28.5038 8.86984 27.7088 9.49671 26.405C9.90997 25.5455 10.0311 24.6746 9.87279 24.0715C9.15421 23.7843 8.08709 24.5793 7.46022 25.8831C7.04695 26.7426 6.92586 27.6135 7.08414 28.2166Z"
        fill="#FCD355" />
    <path fill-rule="evenodd" clip-rule="evenodd"
        d="M14.6744 28.9009C15.3731 28.5682 15.5137 27.2449 14.9819 25.8995C14.6313 25.0126 14.074 24.3325 13.5237 24.0393C12.825 24.372 12.6844 25.6953 13.2162 27.0407C13.5668 27.9276 14.1241 28.6077 14.6744 28.9009Z"
        fill="#FCD355" />
    <path
        d="M6.41028 27.7605H16.9029L16.6556 28.6038C16.5534 28.9521 16.2339 29.1913 15.871 29.1913H7.44221C7.07929 29.1913 6.75981 28.9521 6.65766 28.6038L6.41028 27.7605Z"
        fill="#32D194" />
    <rect x="5.93335" y="26.8066" width="11.4465" height="0.953878" rx="0.476939" fill="#009F6C" />
</svg>