<svg width="35" height="36" viewBox="0 0 35 36" fill="none" xmlns="http://www.w3.org/2000/svg">
    <path
        d="M30.0278 11.8995C30.0278 12.5625 30.2911 13.1984 30.76 13.6673L34.0321 16.9393C34.6179 17.5251 34.6179 18.4749 34.0321 19.0607L30.76 22.3327C30.2911 22.8016 30.0278 23.4375 30.0278 24.1005V28.7279C30.0278 29.5564 29.3562 30.2279 28.5278 30.2279H23.9005C23.2374 30.2279 22.6015 30.4913 22.1327 30.9601L18.8605 34.2322C18.2748 34.818 17.325 34.818 16.7392 34.2322L13.4673 30.9602C12.9984 30.4913 12.3625 30.2279 11.6995 30.2279H7.0721C6.24368 30.2279 5.5721 29.5564 5.5721 28.7279V24.1005C5.5721 23.4375 5.3087 22.8016 4.83985 22.3327L1.56773 19.0607C0.981931 18.4749 0.98193 17.5251 1.56773 16.9393L4.83985 13.6673C5.3087 13.1984 5.5721 12.5625 5.5721 11.8995V7.27207C5.5721 6.44365 6.24368 5.77207 7.0721 5.77207H11.6995C12.3625 5.77207 12.9984 5.50867 13.4673 5.03982L16.7392 1.76779C17.325 1.18199 18.2748 1.18198 18.8605 1.76776L22.1327 5.03986C22.6015 5.50869 23.2374 5.77207 23.9005 5.77207H28.5278C29.3562 5.77207 30.0278 6.44365 30.0278 7.27207V11.8995Z"
        fill="#E2FBED" stroke="#C5E1D3" />
    <path d="M8.85547 31.6665C8.85547 26.2221 10.1518 23.5647 10.7999 22.9165L18.5777 23.4026V31.6665H8.85547Z"
        fill="#32D194" />
    <path d="M18.5777 23.4026V31.6665H28.2999C28.2999 26.2221 27.0036 23.5647 26.3555 22.9165L18.5777 23.4026Z"
        fill="#32D194" />
    <path fill-rule="evenodd" clip-rule="evenodd"
        d="M18.8555 31.6665V23.3853L26.3555 22.9165C27.0036 23.5647 28.2999 26.2221 28.2999 31.6665H18.8555Z"
        fill="#25C487" />
    <path
        d="M12.7444 15.1388C12.55 9.69436 16.5523 8.33325 18.5777 8.33325C25.1888 8.91659 24.5731 16.03 23.4388 19.5138C24.6055 19.9027 25.2213 21.2962 25.3833 21.9444C25.7722 22.1388 26.1935 22.6735 26.3555 22.9166C26.5176 25.0231 25.1889 29.236 18.5777 29.236C11.9666 29.236 10.4759 25.0231 10.5569 22.9166C10.7514 22.3333 11.4481 22.0254 11.7722 21.9444C11.9666 20.7777 12.8254 19.8379 13.2305 19.5138C13.1495 19.1087 12.9389 17.6666 12.7444 15.1388Z"
        fill="#009F6C" />
    <path
        d="M18.5777 11.25C16.2444 11.25 15.0129 13.8426 14.6888 15.1389H22.4666C22.1425 13.8426 20.9111 11.25 18.5777 11.25Z"
        fill="#32D194" />
    <path
        d="M18.5777 20.486C15.2722 19.7082 14.6078 16.5971 14.6888 15.1388C15.0129 14.4906 16.2444 13.1943 18.5777 13.1943C20.911 13.1943 22.1425 14.4906 22.4666 15.1388C22.4666 19.0277 19.874 20.324 18.5777 20.486Z"
        fill="#FCD355" />
    <path fill-rule="evenodd" clip-rule="evenodd"
        d="M21.4887 14.0679C21.6476 17.366 19.7872 19.4905 18.8381 20.4414C20.1915 20.1498 22.4666 18.7819 22.4666 15.1389C22.3234 14.8525 22.003 14.4396 21.4887 14.0679Z"
        fill="#FBB121" />
</svg>