<svg width="35" height="36" viewBox="0 0 35 36" fill="none" xmlns="http://www.w3.org/2000/svg">
    <path
        d="M29.6277 11.8995C29.6277 12.5625 29.8911 13.1984 30.36 13.6673L33.6321 16.9393C34.2179 17.5251 34.2179 18.4749 33.6321 19.0607L30.36 22.3327C29.8911 22.8016 29.6277 23.4375 29.6277 24.1005V28.7279C29.6277 29.5564 28.9562 30.2279 28.1277 30.2279H23.5004C22.8374 30.2279 22.2015 30.4913 21.7327 30.9601L18.4605 34.2322C17.8747 34.818 16.925 34.818 16.3392 34.2322L13.0673 30.9602C12.5984 30.4913 11.9625 30.2279 11.2995 30.2279H6.67208C5.84365 30.2279 5.17208 29.5564 5.17208 28.7279V24.1005C5.17208 23.4375 4.90868 22.8016 4.43983 22.3327L1.16771 19.0607C0.581906 18.4749 0.581906 17.5251 1.16771 16.9393L4.43983 13.6673C4.90868 13.1984 5.17208 12.5625 5.17208 11.8995V7.27207C5.17208 6.44365 5.84365 5.77207 6.67208 5.77207H11.2995C11.9625 5.77207 12.5984 5.50867 13.0673 5.03982L16.3392 1.76779C16.925 1.18199 17.8747 1.18198 18.4605 1.76776L21.7327 5.03986C22.2015 5.50869 22.8374 5.77207 23.5004 5.77207H28.1277C28.9562 5.77207 29.6277 6.44365 29.6277 7.27207V11.8995Z"
        fill="#E2FBED" stroke="#C5E1D3" />
    <g clip-path="url(#clip0_3373_9734)">
        <path
            d="M26.7581 16.5373C26.6883 16.5372 26.6214 16.5095 26.572 16.4602C26.5227 16.4108 26.4949 16.3439 26.4949 16.2741V13.9621H24.0004C23.9309 13.9617 23.8645 13.9337 23.8155 13.8844C23.7665 13.8351 23.739 13.7685 23.739 13.699C23.739 13.6295 23.7665 13.5628 23.8155 13.5135C23.8645 13.4642 23.9309 13.4363 24.0004 13.4358H26.7581C26.8279 13.4358 26.8948 13.4636 26.9441 13.5129C26.9935 13.5623 27.0212 13.6292 27.0212 13.699V16.2741C27.0212 16.3439 26.9935 16.4108 26.9441 16.4602C26.8948 16.5095 26.8279 16.5372 26.7581 16.5373Z"
            fill="#1F2022" />
        <path
            d="M27.8998 15.2506V17.5425C27.9008 17.6467 27.8608 17.7471 27.7885 17.8221C27.7162 17.8972 27.6173 17.9408 27.5131 17.9436H26.0807C25.9765 17.9408 25.8776 17.8972 25.8052 17.8222C25.7329 17.7471 25.6929 17.6467 25.6939 17.5425V15.2506C25.6937 15.1997 25.7035 15.1493 25.7229 15.1023C25.7422 15.0553 25.7707 15.0125 25.8067 14.9766C25.8426 14.9406 25.8854 14.9121 25.9324 14.8928C25.9794 14.8734 26.0298 14.8636 26.0807 14.8638H27.5131C27.564 14.8636 27.6144 14.8734 27.6614 14.8928C27.7084 14.9122 27.7511 14.9406 27.7871 14.9766C27.823 15.0126 27.8515 15.0553 27.8709 15.1023C27.8902 15.1493 27.9001 15.1997 27.8998 15.2506Z"
            fill="#FBB121" />
        <path
            d="M8.03624 16.5373C8.10602 16.5372 8.17293 16.5095 8.22227 16.4602C8.27162 16.4108 8.29936 16.3439 8.29941 16.2741V13.9621H10.7939C10.8634 13.9617 10.9299 13.9337 10.9788 13.8844C11.0278 13.8351 11.0553 13.7685 11.0553 13.699C11.0553 13.6295 11.0278 13.5628 10.9788 13.5135C10.9299 13.4642 10.8634 13.4363 10.7939 13.4358H8.03624C7.96645 13.4358 7.89954 13.4636 7.8502 13.5129C7.80086 13.5623 7.77312 13.6292 7.77307 13.699V16.2741C7.77312 16.3439 7.80086 16.4108 7.8502 16.4602C7.89954 16.5095 7.96646 16.5372 8.03624 16.5373Z"
            fill="#1F2022" />
        <path
            d="M6.89992 15.2506C6.8997 15.1997 6.90955 15.1493 6.92891 15.1023C6.94826 15.0553 6.97674 15.0126 7.01269 14.9766C7.04864 14.9406 7.09136 14.9122 7.13837 14.8928C7.18539 14.8734 7.23577 14.8636 7.28662 14.8638H8.70485C8.7557 14.8636 8.80608 14.8734 8.8531 14.8928C8.90012 14.9122 8.94283 14.9406 8.97879 14.9766C9.01474 15.0126 9.04321 15.0553 9.06257 15.1023C9.08193 15.1493 9.09178 15.1997 9.09156 15.2506V17.5425C9.09253 17.6467 9.05255 17.7471 8.98023 17.8221C8.9079 17.8972 8.80901 17.9408 8.70485 17.9436H7.28662C7.18246 17.9408 7.08357 17.8972 7.01125 17.8221C6.93893 17.7471 6.89895 17.6467 6.89992 17.5425"
            fill="#FBB121" />
        <path
            d="M27.3555 15.2506V17.5425C27.3533 17.6482 27.3103 17.7489 27.2356 17.8236C27.1609 17.8984 27.0602 17.9414 26.9545 17.9436H26.0807C25.9765 17.9408 25.8776 17.8972 25.8052 17.8222C25.7329 17.7472 25.6929 17.6467 25.6939 17.5425V15.2506C25.6937 15.1997 25.7035 15.1493 25.7229 15.1023C25.7422 15.0553 25.7707 15.0126 25.8067 14.9766C25.8426 14.9406 25.8854 14.9122 25.9324 14.8928C25.9794 14.8734 26.0298 14.8636 26.0807 14.8638H26.9545C27.0587 14.8628 27.1591 14.9028 27.2341 14.9752C27.3091 15.0475 27.3527 15.1464 27.3555 15.2506Z"
            fill="#FCD355" />
        <path
            d="M6.89992 15.2506C6.8997 15.1997 6.90955 15.1493 6.92891 15.1023C6.94826 15.0553 6.97674 15.0126 7.01269 14.9766C7.04864 14.9406 7.09136 14.9122 7.13837 14.8928C7.18539 14.8734 7.23577 14.8636 7.28662 14.8638H8.16046C8.2113 14.8636 8.26169 14.8734 8.30871 14.8928C8.35572 14.9122 8.39844 14.9406 8.43439 14.9766C8.47034 15.0126 8.49882 15.0553 8.51817 15.1023C8.53753 15.1493 8.54738 15.1997 8.54716 15.2506V17.5425C8.54813 17.6467 8.50815 17.7471 8.43583 17.8221C8.36351 17.8972 8.26462 17.9408 8.16046 17.9436H7.28662C7.18246 17.9408 7.08357 17.8972 7.01125 17.8221C6.93893 17.7471 6.89895 17.6467 6.89992 17.5425"
            fill="#FCD355" />
        <path
            d="M15.0507 25.722V29.518C15.0495 29.7532 14.9556 29.9784 14.7893 30.1447C14.623 30.3111 14.3978 30.405 14.1626 30.4062H12.5725C12.3373 30.405 12.112 30.3111 11.9457 30.1447C11.7794 29.9784 11.6855 29.7532 11.6843 29.518V25.722C11.6852 25.6063 11.7088 25.4919 11.754 25.3853C11.7991 25.2788 11.8647 25.1821 11.9472 25.101C12.0297 25.0198 12.1274 24.9557 12.2347 24.9123C12.342 24.869 12.4567 24.8472 12.5725 24.8482H14.1626C14.2783 24.8472 14.3931 24.869 14.5003 24.9123C14.6076 24.9557 14.7053 25.0198 14.7878 25.101C14.8703 25.1821 14.9359 25.2788 14.9811 25.3853C15.0262 25.4919 15.0498 25.6063 15.0507 25.722Z"
            fill="#252328" />
        <path
            d="M23.1727 25.722V29.518C23.1716 29.7532 23.0776 29.9784 22.9113 30.1448C22.745 30.3111 22.5198 30.405 22.2846 30.4062H20.6945C20.4593 30.405 20.2341 30.3111 20.0678 30.1448C19.9015 29.9784 19.8076 29.7532 19.8064 29.518V25.722C19.8072 25.6063 19.8309 25.4919 19.876 25.3853C19.9211 25.2787 19.9868 25.1821 20.0693 25.101C20.1518 25.0198 20.2495 24.9557 20.3567 24.9123C20.464 24.8689 20.5788 24.8472 20.6945 24.8482H22.2845C22.4003 24.8471 22.5151 24.8689 22.6223 24.9123C22.7296 24.9557 22.8273 25.0198 22.9098 25.1009C22.9923 25.1821 23.058 25.2787 23.1031 25.3853C23.1482 25.4919 23.1719 25.6063 23.1727 25.722Z"
            fill="#252328" />
        <path
            d="M14.4633 25.722V29.5323C14.464 29.6473 14.4419 29.7613 14.3983 29.8676C14.3546 29.974 14.2903 30.0706 14.209 30.1519C14.1277 30.2332 14.0311 30.2976 13.9247 30.3412C13.8183 30.3848 13.7044 30.4069 13.5894 30.4062H12.5723C12.3371 30.405 12.1119 30.311 11.9456 30.1447C11.7793 29.9784 11.6854 29.7532 11.6842 29.518V25.722C11.6851 25.6063 11.7087 25.4919 11.7538 25.3853C11.7989 25.2788 11.8646 25.1821 11.9471 25.101C12.0296 25.0198 12.1273 24.9557 12.2346 24.9123C12.3418 24.869 12.4566 24.8472 12.5723 24.8482H13.5895C13.7045 24.8474 13.8184 24.8695 13.9248 24.9132C14.0311 24.9568 14.1278 25.0212 14.209 25.1024C14.2903 25.1837 14.3547 25.2804 14.3983 25.3867C14.4419 25.4931 14.464 25.6071 14.4633 25.722Z"
            fill="#252328" />
        <path
            d="M22.5854 25.722V29.5323C22.5862 29.6473 22.5641 29.7613 22.5204 29.8676C22.4768 29.974 22.4124 30.0706 22.3312 30.1519C22.2499 30.2332 22.1532 30.2975 22.0469 30.3412C21.9405 30.3848 21.8266 30.4069 21.7116 30.4062H20.6945C20.4593 30.405 20.2341 30.311 20.0678 30.1447C19.9015 29.9784 19.8076 29.7532 19.8064 29.518V25.722C19.8072 25.6063 19.8309 25.4919 19.876 25.3853C19.9211 25.2787 19.9868 25.1821 20.0693 25.101C20.1518 25.0198 20.2495 24.9557 20.3567 24.9123C20.464 24.8689 20.5788 24.8472 20.6945 24.8482H21.7115C21.8265 24.8474 21.9405 24.8695 22.0468 24.9131C22.1532 24.9568 22.2498 25.0211 22.3311 25.1024C22.4125 25.1837 22.4768 25.2803 22.5205 25.3867C22.5641 25.4931 22.5862 25.607 22.5854 25.722Z"
            fill="#252328" />
        <path
            d="M23.3734 12.0564H11.4839C10.487 12.0564 9.67896 12.8645 9.67896 13.8613V25.8224C9.67896 26.8193 10.487 27.6274 11.4839 27.6274H23.3734C24.3702 27.6274 25.1783 26.8193 25.1783 25.8224V13.8613C25.1783 12.8645 24.3702 12.0564 23.3734 12.0564Z"
            fill="#1FC787" />
        <path
            d="M11.4839 12.0562H22.2131C22.6918 12.0562 23.1509 12.2463 23.4894 12.5848C23.8279 12.9233 24.018 13.3824 24.018 13.8611V25.8222C24.018 26.3009 23.8279 26.76 23.4894 27.0985C23.1509 27.437 22.6918 27.6272 22.2131 27.6272H11.4838C11.0051 27.6272 10.5461 27.437 10.2076 27.0985C9.86911 26.7601 9.67896 26.301 9.67896 25.8223V13.8611C9.67895 13.6241 9.72563 13.3894 9.81633 13.1704C9.90704 12.9514 10.04 12.7524 10.2076 12.5848C10.3752 12.4172 10.5742 12.2843 10.7932 12.1935C11.0121 12.1028 11.2469 12.0562 11.4839 12.0562Z"
            fill="#32D194" />
        <path d="M25.1782 14.6633H24.0179V21.3674H25.1782V14.6633Z" fill="#FBB121" />
        <path d="M24.018 14.6633H9.67896V21.3674H24.018V18.0154V14.6633Z" fill="#FCD355" />
        <path
            d="M21.6257 11.2112V11.8702C21.6253 11.9428 21.6105 12.0145 21.5821 12.0813C21.5537 12.1481 21.5123 12.2086 21.4604 12.2593C21.4084 12.3099 21.3468 12.3498 21.2793 12.3764C21.2118 12.4031 21.1397 12.416 21.0671 12.4145H13.7901C13.7176 12.416 13.6454 12.4031 13.5779 12.3764C13.5104 12.3498 13.4488 12.31 13.3968 12.2593C13.3448 12.2087 13.3034 12.1482 13.275 12.0814C13.2467 12.0146 13.2318 11.9428 13.2314 11.8702V11.2112C13.2318 11.1386 13.2466 11.0668 13.275 11C13.3034 10.9332 13.3448 10.8727 13.3968 10.8221C13.4488 10.7714 13.5104 10.7316 13.5779 10.705C13.6454 10.6783 13.7176 10.6654 13.7901 10.6669H21.0671C21.1397 10.6654 21.2118 10.6783 21.2793 10.705C21.3469 10.7316 21.4084 10.7714 21.4604 10.8221C21.5124 10.8727 21.5538 10.9332 21.5821 11C21.6105 11.0668 21.6253 11.1386 21.6257 11.2112Z"
            fill="#FBB121" />
        <path
            d="M21.0384 11.2112V11.8702C21.0385 11.9417 21.0244 12.0125 20.9971 12.0785C20.9697 12.1446 20.9296 12.2046 20.8791 12.2552C20.8285 12.3057 20.7685 12.3458 20.7024 12.3732C20.6364 12.4005 20.5656 12.4146 20.4941 12.4145H13.7901C13.7176 12.416 13.6454 12.4031 13.5779 12.3764C13.5104 12.3498 13.4488 12.31 13.3968 12.2593C13.3448 12.2087 13.3034 12.1482 13.275 12.0814C13.2467 12.0146 13.2318 11.9428 13.2314 11.8702V11.2112C13.2318 11.1386 13.2466 11.0668 13.275 11C13.3034 10.9332 13.3448 10.8727 13.3968 10.8221C13.4488 10.7714 13.5104 10.7316 13.5779 10.705C13.6454 10.6783 13.7176 10.6654 13.7901 10.6669H20.4941C20.5656 10.6668 20.6364 10.6809 20.7024 10.7082C20.7685 10.7356 20.8285 10.7757 20.8791 10.8262C20.9296 10.8768 20.9697 10.9368 20.9971 11.0029C21.0244 11.0689 21.0385 11.1397 21.0384 11.2112Z"
            fill="#FCD355" />
        <path
            d="M13.3031 24.1321C13.3038 24.2471 13.2817 24.3611 13.2381 24.4674C13.1944 24.5738 13.1301 24.6704 13.0488 24.7517C12.9675 24.833 12.8709 24.8973 12.7645 24.941C12.6582 24.9846 12.5442 25.0067 12.4292 25.006C12.3858 25.0083 12.3422 25.0034 12.3003 24.9916H12.2573C12.0619 24.9527 11.8857 24.8481 11.758 24.6951C11.6304 24.5422 11.5589 24.3501 11.5555 24.1509C11.5522 23.9516 11.6172 23.7573 11.7396 23.6001C11.8621 23.4429 12.0347 23.3324 12.2287 23.287C12.2941 23.2694 12.3615 23.2598 12.4292 23.2583C12.6607 23.2592 12.8824 23.3516 13.0461 23.5153C13.2098 23.6789 13.3021 23.9007 13.3031 24.1321Z"
            fill="#FBB121" />
        <path
            d="M23.3017 24.1321C23.3008 24.3636 23.2084 24.5853 23.0448 24.749C22.8811 24.9127 22.6594 25.005 22.4279 25.006C22.3797 25.0091 22.3313 25.0042 22.2847 24.9916H22.256C22.0606 24.9527 21.8844 24.8481 21.7567 24.6951C21.629 24.5421 21.5575 24.3501 21.5542 24.1508C21.5509 23.9516 21.6158 23.7572 21.7383 23.6001C21.8608 23.4429 22.0334 23.3324 22.2274 23.287C22.2928 23.2694 22.3602 23.2598 22.4279 23.2583C22.6586 23.2617 22.8789 23.3548 23.0421 23.518C23.2052 23.6811 23.2984 23.9014 23.3017 24.1321Z"
            fill="#FBB121" />
        <path
            d="M21.153 23.4159V24.8484C21.1512 24.9846 21.0962 25.1147 20.9999 25.211C20.9036 25.3073 20.7735 25.3622 20.6373 25.3641H14.4203C14.2841 25.3622 14.154 25.3073 14.0577 25.211C13.9614 25.1147 13.9065 24.9846 13.9047 24.8484V23.4159C13.9047 23.3489 13.9181 23.2825 13.9442 23.2207C13.9703 23.1589 14.0085 23.103 14.0566 23.0563C14.1047 23.0095 14.1616 22.9729 14.2241 22.9486C14.2866 22.9242 14.3533 22.9126 14.4203 22.9145H20.6372C20.7043 22.9126 20.771 22.9242 20.8335 22.9485C20.896 22.9729 20.9529 23.0095 21.001 23.0563C21.0491 23.103 21.0874 23.1589 21.1135 23.2207C21.1396 23.2825 21.153 23.3489 21.153 23.4159Z"
            fill="white" />
        <path
            d="M20.6802 23.4159V24.8484C20.6784 24.9846 20.6235 25.1147 20.5271 25.211C20.4308 25.3073 20.3007 25.3622 20.1646 25.3641H14.4203C14.2841 25.3622 14.154 25.3073 14.0577 25.211C13.9614 25.1147 13.9065 24.9846 13.9047 24.8484V23.4159C13.9047 23.3489 13.9181 23.2825 13.9442 23.2207C13.9703 23.1589 14.0085 23.103 14.0566 23.0563C14.1047 23.0095 14.1616 22.9729 14.2241 22.9486C14.2866 22.9242 14.3533 22.9126 14.4203 22.9145H20.1646C20.2316 22.9126 20.2983 22.9242 20.3608 22.9486C20.4233 22.9729 20.4802 23.0096 20.5283 23.0563C20.5764 23.1031 20.6146 23.159 20.6407 23.2207C20.6668 23.2825 20.6802 23.3489 20.6802 23.4159Z"
            fill="white" />
        <path d="M21.153 23.645H13.9047V24.6191H21.153V23.645Z" fill="#FBB121" />
        <path
            d="M12.9879 24.1321C12.9884 24.3322 12.9205 24.5266 12.7955 24.6829C12.6704 24.8392 12.4957 24.9481 12.3003 24.9915H12.2573C12.0619 24.9526 11.8857 24.848 11.758 24.695C11.6304 24.542 11.5589 24.35 11.5555 24.1508C11.5522 23.9515 11.6172 23.7572 11.7396 23.6C11.8621 23.4428 12.0347 23.3323 12.2287 23.2869C12.4379 23.3076 12.6317 23.4058 12.7722 23.5622C12.9127 23.7186 12.9897 23.9218 12.9879 24.1321Z"
            fill="#FCD355" />
        <path
            d="M22.9866 24.1321C22.9867 24.3343 22.917 24.5304 22.789 24.6871C22.6611 24.8437 22.4829 24.9513 22.2847 24.9915H22.256C22.0606 24.9526 21.8844 24.848 21.7567 24.695C21.629 24.542 21.5575 24.3499 21.5542 24.1507C21.5509 23.9515 21.6158 23.7571 21.7383 23.6C21.8608 23.4428 22.0334 23.3323 22.2274 23.2869C22.4348 23.312 22.626 23.4115 22.7656 23.567C22.9052 23.7224 22.9837 23.9232 22.9866 24.1321Z"
            fill="#FCD355" />
        <path d="M20.8521 23.6592H13.9047V24.6189H20.8521V23.6592Z" fill="#FCD355" />
    </g>
    <defs>
        <clipPath id="clip0_3373_9734">
            <rect width="21" height="19.7395" fill="white" transform="translate(6.8999 10.6667)" />
        </clipPath>
    </defs>
</svg>